<svg version="1.1" viewBox="0.0 0.0 606.0 371.0" fill="none" stroke="none" stroke-linecap="square" stroke-miterlimit="10" width="606" height="371" xmlns:xlink="http://www.w3.org/1999/xlink" xmlns="http://www.w3.org/2000/svg"><path fill="#ffffff" d="M0 0L606.0 0L606.0 371.0L0 371.0L0 0Z" fill-rule="nonzero"/><path stroke="#333333" stroke-width="1.0" stroke-linecap="butt" d="M160.5 54.5L160.5 300.5" fill-rule="nonzero"/><path stroke="#cccccc" stroke-width="1.0" stroke-linecap="butt" d="M231.5 54.5L231.5 300.5" fill-rule="nonzero"/><path stroke="#cccccc" stroke-width="1.0" stroke-linecap="butt" d="M302.5 54.5L302.5 300.5" fill-rule="nonzero"/><path stroke="#cccccc" stroke-width="1.0" stroke-linecap="butt" d="M374.5 54.5L374.5 300.5" fill-rule="nonzero"/><path stroke="#cccccc" stroke-width="1.0" stroke-linecap="butt" d="M445.5 54.5L445.5 300.5" fill-rule="nonzero"/><path stroke="#cccccc" stroke-width="1.0" stroke-linecap="butt" d="M516.5 54.5L516.5 300.5" fill-rule="nonzero"/><path stroke="#cccccc" stroke-width="1.0" stroke-linecap="butt" d="M587.5 54.5L587.5 300.5" fill-rule="nonzero"/><clipPath id="id_0"><path d="M160.55 54.916668L587.45 54.916668L587.45 300.45L160.55 300.45L160.55 54.916668Z" clip-rule="nonzero"/></clipPath><path stroke="#000000" stroke-width="2.0" stroke-linecap="butt" stroke-opacity="0.0" clip-path="url(#id_0)" d="M161.0 112.0L161.0 75.0L186.0 75.0C187.10457 75.0 188.0 75.89543 188.0 77.0L188.0 110.0C188.0 111.10457 187.10457 112.0 186.0 112.0Z" fill-rule="nonzero"/><path fill="#4285f4" clip-path="url(#id_0)" d="M161.0 112.0L161.0 75.0L186.0 75.0C187.10457 75.0 188.0 75.89543 188.0 77.0L188.0 110.0C188.0 111.10457 187.10457 112.0 186.0 112.0Z" fill-rule="nonzero"/><path stroke="#000000" stroke-width="2.0" stroke-linecap="butt" stroke-opacity="0.0" clip-path="url(#id_0)" d="M161.0 168.0L161.0 131.0L194.0 131.0C195.10457 131.0 196.0 131.89543 196.0 133.0L196.0 166.0C196.0 167.10457 195.10457 168.0 194.0 168.0Z" fill-rule="nonzero"/><path fill="#4285f4" clip-path="url(#id_0)" d="M161.0 168.0L161.0 131.0L194.0 131.0C195.10457 131.0 196.0 131.89543 196.0 133.0L196.0 166.0C196.0 167.10457 195.10457 168.0 194.0 168.0Z" fill-rule="nonzero"/><path stroke="#000000" stroke-width="2.0" stroke-linecap="butt" stroke-opacity="0.0" clip-path="url(#id_0)" d="M161.0 225.0L161.0 188.0L377.0 188.0C378.10458 188.0 379.0 188.89543 379.0 190.0L379.0 223.0C379.0 224.10457 378.10458 225.0 377.0 225.0Z" fill-rule="nonzero"/><path fill="#4285f4" clip-path="url(#id_0)" d="M161.0 225.0L161.0 188.0L377.0 188.0C378.10458 188.0 379.0 188.89543 379.0 190.0L379.0 223.0C379.0 224.10457 378.10458 225.0 377.0 225.0Z" fill-rule="nonzero"/><path stroke="#000000" stroke-width="2.0" stroke-linecap="butt" stroke-opacity="0.0" clip-path="url(#id_0)" d="M161.0 281.0L161.0 244.0L542.0 244.0C543.10455 244.0 544.0 244.89543 544.0 246.0L544.0 279.0C544.0 280.10458 543.10455 281.0 542.0 281.0Z" fill-rule="nonzero"/><path fill="#4285f4" clip-path="url(#id_0)" d="M161.0 281.0L161.0 244.0L542.0 244.0C543.10455 244.0 544.0 244.89543 544.0 246.0L544.0 279.0C544.0 280.10458 543.10455 281.0 542.0 281.0Z" fill-rule="nonzero"/><path fill="#000000" d="M350.54688 346.6844L351.60938 346.59064Q351.6875 347.2469 351.96875 347.65314Q352.25 348.0594 352.82812 348.325Q353.42188 348.575 354.15625 348.575Q354.79688 348.575 355.29688 348.3875Q355.79688 348.1844 356.03125 347.85626Q356.28125 347.5125 356.28125 347.1219Q356.28125 346.71564 356.04688 346.41876Q355.8125 346.10626 355.28125 345.90314Q354.92188 345.7625 353.73438 345.48126Q352.5625 345.2 352.09375 344.95Q351.46875 344.6219 351.17188 344.15314Q350.875 343.66876 350.875 343.075Q350.875 342.4344 351.23438 341.8719Q351.60938 341.29376 352.3125 341.0125Q353.03125 340.71564 353.89062 340.71564Q354.84375 340.71564 355.57812 341.02814Q356.3125 341.325 356.70312 341.9344Q357.09375 342.52814 357.125 343.27814L356.03125 343.35626Q355.9375 342.54376 355.42188 342.1375Q354.92188 341.71564 353.9375 341.71564Q352.90625 341.71564 352.4375 342.09064Q351.96875 342.46564 351.96875 342.9969Q351.96875 343.46564 352.29688 343.7625Q352.625 344.0594 354.0 344.3719Q355.39062 344.6844 355.90625 344.91876Q356.65625 345.27814 357.01562 345.8094Q357.375 346.325 357.375 347.02814Q357.375 347.71564 356.98438 348.325Q356.59375 348.91876 355.85938 349.2625Q355.125 349.59064 354.20312 349.59064Q353.03125 349.59064 352.23438 349.2625Q351.45312 348.91876 351.0 348.23126Q350.5625 347.54376 350.54688 346.6844ZM363.04688 347.45L364.14062 347.575Q363.89062 348.52814 363.1875 349.0594Q362.48438 349.59064 361.40625 349.59064Q360.04688 349.59064 359.23438 348.7469Q358.4375 347.90314 358.4375 346.3875Q358.4375 344.825 359.25 343.96564Q360.0625 343.09064 361.34375 343.09064Q362.59375 343.09064 363.375 343.9344Q364.17188 344.77814 364.17188 346.325Q364.17188 346.41876 364.17188 346.60626L359.53125 346.60626Q359.59375 347.6375 360.10938 348.1844Q360.625 348.71564 361.40625 348.71564Q361.98438 348.71564 362.39062 348.41876Q362.8125 348.10626 363.04688 347.45ZM359.59375 345.7469L363.0625 345.7469Q363.0 344.95 362.67188 344.5594Q362.15625 343.95 361.35938 343.95Q360.625 343.95 360.125 344.4344Q359.64062 344.91876 359.59375 345.7469ZM369.85938 347.16876L370.89062 347.3094Q370.71875 348.3719 370.01562 348.98126Q369.3125 349.59064 368.29688 349.59064Q367.01562 349.59064 366.23438 348.7625Q365.46875 347.91876 365.46875 346.35626Q365.46875 345.35626 365.79688 344.60626Q366.14062 343.84064 366.8125 343.46564Q367.5 343.09064 368.3125 343.09064Q369.3125 343.09064 369.95312 343.60626Q370.60938 344.10626 370.79688 345.0594L369.76562 345.21564Q369.625 344.59064 369.25 344.27814Q368.875 343.95 368.34375 343.95Q367.54688 343.95 367.04688 344.52814Q366.54688 345.09064 366.54688 346.325Q366.54688 347.59064 367.03125 348.15314Q367.51562 348.71564 368.28125 348.71564Q368.90625 348.71564 369.3125 348.34064Q369.73438 347.96564 369.85938 347.16876ZM371.40625 346.34064Q371.40625 344.60626 372.35938 343.77814Q373.15625 343.09064 374.3125 343.09064Q375.59375 343.09064 376.40625 343.9344Q377.23438 344.7625 377.23438 346.2469Q377.23438 347.45 376.875 348.1375Q376.51562 348.825 375.8125 349.21564Q375.125 349.59064 374.3125 349.59064Q373.01562 349.59064 372.20312 348.7625Q371.40625 347.91876 371.40625 346.34064ZM372.48438 346.34064Q372.48438 347.52814 373.0 348.1219Q373.53125 348.71564 374.3125 348.71564Q375.10938 348.71564 375.625 348.1219Q376.14062 347.52814 376.14062 346.3094Q376.14062 345.15314 375.60938 344.5594Q375.09375 343.96564 374.3125 343.96564Q373.53125 343.96564 373.0 344.5594Q372.48438 345.1375 372.48438 346.34064ZM378.79688 349.45L378.79688 343.23126L379.73438 343.23126L379.73438 344.10626Q380.42188 343.09064 381.71875 343.09064Q382.28125 343.09064 382.75 343.29376Q383.23438 343.4969 383.46875 343.825Q383.70312 344.15314 383.79688 344.59064Q383.84375 344.8875 383.84375 345.6219L383.84375 349.45L382.79688 349.45L382.79688 345.66876Q382.79688 345.0125 382.67188 344.7Q382.54688 344.3875 382.23438 344.2Q381.92188 343.9969 381.5 343.9969Q380.82812 343.9969 380.32812 344.4344Q379.84375 344.85626 379.84375 346.04376L379.84375 349.45L378.79688 349.45ZM389.82812 349.45L389.82812 348.66876Q389.23438 349.59064 388.09375 349.59064Q387.34375 349.59064 386.71875 349.1844Q386.09375 348.7625 385.75 348.02814Q385.40625 347.29376 385.40625 346.34064Q385.40625 345.41876 385.71875 344.65314Q386.03125 343.8875 386.65625 343.4969Q387.28125 343.09064 388.04688 343.09064Q388.60938 343.09064 389.04688 343.325Q389.48438 343.5594 389.76562 343.9344L389.76562 340.85626L390.8125 340.85626L390.8125 349.45L389.82812 349.45ZM386.5 346.34064Q386.5 347.54376 387.0 348.1375Q387.5 348.71564 388.1875 348.71564Q388.875 348.71564 389.35938 348.15314Q389.84375 347.59064 389.84375 346.4344Q389.84375 345.15314 389.34375 344.5594Q388.85938 343.96564 388.14062 343.96564Q387.4375 343.96564 386.96875 344.54376Q386.5 345.10626 386.5 346.34064ZM392.375 347.59064L393.40625 347.4344Q393.5 348.0594 393.89062 348.3875Q394.29688 348.71564 395.03125 348.71564Q395.75 348.71564 396.09375 348.4344Q396.45312 348.1375 396.45312 347.73126Q396.45312 347.3719 396.14062 347.16876Q395.92188 347.02814 395.0625 346.8094Q393.90625 346.5125 393.45312 346.3094Q393.01562 346.09064 392.78125 345.71564Q392.54688 345.34064 392.54688 344.8719Q392.54688 344.46564 392.73438 344.10626Q392.92188 343.7469 393.25 343.5125Q393.5 343.34064 393.92188 343.21564Q394.34375 343.09064 394.84375 343.09064Q395.5625 343.09064 396.10938 343.3094Q396.67188 343.5125 396.9375 343.8719Q397.20312 344.23126 397.29688 344.825L396.26562 344.96564Q396.20312 344.4969 395.85938 344.23126Q395.53125 343.95 394.90625 343.95Q394.1875 343.95 393.875 344.2Q393.5625 344.4344 393.5625 344.7625Q393.5625 344.96564 393.6875 345.1219Q393.82812 345.29376 394.09375 345.40314Q394.25 345.46564 395.03125 345.66876Q396.15625 345.98126 396.59375 346.16876Q397.03125 346.35626 397.28125 346.71564Q397.53125 347.075 397.53125 347.6219Q397.53125 348.15314 397.21875 348.6219Q396.92188 349.075 396.34375 349.34064Q395.76562 349.59064 395.03125 349.59064Q393.8125 349.59064 393.17188 349.09064Q392.54688 348.575 392.375 347.59064Z" fill-rule="nonzero"/><path fill="#000000" d="M26.534388 209.12083L26.831263 207.99583Q28.221888 208.35521 28.956263 209.27708Q29.690638 210.19896 29.690638 211.54271Q29.690638 212.93333 29.128138 213.80833Q28.565638 214.68333 27.503138 215.13646Q26.425013 215.58958 25.190638 215.58958Q23.846888 215.58958 22.846888 215.07396Q21.846888 214.55833 21.331263 213.62083Q20.815638 212.66771 20.815638 211.52708Q20.815638 210.24583 21.471888 209.37083Q22.128138 208.48021 23.315638 208.13646L23.581263 209.26146Q22.643763 209.55833 22.221888 210.13646Q21.784388 210.69896 21.784388 211.55833Q21.784388 212.54271 22.268763 213.21458Q22.737513 213.87083 23.534388 214.15208Q24.331263 214.41771 25.190638 214.41771Q26.284388 214.41771 27.096888 214.10521Q27.909388 213.77708 28.315638 213.10521Q28.721888 212.43333 28.721888 211.63646Q28.721888 210.68333 28.175013 210.02708Q27.628138 209.35521 26.534388 209.12083ZM26.440638 206.77708Q24.706263 206.77708 23.878138 205.82396Q23.190638 205.02708 23.190638 203.87083Q23.190638 202.58958 24.034388 201.77708Q24.862513 200.94896 26.346888 200.94896Q27.550013 200.94896 28.237513 201.30833Q28.925013 201.66771 29.315638 202.37083Q29.690638 203.05833 29.690638 203.87083Q29.690638 205.16771 28.862513 205.98021Q28.018763 206.77708 26.440638 206.77708ZM26.440638 205.69896Q27.628138 205.69896 28.221888 205.18333Q28.815638 204.65208 28.815638 203.87083Q28.815638 203.07396 28.221888 202.55833Q27.628138 202.04271 26.409388 202.04271Q25.253138 202.04271 24.659388 202.57396Q24.065638 203.08958 24.065638 203.87083Q24.065638 204.65208 24.659388 205.18333Q25.237513 205.69896 26.440638 205.69896ZM29.550013 199.38646L23.331263 199.38646L23.331263 198.44896L24.206263 198.44896Q23.737513 198.15208 23.471888 197.66771Q23.190638 197.18333 23.190638 196.55833Q23.190638 195.87083 23.471888 195.43333Q23.753138 194.98021 24.268763 194.80833Q23.190638 194.05833 23.190638 192.88646Q23.190638 191.94896 23.706263 191.46458Q24.206263 190.96458 25.284388 190.96458L29.550013 190.96458L29.550013 192.01146L25.628138 192.01146Q25.003138 192.01146 24.721888 192.12083Q24.440638 192.21458 24.268763 192.48021Q24.096888 192.74583 24.096888 193.12083Q24.096888 193.77708 24.534388 194.21458Q24.971888 194.63646 25.940638 194.63646L29.550013 194.63646L29.550013 195.69896L25.503138 195.69896Q24.800013 195.69896 24.456263 195.96458Q24.096888 196.21458 24.096888 196.79271Q24.096888 197.24583 24.331263 197.62083Q24.565638 197.99583 25.018763 198.16771Q25.471888 198.33958 26.315638 198.33958L29.550013 198.33958L29.550013 199.38646ZM29.550013 189.38646L23.331263 189.38646L23.331263 188.44896L24.206263 188.44896Q23.737513 188.15208 23.471888 187.66771Q23.190638 187.18333 23.190638 186.55833Q23.190638 185.87083 23.471888 185.43333Q23.753138 184.98021 24.268763 184.80833Q23.190638 184.05833 23.190638 182.88646Q23.190638 181.94896 23.706263 181.46458Q24.206263 180.96458 25.284388 180.96458L29.550013 180.96458L29.550013 182.01146L25.628138 182.01146Q25.003138 182.01146 24.721888 182.12083Q24.440638 182.21458 24.268763 182.48021Q24.096888 182.74583 24.096888 183.12083Q24.096888 183.77708 24.534388 184.21458Q24.971888 184.63646 25.940638 184.63646L29.550013 184.63646L29.550013 185.69896L25.503138 185.69896Q24.800013 185.69896 24.456263 185.96458Q24.096888 186.21458 24.096888 186.79271Q24.096888 187.24583 24.331263 187.62083Q24.565638 187.99583 25.018763 188.16771Q25.471888 188.33958 26.315638 188.33958L29.550013 188.33958L29.550013 189.38646ZM28.784388 175.32396Q29.284388 175.91771 29.487513 176.46458Q29.690638 176.99583 29.690638 177.62083Q29.690638 178.65208 29.190638 179.19896Q28.690638 179.74583 27.909388 179.74583Q27.456263 179.74583 27.081263 179.54271Q26.690638 179.33958 26.471888 178.99583Q26.237513 178.65208 26.128138 178.23021Q26.034388 177.93333 25.956263 177.29271Q25.815638 176.02708 25.596888 175.41771Q25.378138 175.41771 25.331263 175.41771Q24.675013 175.41771 24.409388 175.71458Q24.065638 176.12083 24.065638 176.91771Q24.065638 177.65208 24.331263 178.01146Q24.581263 178.37083 25.237513 178.54271L25.096888 179.57396Q24.440638 179.43333 24.034388 179.10521Q23.628138 178.77708 23.409388 178.16771Q23.190638 177.55833 23.190638 176.76146Q23.190638 175.96458 23.378138 175.46458Q23.565638 174.96458 23.846888 174.73021Q24.128138 174.49583 24.565638 174.40208Q24.831263 174.35521 25.534388 174.35521L26.940638 174.35521Q28.409388 174.35521 28.800013 174.29271Q29.190638 174.21458 29.550013 174.01146L29.550013 175.12083Q29.221888 175.27708 28.784388 175.32396ZM26.425013 175.41771Q26.659388 175.99583 26.831263 177.13646Q26.925013 177.79271 27.050013 178.05833Q27.159388 178.32396 27.378138 178.48021Q27.596888 178.62083 27.878138 178.62083Q28.300013 178.62083 28.581263 178.30833Q28.862513 177.98021 28.862513 177.37083Q28.862513 176.76146 28.596888 176.29271Q28.331263 175.80833 27.862513 175.58958Q27.503138 175.41771 26.815638 175.41771L26.425013 175.41771ZM29.550013 172.38646L23.331263 172.38646L23.331263 171.44896L24.206263 171.44896Q23.190638 170.76146 23.190638 169.46458Q23.190638 168.90208 23.393763 168.43333Q23.596888 167.94896 23.925013 167.71458Q24.253138 167.48021 24.690638 167.38646Q24.987513 167.33958 25.721888 167.33958L29.550013 167.33958L29.550013 168.38646L25.768763 168.38646Q25.112513 168.38646 24.800013 168.51146Q24.487513 168.63646 24.300013 168.94896Q24.096888 169.26146 24.096888 169.68333Q24.096888 170.35521 24.534388 170.85521Q24.956263 171.33958 26.143763 171.33958L29.550013 171.33958L29.550013 172.38646ZM29.550013 161.35521L28.768763 161.35521Q29.690638 161.94896 29.690638 163.08958Q29.690638 163.83958 29.284388 164.46458Q28.862513 165.08958 28.128138 165.43333Q27.393763 165.77708 26.440638 165.77708Q25.518763 165.77708 24.753138 165.46458Q23.987513 165.15208 23.596888 164.52708Q23.190638 163.90208 23.190638 163.13646Q23.190638 162.57396 23.425013 162.13646Q23.659388 161.69896 24.034388 161.41771L20.956263 161.41771L20.956263 160.37083L29.550013 160.37083L29.550013 161.35521ZM26.440638 164.68333Q27.643763 164.68333 28.237513 164.18333Q28.815638 163.68333 28.815638 162.99583Q28.815638 162.30833 28.253138 161.82396Q27.690638 161.33958 26.534388 161.33958Q25.253138 161.33958 24.659388 161.83958Q24.065638 162.32396 24.065638 163.04271Q24.065638 163.74583 24.643763 164.21458Q25.206263 164.68333 26.440638 164.68333Z" fill-rule="nonzero"/><path fill="#000000" d="M53.64375 96.07917L53.8 97.001045Q53.346874 97.094795 53.003124 97.094795Q52.425 97.094795 52.1125 96.92292Q51.8 96.73542 51.659374 96.438545Q51.534374 96.14167 51.534374 95.188545L51.534374 91.61042L50.76875 91.61042L50.76875 90.79792L51.534374 90.79792L51.534374 89.251045L52.58125 88.626045L52.58125 90.79792L53.64375 90.79792L53.64375 91.61042L52.58125 91.61042L52.58125 95.251045Q52.58125 95.70417 52.628124 95.82917Q52.690624 95.95417 52.815624 96.032295Q52.940624 96.11042 53.175 96.11042Q53.3625 96.11042 53.64375 96.07917ZM58.409374 96.251045Q57.815624 96.751045 57.26875 96.95417Q56.7375 97.157295 56.1125 97.157295Q55.08125 97.157295 54.534374 96.657295Q53.9875 96.157295 53.9875 95.376045Q53.9875 94.92292 54.190624 94.54792Q54.39375 94.157295 54.7375 93.938545Q55.08125 93.70417 55.503124 93.594795Q55.8 93.501045 56.440624 93.42292Q57.70625 93.282295 58.315624 93.063545Q58.315624 92.844795 58.315624 92.79792Q58.315624 92.14167 58.01875 91.876045Q57.6125 91.532295 56.815624 91.532295Q56.08125 91.532295 55.721874 91.79792Q55.3625 92.04792 55.190624 92.70417L54.159374 92.563545Q54.3 91.907295 54.628124 91.501045Q54.95625 91.094795 55.565624 90.876045Q56.175 90.657295 56.971874 90.657295Q57.76875 90.657295 58.26875 90.844795Q58.76875 91.032295 59.003124 91.313545Q59.2375 91.594795 59.33125 92.032295Q59.378124 92.29792 59.378124 93.001045L59.378124 94.407295Q59.378124 95.876045 59.440624 96.26667Q59.51875 96.657295 59.721874 97.01667L58.6125 97.01667Q58.45625 96.688545 58.409374 96.251045ZM58.315624 93.89167Q57.7375 94.126045 56.596874 94.29792Q55.940624 94.39167 55.675 94.51667Q55.409374 94.626045 55.253124 94.844795Q55.1125 95.063545 55.1125 95.344795Q55.1125 95.76667 55.425 96.04792Q55.753124 96.32917 56.3625 96.32917Q56.971874 96.32917 57.440624 96.063545Q57.925 95.79792 58.14375 95.32917Q58.315624 94.969795 58.315624 94.282295L58.315624 93.89167ZM61.33125 97.01667L61.33125 90.79792L62.284374 90.79792L62.284374 91.73542Q62.64375 91.07917 62.940624 90.876045Q63.253124 90.657295 63.628124 90.657295Q64.15938 90.657295 64.70625 90.98542L64.34688 91.969795Q63.95625 91.73542 63.58125 91.73542Q63.221874 91.73542 62.940624 91.95417Q62.675 92.157295 62.565624 92.532295Q62.378124 93.094795 62.378124 93.751045L62.378124 97.01667L61.33125 97.01667ZM68.65938 99.54792L68.65938 88.282295L69.56563 88.282295L69.56563 99.54792L68.65938 99.54792ZM74.14375 97.532295L75.175 97.688545Q75.2375 98.157295 75.53438 98.376045Q75.925 98.67292 76.59688 98.67292Q77.33125 98.67292 77.72188 98.376045Q78.12813 98.07917 78.26875 97.563545Q78.3625 97.23542 78.34688 96.20417Q77.65938 97.01667 76.62813 97.01667Q75.34688 97.01667 74.64375 96.094795Q73.94063 95.157295 73.94063 93.876045Q73.94063 92.98542 74.25313 92.23542Q74.58125 91.469795 75.19063 91.063545Q75.8 90.657295 76.62813 90.657295Q77.7375 90.657295 78.45625 91.54792L78.45625 90.79792L79.425 90.79792L79.425 96.17292Q79.425 97.626045 79.12813 98.23542Q78.83125 98.844795 78.19063 99.188545Q77.55 99.54792 76.6125 99.54792Q75.50313 99.54792 74.81563 99.04792Q74.12813 98.54792 74.14375 97.532295ZM75.01875 93.79792Q75.01875 95.01667 75.50313 95.57917Q75.9875 96.14167 76.72188 96.14167Q77.45625 96.14167 77.94063 95.57917Q78.44063 95.01667 78.44063 93.82917Q78.44063 92.688545 77.925 92.11042Q77.425 91.532295 76.70625 91.532295Q76.00313 91.532295 75.50313 92.11042Q75.01875 92.67292 75.01875 93.79792ZM80.78438 97.01667L80.78438 96.157295L84.75313 91.61042Q84.06563 91.64167 83.55 91.64167L81.01875 91.64167L81.01875 90.79792L86.1125 90.79792L86.1125 91.48542L82.7375 95.438545L82.08125 96.157295Q82.8 96.11042 83.40938 96.11042L86.3 96.11042L86.3 97.01667L80.78438 97.01667ZM87.34688 89.64167L87.34688 88.42292L88.40938 88.42292L88.40938 89.64167L87.34688 89.64167ZM87.34688 97.01667L87.34688 90.79792L88.40938 90.79792L88.40938 97.01667L87.34688 97.01667ZM90.34688 99.407295L90.34688 90.79792L91.3 90.79792L91.3 91.594795Q91.64375 91.126045 92.06563 90.89167Q92.50313 90.657295 93.1125 90.657295Q93.90938 90.657295 94.51875 91.063545Q95.12813 91.469795 95.425 92.219795Q95.7375 92.969795 95.7375 93.86042Q95.7375 94.813545 95.39375 95.57917Q95.06563 96.344795 94.40938 96.751045Q93.75313 97.157295 93.03438 97.157295Q92.50313 97.157295 92.08125 96.938545Q91.65938 96.70417 91.39375 96.376045L91.39375 99.407295L90.34688 99.407295ZM91.3 93.938545Q91.3 95.14167 91.78438 95.719795Q92.26875 96.282295 92.95625 96.282295Q93.65938 96.282295 94.15938 95.688545Q94.65938 95.094795 94.65938 93.844795Q94.65938 92.657295 94.175 92.07917Q93.69063 91.48542 93.00313 91.48542Q92.33125 91.48542 91.81563 92.11042Q91.3 92.73542 91.3 93.938545ZM100.65938 99.54792L100.65938 88.282295L101.56563 88.282295L101.56563 99.54792L100.65938 99.54792ZM106.14375 97.532295L107.175 97.688545Q107.2375 98.157295 107.53438 98.376045Q107.925 98.67292 108.59688 98.67292Q109.33125 98.67292 109.72188 98.376045Q110.12813 98.07917 110.26875 97.563545Q110.3625 97.23542 110.34688 96.20417Q109.65938 97.01667 108.62813 97.01667Q107.34688 97.01667 106.64375 96.094795Q105.94063 95.157295 105.94063 93.876045Q105.94063 92.98542 106.25313 92.23542Q106.58125 91.469795 107.19063 91.063545Q107.8 90.657295 108.62813 90.657295Q109.7375 90.657295 110.45625 91.54792L110.45625 90.79792L111.425 90.79792L111.425 96.17292Q111.425 97.626045 111.12813 98.23542Q110.83125 98.844795 110.19063 99.188545Q109.55 99.54792 108.6125 99.54792Q107.50313 99.54792 106.81563 99.04792Q106.12813 98.54792 106.14375 97.532295ZM107.01875 93.79792Q107.01875 95.01667 107.50313 95.57917Q107.9875 96.14167 108.72188 96.14167Q109.45625 96.14167 109.94063 95.57917Q110.44063 95.01667 110.44063 93.82917Q110.44063 92.688545 109.925 92.11042Q109.425 91.532295 108.70625 91.532295Q108.00313 91.532295 107.50313 92.11042Q107.01875 92.67292 107.01875 93.79792ZM113.34688 99.407295L113.34688 90.79792L114.3 90.79792L114.3 91.594795Q114.64375 91.126045 115.06563 90.89167Q115.50313 90.657295 116.1125 90.657295Q116.90938 90.657295 117.51875 91.063545Q118.12813 91.469795 118.425 92.219795Q118.7375 92.969795 118.7375 93.86042Q118.7375 94.813545 118.39375 95.57917Q118.06563 96.344795 117.40938 96.751045Q116.75313 97.157295 116.03438 97.157295Q115.50313 97.157295 115.08125 96.938545Q114.65938 96.70417 114.39375 96.376045L114.39375 99.407295L113.34688 99.407295ZM114.3 93.938545Q114.3 95.14167 114.78438 95.719795Q115.26875 96.282295 115.95625 96.282295Q116.65938 96.282295 117.15938 95.688545Q117.65938 95.094795 117.65938 93.844795Q117.65938 92.657295 117.175 92.07917Q116.69063 91.48542 116.00313 91.48542Q115.33125 91.48542 114.81563 92.11042Q114.3 92.73542 114.3 93.938545ZM120.14375 97.532295L121.175 97.688545Q121.2375 98.157295 121.53438 98.376045Q121.925 98.67292 122.59688 98.67292Q123.33125 98.67292 123.72188 98.376045Q124.12813 98.07917 124.26875 97.563545Q124.3625 97.23542 124.34688 96.20417Q123.65938 97.01667 122.62813 97.01667Q121.34688 97.01667 120.64375 96.094795Q119.94063 95.157295 119.94063 93.876045Q119.94063 92.98542 120.25313 92.23542Q120.58125 91.469795 121.19063 91.063545Q121.8 90.657295 122.62813 90.657295Q123.7375 90.657295 124.45625 91.54792L124.45625 90.79792L125.425 90.79792L125.425 96.17292Q125.425 97.626045 125.12813 98.23542Q124.83125 98.844795 124.19063 99.188545Q123.55 99.54792 122.6125 99.54792Q121.50313 99.54792 120.81563 99.04792Q120.12813 98.54792 120.14375 97.532295ZM121.01875 93.79792Q121.01875 95.01667 121.50313 95.57917Q121.9875 96.14167 122.72188 96.14167Q123.45625 96.14167 123.94063 95.57917Q124.44063 95.01667 124.44063 93.82917Q124.44063 92.688545 123.925 92.11042Q123.425 91.532295 122.70625 91.532295Q122.00313 91.532295 121.50313 92.11042Q121.01875 92.67292 121.01875 93.79792ZM130.65938 99.54792L130.65938 88.282295L131.56563 88.282295L131.56563 99.54792L130.65938 99.54792ZM135.925 95.157295L136.95625 95.001045Q137.05 95.626045 137.44063 95.95417Q137.84688 96.282295 138.58125 96.282295Q139.3 96.282295 139.64375 96.001045Q140.00313 95.70417 140.00313 95.29792Q140.00313 94.938545 139.69063 94.73542Q139.47188 94.594795 138.6125 94.376045Q137.45625 94.07917 137.00313 93.876045Q136.56563 93.657295 136.33125 93.282295Q136.09688 92.907295 136.09688 92.438545Q136.09688 92.032295 136.28438 91.67292Q136.47188 91.313545 136.8 91.07917Q137.05 90.907295 137.47188 90.782295Q137.89375 90.657295 138.39375 90.657295Q139.1125 90.657295 139.65938 90.876045Q140.22188 91.07917 140.4875 91.438545Q140.75313 91.79792 140.84688 92.39167L139.81563 92.532295Q139.75313 92.063545 139.40938 91.79792Q139.08125 91.51667 138.45625 91.51667Q137.7375 91.51667 137.425 91.76667Q137.1125 92.001045 137.1125 92.32917Q137.1125 92.532295 137.2375 92.688545Q137.37813 92.86042 137.64375 92.969795Q137.8 93.032295 138.58125 93.23542Q139.70625 93.54792 140.14375 93.73542Q140.58125 93.92292 140.83125 94.282295Q141.08125 94.64167 141.08125 95.188545Q141.08125 95.719795 140.76875 96.188545Q140.47188 96.64167 139.89375 96.907295Q139.31563 97.157295 138.58125 97.157295Q137.3625 97.157295 136.72188 96.657295Q136.09688 96.14167 135.925 95.157295ZM141.925 95.157295L142.95625 95.001045Q143.05 95.626045 143.44063 95.95417Q143.84688 96.282295 144.58125 96.282295Q145.3 96.282295 145.64375 96.001045Q146.00313 95.70417 146.00313 95.29792Q146.00313 94.938545 145.69063 94.73542Q145.47188 94.594795 144.6125 94.376045Q143.45625 94.07917 143.00313 93.876045Q142.56563 93.657295 142.33125 93.282295Q142.09688 92.907295 142.09688 92.438545Q142.09688 92.032295 142.28438 91.67292Q142.47188 91.313545 142.8 91.07917Q143.05 90.907295 143.47188 90.782295Q143.89375 90.657295 144.39375 90.657295Q145.1125 90.657295 145.65938 90.876045Q146.22188 91.07917 146.4875 91.438545Q146.75313 91.79792 146.84688 92.39167L145.81563 92.532295Q145.75313 92.063545 145.40938 91.79792Q145.08125 91.51667 144.45625 91.51667Q143.7375 91.51667 143.425 91.76667Q143.1125 92.001045 143.1125 92.32917Q143.1125 92.532295 143.2375 92.688545Q143.37813 92.86042 143.64375 92.969795Q143.8 93.032295 144.58125 93.23542Q145.70625 93.54792 146.14375 93.73542Q146.58125 93.92292 146.83125 94.282295Q147.08125 94.64167 147.08125 95.188545Q147.08125 95.719795 146.76875 96.188545Q146.47188 96.64167 145.89375 96.907295Q145.31563 97.157295 144.58125 97.157295Q143.3625 97.157295 142.72188 96.657295Q142.09688 96.14167 141.925 95.157295ZM148.34688 97.01667L148.34688 88.42292L149.39375 88.42292L149.39375 91.501045Q150.12813 90.657295 151.25313 90.657295Q151.95625 90.657295 152.45625 90.938545Q152.97188 91.20417 153.19063 91.688545Q153.40938 92.157295 153.40938 93.07917L153.40938 97.01667L152.3625 97.01667L152.3625 93.07917Q152.3625 92.282295 152.01875 91.92292Q151.675 91.563545 151.05 91.563545Q150.58125 91.563545 150.15938 91.813545Q149.75313 92.04792 149.56563 92.469795Q149.39375 92.876045 149.39375 93.61042L149.39375 97.01667L148.34688 97.01667Z" fill-rule="nonzero"/><path fill="#000000" d="M86.31563 153.4611L85.33125 153.4611L85.33125 144.86736L86.39375 144.86736L86.39375 147.92986Q87.06563 147.10173 88.09688 147.10173Q88.675 147.10173 89.175 147.3361Q89.69063 147.55486 90.01875 147.97673Q90.3625 148.3986 90.55 148.99236Q90.7375 149.5861 90.7375 150.25798Q90.7375 151.85173 89.94063 152.72673Q89.14375 153.60173 88.05 153.60173Q86.94063 153.60173 86.31563 152.67986L86.31563 153.4611ZM86.3 150.30486Q86.3 151.41423 86.6125 151.91423Q87.1125 152.72673 87.95625 152.72673Q88.64375 152.72673 89.14375 152.13298Q89.65938 151.53923 89.65938 150.3361Q89.65938 149.11736 89.175 148.53923Q88.69063 147.9611 88.00313 147.9611Q87.31563 147.9611 86.8 148.57048Q86.3 149.16423 86.3 150.30486ZM96.425 153.4611L96.425 152.53923Q95.69063 153.60173 94.44063 153.60173Q93.89375 153.60173 93.40938 153.3986Q92.94063 153.17986 92.70625 152.86736Q92.47188 152.53923 92.37813 152.07048Q92.31563 151.7736 92.31563 151.0861L92.31563 147.24236L93.37813 147.24236L93.37813 150.69548Q93.37813 151.50798 93.44063 151.80486Q93.53438 152.2111 93.84688 152.4611Q94.175 152.69548 94.65938 152.69548Q95.12813 152.69548 95.53438 152.4611Q95.95625 152.2111 96.12813 151.78923Q96.31563 151.36736 96.31563 150.57048L96.31563 147.24236L97.3625 147.24236L97.3625 153.4611L96.425 153.4611ZM99.34688 155.85173L99.34688 147.24236L100.3 147.24236L100.3 148.03923Q100.64375 147.57048 101.06563 147.3361Q101.50313 147.10173 102.1125 147.10173Q102.90938 147.10173 103.51875 147.50798Q104.12813 147.91423 104.425 148.66423Q104.7375 149.41423 104.7375 150.30486Q104.7375 151.25798 104.39375 152.0236Q104.06563 152.78923 103.40938 153.19548Q102.75313 153.60173 102.03438 153.60173Q101.50313 153.60173 101.08125 153.38298Q100.65938 153.1486 100.39375 152.82048L100.39375 155.85173L99.34688 155.85173ZM100.3 150.38298Q100.3 151.5861 100.78438 152.16423Q101.26875 152.72673 101.95625 152.72673Q102.65938 152.72673 103.15938 152.13298Q103.65938 151.53923 103.65938 150.28923Q103.65938 149.10173 103.175 148.5236Q102.69063 147.92986 102.00313 147.92986Q101.33125 147.92986 100.81563 148.55486Q100.3 149.17986 100.3 150.38298ZM105.925 151.60173L106.95625 151.44548Q107.05 152.07048 107.44063 152.3986Q107.84688 152.72673 108.58125 152.72673Q109.3 152.72673 109.64375 152.44548Q110.00313 152.1486 110.00313 151.74236Q110.00313 151.38298 109.69063 151.17986Q109.47188 151.03923 108.6125 150.82048Q107.45625 150.5236 107.00313 150.32048Q106.56563 150.10173 106.33125 149.72673Q106.09688 149.35173 106.09688 148.88298Q106.09688 148.47673 106.28438 148.11736Q106.47188 147.75798 106.8 147.5236Q107.05 147.35173 107.47188 147.22673Q107.89375 147.10173 108.39375 147.10173Q109.1125 147.10173 109.65938 147.32048Q110.22188 147.5236 110.4875 147.88298Q110.75313 148.24236 110.84688 148.8361L109.81563 148.97673Q109.75313 148.50798 109.40938 148.24236Q109.08125 147.9611 108.45625 147.9611Q107.7375 147.9611 107.425 148.2111Q107.1125 148.44548 107.1125 148.7736Q107.1125 148.97673 107.2375 149.13298Q107.37813 149.30486 107.64375 149.41423Q107.8 149.47673 108.58125 149.67986Q109.70625 149.99236 110.14375 150.17986Q110.58125 150.36736 110.83125 150.72673Q111.08125 151.0861 111.08125 151.63298Q111.08125 152.16423 110.76875 152.63298Q110.47188 153.0861 109.89375 153.35173Q109.31563 153.60173 108.58125 153.60173Q107.3625 153.60173 106.72188 153.10173Q106.09688 152.5861 105.925 151.60173ZM114.64375 152.5236L114.8 153.44548Q114.34688 153.53923 114.00313 153.53923Q113.425 153.53923 113.1125 153.36736Q112.8 153.17986 112.65938 152.88298Q112.53438 152.5861 112.53438 151.63298L112.53438 148.05486L111.76875 148.05486L111.76875 147.24236L112.53438 147.24236L112.53438 145.69548L113.58125 145.07048L113.58125 147.24236L114.64375 147.24236L114.64375 148.05486L113.58125 148.05486L113.58125 151.69548Q113.58125 152.1486 113.62813 152.2736Q113.69063 152.3986 113.81563 152.47673Q113.94063 152.55486 114.175 152.55486Q114.3625 152.55486 114.64375 152.5236ZM119.40938 152.69548Q118.81563 153.19548 118.26875 153.3986Q117.7375 153.60173 117.1125 153.60173Q116.08125 153.60173 115.53438 153.10173Q114.9875 152.60173 114.9875 151.82048Q114.9875 151.36736 115.19063 150.99236Q115.39375 150.60173 115.7375 150.38298Q116.08125 150.1486 116.50313 150.03923Q116.8 149.94548 117.44063 149.86736Q118.70625 149.72673 119.31563 149.50798Q119.31563 149.28923 119.31563 149.24236Q119.31563 148.5861 119.01875 148.32048Q118.6125 147.97673 117.81563 147.97673Q117.08125 147.97673 116.72188 148.24236Q116.3625 148.49236 116.19063 149.1486L115.15938 149.00798Q115.3 148.35173 115.62813 147.94548Q115.95625 147.53923 116.56563 147.32048Q117.175 147.10173 117.97188 147.10173Q118.76875 147.10173 119.26875 147.28923Q119.76875 147.47673 120.00313 147.75798Q120.2375 148.03923 120.33125 148.47673Q120.37813 148.74236 120.37813 149.44548L120.37813 150.85173Q120.37813 152.32048 120.44063 152.7111Q120.51875 153.10173 120.72188 153.4611L119.6125 153.4611Q119.45625 153.13298 119.40938 152.69548ZM119.31563 150.3361Q118.7375 150.57048 117.59688 150.74236Q116.94063 150.8361 116.675 150.9611Q116.40938 151.07048 116.25313 151.28923Q116.1125 151.50798 116.1125 151.78923Q116.1125 152.2111 116.425 152.49236Q116.75313 152.7736 117.3625 152.7736Q117.97188 152.7736 118.44063 152.50798Q118.925 152.24236 119.14375 151.7736Q119.31563 151.41423 119.31563 150.72673L119.31563 150.3361ZM121.925 151.60173L122.95625 151.44548Q123.05 152.07048 123.44063 152.3986Q123.84688 152.72673 124.58125 152.72673Q125.3 152.72673 125.64375 152.44548Q126.00313 152.1486 126.00313 151.74236Q126.00313 151.38298 125.69063 151.17986Q125.47188 151.03923 124.6125 150.82048Q123.45625 150.5236 123.00313 150.32048Q122.56563 150.10173 122.33125 149.72673Q122.09688 149.35173 122.09688 148.88298Q122.09688 148.47673 122.28438 148.11736Q122.47188 147.75798 122.8 147.5236Q123.05 147.35173 123.47188 147.22673Q123.89375 147.10173 124.39375 147.10173Q125.1125 147.10173 125.65938 147.32048Q126.22188 147.5236 126.4875 147.88298Q126.75313 148.24236 126.84688 148.8361L125.81563 148.97673Q125.75313 148.50798 125.40938 148.24236Q125.08125 147.9611 124.45625 147.9611Q123.7375 147.9611 123.425 148.2111Q123.1125 148.44548 123.1125 148.7736Q123.1125 148.97673 123.2375 149.13298Q123.37813 149.30486 123.64375 149.41423Q123.8 149.47673 124.58125 149.67986Q125.70625 149.99236 126.14375 150.17986Q126.58125 150.36736 126.83125 150.72673Q127.08125 151.0861 127.08125 151.63298Q127.08125 152.16423 126.76875 152.63298Q126.47188 153.0861 125.89375 153.35173Q125.31563 153.60173 124.58125 153.60173Q123.3625 153.60173 122.72188 153.10173Q122.09688 152.5861 121.925 151.60173ZM128.34688 153.4611L128.34688 144.86736L129.39375 144.86736L129.39375 147.94548Q130.12813 147.10173 131.25313 147.10173Q131.95625 147.10173 132.45625 147.38298Q132.97188 147.6486 133.19063 148.13298Q133.40938 148.60173 133.40938 149.5236L133.40938 153.4611L132.3625 153.4611L132.3625 149.5236Q132.3625 148.72673 132.01875 148.36736Q131.675 148.00798 131.05 148.00798Q130.58125 148.00798 130.15938 148.25798Q129.75313 148.49236 129.56563 148.91423Q129.39375 149.32048 129.39375 150.05486L129.39375 153.4611L128.34688 153.4611ZM138.34688 155.85173L138.34688 147.24236L139.3 147.24236L139.3 148.03923Q139.64375 147.57048 140.06563 147.3361Q140.50313 147.10173 141.1125 147.10173Q141.90938 147.10173 142.51875 147.50798Q143.12813 147.91423 143.425 148.66423Q143.7375 149.41423 143.7375 150.30486Q143.7375 151.25798 143.39375 152.0236Q143.06563 152.78923 142.40938 153.19548Q141.75313 153.60173 141.03438 153.60173Q140.50313 153.60173 140.08125 153.38298Q139.65938 153.1486 139.39375 152.82048L139.39375 155.85173L138.34688 155.85173ZM139.3 150.38298Q139.3 151.5861 139.78438 152.16423Q140.26875 152.72673 140.95625 152.72673Q141.65938 152.72673 142.15938 152.13298Q142.65938 151.53923 142.65938 150.28923Q142.65938 149.10173 142.175 148.5236Q141.69063 147.92986 141.00313 147.92986Q140.33125 147.92986 139.81563 148.55486Q139.3 149.17986 139.3 150.38298ZM149.425 153.4611L149.425 152.53923Q148.69063 153.60173 147.44063 153.60173Q146.89375 153.60173 146.40938 153.3986Q145.94063 153.17986 145.70625 152.86736Q145.47188 152.53923 145.37813 152.07048Q145.31563 151.7736 145.31563 151.0861L145.31563 147.24236L146.37813 147.24236L146.37813 150.69548Q146.37813 151.50798 146.44063 151.80486Q146.53438 152.2111 146.84688 152.4611Q147.175 152.69548 147.65938 152.69548Q148.12813 152.69548 148.53438 152.4611Q148.95625 152.2111 149.12813 151.78923Q149.31563 151.36736 149.31563 150.57048L149.31563 147.24236L150.3625 147.24236L150.3625 153.4611L149.425 153.4611ZM154.64375 152.5236L154.8 153.44548Q154.34688 153.53923 154.00313 153.53923Q153.425 153.53923 153.1125 153.36736Q152.8 153.17986 152.65938 152.88298Q152.53438 152.5861 152.53438 151.63298L152.53438 148.05486L151.76875 148.05486L151.76875 147.24236L152.53438 147.24236L152.53438 145.69548L153.58125 145.07048L153.58125 147.24236L154.64375 147.24236L154.64375 148.05486L153.58125 148.05486L153.58125 151.69548Q153.58125 152.1486 153.62813 152.2736Q153.69063 152.3986 153.81563 152.47673Q153.94063 152.55486 154.175 152.55486Q154.3625 152.55486 154.64375 152.5236Z" fill-rule="nonzero"/><path fill="#000000" d="M83.33125 209.90555L83.33125 203.6868L84.28438 203.6868L84.28438 204.6243Q84.64375 203.96805 84.94063 203.76492Q85.25313 203.54617 85.62813 203.54617Q86.15938 203.54617 86.70625 203.8743L86.34688 204.85867Q85.95625 204.6243 85.58125 204.6243Q85.22188 204.6243 84.94063 204.84305Q84.675 205.04617 84.56563 205.42117Q84.37813 205.98367 84.37813 206.63992L84.37813 209.90555L83.33125 209.90555ZM91.59688 207.90555L92.69063 208.03055Q92.44063 208.98367 91.7375 209.51492Q91.03438 210.04617 89.95625 210.04617Q88.59688 210.04617 87.78438 209.20242Q86.9875 208.35867 86.9875 206.84305Q86.9875 205.28055 87.8 204.42117Q88.6125 203.54617 89.89375 203.54617Q91.14375 203.54617 91.925 204.38992Q92.72188 205.23367 92.72188 206.78055Q92.72188 206.8743 92.72188 207.0618L88.08125 207.0618Q88.14375 208.09305 88.65938 208.63992Q89.175 209.17117 89.95625 209.17117Q90.53438 209.17117 90.94063 208.8743Q91.3625 208.5618 91.59688 207.90555ZM88.14375 206.20242L91.6125 206.20242Q91.55 205.40555 91.22188 205.01492Q90.70625 204.40555 89.90938 204.40555Q89.175 204.40555 88.675 204.88992Q88.19063 205.3743 88.14375 206.20242ZM93.925 208.04617L94.95625 207.88992Q95.05 208.51492 95.44063 208.84305Q95.84688 209.17117 96.58125 209.17117Q97.3 209.17117 97.64375 208.88992Q98.00313 208.59305 98.00313 208.1868Q98.00313 207.82742 97.69063 207.6243Q97.47188 207.48367 96.6125 207.26492Q95.45625 206.96805 95.00313 206.76492Q94.56563 206.54617 94.33125 206.17117Q94.09688 205.79617 94.09688 205.32742Q94.09688 204.92117 94.28438 204.5618Q94.47188 204.20242 94.8 203.96805Q95.05 203.79617 95.47188 203.67117Q95.89375 203.54617 96.39375 203.54617Q97.1125 203.54617 97.65938 203.76492Q98.22188 203.96805 98.4875 204.32742Q98.75313 204.6868 98.84688 205.28055L97.81563 205.42117Q97.75313 204.95242 97.40938 204.6868Q97.08125 204.40555 96.45625 204.40555Q95.7375 204.40555 95.425 204.65555Q95.1125 204.88992 95.1125 205.21805Q95.1125 205.42117 95.2375 205.57742Q95.37813 205.7493 95.64375 205.85867Q95.8 205.92117 96.58125 206.1243Q97.70625 206.4368 98.14375 206.6243Q98.58125 206.8118 98.83125 207.17117Q99.08125 207.53055 99.08125 208.07742Q99.08125 208.60867 98.76875 209.07742Q98.47188 209.53055 97.89375 209.79617Q97.31563 210.04617 96.58125 210.04617Q95.3625 210.04617 94.72188 209.54617Q94.09688 209.03055 93.925 208.04617ZM102.64375 208.96805L102.8 209.88992Q102.34688 209.98367 102.00313 209.98367Q101.425 209.98367 101.1125 209.8118Q100.8 209.6243 100.65938 209.32742Q100.53438 209.03055 100.53438 208.07742L100.53438 204.4993L99.76875 204.4993L99.76875 203.6868L100.53438 203.6868L100.53438 202.13992L101.58125 201.51492L101.58125 203.6868L102.64375 203.6868L102.64375 204.4993L101.58125 204.4993L101.58125 208.13992Q101.58125 208.59305 101.62813 208.71805Q101.69063 208.84305 101.81563 208.92117Q101.94063 208.9993 102.175 208.9993Q102.3625 208.9993 102.64375 208.96805ZM103.34688 202.53055L103.34688 201.3118L104.40938 201.3118L104.40938 202.53055L103.34688 202.53055ZM103.34688 209.90555L103.34688 203.6868L104.40938 203.6868L104.40938 209.90555L103.34688 209.90555ZM110.40938 207.6243L111.44063 207.76492Q111.26875 208.82742 110.56563 209.4368Q109.8625 210.04617 108.84688 210.04617Q107.56563 210.04617 106.78438 209.21805Q106.01875 208.3743 106.01875 206.8118Q106.01875 205.8118 106.34688 205.0618Q106.69063 204.29617 107.3625 203.92117Q108.05 203.54617 108.8625 203.54617Q109.8625 203.54617 110.50313 204.0618Q111.15938 204.5618 111.34688 205.51492L110.31563 205.67117Q110.175 205.04617 109.8 204.73367Q109.425 204.40555 108.89375 204.40555Q108.09688 204.40555 107.59688 204.98367Q107.09688 205.54617 107.09688 206.78055Q107.09688 208.04617 107.58125 208.60867Q108.06563 209.17117 108.83125 209.17117Q109.45625 209.17117 109.8625 208.79617Q110.28438 208.42117 110.40938 207.6243ZM116.31563 209.90555L115.33125 209.90555L115.33125 201.3118L116.39375 201.3118L116.39375 204.3743Q117.06563 203.54617 118.09688 203.54617Q118.675 203.54617 119.175 203.78055Q119.69063 203.9993 120.01875 204.42117Q120.3625 204.84305 120.55 205.4368Q120.7375 206.03055 120.7375 206.70242Q120.7375 208.29617 119.94063 209.17117Q119.14375 210.04617 118.05 210.04617Q116.94063 210.04617 116.31563 209.1243L116.31563 209.90555ZM116.3 206.7493Q116.3 207.85867 116.6125 208.35867Q117.1125 209.17117 117.95625 209.17117Q118.64375 209.17117 119.14375 208.57742Q119.65938 207.98367 119.65938 206.78055Q119.65938 205.5618 119.175 204.98367Q118.69063 204.40555 118.00313 204.40555Q117.31563 204.40555 116.8 205.01492Q116.3 205.60867 116.3 206.7493ZM126.40938 209.13992Q125.81563 209.63992 125.26875 209.84305Q124.7375 210.04617 124.1125 210.04617Q123.08125 210.04617 122.53438 209.54617Q121.9875 209.04617 121.9875 208.26492Q121.9875 207.8118 122.19063 207.4368Q122.39375 207.04617 122.7375 206.82742Q123.08125 206.59305 123.50313 206.48367Q123.8 206.38992 124.44063 206.3118Q125.70625 206.17117 126.31563 205.95242Q126.31563 205.73367 126.31563 205.6868Q126.31563 205.03055 126.01875 204.76492Q125.6125 204.42117 124.81563 204.42117Q124.08125 204.42117 123.72188 204.6868Q123.3625 204.9368 123.19063 205.59305L122.15938 205.45242Q122.3 204.79617 122.62813 204.38992Q122.95625 203.98367 123.56563 203.76492Q124.175 203.54617 124.97188 203.54617Q125.76875 203.54617 126.26875 203.73367Q126.76875 203.92117 127.00313 204.20242Q127.2375 204.48367 127.33125 204.92117Q127.37813 205.1868 127.37813 205.88992L127.37813 207.29617Q127.37813 208.76492 127.44063 209.15555Q127.51875 209.54617 127.72188 209.90555L126.6125 209.90555Q126.45625 209.57742 126.40938 209.13992ZM126.31563 206.78055Q125.7375 207.01492 124.59688 207.1868Q123.94063 207.28055 123.675 207.40555Q123.40938 207.51492 123.25313 207.73367Q123.1125 207.95242 123.1125 208.23367Q123.1125 208.65555 123.425 208.9368Q123.75313 209.21805 124.3625 209.21805Q124.97188 209.21805 125.44063 208.95242Q125.925 208.6868 126.14375 208.21805Q126.31563 207.85867 126.31563 207.17117L126.31563 206.78055ZM133.40938 207.6243L134.44063 207.76492Q134.26875 208.82742 133.56563 209.4368Q132.8625 210.04617 131.84688 210.04617Q130.56563 210.04617 129.78438 209.21805Q129.01875 208.3743 129.01875 206.8118Q129.01875 205.8118 129.34688 205.0618Q129.69063 204.29617 130.3625 203.92117Q131.05 203.54617 131.8625 203.54617Q132.8625 203.54617 133.50313 204.0618Q134.15938 204.5618 134.34688 205.51492L133.31563 205.67117Q133.175 205.04617 132.8 204.73367Q132.425 204.40555 131.89375 204.40555Q131.09688 204.40555 130.59688 204.98367Q130.09688 205.54617 130.09688 206.78055Q130.09688 208.04617 130.58125 208.60867Q131.06563 209.17117 131.83125 209.17117Q132.45625 209.17117 132.8625 208.79617Q133.28438 208.42117 133.40938 207.6243ZM135.34688 209.90555L135.34688 201.3118L136.40938 201.3118L136.40938 206.21805L138.89375 203.6868L140.26875 203.6868L137.87813 205.98367L140.50313 209.90555L139.20625 209.90555L137.14375 206.71805L136.40938 207.4368L136.40938 209.90555L135.34688 209.90555ZM145.425 209.90555L145.425 208.98367Q144.69063 210.04617 143.44063 210.04617Q142.89375 210.04617 142.40938 209.84305Q141.94063 209.6243 141.70625 209.3118Q141.47188 208.98367 141.37813 208.51492Q141.31563 208.21805 141.31563 207.53055L141.31563 203.6868L142.37813 203.6868L142.37813 207.13992Q142.37813 207.95242 142.44063 208.2493Q142.53438 208.65555 142.84688 208.90555Q143.175 209.13992 143.65938 209.13992Q144.12813 209.13992 144.53438 208.90555Q144.95625 208.65555 145.12813 208.23367Q145.31563 207.8118 145.31563 207.01492L145.31563 203.6868L146.3625 203.6868L146.3625 209.90555L145.425 209.90555ZM148.34688 212.29617L148.34688 203.6868L149.3 203.6868L149.3 204.48367Q149.64375 204.01492 150.06563 203.78055Q150.50313 203.54617 151.1125 203.54617Q151.90938 203.54617 152.51875 203.95242Q153.12813 204.35867 153.425 205.10867Q153.7375 205.85867 153.7375 206.7493Q153.7375 207.70242 153.39375 208.46805Q153.06563 209.23367 152.40938 209.63992Q151.75313 210.04617 151.03438 210.04617Q150.50313 210.04617 150.08125 209.82742Q149.65938 209.59305 149.39375 209.26492L149.39375 212.29617L148.34688 212.29617ZM149.3 206.82742Q149.3 208.03055 149.78438 208.60867Q150.26875 209.17117 150.95625 209.17117Q151.65938 209.17117 152.15938 208.57742Q152.65938 207.98367 152.65938 206.73367Q152.65938 205.54617 152.175 204.96805Q151.69063 204.3743 151.00313 204.3743Q150.33125 204.3743 149.81563 204.9993Q149.3 205.6243 149.3 206.82742Z" fill-rule="nonzero"/><path fill="#000000" d="M94.31563 266.35L93.33125 266.35L93.33125 257.75626L94.39375 257.75626L94.39375 260.81876Q95.06563 259.99063 96.09688 259.99063Q96.675 259.99063 97.175 260.225Q97.69063 260.44376 98.01875 260.86563Q98.3625 261.2875 98.55 261.88126Q98.7375 262.475 98.7375 263.14688Q98.7375 264.74063 97.94063 265.61563Q97.14375 266.49063 96.05 266.49063Q94.94063 266.49063 94.31563 265.56876L94.31563 266.35ZM94.3 263.19376Q94.3 264.30313 94.6125 264.80313Q95.1125 265.61563 95.95625 265.61563Q96.64375 265.61563 97.14375 265.02188Q97.65938 264.42813 97.65938 263.225Q97.65938 262.00626 97.175 261.42813Q96.69063 260.85 96.00313 260.85Q95.31563 260.85 94.8 261.45938Q94.3 262.05313 94.3 263.19376ZM99.95625 263.24063Q99.95625 261.50626 100.90938 260.67813Q101.70625 259.99063 102.8625 259.99063Q104.14375 259.99063 104.95625 260.83438Q105.78438 261.6625 105.78438 263.14688Q105.78438 264.35 105.425 265.0375Q105.06563 265.725 104.3625 266.11563Q103.675 266.49063 102.8625 266.49063Q101.56563 266.49063 100.75313 265.6625Q99.95625 264.81876 99.95625 263.24063ZM101.03438 263.24063Q101.03438 264.42813 101.55 265.02188Q102.08125 265.61563 102.8625 265.61563Q103.65938 265.61563 104.175 265.02188Q104.69063 264.42813 104.69063 263.20938Q104.69063 262.05313 104.15938 261.45938Q103.64375 260.86563 102.8625 260.86563Q102.08125 260.86563 101.55 261.45938Q101.03438 262.0375 101.03438 263.24063ZM107.33125 266.35L107.33125 260.13126L108.28438 260.13126L108.28438 261.06876Q108.64375 260.4125 108.94063 260.20938Q109.25313 259.99063 109.62813 259.99063Q110.15938 259.99063 110.70625 260.31876L110.34688 261.30313Q109.95625 261.06876 109.58125 261.06876Q109.22188 261.06876 108.94063 261.2875Q108.675 261.49063 108.56563 261.86563Q108.37813 262.42813 108.37813 263.08438L108.37813 266.35L107.33125 266.35ZM111.14375 266.86563L112.175 267.02188Q112.2375 267.49063 112.53438 267.70938Q112.925 268.00626 113.59688 268.00626Q114.33125 268.00626 114.72188 267.70938Q115.12813 267.4125 115.26875 266.89688Q115.3625 266.56876 115.34688 265.5375Q114.65938 266.35 113.62813 266.35Q112.34688 266.35 111.64375 265.42813Q110.94063 264.49063 110.94063 263.20938Q110.94063 262.31876 111.25313 261.56876Q111.58125 260.80313 112.19063 260.39688Q112.8 259.99063 113.62813 259.99063Q114.7375 259.99063 115.45625 260.88126L115.45625 260.13126L116.425 260.13126L116.425 265.50626Q116.425 266.95938 116.12813 267.56876Q115.83125 268.17813 115.19063 268.52188Q114.55 268.88126 113.6125 268.88126Q112.50313 268.88126 111.81563 268.38126Q111.12813 267.88126 111.14375 266.86563ZM112.01875 263.13126Q112.01875 264.35 112.50313 264.9125Q112.9875 265.475 113.72188 265.475Q114.45625 265.475 114.94063 264.9125Q115.44063 264.35 115.44063 263.1625Q115.44063 262.02188 114.925 261.44376Q114.425 260.86563 113.70625 260.86563Q113.00313 260.86563 112.50313 261.44376Q112.01875 262.00626 112.01875 263.13126ZM125.40938 264.06876L126.44063 264.20938Q126.26875 265.27188 125.56563 265.88126Q124.8625 266.49063 123.84688 266.49063Q122.56563 266.49063 121.78438 265.6625Q121.01875 264.81876 121.01875 263.25626Q121.01875 262.25626 121.34688 261.50626Q121.69063 260.74063 122.3625 260.36563Q123.05 259.99063 123.8625 259.99063Q124.8625 259.99063 125.50313 260.50626Q126.15938 261.00626 126.34688 261.95938L125.31563 262.11563Q125.175 261.49063 124.8 261.17813Q124.425 260.85 123.89375 260.85Q123.09688 260.85 122.59688 261.42813Q122.09688 261.99063 122.09688 263.225Q122.09688 264.49063 122.58125 265.05313Q123.06563 265.61563 123.83125 265.61563Q124.45625 265.61563 124.8625 265.24063Q125.28438 264.86563 125.40938 264.06876ZM127.33125 266.35L127.33125 260.13126L128.28438 260.13126L128.28438 261.06876Q128.64375 260.4125 128.94063 260.20938Q129.25313 259.99063 129.62813 259.99063Q130.15938 259.99063 130.70625 260.31876L130.34688 261.30313Q129.95625 261.06876 129.58125 261.06876Q129.22188 261.06876 128.94063 261.2875Q128.675 261.49063 128.56563 261.86563Q128.37813 262.42813 128.37813 263.08438L128.37813 266.35L127.33125 266.35ZM135.59688 264.35L136.69063 264.475Q136.44063 265.42813 135.7375 265.95938Q135.03438 266.49063 133.95625 266.49063Q132.59688 266.49063 131.78438 265.64688Q130.9875 264.80313 130.9875 263.2875Q130.9875 261.725 131.8 260.86563Q132.6125 259.99063 133.89375 259.99063Q135.14375 259.99063 135.925 260.83438Q136.72188 261.67813 136.72188 263.225Q136.72188 263.31876 136.72188 263.50626L132.08125 263.50626Q132.14375 264.5375 132.65938 265.08438Q133.175 265.61563 133.95625 265.61563Q134.53438 265.61563 134.94063 265.31876Q135.3625 265.00626 135.59688 264.35ZM132.14375 262.64688L135.6125 262.64688Q135.55 261.85 135.22188 261.45938Q134.70625 260.85 133.90938 260.85Q133.175 260.85 132.675 261.33438Q132.19063 261.81876 132.14375 262.64688ZM142.40938 265.58438Q141.81563 266.08438 141.26875 266.2875Q140.7375 266.49063 140.1125 266.49063Q139.08125 266.49063 138.53438 265.99063Q137.9875 265.49063 137.9875 264.70938Q137.9875 264.25626 138.19063 263.88126Q138.39375 263.49063 138.7375 263.27188Q139.08125 263.0375 139.50313 262.92813Q139.8 262.83438 140.44063 262.75626Q141.70625 262.61563 142.31563 262.39688Q142.31563 262.17813 142.31563 262.13126Q142.31563 261.475 142.01875 261.20938Q141.6125 260.86563 140.81563 260.86563Q140.08125 260.86563 139.72188 261.13126Q139.3625 261.38126 139.19063 262.0375L138.15938 261.89688Q138.3 261.24063 138.62813 260.83438Q138.95625 260.42813 139.56563 260.20938Q140.175 259.99063 140.97188 259.99063Q141.76875 259.99063 142.26875 260.17813Q142.76875 260.36563 143.00313 260.64688Q143.2375 260.92813 143.33125 261.36563Q143.37813 261.63126 143.37813 262.33438L143.37813 263.74063Q143.37813 265.20938 143.44063 265.6Q143.51875 265.99063 143.72188 266.35L142.6125 266.35Q142.45625 266.02188 142.40938 265.58438ZM142.31563 263.225Q141.7375 263.45938 140.59688 263.63126Q139.94063 263.725 139.675 263.85Q139.40938 263.95938 139.25313 264.17813Q139.1125 264.39688 139.1125 264.67813Q139.1125 265.1 139.425 265.38126Q139.75313 265.6625 140.3625 265.6625Q140.97188 265.6625 141.44063 265.39688Q141.925 265.13126 142.14375 264.6625Q142.31563 264.30313 142.31563 263.61563L142.31563 263.225ZM147.64375 265.4125L147.8 266.33438Q147.34688 266.42813 147.00313 266.42813Q146.425 266.42813 146.1125 266.25626Q145.8 266.06876 145.65938 265.77188Q145.53438 265.475 145.53438 264.52188L145.53438 260.94376L144.76875 260.94376L144.76875 260.13126L145.53438 260.13126L145.53438 258.58438L146.58125 257.95938L146.58125 260.13126L147.64375 260.13126L147.64375 260.94376L146.58125 260.94376L146.58125 264.58438Q146.58125 265.0375 146.62813 265.1625Q146.69063 265.2875 146.81563 265.36563Q146.94063 265.44376 147.175 265.44376Q147.3625 265.44376 147.64375 265.4125ZM152.59688 264.35L153.69063 264.475Q153.44063 265.42813 152.7375 265.95938Q152.03438 266.49063 150.95625 266.49063Q149.59688 266.49063 148.78438 265.64688Q147.9875 264.80313 147.9875 263.2875Q147.9875 261.725 148.8 260.86563Q149.6125 259.99063 150.89375 259.99063Q152.14375 259.99063 152.925 260.83438Q153.72188 261.67813 153.72188 263.225Q153.72188 263.31876 153.72188 263.50626L149.08125 263.50626Q149.14375 264.5375 149.65938 265.08438Q150.175 265.61563 150.95625 265.61563Q151.53438 265.61563 151.94063 265.31876Q152.3625 265.00626 152.59688 264.35ZM149.14375 262.64688L152.6125 262.64688Q152.55 261.85 152.22188 261.45938Q151.70625 260.85 150.90938 260.85Q150.175 260.85 149.675 261.33438Q149.19063 261.81876 149.14375 262.64688Z" fill-rule="nonzero"/><path fill="#000000" d="M157.55 313.21564Q157.55 311.6844 157.8625 310.7625Q158.175 309.825 158.78438 309.325Q159.40938 308.825 160.34688 308.825Q161.03438 308.825 161.55 309.10626Q162.08125 309.3875 162.425 309.91876Q162.76875 310.4344 162.95625 311.1844Q163.14375 311.9344 163.14375 313.21564Q163.14375 314.73126 162.83125 315.65314Q162.53438 316.575 161.90938 317.09064Q161.3 317.59064 160.34688 317.59064Q159.1125 317.59064 158.39375 316.7Q157.55 315.6375 157.55 313.21564ZM158.62813 313.21564Q158.62813 315.325 159.12813 316.02814Q159.62813 316.73126 160.34688 316.73126Q161.08125 316.73126 161.56563 316.02814Q162.06563 315.325 162.06563 313.21564Q162.06563 311.09064 161.56563 310.40314Q161.08125 309.7 160.33125 309.7Q159.6125 309.7 159.175 310.3094Q158.62813 311.09064 158.62813 313.21564Z" fill-rule="nonzero"/><path fill="#000000" d="M234.24687 316.4344L234.24687 317.45L228.55937 317.45Q228.55937 317.075 228.68437 316.71564Q228.90312 316.1375 229.37187 315.575Q229.85625 315.0125 230.7625 314.27814Q232.16875 313.1219 232.65312 312.45Q233.15312 311.77814 233.15312 311.1844Q233.15312 310.5594 232.7 310.1375Q232.24687 309.7 231.52812 309.7Q230.7625 309.7 230.30937 310.15314Q229.85625 310.60626 229.84062 311.41876L228.7625 311.3094Q228.87187 310.09064 229.59062 309.46564Q230.325 308.825 231.55937 308.825Q232.79375 308.825 233.5125 309.5125Q234.23125 310.2 234.23125 311.21564Q234.23125 311.73126 234.0125 312.23126Q233.80937 312.71564 233.30937 313.27814Q232.825 313.825 231.7 314.77814Q230.74687 315.575 230.46562 315.8719Q230.2 316.15314 230.02812 316.4344L234.24687 316.4344Z" fill-rule="nonzero"/><path fill="#000000" d="M303.225 317.45L303.225 315.3875L299.50626 315.3875L299.50626 314.41876L303.42813 308.85626L304.2875 308.85626L304.2875 314.41876L305.44376 314.41876L305.44376 315.3875L304.2875 315.3875L304.2875 317.45L303.225 317.45ZM303.225 314.41876L303.225 310.5594L300.5375 314.41876L303.225 314.41876Z" fill-rule="nonzero"/><path fill="#000000" d="M376.46875 310.96564L375.42188 311.04376Q375.28125 310.41876 375.03125 310.1375Q374.59375 309.6844 373.96875 309.6844Q373.46875 309.6844 373.07812 309.96564Q372.59375 310.34064 372.29688 311.04376Q372.01562 311.73126 372.0 313.0125Q372.375 312.4344 372.92188 312.15314Q373.48438 311.8719 374.09375 311.8719Q375.14062 311.8719 375.875 312.65314Q376.625 313.4344 376.625 314.65314Q376.625 315.46564 376.26562 316.16876Q375.92188 316.85626 375.3125 317.23126Q374.70312 317.59064 373.9375 317.59064Q372.60938 317.59064 371.78125 316.6219Q370.95312 315.65314 370.95312 313.4344Q370.95312 310.9344 371.875 309.8094Q372.67188 308.825 374.03125 308.825Q375.04688 308.825 375.6875 309.40314Q376.34375 309.96564 376.46875 310.96564ZM372.17188 314.66876Q372.17188 315.21564 372.39062 315.71564Q372.625 316.2 373.03125 316.46564Q373.45312 316.73126 373.92188 316.73126Q374.57812 316.73126 375.0625 316.2Q375.54688 315.65314 375.54688 314.73126Q375.54688 313.84064 375.0625 313.325Q374.59375 312.8094 373.875 312.8094Q373.15625 312.8094 372.65625 313.325Q372.17188 313.84064 372.17188 314.66876Z" fill-rule="nonzero"/><path fill="#000000" d="M443.775 312.79376Q443.11874 312.54376 442.79062 312.10626Q442.47812 311.65314 442.47812 311.04376Q442.47812 310.10626 443.15 309.46564Q443.8375 308.825 444.94687 308.825Q446.07187 308.825 446.75937 309.48126Q447.44687 310.1375 447.44687 311.075Q447.44687 311.66876 447.13437 312.10626Q446.82187 312.54376 446.18124 312.79376Q446.97812 313.04376 447.38437 313.6219Q447.79062 314.2 447.79062 314.9969Q447.79062 316.09064 447.00937 316.84064Q446.24374 317.59064 444.9625 317.59064Q443.69687 317.59064 442.91562 316.84064Q442.13437 316.09064 442.13437 314.96564Q442.13437 314.1219 442.55624 313.5594Q442.99374 312.9969 443.775 312.79376ZM443.55624 310.9969Q443.55624 311.60626 443.94687 311.9969Q444.35312 312.3875 444.97812 312.3875Q445.5875 312.3875 445.97812 312.0125Q446.36874 311.6219 446.36874 311.0594Q446.36874 310.48126 445.9625 310.09064Q445.55624 309.6844 444.9625 309.6844Q444.35312 309.6844 443.94687 310.075Q443.55624 310.46564 443.55624 310.9969ZM443.22812 314.96564Q443.22812 315.41876 443.43124 315.84064Q443.65 316.2625 444.07187 316.4969Q444.49374 316.73126 444.97812 316.73126Q445.72812 316.73126 446.2125 316.2469Q446.7125 315.7625 446.7125 315.0125Q446.7125 314.2469 446.2125 313.7469Q445.7125 313.2469 444.94687 313.2469Q444.19687 313.2469 443.7125 313.7469Q443.22812 314.23126 443.22812 314.96564Z" fill-rule="nonzero"/><path fill="#000000" d="M513.76874 317.45L512.72186 317.45L512.72186 310.73126Q512.33124 311.09064 511.70624 311.46564Q511.09686 311.825 510.6125 311.9969L510.6125 310.98126Q511.4875 310.5594 512.14374 309.98126Q512.8156 309.3875 513.09686 308.825L513.76874 308.825L513.76874 317.45ZM516.8 313.21564Q516.8 311.6844 517.1125 310.7625Q517.425 309.825 518.03436 309.325Q518.65936 308.825 519.59686 308.825Q520.28436 308.825 520.8 309.10626Q521.33124 309.3875 521.675 309.91876Q522.01874 310.4344 522.20624 311.1844Q522.39374 311.9344 522.39374 313.21564Q522.39374 314.73126 522.08124 315.65314Q521.78436 316.575 521.15936 317.09064Q520.55 317.59064 519.59686 317.59064Q518.3625 317.59064 517.64374 316.7Q516.8 315.6375 516.8 313.21564ZM517.8781 313.21564Q517.8781 315.325 518.3781 316.02814Q518.8781 316.73126 519.59686 316.73126Q520.33124 316.73126 520.8156 316.02814Q521.3156 315.325 521.3156 313.21564Q521.3156 311.09064 520.8156 310.40314Q520.33124 309.7 519.58124 309.7Q518.8625 309.7 518.425 310.3094Q517.8781 311.09064 517.8781 313.21564Z" fill-rule="nonzero"/><path fill="#000000" d="M584.91876 317.45L583.8719 317.45L583.8719 310.73126Q583.48126 311.09064 582.85626 311.46564Q582.2469 311.825 581.7625 311.9969L581.7625 310.98126Q582.6375 310.5594 583.29376 309.98126Q583.96564 309.3875 584.2469 308.825L584.91876 308.825L584.91876 317.45ZM593.4969 316.4344L593.4969 317.45L587.8094 317.45Q587.8094 317.075 587.9344 316.71564Q588.15314 316.1375 588.6219 315.575Q589.10626 315.0125 590.0125 314.27814Q591.41876 313.1219 591.90314 312.45Q592.40314 311.77814 592.40314 311.1844Q592.40314 310.5594 591.95 310.1375Q591.4969 309.7 590.77814 309.7Q590.0125 309.7 589.5594 310.15314Q589.10626 310.60626 589.09064 311.41876L588.0125 311.3094Q588.1219 310.09064 588.84064 309.46564Q589.575 308.825 590.8094 308.825Q592.04376 308.825 592.7625 309.5125Q593.48126 310.2 593.48126 311.21564Q593.48126 311.73126 593.2625 312.23126Q593.0594 312.71564 592.5594 313.27814Q592.075 313.825 590.95 314.77814Q589.9969 315.575 589.71564 315.8719Q589.45 316.15314 589.27814 316.4344L593.4969 316.4344Z" fill-rule="nonzero"/><path fill="#757575" d="M23.923 36.55L23.923 23.925L19.20425 23.925L19.20425 22.2375L30.548 22.2375L30.548 23.925L25.813625 23.925L25.813625 36.55L23.923 36.55ZM32.063625 24.253124L32.063625 22.2375L33.82925 22.2375L33.82925 24.253124L32.063625 24.253124ZM32.063625 36.55L32.063625 26.175L33.82925 26.175L33.82925 36.55L32.063625 36.55ZM36.048 36.55L36.048 26.175L37.626125 26.175L37.626125 27.628124Q38.1105 26.878124 38.923 26.409374Q39.7355 25.940624 40.76675 25.940624Q41.923 25.940624 42.657375 26.425Q43.39175 26.89375 43.70425 27.753124Q44.938625 25.940624 46.907375 25.940624Q48.45425 25.940624 49.282375 26.8Q50.1105 27.659374 50.1105 29.425L50.1105 36.55L48.3605 36.55L48.3605 30.01875Q48.3605 28.95625 48.188625 28.503124Q48.01675 28.034374 47.563625 27.753124Q47.126125 27.471874 46.51675 27.471874Q45.423 27.471874 44.688625 28.20625Q43.969875 28.925 43.969875 30.51875L43.969875 36.55L42.219875 36.55L42.219875 29.815624Q42.219875 28.64375 41.782375 28.065624Q41.3605 27.471874 40.376125 27.471874Q39.64175 27.471874 39.001125 27.8625Q38.376125 28.253124 38.094875 29.003124Q37.813625 29.753124 37.813625 31.175L37.813625 36.55L36.048 36.55ZM60.157375 33.20625L61.969875 33.440624Q61.548 35.01875 60.376125 35.909374Q59.219875 36.784374 57.407375 36.784374Q55.14175 36.784374 53.798 35.39375Q52.469875 33.9875 52.469875 31.45625Q52.469875 28.83125 53.813625 27.39375Q55.157375 25.940624 57.313625 25.940624Q59.39175 25.940624 60.70425 27.3625Q62.032375 28.76875 62.032375 31.346874Q62.032375 31.503124 62.01675 31.815624L54.282375 31.815624Q54.376125 33.51875 55.251125 34.425Q56.126125 35.33125 57.423 35.33125Q58.39175 35.33125 59.063625 34.83125Q59.751125 34.315624 60.157375 33.20625ZM54.376125 30.3625L60.173 30.3625Q60.063625 29.065624 59.51675 28.409374Q58.673 27.39375 57.32925 27.39375Q56.126125 27.39375 55.298 28.20625Q54.469875 29.003124 54.376125 30.3625ZM70.46988 36.55L70.46988 27.55L68.923004 27.55L68.923004 26.175L70.46988 26.175L70.46988 25.08125Q70.46988 24.034374 70.65738 23.51875Q70.90738 22.83125 71.548004 22.409374Q72.18863 21.9875 73.34488 21.9875Q74.09488 21.9875 74.985504 22.159374L74.71988 23.690624Q74.173004 23.596874 73.68863 23.596874Q72.891754 23.596874 72.548004 23.940624Q72.21988 24.284374 72.21988 25.221874L72.21988 26.175L74.25113 26.175L74.25113 27.55L72.21988 27.55L72.21988 36.55L70.46988 36.55ZM75.40738 31.3625Q75.40738 28.4875 77.00113 27.096874Q78.34488 25.940624 80.266754 25.940624Q82.40738 25.940624 83.75113 27.346874Q85.110504 28.753124 85.110504 31.221874Q85.110504 33.221874 84.516754 34.378124Q83.923004 35.51875 82.766754 36.159374Q81.62613 36.784374 80.266754 36.784374Q78.079254 36.784374 76.735504 35.39375Q75.40738 33.9875 75.40738 31.3625ZM77.204254 31.3625Q77.204254 33.3625 78.06363 34.346874Q78.93863 35.33125 80.266754 35.33125Q81.579254 35.33125 82.43863 34.346874Q83.31363 33.346874 83.31363 31.3Q83.31363 29.378124 82.43863 28.39375Q81.56363 27.39375 80.266754 27.39375Q78.93863 27.39375 78.06363 28.39375Q77.204254 29.378124 77.204254 31.3625ZM87.03238 36.55L87.03238 26.175L88.610504 26.175L88.610504 27.753124Q89.21988 26.64375 89.735504 26.3Q90.25113 25.940624 90.860504 25.940624Q91.75113 25.940624 92.673004 26.503124L92.06363 28.14375Q91.423004 27.753124 90.78238 27.753124Q90.204254 27.753124 89.735504 28.1125Q89.28238 28.45625 89.079254 29.065624Q88.798004 30.003124 88.798004 31.1125L88.798004 36.55L87.03238 36.55ZM100.31363 36.55L100.31363 22.2375L106.65738 22.2375Q108.56363 22.2375 109.56363 22.628124Q110.56363 23.003124 111.15738 23.9875Q111.75113 24.95625 111.75113 26.14375Q111.75113 27.659374 110.766754 28.70625Q109.78238 29.753124 107.71988 30.034374Q108.46988 30.39375 108.860504 30.753124Q109.68863 31.503124 110.43863 32.659374L112.923004 36.55L110.548004 36.55L108.641754 33.565624Q107.81363 32.284374 107.28238 31.596874Q106.75113 30.909374 106.31363 30.64375Q105.891754 30.3625 105.454254 30.253124Q105.12613 30.190624 104.40738 30.190624L102.204254 30.190624L102.204254 36.55L100.31363 36.55ZM102.204254 28.55L106.28238 28.55Q107.579254 28.55 108.298004 28.284374Q109.03238 28.01875 109.40738 27.425Q109.798004 26.83125 109.798004 26.14375Q109.798004 25.128124 109.06363 24.471874Q108.329254 23.815624 106.735504 23.815624L102.204254 23.815624L102.204254 28.55ZM121.15738 33.20625L122.96988 33.440624Q122.548004 35.01875 121.37613 35.909374Q120.21988 36.784374 118.40738 36.784374Q116.141754 36.784374 114.798004 35.39375Q113.46988 33.9875 113.46988 31.45625Q113.46988 28.83125 114.81363 27.39375Q116.15738 25.940624 118.31363 25.940624Q120.391754 25.940624 121.704254 27.3625Q123.03238 28.76875 123.03238 31.346874Q123.03238 31.503124 123.016754 31.815624L115.28238 31.815624Q115.37613 33.51875 116.25113 34.425Q117.12613 35.33125 118.423004 35.33125Q119.391754 35.33125 120.06363 34.83125Q120.75113 34.315624 121.15738 33.20625ZM115.37613 30.3625L121.173004 30.3625Q121.06363 29.065624 120.516754 28.409374Q119.673004 27.39375 118.329254 27.39375Q117.12613 27.39375 116.298004 28.20625Q115.46988 29.003124 115.37613 30.3625ZM125.048004 36.55L125.048004 26.175L126.62613 26.175L126.62613 27.628124Q127.110504 26.878124 127.923004 26.409374Q128.7355 25.940624 129.76675 25.940624Q130.923 25.940624 131.65738 26.425Q132.39175 26.89375 132.70425 27.753124Q133.93863 25.940624 135.90738 25.940624Q137.45425 25.940624 138.28238 26.8Q139.1105 27.659374 139.1105 29.425L139.1105 36.55L137.3605 36.55L137.3605 30.01875Q137.3605 28.95625 137.18863 28.503124Q137.01675 28.034374 136.56363 27.753124Q136.12613 27.471874 135.51675 27.471874Q134.423 27.471874 133.68863 28.20625Q132.96988 28.925 132.96988 30.51875L132.96988 36.55L131.21988 36.55L131.21988 29.815624Q131.21988 28.64375 130.78238 28.065624Q130.3605 27.471874 129.37613 27.471874Q128.64175 27.471874 128.00113 27.8625Q127.37613 28.253124 127.09488 29.003124Q126.81363 29.753124 126.81363 31.175L126.81363 36.55L125.048004 36.55ZM141.40738 31.3625Q141.40738 28.4875 143.00113 27.096874Q144.34488 25.940624 146.26675 25.940624Q148.40738 25.940624 149.75113 27.346874Q151.1105 28.753124 151.1105 31.221874Q151.1105 33.221874 150.51675 34.378124Q149.923 35.51875 148.76675 36.159374Q147.62613 36.784374 146.26675 36.784374Q144.07925 36.784374 142.7355 35.39375Q141.40738 33.9875 141.40738 31.3625ZM143.20425 31.3625Q143.20425 33.3625 144.06363 34.346874Q144.93863 35.33125 146.26675 35.33125Q147.57925 35.33125 148.43863 34.346874Q149.31363 33.346874 149.31363 31.3Q149.31363 29.378124 148.43863 28.39375Q147.56363 27.39375 146.26675 27.39375Q144.93863 27.39375 144.06363 28.39375Q143.20425 29.378124 143.20425 31.3625ZM156.89175 34.971874L157.14175 36.534374Q156.40738 36.690624 155.81363 36.690624Q154.8605 36.690624 154.32925 36.39375Q153.81363 36.08125 153.59488 35.596874Q153.37613 35.096874 153.37613 33.51875L153.37613 27.55L152.09488 27.55L152.09488 26.175L153.37613 26.175L153.37613 23.6125L155.12613 22.55L155.12613 26.175L156.89175 26.175L156.89175 27.55L155.12613 27.55L155.12613 33.6125Q155.12613 34.3625 155.21988 34.58125Q155.31363 34.784374 155.51675 34.925Q155.7355 35.05 156.12613 35.05Q156.40738 35.05 156.89175 34.971874ZM166.15738 33.20625L167.96988 33.440624Q167.548 35.01875 166.37613 35.909374Q165.21988 36.784374 163.40738 36.784374Q161.14175 36.784374 159.798 35.39375Q158.46988 33.9875 158.46988 31.45625Q158.46988 28.83125 159.81363 27.39375Q161.15738 25.940624 163.31363 25.940624Q165.39175 25.940624 166.70425 27.3625Q168.03238 28.76875 168.03238 31.346874Q168.03238 31.503124 168.01675 31.815624L160.28238 31.815624Q160.37613 33.51875 161.25113 34.425Q162.12613 35.33125 163.423 35.33125Q164.39175 35.33125 165.06363 34.83125Q165.75113 34.315624 166.15738 33.20625ZM160.37613 30.3625L166.173 30.3625Q166.06363 29.065624 165.51675 28.409374Q164.673 27.39375 163.32925 27.39375Q162.12613 27.39375 161.298 28.20625Q160.46988 29.003124 160.37613 30.3625ZM176.59488 36.55L176.59488 22.2375L178.50113 22.2375L178.50113 36.55L176.59488 36.55ZM182.048 36.55L182.048 26.175L183.64175 26.175L183.64175 27.659374Q184.78238 25.940624 186.93863 25.940624Q187.87613 25.940624 188.65738 26.284374Q189.45425 26.6125 189.84488 27.159374Q190.2355 27.70625 190.39175 28.45625Q190.4855 28.95625 190.4855 30.175L190.4855 36.55L188.71988 36.55L188.71988 30.2375Q188.71988 29.159374 188.51675 28.628124Q188.31363 28.096874 187.78238 27.784374Q187.26675 27.471874 186.56363 27.471874Q185.43863 27.471874 184.62613 28.190624Q183.81363 28.89375 183.81363 30.878124L183.81363 36.55L182.048 36.55ZM199.82925 32.753124L201.548 32.971874Q201.26675 34.76875 200.09488 35.784374Q198.93863 36.784374 197.2355 36.784374Q195.1105 36.784374 193.81363 35.39375Q192.51675 34.003124 192.51675 31.409374Q192.51675 29.721874 193.06363 28.471874Q193.62613 27.20625 194.76675 26.58125Q195.90738 25.940624 197.25113 25.940624Q198.93863 25.940624 200.00113 26.8Q201.07925 27.659374 201.39175 29.221874L199.673 29.4875Q199.43863 28.440624 198.81363 27.925Q198.18863 27.39375 197.31363 27.39375Q195.9855 27.39375 195.15738 28.346874Q194.32925 29.3 194.32925 31.346874Q194.32925 33.440624 195.12613 34.39375Q195.923 35.33125 197.21988 35.33125Q198.25113 35.33125 198.93863 34.70625Q199.64175 34.065624 199.82925 32.753124ZM203.03238 36.55L203.03238 26.175L204.6105 26.175L204.6105 27.753124Q205.21988 26.64375 205.7355 26.3Q206.25113 25.940624 206.8605 25.940624Q207.75113 25.940624 208.673 26.503124L208.06363 28.14375Q207.423 27.753124 206.78238 27.753124Q206.20425 27.753124 205.7355 28.1125Q205.28238 28.45625 205.07925 29.065624Q204.798 30.003124 204.798 31.1125L204.798 36.55L203.03238 36.55ZM217.15738 33.20625L218.96988 33.440624Q218.548 35.01875 217.37613 35.909374Q216.21988 36.784374 214.40738 36.784374Q212.14175 36.784374 210.798 35.39375Q209.46988 33.9875 209.46988 31.45625Q209.46988 28.83125 210.81363 27.39375Q212.15738 25.940624 214.31363 25.940624Q216.39175 25.940624 217.70425 27.3625Q219.03238 28.76875 219.03238 31.346874Q219.03238 31.503124 219.01675 31.815624L211.28238 31.815624Q211.37613 33.51875 212.25113 34.425Q213.12613 35.33125 214.423 35.33125Q215.39175 35.33125 216.06363 34.83125Q216.75113 34.315624 217.15738 33.20625ZM211.37613 30.3625L217.173 30.3625Q217.06363 29.065624 216.51675 28.409374Q215.673 27.39375 214.32925 27.39375Q213.12613 27.39375 212.298 28.20625Q211.46988 29.003124 211.37613 30.3625ZM221.048 36.55L221.048 26.175L222.62613 26.175L222.62613 27.628124Q223.1105 26.878124 223.923 26.409374Q224.7355 25.940624 225.76675 25.940624Q226.923 25.940624 227.65738 26.425Q228.39175 26.89375 228.70425 27.753124Q229.93863 25.940624 231.90738 25.940624Q233.45425 25.940624 234.28238 26.8Q235.1105 27.659374 235.1105 29.425L235.1105 36.55L233.3605 36.55L233.3605 30.01875Q233.3605 28.95625 233.18863 28.503124Q233.01675 28.034374 232.56363 27.753124Q232.12613 27.471874 231.51675 27.471874Q230.423 27.471874 229.68863 28.20625Q228.96988 28.925 228.96988 30.51875L228.96988 36.55L227.21988 36.55L227.21988 29.815624Q227.21988 28.64375 226.78238 28.065624Q226.3605 27.471874 225.37613 27.471874Q224.64175 27.471874 224.00113 27.8625Q223.37613 28.253124 223.09488 29.003124Q222.81363 29.753124 222.81363 31.175L222.81363 36.55L221.048 36.55ZM245.15738 33.20625L246.96988 33.440624Q246.548 35.01875 245.37613 35.909374Q244.21988 36.784374 242.40738 36.784374Q240.14175 36.784374 238.798 35.39375Q237.46988 33.9875 237.46988 31.45625Q237.46988 28.83125 238.81363 27.39375Q240.15738 25.940624 242.31363 25.940624Q244.39175 25.940624 245.70425 27.3625Q247.03238 28.76875 247.03238 31.346874Q247.03238 31.503124 247.01675 31.815624L239.28238 31.815624Q239.37613 33.51875 240.25113 34.425Q241.12613 35.33125 242.423 35.33125Q243.39175 35.33125 244.06363 34.83125Q244.75113 34.315624 245.15738 33.20625ZM239.37613 30.3625L245.173 30.3625Q245.06363 29.065624 244.51675 28.409374Q243.673 27.39375 242.32925 27.39375Q241.12613 27.39375 240.298 28.20625Q239.46988 29.003124 239.37613 30.3625ZM249.048 36.55L249.048 26.175L250.64175 26.175L250.64175 27.659374Q251.78238 25.940624 253.93863 25.940624Q254.87613 25.940624 255.65738 26.284374Q256.45425 26.6125 256.84488 27.159374Q257.2355 27.70625 257.39175 28.45625Q257.4855 28.95625 257.4855 30.175L257.4855 36.55L255.71988 36.55L255.71988 30.2375Q255.71988 29.159374 255.51675 28.628124Q255.31363 28.096874 254.78238 27.784374Q254.26675 27.471874 253.56363 27.471874Q252.43863 27.471874 251.62613 28.190624Q250.81363 28.89375 250.81363 30.878124L250.81363 36.55L249.048 36.55ZM263.89175 34.971874L264.14175 36.534374Q263.40738 36.690624 262.81363 36.690624Q261.8605 36.690624 261.32925 36.39375Q260.81363 36.08125 260.59488 35.596874Q260.37613 35.096874 260.37613 33.51875L260.37613 27.55L259.09488 27.55L259.09488 26.175L260.37613 26.175L260.37613 23.6125L262.12613 22.55L262.12613 26.175L263.89175 26.175L263.89175 27.55L262.12613 27.55L262.12613 33.6125Q262.12613 34.3625 262.21988 34.58125Q262.31363 34.784374 262.51675 34.925Q262.7355 35.05 263.12613 35.05Q263.40738 35.05 263.89175 34.971874ZM272.82925 35.26875Q271.84488 36.096874 270.93863 36.440624Q270.03238 36.784374 269.00113 36.784374Q267.298 36.784374 266.37613 35.95625Q265.45425 35.1125 265.45425 33.815624Q265.45425 33.05 265.798 32.425Q266.15738 31.8 266.71988 31.425Q267.28238 31.034374 267.9855 30.83125Q268.50113 30.70625 269.548 30.565624Q271.673 30.315624 272.673 29.971874Q272.68863 29.6125 272.68863 29.503124Q272.68863 28.440624 272.18863 27.9875Q271.51675 27.39375 270.18863 27.39375Q268.93863 27.39375 268.34488 27.83125Q267.76675 28.26875 267.4855 29.378124L265.76675 29.14375Q266.00113 28.034374 266.53238 27.3625Q267.06363 26.675 268.07925 26.315624Q269.09488 25.940624 270.43863 25.940624Q271.76675 25.940624 272.59488 26.253124Q273.423 26.565624 273.81363 27.05Q274.20425 27.51875 274.3605 28.2375Q274.45425 28.690624 274.45425 29.8625L274.45425 32.20625Q274.45425 34.659374 274.56363 35.315624Q274.673 35.95625 275.01675 36.55L273.173 36.55Q272.90738 36.003124 272.82925 35.26875ZM272.673 31.346874Q271.71988 31.7375 269.798 32.003124Q268.71988 32.159374 268.26675 32.3625Q267.82925 32.55 267.57925 32.925Q267.32925 33.3 267.32925 33.76875Q267.32925 34.471874 267.8605 34.940624Q268.39175 35.409374 269.423 35.409374Q270.43863 35.409374 271.21988 34.971874Q272.01675 34.51875 272.39175 33.753124Q272.673 33.14375 272.673 31.9875L272.673 31.346874ZM277.01675 36.55L277.01675 22.2375L278.76675 22.2375L278.76675 36.55L277.01675 36.55ZM286.64175 31.95625L288.423 31.8Q288.548 32.8625 289.00113 33.55Q289.46988 34.2375 290.43863 34.675Q291.423 35.096874 292.65738 35.096874Q293.7355 35.096874 294.56363 34.784374Q295.39175 34.45625 295.798 33.89375Q296.20425 33.33125 296.20425 32.659374Q296.20425 31.9875 295.81363 31.4875Q295.423 30.9875 294.53238 30.64375Q293.95425 30.409374 291.96988 29.940624Q290.00113 29.471874 289.21988 29.05Q288.18863 28.51875 287.68863 27.721874Q287.18863 26.925 287.18863 25.940624Q287.18863 24.846874 287.798 23.909374Q288.40738 22.971874 289.59488 22.4875Q290.78238 21.9875 292.21988 21.9875Q293.81363 21.9875 295.03238 22.503124Q296.25113 23.01875 296.89175 24.01875Q297.548 25.003124 297.59488 26.26875L295.78238 26.409374Q295.64175 25.05 294.798 24.3625Q293.95425 23.659374 292.298 23.659374Q290.57925 23.659374 289.78238 24.3Q289.00113 24.925 289.00113 25.8Q289.00113 26.58125 289.56363 27.08125Q290.1105 27.58125 292.423 28.096874Q294.7355 28.6125 295.59488 29.003124Q296.84488 29.58125 297.43863 30.471874Q298.03238 31.346874 298.03238 32.503124Q298.03238 33.64375 297.37613 34.659374Q296.71988 35.675 295.4855 36.2375Q294.26675 36.8 292.7355 36.8Q290.798 36.8 289.4855 36.2375Q288.173 35.659374 287.423 34.51875Q286.673 33.378124 286.64175 31.95625ZM300.048 36.55L300.048 26.175L301.64175 26.175L301.64175 27.659374Q302.78238 25.940624 304.93863 25.940624Q305.87613 25.940624 306.65738 26.284374Q307.45425 26.6125 307.84488 27.159374Q308.2355 27.70625 308.39175 28.45625Q308.4855 28.95625 308.4855 30.175L308.4855 36.55L306.71988 36.55L306.71988 30.2375Q306.71988 29.159374 306.51675 28.628124Q306.31363 28.096874 305.78238 27.784374Q305.26675 27.471874 304.56363 27.471874Q303.43863 27.471874 302.62613 28.190624Q301.81363 28.89375 301.81363 30.878124L301.81363 36.55L300.048 36.55ZM317.82925 35.26875Q316.84488 36.096874 315.93863 36.440624Q315.03238 36.784374 314.00113 36.784374Q312.298 36.784374 311.37613 35.95625Q310.45425 35.1125 310.45425 33.815624Q310.45425 33.05 310.798 32.425Q311.15738 31.8 311.71988 31.425Q312.28238 31.034374 312.9855 30.83125Q313.50113 30.70625 314.548 30.565624Q316.673 30.315624 317.673 29.971874Q317.68863 29.6125 317.68863 29.503124Q317.68863 28.440624 317.18863 27.9875Q316.51675 27.39375 315.18863 27.39375Q313.93863 27.39375 313.34488 27.83125Q312.76675 28.26875 312.4855 29.378124L310.76675 29.14375Q311.00113 28.034374 311.53238 27.3625Q312.06363 26.675 313.07925 26.315624Q314.09488 25.940624 315.43863 25.940624Q316.76675 25.940624 317.59488 26.253124Q318.423 26.565624 318.81363 27.05Q319.20425 27.51875 319.3605 28.2375Q319.45425 28.690624 319.45425 29.8625L319.45425 32.20625Q319.45425 34.659374 319.56363 35.315624Q319.673 35.95625 320.01675 36.55L318.173 36.55Q317.90738 36.003124 317.82925 35.26875ZM317.673 31.346874Q316.71988 31.7375 314.798 32.003124Q313.71988 32.159374 313.26675 32.3625Q312.82925 32.55 312.57925 32.925Q312.32925 33.3 312.32925 33.76875Q312.32925 34.471874 312.8605 34.940624Q313.39175 35.409374 314.423 35.409374Q315.43863 35.409374 316.21988 34.971874Q317.01675 34.51875 317.39175 33.753124Q317.673 33.14375 317.673 31.9875L317.673 31.346874ZM322.048 40.51875L322.048 26.175L323.65738 26.175L323.65738 27.51875Q324.21988 26.7375 324.923 26.346874Q325.64175 25.940624 326.65738 25.940624Q327.9855 25.940624 329.00113 26.628124Q330.01675 27.315624 330.53238 28.565624Q331.06363 29.8 331.06363 31.284374Q331.06363 32.878124 330.4855 34.159374Q329.923 35.425 328.82925 36.1125Q327.7355 36.784374 326.53238 36.784374Q325.65738 36.784374 324.95425 36.409374Q324.26675 36.034374 323.81363 35.471874L323.81363 40.51875L322.048 40.51875ZM323.64175 31.425Q323.64175 33.425 324.45425 34.378124Q325.26675 35.33125 326.423 35.33125Q327.59488 35.33125 328.423 34.346874Q329.26675 33.3625 329.26675 31.26875Q329.26675 29.3 328.43863 28.315624Q327.62613 27.315624 326.50113 27.315624Q325.37613 27.315624 324.50113 28.378124Q323.64175 29.425 323.64175 31.425ZM332.34488 33.45625L334.09488 33.175Q334.2355 34.221874 334.90738 34.784374Q335.57925 35.33125 336.78238 35.33125Q337.9855 35.33125 338.56363 34.846874Q339.15738 34.346874 339.15738 33.690624Q339.15738 33.096874 338.64175 32.753124Q338.28238 32.51875 336.84488 32.159374Q334.90738 31.659374 334.15738 31.315624Q333.423 30.95625 333.03238 30.33125Q332.64175 29.690624 332.64175 28.925Q332.64175 28.2375 332.95425 27.64375Q333.28238 27.05 333.82925 26.659374Q334.2355 26.3625 334.93863 26.159374Q335.65738 25.940624 336.46988 25.940624Q337.68863 25.940624 338.6105 26.3Q339.53238 26.64375 339.96988 27.253124Q340.40738 27.846874 340.57925 28.846874L338.8605 29.08125Q338.7355 28.284374 338.173 27.846874Q337.6105 27.39375 336.59488 27.39375Q335.37613 27.39375 334.8605 27.8Q334.34488 28.190624 334.34488 28.721874Q334.34488 29.065624 334.56363 29.346874Q334.76675 29.628124 335.2355 29.815624Q335.50113 29.909374 336.78238 30.253124Q338.65738 30.753124 339.39175 31.08125Q340.12613 31.39375 340.548 32.003124Q340.96988 32.596874 340.96988 33.503124Q340.96988 34.378124 340.45425 35.159374Q339.93863 35.940624 338.96988 36.3625Q338.00113 36.784374 336.78238 36.784374Q334.76675 36.784374 333.70425 35.940624Q332.64175 35.096874 332.34488 33.45625ZM343.048 36.55L343.048 22.2375L344.81363 22.2375L344.81363 27.3625Q346.048 25.940624 347.923 25.940624Q349.06363 25.940624 349.90738 26.39375Q350.76675 26.846874 351.12613 27.659374Q351.50113 28.45625 351.50113 29.971874L351.50113 36.55L349.75113 36.55L349.75113 29.971874Q349.75113 28.659374 349.173 28.065624Q348.59488 27.45625 347.56363 27.45625Q346.78238 27.45625 346.07925 27.8625Q345.39175 28.26875 345.09488 28.971874Q344.81363 29.659374 344.81363 30.878124L344.81363 36.55L343.048 36.55ZM353.40738 31.3625Q353.40738 28.4875 355.00113 27.096874Q356.34488 25.940624 358.26675 25.940624Q360.40738 25.940624 361.75113 27.346874Q363.1105 28.753124 363.1105 31.221874Q363.1105 33.221874 362.51675 34.378124Q361.923 35.51875 360.76675 36.159374Q359.62613 36.784374 358.26675 36.784374Q356.07925 36.784374 354.7355 35.39375Q353.40738 33.9875 353.40738 31.3625ZM355.20425 31.3625Q355.20425 33.3625 356.06363 34.346874Q356.93863 35.33125 358.26675 35.33125Q359.57925 35.33125 360.43863 34.346874Q361.31363 33.346874 361.31363 31.3Q361.31363 29.378124 360.43863 28.39375Q359.56363 27.39375 358.26675 27.39375Q356.93863 27.39375 356.06363 28.39375Q355.20425 29.378124 355.20425 31.3625ZM368.89175 34.971874L369.14175 36.534374Q368.40738 36.690624 367.81363 36.690624Q366.8605 36.690624 366.32925 36.39375Q365.81363 36.08125 365.59488 35.596874Q365.37613 35.096874 365.37613 33.51875L365.37613 27.55L364.09488 27.55L364.09488 26.175L365.37613 26.175L365.37613 23.6125L367.12613 22.55L367.12613 26.175L368.89175 26.175L368.89175 27.55L367.12613 27.55L367.12613 33.6125Q367.12613 34.3625 367.21988 34.58125Q367.31363 34.784374 367.51675 34.925Q367.7355 35.05 368.12613 35.05Q368.40738 35.05 368.89175 34.971874ZM380.40738 40.753124Q378.95425 38.925 377.95425 36.471874Q376.95425 34.003124 376.95425 31.3625Q376.95425 29.034374 377.70425 26.909374Q378.57925 24.440624 380.40738 21.9875L381.673 21.9875Q380.4855 24.01875 380.1105 24.89375Q379.51675 26.2375 379.173 27.70625Q378.75113 29.534374 378.75113 31.378124Q378.75113 36.065624 381.673 40.753124L380.40738 40.753124ZM383.64175 31.95625L385.423 31.8Q385.548 32.8625 386.00113 33.55Q386.46988 34.2375 387.43863 34.675Q388.423 35.096874 389.65738 35.096874Q390.7355 35.096874 391.56363 34.784374Q392.39175 34.45625 392.798 33.89375Q393.20425 33.33125 393.20425 32.659374Q393.20425 31.9875 392.81363 31.4875Q392.423 30.9875 391.53238 30.64375Q390.95425 30.409374 388.96988 29.940624Q387.00113 29.471874 386.21988 29.05Q385.18863 28.51875 384.68863 27.721874Q384.18863 26.925 384.18863 25.940624Q384.18863 24.846874 384.798 23.909374Q385.40738 22.971874 386.59488 22.4875Q387.78238 21.9875 389.21988 21.9875Q390.81363 21.9875 392.03238 22.503124Q393.25113 23.01875 393.89175 24.01875Q394.548 25.003124 394.59488 26.26875L392.78238 26.409374Q392.64175 25.05 391.798 24.3625Q390.95425 23.659374 389.298 23.659374Q387.57925 23.659374 386.78238 24.3Q386.00113 24.925 386.00113 25.8Q386.00113 26.58125 386.56363 27.08125Q387.1105 27.58125 389.423 28.096874Q391.7355 28.6125 392.59488 29.003124Q393.84488 29.58125 394.43863 30.471874Q395.03238 31.346874 395.03238 32.503124Q395.03238 33.64375 394.37613 34.659374Q393.71988 35.675 392.4855 36.2375Q391.26675 36.8 389.7355 36.8Q387.798 36.8 386.4855 36.2375Q385.173 35.659374 384.423 34.51875Q383.673 33.378124 383.64175 31.95625ZM397.048 36.55L397.048 26.175L398.62613 26.175L398.62613 27.628124Q399.1105 26.878124 399.923 26.409374Q400.7355 25.940624 401.76675 25.940624Q402.923 25.940624 403.65738 26.425Q404.39175 26.89375 404.70425 27.753124Q405.93863 25.940624 407.90738 25.940624Q409.45425 25.940624 410.28238 26.8Q411.1105 27.659374 411.1105 29.425L411.1105 36.55L409.3605 36.55L409.3605 30.01875Q409.3605 28.95625 409.18863 28.503124Q409.01675 28.034374 408.56363 27.753124Q408.12613 27.471874 407.51675 27.471874Q406.423 27.471874 405.68863 28.20625Q404.96988 28.925 404.96988 30.51875L404.96988 36.55L403.21988 36.55L403.21988 29.815624Q403.21988 28.64375 402.78238 28.065624Q402.3605 27.471874 401.37613 27.471874Q400.64175 27.471874 400.00113 27.8625Q399.37613 28.253124 399.09488 29.003124Q398.81363 29.753124 398.81363 31.175L398.81363 36.55L397.048 36.55ZM420.82925 35.26875Q419.84488 36.096874 418.93863 36.440624Q418.03238 36.784374 417.00113 36.784374Q415.298 36.784374 414.37613 35.95625Q413.45425 35.1125 413.45425 33.815624Q413.45425 33.05 413.798 32.425Q414.15738 31.8 414.71988 31.425Q415.28238 31.034374 415.9855 30.83125Q416.50113 30.70625 417.548 30.565624Q419.673 30.315624 420.673 29.971874Q420.68863 29.6125 420.68863 29.503124Q420.68863 28.440624 420.18863 27.9875Q419.51675 27.39375 418.18863 27.39375Q416.93863 27.39375 416.34488 27.83125Q415.76675 28.26875 415.4855 29.378124L413.76675 29.14375Q414.00113 28.034374 414.53238 27.3625Q415.06363 26.675 416.07925 26.315624Q417.09488 25.940624 418.43863 25.940624Q419.76675 25.940624 420.59488 26.253124Q421.423 26.565624 421.81363 27.05Q422.20425 27.51875 422.3605 28.2375Q422.45425 28.690624 422.45425 29.8625L422.45425 32.20625Q422.45425 34.659374 422.56363 35.315624Q422.673 35.95625 423.01675 36.55L421.173 36.55Q420.90738 36.003124 420.82925 35.26875ZM420.673 31.346874Q419.71988 31.7375 417.798 32.003124Q416.71988 32.159374 416.26675 32.3625Q415.82925 32.55 415.57925 32.925Q415.32925 33.3 415.32925 33.76875Q415.32925 34.471874 415.8605 34.940624Q416.39175 35.409374 417.423 35.409374Q418.43863 35.409374 419.21988 34.971874Q420.01675 34.51875 420.39175 33.753124Q420.673 33.14375 420.673 31.9875L420.673 31.346874ZM425.01675 36.55L425.01675 22.2375L426.76675 22.2375L426.76675 36.55L425.01675 36.55ZM429.01675 36.55L429.01675 22.2375L430.76675 22.2375L430.76675 36.55L429.01675 36.55ZM440.15738 33.20625L441.96988 33.440624Q441.548 35.01875 440.37613 35.909374Q439.21988 36.784374 437.40738 36.784374Q435.14175 36.784374 433.798 35.39375Q432.46988 33.9875 432.46988 31.45625Q432.46988 28.83125 433.81363 27.39375Q435.15738 25.940624 437.31363 25.940624Q439.39175 25.940624 440.70425 27.3625Q442.03238 28.76875 442.03238 31.346874Q442.03238 31.503124 442.01675 31.815624L434.28238 31.815624Q434.37613 33.51875 435.25113 34.425Q436.12613 35.33125 437.423 35.33125Q438.39175 35.33125 439.06363 34.83125Q439.75113 34.315624 440.15738 33.20625ZM434.37613 30.3625L440.173 30.3625Q440.06363 29.065624 439.51675 28.409374Q438.673 27.39375 437.32925 27.39375Q436.12613 27.39375 435.298 28.20625Q434.46988 29.003124 434.37613 30.3625ZM444.03238 36.55L444.03238 26.175L445.6105 26.175L445.6105 27.753124Q446.21988 26.64375 446.7355 26.3Q447.25113 25.940624 447.8605 25.940624Q448.75113 25.940624 449.673 26.503124L449.06363 28.14375Q448.423 27.753124 447.78238 27.753124Q447.20425 27.753124 446.7355 28.1125Q446.28238 28.45625 446.07925 29.065624Q445.798 30.003124 445.798 31.1125L445.798 36.55L444.03238 36.55ZM457.06363 24.253124L457.06363 22.2375L458.82925 22.2375L458.82925 24.253124L457.06363 24.253124ZM457.06363 36.55L457.06363 26.175L458.82925 26.175L458.82925 36.55L457.06363 36.55ZM460.34488 33.45625L462.09488 33.175Q462.2355 34.221874 462.90738 34.784374Q463.57925 35.33125 464.78238 35.33125Q465.9855 35.33125 466.56363 34.846874Q467.15738 34.346874 467.15738 33.690624Q467.15738 33.096874 466.64175 32.753124Q466.28238 32.51875 464.84488 32.159374Q462.90738 31.659374 462.15738 31.315624Q461.423 30.95625 461.03238 30.33125Q460.64175 29.690624 460.64175 28.925Q460.64175 28.2375 460.95425 27.64375Q461.28238 27.05 461.82925 26.659374Q462.2355 26.3625 462.93863 26.159374Q463.65738 25.940624 464.46988 25.940624Q465.68863 25.940624 466.6105 26.3Q467.53238 26.64375 467.96988 27.253124Q468.40738 27.846874 468.57925 28.846874L466.8605 29.08125Q466.7355 28.284374 466.173 27.846874Q465.6105 27.39375 464.59488 27.39375Q463.37613 27.39375 462.8605 27.8Q462.34488 28.190624 462.34488 28.721874Q462.34488 29.065624 462.56363 29.346874Q462.76675 29.628124 463.2355 29.815624Q463.50113 29.909374 464.78238 30.253124Q466.65738 30.753124 467.39175 31.08125Q468.12613 31.39375 468.548 32.003124Q468.96988 32.596874 468.96988 33.503124Q468.96988 34.378124 468.45425 35.159374Q467.93863 35.940624 466.96988 36.3625Q466.00113 36.784374 464.78238 36.784374Q462.76675 36.784374 461.70425 35.940624Q460.64175 35.096874 460.34488 33.45625ZM478.673 36.55L477.048 36.55L477.048 22.2375L478.798 22.2375L478.798 27.346874Q479.923 25.940624 481.64175 25.940624Q482.59488 25.940624 483.45425 26.33125Q484.31363 26.721874 484.8605 27.425Q485.40738 28.1125 485.71988 29.096874Q486.03238 30.08125 486.03238 31.20625Q486.03238 33.878124 484.71988 35.33125Q483.40738 36.784374 481.56363 36.784374Q479.71988 36.784374 478.673 35.253124L478.673 36.55ZM478.65738 31.284374Q478.65738 33.14375 479.15738 33.9875Q480.00113 35.33125 481.40738 35.33125Q482.56363 35.33125 483.39175 34.33125Q484.2355 33.33125 484.2355 31.346874Q484.2355 29.315624 483.423 28.3625Q482.62613 27.39375 481.4855 27.39375Q480.32925 27.39375 479.4855 28.39375Q478.65738 29.39375 478.65738 31.284374ZM495.15738 33.20625L496.96988 33.440624Q496.548 35.01875 495.37613 35.909374Q494.21988 36.784374 492.40738 36.784374Q490.14175 36.784374 488.798 35.39375Q487.46988 33.9875 487.46988 31.45625Q487.46988 28.83125 488.81363 27.39375Q490.15738 25.940624 492.31363 25.940624Q494.39175 25.940624 495.70425 27.3625Q497.03238 28.76875 497.03238 31.346874Q497.03238 31.503124 497.01675 31.815624L489.28238 31.815624Q489.37613 33.51875 490.25113 34.425Q491.12613 35.33125 492.423 35.33125Q493.39175 35.33125 494.06363 34.83125Q494.75113 34.315624 495.15738 33.20625ZM489.37613 30.3625L495.173 30.3625Q495.06363 29.065624 494.51675 28.409374Q493.673 27.39375 492.32925 27.39375Q491.12613 27.39375 490.298 28.20625Q489.46988 29.003124 489.37613 30.3625ZM502.89175 34.971874L503.14175 36.534374Q502.40738 36.690624 501.81363 36.690624Q500.8605 36.690624 500.32925 36.39375Q499.81363 36.08125 499.59488 35.596874Q499.37613 35.096874 499.37613 33.51875L499.37613 27.55L498.09488 27.55L498.09488 26.175L499.37613 26.175L499.37613 23.6125L501.12613 22.55L501.12613 26.175L502.89175 26.175L502.89175 27.55L501.12613 27.55L501.12613 33.6125Q501.12613 34.3625 501.21988 34.58125Q501.31363 34.784374 501.51675 34.925Q501.7355 35.05 502.12613 35.05Q502.40738 35.05 502.89175 34.971874ZM508.89175 34.971874L509.14175 36.534374Q508.40738 36.690624 507.81363 36.690624Q506.8605 36.690624 506.32925 36.39375Q505.81363 36.08125 505.59488 35.596874Q505.37613 35.096874 505.37613 33.51875L505.37613 27.55L504.09488 27.55L504.09488 26.175L505.37613 26.175L505.37613 23.6125L507.12613 22.55L507.12613 26.175L508.89175 26.175L508.89175 27.55L507.12613 27.55L507.12613 33.6125Q507.12613 34.3625 507.21988 34.58125Q507.31363 34.784374 507.51675 34.925Q507.7355 35.05 508.12613 35.05Q508.40738 35.05 508.89175 34.971874ZM518.15735 33.20625L519.96985 33.440624Q519.548 35.01875 518.3761 35.909374Q517.21985 36.784374 515.40735 36.784374Q513.1417 36.784374 511.798 35.39375Q510.46988 33.9875 510.46988 31.45625Q510.46988 28.83125 511.81363 27.39375Q513.15735 25.940624 515.3136 25.940624Q517.3917 25.940624 518.7042 27.3625Q520.03235 28.76875 520.03235 31.346874Q520.03235 31.503124 520.0167 31.815624L512.28235 31.815624Q512.3761 33.51875 513.2511 34.425Q514.1261 35.33125 515.423 35.33125Q516.3917 35.33125 517.0636 34.83125Q517.7511 34.315624 518.15735 33.20625ZM512.3761 30.3625L518.173 30.3625Q518.0636 29.065624 517.5167 28.409374Q516.673 27.39375 515.3292 27.39375Q514.1261 27.39375 513.298 28.20625Q512.46985 29.003124 512.3761 30.3625ZM522.03235 36.55L522.03235 26.175L523.6105 26.175L523.6105 27.753124Q524.21985 26.64375 524.7355 26.3Q525.2511 25.940624 525.8605 25.940624Q526.7511 25.940624 527.673 26.503124L527.0636 28.14375Q526.423 27.753124 525.78235 27.753124Q525.2042 27.753124 524.7355 28.1125Q524.28235 28.45625 524.0792 29.065624Q523.798 30.003124 523.798 31.1125L523.798 36.55L522.03235 36.55ZM530.2042 40.753124L528.9542 40.753124Q531.8605 36.065624 531.8605 31.378124Q531.8605 29.534374 531.4542 27.7375Q531.1105 26.26875 530.5167 24.925Q530.1417 24.034374 528.9542 21.9875L530.2042 21.9875Q532.048 24.440624 532.923 26.909374Q533.673 29.034374 533.673 31.3625Q533.673 34.003124 532.65735 36.471874Q531.65735 38.925 530.2042 40.753124Z" fill-rule="nonzero"/></svg>