<svg version="1.1" viewBox="0.0 0.0 661.0 408.0" fill="none" stroke="none" stroke-linecap="square" stroke-miterlimit="10" width="661" height="408" xmlns:xlink="http://www.w3.org/1999/xlink" xmlns="http://www.w3.org/2000/svg"><path fill="#ffffff" d="M0 0L661.0 0L661.0 408.0L0 408.0L0 0Z" fill-rule="nonzero"/><path stroke="#333333" stroke-width="1.0" stroke-linecap="butt" d="M176.5 58.5L176.5 335.5" fill-rule="nonzero"/><path stroke="#cccccc" stroke-width="1.0" stroke-linecap="butt" d="M330.5 58.5L330.5 335.5" fill-rule="nonzero"/><path stroke="#cccccc" stroke-width="1.0" stroke-linecap="butt" d="M485.5 58.5L485.5 335.5" fill-rule="nonzero"/><path stroke="#cccccc" stroke-width="1.0" stroke-linecap="butt" d="M640.5 58.5L640.5 335.5" fill-rule="nonzero"/><clipPath id="id_0"><path d="M176.04 58.0L640.6 58.0L640.6 335.6L176.04 335.6L176.04 58.0Z" clip-rule="nonzero"/></clipPath><path stroke="#000000" stroke-width="2.0" stroke-linecap="butt" stroke-opacity="0.0" clip-path="url(#id_0)" d="M176.0 141.0L176.0 87.0L181.0 87.0C182.10457 87.0 183.0 87.89543 183.0 89.0L183.0 139.0C183.0 140.10457 182.10457 141.0 181.0 141.0Z" fill-rule="nonzero"/><path fill="#4285f4" clip-path="url(#id_0)" d="M176.0 141.0L176.0 87.0L181.0 87.0C182.10457 87.0 183.0 87.89543 183.0 89.0L183.0 139.0C183.0 140.10457 182.10457 141.0 181.0 141.0Z" fill-rule="nonzero"/><path stroke="#000000" stroke-width="2.0" stroke-linecap="butt" stroke-opacity="0.0" clip-path="url(#id_0)" d="M176.0 224.0L176.0 170.0L184.0 170.0C185.10457 170.0 186.0 170.89543 186.0 172.0L186.0 222.0C186.0 223.10457 185.10457 224.0 184.0 224.0Z" fill-rule="nonzero"/><path fill="#4285f4" clip-path="url(#id_0)" d="M176.0 224.0L176.0 170.0L184.0 170.0C185.10457 170.0 186.0 170.89543 186.0 172.0L186.0 222.0C186.0 223.10457 185.10457 224.0 184.0 224.0Z" fill-rule="nonzero"/><path stroke="#000000" stroke-width="2.0" stroke-linecap="butt" stroke-opacity="0.0" clip-path="url(#id_0)" d="M176.0 307.0L176.0 253.0L625.0 253.0C626.10455 253.0 627.0 253.89543 627.0 255.0L627.0 305.0C627.0 306.10458 626.10455 307.0 625.0 307.0Z" fill-rule="nonzero"/><path fill="#4285f4" clip-path="url(#id_0)" d="M176.0 307.0L176.0 253.0L625.0 253.0C626.10455 253.0 627.0 253.89543 627.0 255.0L627.0 305.0C627.0 306.10458 626.10455 307.0 625.0 307.0Z" fill-rule="nonzero"/><path fill="#000000" d="M384.86688 381.83438L385.92938 381.74063Q386.0075 382.39688 386.28876 382.80313Q386.57 383.20938 387.14813 383.475Q387.74188 383.725 388.47626 383.725Q389.11688 383.725 389.61688 383.5375Q390.11688 383.33438 390.35126 383.00626Q390.60126 382.6625 390.60126 382.27188Q390.60126 381.86563 390.36688 381.56876Q390.1325 381.25626 389.60126 381.05313Q389.24188 380.9125 388.05438 380.63126Q386.8825 380.35 386.41376 380.1Q385.78876 379.77188 385.49188 379.30313Q385.195 378.81876 385.195 378.225Q385.195 377.58438 385.55438 377.02188Q385.92938 376.44376 386.6325 376.1625Q387.35126 375.86563 388.21063 375.86563Q389.16376 375.86563 389.89813 376.17813Q390.6325 376.475 391.02313 377.08438Q391.41376 377.67813 391.445 378.42813L390.35126 378.50626Q390.2575 377.69376 389.74188 377.2875Q389.24188 376.86563 388.2575 376.86563Q387.22626 376.86563 386.7575 377.24063Q386.28876 377.61563 386.28876 378.14688Q386.28876 378.61563 386.61688 378.9125Q386.945 379.20938 388.32 379.52188Q389.71063 379.83438 390.22626 380.06876Q390.97626 380.42813 391.33563 380.95938Q391.695 381.475 391.695 382.17813Q391.695 382.86563 391.30438 383.475Q390.91376 384.06876 390.17938 384.4125Q389.445 384.74063 388.52313 384.74063Q387.35126 384.74063 386.55438 384.4125Q385.77313 384.06876 385.32 383.38126Q384.8825 382.69376 384.86688 381.83438ZM397.36688 382.6L398.46063 382.725Q398.21063 383.67813 397.5075 384.20938Q396.80438 384.74063 395.72626 384.74063Q394.36688 384.74063 393.55438 383.89688Q392.7575 383.05313 392.7575 381.5375Q392.7575 379.975 393.57 379.11563Q394.3825 378.24063 395.66376 378.24063Q396.91376 378.24063 397.695 379.08438Q398.49188 379.92813 398.49188 381.475Q398.49188 381.56876 398.49188 381.75626L393.85126 381.75626Q393.91376 382.7875 394.42938 383.33438Q394.945 383.86563 395.72626 383.86563Q396.30438 383.86563 396.71063 383.56876Q397.1325 383.25626 397.36688 382.6ZM393.91376 380.89688L397.3825 380.89688Q397.32 380.1 396.99188 379.70938Q396.47626 379.1 395.67938 379.1Q394.945 379.1 394.445 379.58438Q393.96063 380.06876 393.91376 380.89688ZM404.17938 382.31876L405.21063 382.45938Q405.03876 383.52188 404.33563 384.13126Q403.6325 384.74063 402.61688 384.74063Q401.33563 384.74063 400.55438 383.9125Q399.78876 383.06876 399.78876 381.50626Q399.78876 380.50626 400.11688 379.75626Q400.46063 378.99063 401.1325 378.61563Q401.82 378.24063 402.6325 378.24063Q403.6325 378.24063 404.27313 378.75626Q404.92938 379.25626 405.11688 380.20938L404.08563 380.36563Q403.945 379.74063 403.57 379.42813Q403.195 379.1 402.66376 379.1Q401.86688 379.1 401.36688 379.67813Q400.86688 380.24063 400.86688 381.475Q400.86688 382.74063 401.35126 383.30313Q401.83563 383.86563 402.60126 383.86563Q403.22626 383.86563 403.6325 383.49063Q404.05438 383.11563 404.17938 382.31876ZM405.72626 381.49063Q405.72626 379.75626 406.67938 378.92813Q407.47626 378.24063 408.6325 378.24063Q409.91376 378.24063 410.72626 379.08438Q411.55438 379.9125 411.55438 381.39688Q411.55438 382.6 411.195 383.2875Q410.83563 383.975 410.1325 384.36563Q409.445 384.74063 408.6325 384.74063Q407.33563 384.74063 406.52313 383.9125Q405.72626 383.06876 405.72626 381.49063ZM406.80438 381.49063Q406.80438 382.67813 407.32 383.27188Q407.85126 383.86563 408.6325 383.86563Q409.42938 383.86563 409.945 383.27188Q410.46063 382.67813 410.46063 381.45938Q410.46063 380.30313 409.92938 379.70938Q409.41376 379.11563 408.6325 379.11563Q407.85126 379.11563 407.32 379.70938Q406.80438 380.2875 406.80438 381.49063ZM413.11688 384.6L413.11688 378.38126L414.05438 378.38126L414.05438 379.25626Q414.74188 378.24063 416.03876 378.24063Q416.60126 378.24063 417.07 378.44376Q417.55438 378.64688 417.78876 378.975Q418.02313 379.30313 418.11688 379.74063Q418.16376 380.0375 418.16376 380.77188L418.16376 384.6L417.11688 384.6L417.11688 380.81876Q417.11688 380.1625 416.99188 379.85Q416.86688 379.5375 416.55438 379.35Q416.24188 379.14688 415.82 379.14688Q415.14813 379.14688 414.64813 379.58438Q414.16376 380.00626 414.16376 381.19376L414.16376 384.6L413.11688 384.6ZM424.14813 384.6L424.14813 383.81876Q423.55438 384.74063 422.41376 384.74063Q421.66376 384.74063 421.03876 384.33438Q420.41376 383.9125 420.07 383.17813Q419.72626 382.44376 419.72626 381.49063Q419.72626 380.56876 420.03876 379.80313Q420.35126 379.0375 420.97626 378.64688Q421.60126 378.24063 422.36688 378.24063Q422.92938 378.24063 423.36688 378.475Q423.80438 378.70938 424.08563 379.08438L424.08563 376.00626L425.1325 376.00626L425.1325 384.6L424.14813 384.6ZM420.82 381.49063Q420.82 382.69376 421.32 383.2875Q421.82 383.86563 422.5075 383.86563Q423.195 383.86563 423.67938 383.30313Q424.16376 382.74063 424.16376 381.58438Q424.16376 380.30313 423.66376 379.70938Q423.17938 379.11563 422.46063 379.11563Q421.7575 379.11563 421.28876 379.69376Q420.82 380.25626 420.82 381.49063ZM426.695 382.74063L427.72626 382.58438Q427.82 383.20938 428.21063 383.5375Q428.61688 383.86563 429.35126 383.86563Q430.07 383.86563 430.41376 383.58438Q430.77313 383.2875 430.77313 382.88126Q430.77313 382.52188 430.46063 382.31876Q430.24188 382.17813 429.3825 381.95938Q428.22626 381.6625 427.77313 381.45938Q427.33563 381.24063 427.10126 380.86563Q426.86688 380.49063 426.86688 380.02188Q426.86688 379.61563 427.05438 379.25626Q427.24188 378.89688 427.57 378.6625Q427.82 378.49063 428.24188 378.36563Q428.66376 378.24063 429.16376 378.24063Q429.8825 378.24063 430.42938 378.45938Q430.99188 378.6625 431.2575 379.02188Q431.52313 379.38126 431.61688 379.975L430.58563 380.11563Q430.52313 379.64688 430.17938 379.38126Q429.85126 379.1 429.22626 379.1Q428.5075 379.1 428.195 379.35Q427.8825 379.58438 427.8825 379.9125Q427.8825 380.11563 428.0075 380.27188Q428.14813 380.44376 428.41376 380.55313Q428.57 380.61563 429.35126 380.81876Q430.47626 381.13126 430.91376 381.31876Q431.35126 381.50626 431.60126 381.86563Q431.85126 382.225 431.85126 382.77188Q431.85126 383.30313 431.53876 383.77188Q431.24188 384.225 430.66376 384.49063Q430.08563 384.74063 429.35126 384.74063Q428.1325 384.74063 427.49188 384.24063Q426.86688 383.725 426.695 382.74063Z" fill-rule="nonzero"/><path fill="#000000" d="M28.38438 228.2375L28.681255 227.1125Q30.07188 227.47188 30.806255 228.39375Q31.54063 229.31563 31.54063 230.65938Q31.54063 232.05 30.97813 232.925Q30.41563 233.8 29.35313 234.25313Q28.275005 234.70625 27.04063 234.70625Q25.69688 234.70625 24.69688 234.19063Q23.69688 233.675 23.181255 232.7375Q22.66563 231.78438 22.66563 230.64375Q22.66563 229.3625 23.32188 228.4875Q23.97813 227.59688 25.16563 227.25313L25.431255 228.37813Q24.493755 228.675 24.07188 229.25313Q23.63438 229.81563 23.63438 230.675Q23.63438 231.65938 24.118755 232.33125Q24.587505 232.9875 25.38438 233.26875Q26.181255 233.53438 27.04063 233.53438Q28.13438 233.53438 28.94688 233.22188Q29.75938 232.89375 30.16563 232.22188Q30.57188 231.55 30.57188 230.75313Q30.57188 229.8 30.025005 229.14375Q29.47813 228.47188 28.38438 228.2375ZM28.29063 225.89375Q26.556255 225.89375 25.72813 224.94063Q25.04063 224.14375 25.04063 222.9875Q25.04063 221.70625 25.88438 220.89375Q26.712505 220.06563 28.19688 220.06563Q29.400005 220.06563 30.087505 220.425Q30.775005 220.78438 31.16563 221.4875Q31.54063 222.175 31.54063 222.9875Q31.54063 224.28438 30.712505 225.09688Q29.868755 225.89375 28.29063 225.89375ZM28.29063 224.81563Q29.47813 224.81563 30.07188 224.3Q30.66563 223.76875 30.66563 222.9875Q30.66563 222.19063 30.07188 221.675Q29.47813 221.15938 28.25938 221.15938Q27.10313 221.15938 26.50938 221.69063Q25.91563 222.20625 25.91563 222.9875Q25.91563 223.76875 26.50938 224.3Q27.087505 224.81563 28.29063 224.81563ZM31.400005 218.50313L25.181255 218.50313L25.181255 217.56563L26.056255 217.56563Q25.587505 217.26875 25.32188 216.78438Q25.04063 216.3 25.04063 215.675Q25.04063 214.9875 25.32188 214.55Q25.60313 214.09688 26.118755 213.925Q25.04063 213.175 25.04063 212.00313Q25.04063 211.06563 25.556255 210.58125Q26.056255 210.08125 27.13438 210.08125L31.400005 210.08125L31.400005 211.12813L27.47813 211.12813Q26.85313 211.12813 26.57188 211.2375Q26.29063 211.33125 26.118755 211.59688Q25.94688 211.8625 25.94688 212.2375Q25.94688 212.89375 26.38438 213.33125Q26.82188 213.75313 27.79063 213.75313L31.400005 213.75313L31.400005 214.81563L27.35313 214.81563Q26.650005 214.81563 26.306255 215.08125Q25.94688 215.33125 25.94688 215.90938Q25.94688 216.3625 26.181255 216.7375Q26.41563 217.1125 26.868755 217.28438Q27.32188 217.45625 28.16563 217.45625L31.400005 217.45625L31.400005 218.50313ZM31.400005 208.50313L25.181255 208.50313L25.181255 207.56563L26.056255 207.56563Q25.587505 207.26875 25.32188 206.78438Q25.04063 206.3 25.04063 205.675Q25.04063 204.9875 25.32188 204.55Q25.60313 204.09688 26.118755 203.925Q25.04063 203.175 25.04063 202.00313Q25.04063 201.06563 25.556255 200.58125Q26.056255 200.08125 27.13438 200.08125L31.400005 200.08125L31.400005 201.12813L27.47813 201.12813Q26.85313 201.12813 26.57188 201.2375Q26.29063 201.33125 26.118755 201.59688Q25.94688 201.8625 25.94688 202.2375Q25.94688 202.89375 26.38438 203.33125Q26.82188 203.75313 27.79063 203.75313L31.400005 203.75313L31.400005 204.81563L27.35313 204.81563Q26.650005 204.81563 26.306255 205.08125Q25.94688 205.33125 25.94688 205.90938Q25.94688 206.3625 26.181255 206.7375Q26.41563 207.1125 26.868755 207.28438Q27.32188 207.45625 28.16563 207.45625L31.400005 207.45625L31.400005 208.50313ZM30.63438 194.44063Q31.13438 195.03438 31.337505 195.58125Q31.54063 196.1125 31.54063 196.7375Q31.54063 197.76875 31.04063 198.31563Q30.54063 198.8625 29.75938 198.8625Q29.306255 198.8625 28.931255 198.65938Q28.54063 198.45625 28.32188 198.1125Q28.087505 197.76875 27.97813 197.34688Q27.88438 197.05 27.806255 196.40938Q27.66563 195.14375 27.44688 194.53438Q27.22813 194.53438 27.181255 194.53438Q26.525005 194.53438 26.25938 194.83125Q25.91563 195.2375 25.91563 196.03438Q25.91563 196.76875 26.181255 197.12813Q26.431255 197.4875 27.087505 197.65938L26.94688 198.69063Q26.29063 198.55 25.88438 198.22188Q25.47813 197.89375 25.25938 197.28438Q25.04063 196.675 25.04063 195.87813Q25.04063 195.08125 25.22813 194.58125Q25.41563 194.08125 25.69688 193.84688Q25.97813 193.6125 26.41563 193.51875Q26.681255 193.47188 27.38438 193.47188L28.79063 193.47188Q30.25938 193.47188 30.650005 193.40938Q31.04063 193.33125 31.400005 193.12813L31.400005 194.2375Q31.07188 194.39375 30.63438 194.44063ZM28.275005 194.53438Q28.50938 195.1125 28.681255 196.25313Q28.775005 196.90938 28.900005 197.175Q29.00938 197.44063 29.22813 197.59688Q29.44688 197.7375 29.72813 197.7375Q30.150005 197.7375 30.431255 197.425Q30.712505 197.09688 30.712505 196.4875Q30.712505 195.87813 30.44688 195.40938Q30.181255 194.925 29.712505 194.70625Q29.35313 194.53438 28.66563 194.53438L28.275005 194.53438ZM31.400005 191.50313L25.181255 191.50313L25.181255 190.56563L26.056255 190.56563Q25.04063 189.87813 25.04063 188.58125Q25.04063 188.01875 25.243755 187.55Q25.44688 187.06563 25.775005 186.83125Q26.10313 186.59688 26.54063 186.50313Q26.837505 186.45625 27.57188 186.45625L31.400005 186.45625L31.400005 187.50313L27.618755 187.50313Q26.962505 187.50313 26.650005 187.62813Q26.337505 187.75313 26.150005 188.06563Q25.94688 188.37813 25.94688 188.8Q25.94688 189.47188 26.38438 189.97188Q26.806255 190.45625 27.993755 190.45625L31.400005 190.45625L31.400005 191.50313ZM31.400005 180.47188L30.618755 180.47188Q31.54063 181.06563 31.54063 182.20625Q31.54063 182.95625 31.13438 183.58125Q30.712505 184.20625 29.97813 184.55Q29.243755 184.89375 28.29063 184.89375Q27.368755 184.89375 26.60313 184.58125Q25.837505 184.26875 25.44688 183.64375Q25.04063 183.01875 25.04063 182.25313Q25.04063 181.69063 25.275005 181.25313Q25.50938 180.81563 25.88438 180.53438L22.806255 180.53438L22.806255 179.4875L31.400005 179.4875L31.400005 180.47188ZM28.29063 183.8Q29.493755 183.8 30.087505 183.3Q30.66563 182.8 30.66563 182.1125Q30.66563 181.425 30.10313 180.94063Q29.54063 180.45625 28.38438 180.45625Q27.10313 180.45625 26.50938 180.95625Q25.91563 181.44063 25.91563 182.15938Q25.91563 182.8625 26.493755 183.33125Q27.056255 183.8 28.29063 183.8Z" fill-rule="nonzero"/><path fill="#000000" d="M85.805626 110.934326L84.82125 110.934326L84.82125 102.340576L85.88375 102.340576L85.88375 105.403076Q86.555626 104.57495 87.586876 104.57495Q88.165 104.57495 88.665 104.809326Q89.180626 105.028076 89.50875 105.44995Q89.8525 105.871826 90.04 106.465576Q90.2275 107.059326 90.2275 107.7312Q90.2275 109.32495 89.430626 110.19995Q88.63375 111.07495 87.54 111.07495Q86.430626 111.07495 85.805626 110.153076L85.805626 110.934326ZM85.79 107.778076Q85.79 108.88745 86.1025 109.38745Q86.6025 110.19995 87.44625 110.19995Q88.13375 110.19995 88.63375 109.6062Q89.149376 109.01245 89.149376 107.809326Q89.149376 106.590576 88.665 106.01245Q88.180626 105.434326 87.493126 105.434326Q86.805626 105.434326 86.29 106.0437Q85.79 106.63745 85.79 107.778076ZM95.915 110.934326L95.915 110.01245Q95.180626 111.07495 93.930626 111.07495Q93.38375 111.07495 92.899376 110.871826Q92.430626 110.653076 92.19625 110.340576Q91.961876 110.01245 91.868126 109.5437Q91.805626 109.246826 91.805626 108.559326L91.805626 104.715576L92.868126 104.715576L92.868126 108.1687Q92.868126 108.9812 92.930626 109.278076Q93.024376 109.684326 93.336876 109.934326Q93.665 110.1687 94.149376 110.1687Q94.618126 110.1687 95.024376 109.934326Q95.44625 109.684326 95.618126 109.26245Q95.805626 108.840576 95.805626 108.0437L95.805626 104.715576L96.8525 104.715576L96.8525 110.934326L95.915 110.934326ZM98.836876 113.32495L98.836876 104.715576L99.79 104.715576L99.79 105.51245Q100.13375 105.0437 100.555626 104.809326Q100.993126 104.57495 101.6025 104.57495Q102.399376 104.57495 103.00875 104.9812Q103.618126 105.38745 103.915 106.13745Q104.2275 106.88745 104.2275 107.778076Q104.2275 108.7312 103.88375 109.496826Q103.555626 110.26245 102.899376 110.6687Q102.243126 111.07495 101.524376 111.07495Q100.993126 111.07495 100.57125 110.8562Q100.149376 110.621826 99.88375 110.2937L99.88375 113.32495L98.836876 113.32495ZM99.79 107.8562Q99.79 109.059326 100.274376 109.63745Q100.75875 110.19995 101.44625 110.19995Q102.149376 110.19995 102.649376 109.6062Q103.149376 109.01245 103.149376 107.76245Q103.149376 106.57495 102.665 105.996826Q102.180626 105.403076 101.493126 105.403076Q100.82125 105.403076 100.305626 106.028076Q99.79 106.653076 99.79 107.8562ZM105.415 109.07495L106.44625 108.9187Q106.54 109.5437 106.930626 109.871826Q107.336876 110.19995 108.07125 110.19995Q108.79 110.19995 109.13375 109.9187Q109.493126 109.621826 109.493126 109.215576Q109.493126 108.8562 109.180626 108.653076Q108.961876 108.51245 108.1025 108.2937Q106.94625 107.996826 106.493126 107.7937Q106.055626 107.57495 105.82125 107.19995Q105.586876 106.82495 105.586876 106.3562Q105.586876 105.94995 105.774376 105.590576Q105.961876 105.2312 106.29 104.996826Q106.54 104.82495 106.961876 104.69995Q107.38375 104.57495 107.88375 104.57495Q108.6025 104.57495 109.149376 104.7937Q109.711876 104.996826 109.9775 105.3562Q110.243126 105.715576 110.336876 106.309326L109.305626 106.44995Q109.243126 105.9812 108.899376 105.715576Q108.57125 105.434326 107.94625 105.434326Q107.2275 105.434326 106.915 105.684326Q106.6025 105.9187 106.6025 106.246826Q106.6025 106.44995 106.7275 106.6062Q106.868126 106.778076 107.13375 106.88745Q107.29 106.94995 108.07125 107.153076Q109.19625 107.465576 109.63375 107.653076Q110.07125 107.840576 110.32125 108.19995Q110.57125 108.559326 110.57125 109.1062Q110.57125 109.63745 110.25875 110.1062Q109.961876 110.559326 109.38375 110.82495Q108.805626 111.07495 108.07125 111.07495Q106.8525 111.07495 106.211876 110.57495Q105.586876 110.059326 105.415 109.07495ZM114.13375 109.996826L114.29 110.9187Q113.836876 111.01245 113.493126 111.01245Q112.915 111.01245 112.6025 110.840576Q112.29 110.653076 112.149376 110.3562Q112.024376 110.059326 112.024376 109.1062L112.024376 105.528076L111.25875 105.528076L111.25875 104.715576L112.024376 104.715576L112.024376 103.1687L113.07125 102.5437L113.07125 104.715576L114.13375 104.715576L114.13375 105.528076L113.07125 105.528076L113.07125 109.1687Q113.07125 109.621826 113.118126 109.746826Q113.180626 109.871826 113.305626 109.94995Q113.430626 110.028076 113.665 110.028076Q113.8525 110.028076 114.13375 109.996826ZM118.899376 110.1687Q118.305626 110.6687 117.75875 110.871826Q117.2275 111.07495 116.6025 111.07495Q115.57125 111.07495 115.024376 110.57495Q114.4775 110.07495 114.4775 109.2937Q114.4775 108.840576 114.680626 108.465576Q114.88375 108.07495 115.2275 107.8562Q115.57125 107.621826 115.993126 107.51245Q116.29 107.4187 116.930626 107.340576Q118.19625 107.19995 118.805626 106.9812Q118.805626 106.76245 118.805626 106.715576Q118.805626 106.059326 118.50875 105.7937Q118.1025 105.44995 117.305626 105.44995Q116.57125 105.44995 116.211876 105.715576Q115.8525 105.965576 115.680626 106.621826L114.649376 106.4812Q114.79 105.82495 115.118126 105.4187Q115.44625 105.01245 116.055626 104.7937Q116.665 104.57495 117.461876 104.57495Q118.25875 104.57495 118.75875 104.76245Q119.25875 104.94995 119.493126 105.2312Q119.7275 105.51245 119.82125 105.94995Q119.868126 106.215576 119.868126 106.9187L119.868126 108.32495Q119.868126 109.7937 119.930626 110.184326Q120.00875 110.57495 120.211876 110.934326L119.1025 110.934326Q118.94625 110.6062 118.899376 110.1687ZM118.805626 107.809326Q118.2275 108.0437 117.086876 108.215576Q116.430626 108.309326 116.165 108.434326Q115.899376 108.5437 115.743126 108.76245Q115.6025 108.9812 115.6025 109.26245Q115.6025 109.684326 115.915 109.965576Q116.243126 110.246826 116.8525 110.246826Q117.461876 110.246826 117.930626 109.9812Q118.415 109.715576 118.63375 109.246826Q118.805626 108.88745 118.805626 108.19995L118.805626 107.809326ZM121.415 109.07495L122.44625 108.9187Q122.54 109.5437 122.930626 109.871826Q123.336876 110.19995 124.07125 110.19995Q124.79 110.19995 125.13375 109.9187Q125.493126 109.621826 125.493126 109.215576Q125.493126 108.8562 125.180626 108.653076Q124.961876 108.51245 124.1025 108.2937Q122.94625 107.996826 122.493126 107.7937Q122.055626 107.57495 121.82125 107.19995Q121.586876 106.82495 121.586876 106.3562Q121.586876 105.94995 121.774376 105.590576Q121.961876 105.2312 122.29 104.996826Q122.54 104.82495 122.961876 104.69995Q123.38375 104.57495 123.88375 104.57495Q124.6025 104.57495 125.149376 104.7937Q125.711876 104.996826 125.9775 105.3562Q126.243126 105.715576 126.336876 106.309326L125.305626 106.44995Q125.243126 105.9812 124.899376 105.715576Q124.57125 105.434326 123.94625 105.434326Q123.2275 105.434326 122.915 105.684326Q122.6025 105.9187 122.6025 106.246826Q122.6025 106.44995 122.7275 106.6062Q122.868126 106.778076 123.13375 106.88745Q123.29 106.94995 124.07125 107.153076Q125.19625 107.465576 125.63375 107.653076Q126.07125 107.840576 126.32125 108.19995Q126.57125 108.559326 126.57125 109.1062Q126.57125 109.63745 126.25875 110.1062Q125.961876 110.559326 125.38375 110.82495Q124.805626 111.07495 124.07125 111.07495Q122.8525 111.07495 122.211876 110.57495Q121.586876 110.059326 121.415 109.07495ZM127.836876 110.934326L127.836876 102.340576L128.88376 102.340576L128.88376 105.4187Q129.61813 104.57495 130.74313 104.57495Q131.44626 104.57495 131.94626 104.8562Q132.46188 105.121826 132.68063 105.6062Q132.89938 106.07495 132.89938 106.996826L132.89938 110.934326L131.85251 110.934326L131.85251 106.996826Q131.85251 106.19995 131.50876 105.840576Q131.16501 105.4812 130.54001 105.4812Q130.07126 105.4812 129.64938 105.7312Q129.24313 105.965576 129.05563 106.38745Q128.88376 106.7937 128.88376 107.528076L128.88376 110.934326L127.836876 110.934326ZM137.82126 110.934326L137.82126 104.715576L138.77438 104.715576L138.77438 105.653076Q139.13376 104.996826 139.43063 104.7937Q139.74313 104.57495 140.11813 104.57495Q140.64938 104.57495 141.19626 104.903076L140.83688 105.88745Q140.44626 105.653076 140.07126 105.653076Q139.71188 105.653076 139.43063 105.871826Q139.16501 106.07495 139.05563 106.44995Q138.86813 107.01245 138.86813 107.6687L138.86813 110.934326L137.82126 110.934326ZM141.83688 110.934326L141.83688 104.715576L142.77438 104.715576L142.77438 105.590576Q143.07126 105.121826 143.55563 104.8562Q144.04001 104.57495 144.66501 104.57495Q145.35251 104.57495 145.79001 104.8562Q146.24313 105.13745 146.41501 105.653076Q147.16501 104.57495 148.33688 104.57495Q149.27438 104.57495 149.75876 105.090576Q150.25876 105.590576 150.25876 106.6687L150.25876 110.934326L149.21188 110.934326L149.21188 107.01245Q149.21188 106.38745 149.10251 106.1062Q149.00876 105.82495 148.74313 105.653076Q148.47751 105.4812 148.10251 105.4812Q147.44626 105.4812 147.00876 105.9187Q146.58688 106.3562 146.58688 107.32495L146.58688 110.934326L145.52438 110.934326L145.52438 106.88745Q145.52438 106.184326 145.25876 105.840576Q145.00876 105.4812 144.43063 105.4812Q143.97751 105.4812 143.60251 105.715576Q143.22751 105.94995 143.05563 106.403076Q142.88376 106.8562 142.88376 107.69995L142.88376 110.934326L141.83688 110.934326ZM159.74313 109.9187Q159.22751 110.496826 158.60251 110.7937Q157.99313 111.07495 157.27438 111.07495Q155.96188 111.07495 155.18063 110.184326Q154.55563 109.465576 154.55563 108.559326Q154.55563 107.76245 155.07126 107.121826Q155.58688 106.4812 156.60251 105.996826Q156.02438 105.32495 155.82126 104.9187Q155.63376 104.496826 155.63376 104.1062Q155.63376 103.340576 156.24313 102.778076Q156.85251 102.19995 157.77438 102.19995Q158.64938 102.19995 159.19626 102.746826Q159.75876 103.278076 159.75876 104.028076Q159.75876 105.26245 158.14938 106.121826L159.68063 108.090576Q159.94626 107.57495 160.08688 106.88745L161.19626 107.121826Q160.91501 108.246826 160.43063 108.9812Q161.02438 109.76245 161.77438 110.2937L161.05563 111.13745Q160.41501 110.715576 159.74313 109.9187ZM157.60251 105.44995Q158.29001 105.0437 158.47751 104.746826Q158.68063 104.434326 158.68063 104.059326Q158.68063 103.621826 158.39938 103.340576Q158.13376 103.059326 157.71188 103.059326Q157.29001 103.059326 156.99313 103.340576Q156.71188 103.621826 156.71188 104.01245Q156.71188 104.215576 156.82126 104.434326Q156.93063 104.653076 157.13376 104.903076L157.60251 105.44995ZM159.08688 109.090576L157.14938 106.684326Q156.29001 107.19995 155.99313 107.63745Q155.69626 108.07495 155.69626 108.496826Q155.69626 109.028076 156.10251 109.590576Q156.52438 110.153076 157.29001 110.153076Q157.75876 110.153076 158.25876 109.8562Q158.77438 109.559326 159.08688 109.090576ZM167.74313 109.9187Q167.22751 110.496826 166.60251 110.7937Q165.99313 111.07495 165.27438 111.07495Q163.96188 111.07495 163.18063 110.184326Q162.55563 109.465576 162.55563 108.559326Q162.55563 107.76245 163.07126 107.121826Q163.58688 106.4812 164.60251 105.996826Q164.02438 105.32495 163.82126 104.9187Q163.63376 104.496826 163.63376 104.1062Q163.63376 103.340576 164.24313 102.778076Q164.85251 102.19995 165.77438 102.19995Q166.64938 102.19995 167.19626 102.746826Q167.75876 103.278076 167.75876 104.028076Q167.75876 105.26245 166.14938 106.121826L167.68063 108.090576Q167.94626 107.57495 168.08688 106.88745L169.19626 107.121826Q168.91501 108.246826 168.43063 108.9812Q169.02438 109.76245 169.77438 110.2937L169.05563 111.13745Q168.41501 110.715576 167.74313 109.9187ZM165.60251 105.44995Q166.29001 105.0437 166.47751 104.746826Q166.68063 104.434326 166.68063 104.059326Q166.68063 103.621826 166.39938 103.340576Q166.13376 103.059326 165.71188 103.059326Q165.29001 103.059326 164.99313 103.340576Q164.71188 103.621826 164.71188 104.01245Q164.71188 104.215576 164.82126 104.434326Q164.93063 104.653076 165.13376 104.903076L165.60251 105.44995ZM167.08688 109.090576L165.14938 106.684326Q164.29001 107.19995 163.99313 107.63745Q163.69626 108.07495 163.69626 108.496826Q163.69626 109.028076 164.10251 109.590576Q164.52438 110.153076 165.29001 110.153076Q165.75876 110.153076 166.25876 109.8562Q166.77438 109.559326 167.08688 109.090576Z" fill-rule="nonzero"/><path fill="#000000" d="M105.805626 124.934326L104.82125 124.934326L104.82125 116.340576L105.88375 116.340576L105.88375 119.403076Q106.555626 118.57495 107.586876 118.57495Q108.165 118.57495 108.665 118.809326Q109.180626 119.028076 109.50875 119.44995Q109.8525 119.871826 110.04 120.465576Q110.2275 121.059326 110.2275 121.7312Q110.2275 123.32495 109.430626 124.19995Q108.63375 125.07495 107.54 125.07495Q106.430626 125.07495 105.805626 124.153076L105.805626 124.934326ZM105.79 121.778076Q105.79 122.88745 106.1025 123.38745Q106.6025 124.19995 107.44625 124.19995Q108.13375 124.19995 108.63375 123.6062Q109.149376 123.01245 109.149376 121.809326Q109.149376 120.590576 108.665 120.01245Q108.180626 119.434326 107.493126 119.434326Q106.805626 119.434326 106.29 120.0437Q105.79 120.63745 105.79 121.778076ZM115.915 124.934326L115.915 124.01245Q115.180626 125.07495 113.930626 125.07495Q113.38375 125.07495 112.899376 124.871826Q112.430626 124.653076 112.19625 124.340576Q111.961876 124.01245 111.868126 123.5437Q111.805626 123.246826 111.805626 122.559326L111.805626 118.715576L112.868126 118.715576L112.868126 122.1687Q112.868126 122.9812 112.930626 123.278076Q113.024376 123.684326 113.336876 123.934326Q113.665 124.1687 114.149376 124.1687Q114.618126 124.1687 115.024376 123.934326Q115.44625 123.684326 115.618126 123.26245Q115.805626 122.840576 115.805626 122.0437L115.805626 118.715576L116.8525 118.715576L116.8525 124.934326L115.915 124.934326ZM118.836876 127.32495L118.836876 118.715576L119.79 118.715576L119.79 119.51245Q120.13375 119.0437 120.555626 118.809326Q120.993126 118.57495 121.6025 118.57495Q122.399376 118.57495 123.00875 118.9812Q123.618126 119.38745 123.915 120.13745Q124.2275 120.88745 124.2275 121.778076Q124.2275 122.7312 123.88375 123.496826Q123.555626 124.26245 122.899376 124.6687Q122.243126 125.07495 121.524376 125.07495Q120.993126 125.07495 120.57125 124.8562Q120.149376 124.621826 119.88375 124.2937L119.88375 127.32495L118.836876 127.32495ZM119.79 121.8562Q119.79 123.059326 120.274376 123.63745Q120.75875 124.19995 121.44625 124.19995Q122.149376 124.19995 122.649376 123.6062Q123.149376 123.01245 123.149376 121.76245Q123.149376 120.57495 122.665 119.996826Q122.180626 119.403076 121.493126 119.403076Q120.82125 119.403076 120.305626 120.028076Q119.79 120.653076 119.79 121.8562ZM125.415 123.07495L126.44625 122.9187Q126.54 123.5437 126.930626 123.871826Q127.336876 124.19995 128.07126 124.19995Q128.79001 124.19995 129.13376 123.9187Q129.49313 123.621826 129.49313 123.215576Q129.49313 122.8562 129.18063 122.653076Q128.96188 122.51245 128.10251 122.2937Q126.94625 121.996826 126.493126 121.7937Q126.055626 121.57495 125.82125 121.19995Q125.586876 120.82495 125.586876 120.3562Q125.586876 119.94995 125.774376 119.590576Q125.961876 119.2312 126.29 118.996826Q126.54 118.82495 126.961876 118.69995Q127.38375 118.57495 127.88375 118.57495Q128.60251 118.57495 129.14938 118.7937Q129.71188 118.996826 129.97751 119.3562Q130.24313 119.715576 130.33688 120.309326L129.30563 120.44995Q129.24313 119.9812 128.89938 119.715576Q128.57126 119.434326 127.94625 119.434326Q127.2275 119.434326 126.915 119.684326Q126.6025 119.9187 126.6025 120.246826Q126.6025 120.44995 126.7275 120.6062Q126.868126 120.778076 127.13375 120.88745Q127.29 120.94995 128.07126 121.153076Q129.19626 121.465576 129.63376 121.653076Q130.07126 121.840576 130.32126 122.19995Q130.57126 122.559326 130.57126 123.1062Q130.57126 123.63745 130.25876 124.1062Q129.96188 124.559326 129.38376 124.82495Q128.80563 125.07495 128.07126 125.07495Q126.8525 125.07495 126.211876 124.57495Q125.586876 124.059326 125.415 123.07495ZM134.13376 123.996826L134.29001 124.9187Q133.83688 125.01245 133.49313 125.01245Q132.91501 125.01245 132.60251 124.840576Q132.29001 124.653076 132.14938 124.3562Q132.02438 124.059326 132.02438 123.1062L132.02438 119.528076L131.25876 119.528076L131.25876 118.715576L132.02438 118.715576L132.02438 117.1687L133.07126 116.5437L133.07126 118.715576L134.13376 118.715576L134.13376 119.528076L133.07126 119.528076L133.07126 123.1687Q133.07126 123.621826 133.11813 123.746826Q133.18063 123.871826 133.30563 123.94995Q133.43063 124.028076 133.66501 124.028076Q133.85251 124.028076 134.13376 123.996826ZM138.89938 124.1687Q138.30563 124.6687 137.75876 124.871826Q137.22751 125.07495 136.60251 125.07495Q135.57126 125.07495 135.02438 124.57495Q134.47751 124.07495 134.47751 123.2937Q134.47751 122.840576 134.68063 122.465576Q134.88376 122.07495 135.22751 121.8562Q135.57126 121.621826 135.99313 121.51245Q136.29001 121.4187 136.93063 121.340576Q138.19626 121.19995 138.80563 120.9812Q138.80563 120.76245 138.80563 120.715576Q138.80563 120.059326 138.50876 119.7937Q138.10251 119.44995 137.30563 119.44995Q136.57126 119.44995 136.21188 119.715576Q135.85251 119.965576 135.68063 120.621826L134.64938 120.4812Q134.79001 119.82495 135.11813 119.4187Q135.44626 119.01245 136.05563 118.7937Q136.66501 118.57495 137.46188 118.57495Q138.25876 118.57495 138.75876 118.76245Q139.25876 118.94995 139.49313 119.2312Q139.72751 119.51245 139.82126 119.94995Q139.86813 120.215576 139.86813 120.9187L139.86813 122.32495Q139.86813 123.7937 139.93063 124.184326Q140.00876 124.57495 140.21188 124.934326L139.10251 124.934326Q138.94626 124.6062 138.89938 124.1687ZM138.80563 121.809326Q138.22751 122.0437 137.08688 122.215576Q136.43063 122.309326 136.16501 122.434326Q135.89938 122.5437 135.74313 122.76245Q135.60251 122.9812 135.60251 123.26245Q135.60251 123.684326 135.91501 123.965576Q136.24313 124.246826 136.85251 124.246826Q137.46188 124.246826 137.93063 123.9812Q138.41501 123.715576 138.63376 123.246826Q138.80563 122.88745 138.80563 122.19995L138.80563 121.809326ZM141.41501 123.07495L142.44626 122.9187Q142.54001 123.5437 142.93063 123.871826Q143.33688 124.19995 144.07126 124.19995Q144.79001 124.19995 145.13376 123.9187Q145.49313 123.621826 145.49313 123.215576Q145.49313 122.8562 145.18063 122.653076Q144.96188 122.51245 144.10251 122.2937Q142.94626 121.996826 142.49313 121.7937Q142.05563 121.57495 141.82126 121.19995Q141.58688 120.82495 141.58688 120.3562Q141.58688 119.94995 141.77438 119.590576Q141.96188 119.2312 142.29001 118.996826Q142.54001 118.82495 142.96188 118.69995Q143.38376 118.57495 143.88376 118.57495Q144.60251 118.57495 145.14938 118.7937Q145.71188 118.996826 145.97751 119.3562Q146.24313 119.715576 146.33688 120.309326L145.30563 120.44995Q145.24313 119.9812 144.89938 119.715576Q144.57126 119.434326 143.94626 119.434326Q143.22751 119.434326 142.91501 119.684326Q142.60251 119.9187 142.60251 120.246826Q142.60251 120.44995 142.72751 120.6062Q142.86813 120.778076 143.13376 120.88745Q143.29001 120.94995 144.07126 121.153076Q145.19626 121.465576 145.63376 121.653076Q146.07126 121.840576 146.32126 122.19995Q146.57126 122.559326 146.57126 123.1062Q146.57126 123.63745 146.25876 124.1062Q145.96188 124.559326 145.38376 124.82495Q144.80563 125.07495 144.07126 125.07495Q142.85251 125.07495 142.21188 124.57495Q141.58688 124.059326 141.41501 123.07495ZM147.83688 124.934326L147.83688 116.340576L148.88376 116.340576L148.88376 119.4187Q149.61813 118.57495 150.74313 118.57495Q151.44626 118.57495 151.94626 118.8562Q152.46188 119.121826 152.68063 119.6062Q152.89938 120.07495 152.89938 120.996826L152.89938 124.934326L151.85251 124.934326L151.85251 120.996826Q151.85251 120.19995 151.50876 119.840576Q151.16501 119.4812 150.54001 119.4812Q150.07126 119.4812 149.64938 119.7312Q149.24313 119.965576 149.05563 120.38745Q148.88376 120.7937 148.88376 121.528076L148.88376 124.934326L147.83688 124.934326ZM157.63376 125.44995L158.66501 125.6062Q158.72751 126.07495 159.02438 126.2937Q159.41501 126.590576 160.08688 126.590576Q160.82126 126.590576 161.21188 126.2937Q161.61813 125.996826 161.75876 125.4812Q161.85251 125.153076 161.83688 124.121826Q161.14938 124.934326 160.11813 124.934326Q158.83688 124.934326 158.13376 124.01245Q157.43063 123.07495 157.43063 121.7937Q157.43063 120.903076 157.74313 120.153076Q158.07126 119.38745 158.68063 118.9812Q159.29001 118.57495 160.11813 118.57495Q161.22751 118.57495 161.94626 119.465576L161.94626 118.715576L162.91501 118.715576L162.91501 124.090576Q162.91501 125.5437 162.61813 126.153076Q162.32126 126.76245 161.68063 127.1062Q161.04001 127.465576 160.10251 127.465576Q158.99313 127.465576 158.30563 126.965576Q157.61813 126.465576 157.63376 125.44995ZM158.50876 121.715576Q158.50876 122.934326 158.99313 123.496826Q159.47751 124.059326 160.21188 124.059326Q160.94626 124.059326 161.43063 123.496826Q161.93063 122.934326 161.93063 121.746826Q161.93063 120.6062 161.41501 120.028076Q160.91501 119.44995 160.19626 119.44995Q159.49313 119.44995 158.99313 120.028076Q158.50876 120.590576 158.50876 121.715576ZM168.89938 122.653076L169.93063 122.7937Q169.75876 123.8562 169.05563 124.465576Q168.35251 125.07495 167.33688 125.07495Q166.05563 125.07495 165.27438 124.246826Q164.50876 123.403076 164.50876 121.840576Q164.50876 120.840576 164.83688 120.090576Q165.18063 119.32495 165.85251 118.94995Q166.54001 118.57495 167.35251 118.57495Q168.35251 118.57495 168.99313 119.090576Q169.64938 119.590576 169.83688 120.5437L168.80563 120.69995Q168.66501 120.07495 168.29001 119.76245Q167.91501 119.434326 167.38376 119.434326Q166.58688 119.434326 166.08688 120.01245Q165.58688 120.57495 165.58688 121.809326Q165.58688 123.07495 166.07126 123.63745Q166.55563 124.19995 167.32126 124.19995Q167.94626 124.19995 168.35251 123.82495Q168.77438 123.44995 168.89938 122.653076Z" fill-rule="nonzero"/><path fill="#000000" d="M109.805626 200.8L108.82125 200.8L108.82125 192.20625L109.88375 192.20625L109.88375 195.26875Q110.555626 194.44063 111.586876 194.44063Q112.165 194.44063 112.665 194.675Q113.180626 194.89375 113.50875 195.31563Q113.8525 195.7375 114.04 196.33125Q114.2275 196.925 114.2275 197.59688Q114.2275 199.19063 113.430626 200.06563Q112.63375 200.94063 111.54 200.94063Q110.430626 200.94063 109.805626 200.01875L109.805626 200.8ZM109.79 197.64375Q109.79 198.75313 110.1025 199.25313Q110.6025 200.06563 111.44625 200.06563Q112.13375 200.06563 112.63375 199.47188Q113.149376 198.87813 113.149376 197.675Q113.149376 196.45625 112.665 195.87813Q112.180626 195.3 111.493126 195.3Q110.805626 195.3 110.29 195.90938Q109.79 196.50313 109.79 197.64375ZM115.44625 197.69063Q115.44625 195.95625 116.399376 195.12813Q117.19625 194.44063 118.3525 194.44063Q119.63375 194.44063 120.44625 195.28438Q121.274376 196.1125 121.274376 197.59688Q121.274376 198.8 120.915 199.4875Q120.555626 200.175 119.8525 200.56563Q119.165 200.94063 118.3525 200.94063Q117.055626 200.94063 116.243126 200.1125Q115.44625 199.26875 115.44625 197.69063ZM116.524376 197.69063Q116.524376 198.87813 117.04 199.47188Q117.57125 200.06563 118.3525 200.06563Q119.149376 200.06563 119.665 199.47188Q120.180626 198.87813 120.180626 197.65938Q120.180626 196.50313 119.649376 195.90938Q119.13375 195.31563 118.3525 195.31563Q117.57125 195.31563 117.04 195.90938Q116.524376 196.4875 116.524376 197.69063ZM122.82125 200.8L122.82125 194.58125L123.774376 194.58125L123.774376 195.51875Q124.13375 194.8625 124.430626 194.65938Q124.743126 194.44063 125.118126 194.44063Q125.649376 194.44063 126.19625 194.76875L125.836876 195.75313Q125.44625 195.51875 125.07125 195.51875Q124.711876 195.51875 124.430626 195.7375Q124.165 195.94063 124.055626 196.31563Q123.868126 196.87813 123.868126 197.53438L123.868126 200.8L122.82125 200.8ZM126.63375 201.31563L127.665 201.47188Q127.7275 201.94063 128.02438 202.15938Q128.41501 202.45625 129.08688 202.45625Q129.82126 202.45625 130.21188 202.15938Q130.61813 201.8625 130.75876 201.34688Q130.85251 201.01875 130.83688 199.9875Q130.14938 200.8 129.11813 200.8Q127.836876 200.8 127.13375 199.87813Q126.430626 198.94063 126.430626 197.65938Q126.430626 196.76875 126.743126 196.01875Q127.07125 195.25313 127.680626 194.84688Q128.29001 194.44063 129.11813 194.44063Q130.22751 194.44063 130.94626 195.33125L130.94626 194.58125L131.91501 194.58125L131.91501 199.95625Q131.91501 201.40938 131.61813 202.01875Q131.32126 202.62813 130.68063 202.97188Q130.04001 203.33125 129.10251 203.33125Q127.993126 203.33125 127.305626 202.83125Q126.618126 202.33125 126.63375 201.31563ZM127.50875 197.58125Q127.50875 198.8 127.993126 199.3625Q128.47751 199.925 129.21188 199.925Q129.94626 199.925 130.43063 199.3625Q130.93063 198.8 130.93063 197.6125Q130.93063 196.47188 130.41501 195.89375Q129.91501 195.31563 129.19626 195.31563Q128.49313 195.31563 127.993126 195.89375Q127.50875 196.45625 127.50875 197.58125ZM140.86813 200.8L140.86813 200.01875Q140.27438 200.94063 139.13376 200.94063Q138.38376 200.94063 137.75876 200.53438Q137.13376 200.1125 136.79001 199.37813Q136.44626 198.64375 136.44626 197.69063Q136.44626 196.76875 136.75876 196.00313Q137.07126 195.2375 137.69626 194.84688Q138.32126 194.44063 139.08688 194.44063Q139.64938 194.44063 140.08688 194.675Q140.52438 194.90938 140.80563 195.28438L140.80563 192.20625L141.85251 192.20625L141.85251 200.8L140.86813 200.8ZM137.54001 197.69063Q137.54001 198.89375 138.04001 199.4875Q138.54001 200.06563 139.22751 200.06563Q139.91501 200.06563 140.39938 199.50313Q140.88376 198.94063 140.88376 197.78438Q140.88376 196.50313 140.38376 195.90938Q139.89938 195.31563 139.18063 195.31563Q138.47751 195.31563 138.00876 195.89375Q137.54001 196.45625 137.54001 197.69063ZM148.08688 198.8L149.18063 198.925Q148.93063 199.87813 148.22751 200.40938Q147.52438 200.94063 146.44626 200.94063Q145.08688 200.94063 144.27438 200.09688Q143.47751 199.25313 143.47751 197.7375Q143.47751 196.175 144.29001 195.31563Q145.10251 194.44063 146.38376 194.44063Q147.63376 194.44063 148.41501 195.28438Q149.21188 196.12813 149.21188 197.675Q149.21188 197.76875 149.21188 197.95625L144.57126 197.95625Q144.63376 198.9875 145.14938 199.53438Q145.66501 200.06563 146.44626 200.06563Q147.02438 200.06563 147.43063 199.76875Q147.85251 199.45625 148.08688 198.8ZM144.63376 197.09688L148.10251 197.09688Q148.04001 196.3 147.71188 195.90938Q147.19626 195.3 146.39938 195.3Q145.66501 195.3 145.16501 195.78438Q144.68063 196.26875 144.63376 197.09688ZM150.80563 200.8L150.80563 192.20625L151.86813 192.20625L151.86813 200.8L150.80563 200.8ZM158.08688 198.8L159.18063 198.925Q158.93063 199.87813 158.22751 200.40938Q157.52438 200.94063 156.44626 200.94063Q155.08688 200.94063 154.27438 200.09688Q153.47751 199.25313 153.47751 197.7375Q153.47751 196.175 154.29001 195.31563Q155.10251 194.44063 156.38376 194.44063Q157.63376 194.44063 158.41501 195.28438Q159.21188 196.12813 159.21188 197.675Q159.21188 197.76875 159.21188 197.95625L154.57126 197.95625Q154.63376 198.9875 155.14938 199.53438Q155.66501 200.06563 156.44626 200.06563Q157.02438 200.06563 157.43063 199.76875Q157.85251 199.45625 158.08688 198.8ZM154.63376 197.09688L158.10251 197.09688Q158.04001 196.3 157.71188 195.90938Q157.19626 195.3 156.39938 195.3Q155.66501 195.3 155.16501 195.78438Q154.68063 196.26875 154.63376 197.09688ZM163.13376 199.8625L163.29001 200.78438Q162.83688 200.87813 162.49313 200.87813Q161.91501 200.87813 161.60251 200.70625Q161.29001 200.51875 161.14938 200.22188Q161.02438 199.925 161.02438 198.97188L161.02438 195.39375L160.25876 195.39375L160.25876 194.58125L161.02438 194.58125L161.02438 193.03438L162.07126 192.40938L162.07126 194.58125L163.13376 194.58125L163.13376 195.39375L162.07126 195.39375L162.07126 199.03438Q162.07126 199.4875 162.11813 199.6125Q162.18063 199.7375 162.30563 199.81563Q162.43063 199.89375 162.66501 199.89375Q162.85251 199.89375 163.13376 199.8625ZM168.08688 198.8L169.18063 198.925Q168.93063 199.87813 168.22751 200.40938Q167.52438 200.94063 166.44626 200.94063Q165.08688 200.94063 164.27438 200.09688Q163.47751 199.25313 163.47751 197.7375Q163.47751 196.175 164.29001 195.31563Q165.10251 194.44063 166.38376 194.44063Q167.63376 194.44063 168.41501 195.28438Q169.21188 196.12813 169.21188 197.675Q169.21188 197.76875 169.21188 197.95625L164.57126 197.95625Q164.63376 198.9875 165.14938 199.53438Q165.66501 200.06563 166.44626 200.06563Q167.02438 200.06563 167.43063 199.76875Q167.85251 199.45625 168.08688 198.8ZM164.63376 197.09688L168.10251 197.09688Q168.04001 196.3 167.71188 195.90938Q167.19626 195.3 166.39938 195.3Q165.66501 195.3 165.16501 195.78438Q164.68063 196.26875 164.63376 197.09688Z" fill-rule="nonzero"/><path fill="#000000" d="M56.82125 276.66568L56.82125 270.44693L57.774376 270.44693L57.774376 271.38443Q58.13375 270.72818 58.430626 270.52505Q58.743126 270.3063 59.118126 270.3063Q59.649376 270.3063 60.19625 270.63443L59.836876 271.6188Q59.44625 271.38443 59.07125 271.38443Q58.711876 271.38443 58.430626 271.60318Q58.165 271.8063 58.055626 272.1813Q57.868126 272.7438 57.868126 273.40005L57.868126 276.66568L56.82125 276.66568ZM65.086876 274.66568L66.180626 274.79068Q65.930626 275.7438 65.2275 276.27505Q64.524376 276.8063 63.44625 276.8063Q62.086876 276.8063 61.274376 275.96255Q60.4775 275.1188 60.4775 273.60318Q60.4775 272.04068 61.29 271.1813Q62.1025 270.3063 63.38375 270.3063Q64.63375 270.3063 65.415 271.15005Q66.211876 271.9938 66.211876 273.54068Q66.211876 273.63443 66.211876 273.82193L61.57125 273.82193Q61.63375 274.85318 62.149376 275.40005Q62.665 275.9313 63.44625 275.9313Q64.024376 275.9313 64.430626 275.63443Q64.8525 275.32193 65.086876 274.66568ZM61.63375 272.96255L65.1025 272.96255Q65.04 272.16568 64.711876 271.77505Q64.19625 271.16568 63.399376 271.16568Q62.665 271.16568 62.165 271.65005Q61.680626 272.13443 61.63375 272.96255ZM67.415 274.8063L68.44625 274.65005Q68.54 275.27505 68.930626 275.60318Q69.336876 275.9313 70.07125 275.9313Q70.79 275.9313 71.13375 275.65005Q71.493126 275.35318 71.493126 274.94693Q71.493126 274.58755 71.180626 274.38443Q70.961876 274.2438 70.1025 274.02505Q68.94625 273.72818 68.493126 273.52505Q68.055626 273.3063 67.82125 272.9313Q67.586876 272.5563 67.586876 272.08755Q67.586876 271.6813 67.774376 271.32193Q67.961876 270.96255 68.29 270.72818Q68.54 270.5563 68.961876 270.4313Q69.38375 270.3063 69.88375 270.3063Q70.6025 270.3063 71.149376 270.52505Q71.711876 270.72818 71.9775 271.08755Q72.243126 271.44693 72.336876 272.04068L71.305626 272.1813Q71.243126 271.71255 70.899376 271.44693Q70.57125 271.16568 69.94625 271.16568Q69.2275 271.16568 68.915 271.41568Q68.6025 271.65005 68.6025 271.97818Q68.6025 272.1813 68.7275 272.33755Q68.868126 272.50943 69.13375 272.6188Q69.29 272.6813 70.07125 272.88443Q71.19625 273.19693 71.63375 273.38443Q72.07125 273.57193 72.32125 273.9313Q72.57125 274.29068 72.57125 274.83755Q72.57125 275.3688 72.25875 275.83755Q71.961876 276.29068 71.38375 276.5563Q70.805626 276.8063 70.07125 276.8063Q68.8525 276.8063 68.211876 276.3063Q67.586876 275.79068 67.415 274.8063ZM76.13375 275.72818L76.29 276.65005Q75.836876 276.7438 75.493126 276.7438Q74.915 276.7438 74.6025 276.57193Q74.29 276.38443 74.149376 276.08755Q74.024376 275.79068 74.024376 274.83755L74.024376 271.25943L73.25875 271.25943L73.25875 270.44693L74.024376 270.44693L74.024376 268.90005L75.07125 268.27505L75.07125 270.44693L76.13375 270.44693L76.13375 271.25943L75.07125 271.25943L75.07125 274.90005Q75.07125 275.35318 75.118126 275.47818Q75.180626 275.60318 75.305626 275.6813Q75.430626 275.75943 75.665 275.75943Q75.8525 275.75943 76.13375 275.72818ZM76.836876 269.29068L76.836876 268.07193L77.899376 268.07193L77.899376 269.29068L76.836876 269.29068ZM76.836876 276.66568L76.836876 270.44693L77.899376 270.44693L77.899376 276.66568L76.836876 276.66568ZM83.899376 274.38443L84.930626 274.52505Q84.75875 275.58755 84.055626 276.19693Q83.3525 276.8063 82.336876 276.8063Q81.055626 276.8063 80.274376 275.97818Q79.50875 275.13443 79.50875 273.57193Q79.50875 272.57193 79.836876 271.82193Q80.180626 271.0563 80.8525 270.6813Q81.54 270.3063 82.3525 270.3063Q83.3525 270.3063 83.993126 270.82193Q84.649376 271.32193 84.836876 272.27505L83.805626 272.4313Q83.665 271.8063 83.29 271.4938Q82.915 271.16568 82.38375 271.16568Q81.586876 271.16568 81.086876 271.7438Q80.586876 272.3063 80.586876 273.54068Q80.586876 274.8063 81.07125 275.3688Q81.555626 275.9313 82.32125 275.9313Q82.94625 275.9313 83.3525 275.5563Q83.774376 275.1813 83.899376 274.38443ZM89.086876 276.66568L89.086876 271.25943L88.149376 271.25943L88.149376 270.44693L89.086876 270.44693L89.086876 269.77505Q89.086876 269.15005 89.19625 268.85318Q89.3525 268.4313 89.7275 268.1813Q90.118126 267.9313 90.805626 267.9313Q91.25875 267.9313 91.79 268.04068L91.63375 268.94693Q91.305626 268.90005 91.00875 268.90005Q90.524376 268.90005 90.32125 269.10318Q90.13375 269.3063 90.13375 269.8688L90.13375 270.44693L91.3525 270.44693L91.3525 271.25943L90.13375 271.25943L90.13375 276.66568L89.086876 276.66568ZM91.44625 273.5563Q91.44625 271.82193 92.399376 270.9938Q93.19625 270.3063 94.3525 270.3063Q95.63375 270.3063 96.44625 271.15005Q97.274376 271.97818 97.274376 273.46255Q97.274376 274.66568 96.915 275.35318Q96.555626 276.04068 95.8525 276.4313Q95.165 276.8063 94.3525 276.8063Q93.055626 276.8063 92.243126 275.97818Q91.44625 275.13443 91.44625 273.5563ZM92.524376 273.5563Q92.524376 274.7438 93.04 275.33755Q93.57125 275.9313 94.3525 275.9313Q95.149376 275.9313 95.665 275.33755Q96.180626 274.7438 96.180626 273.52505Q96.180626 272.3688 95.649376 271.77505Q95.13375 271.1813 94.3525 271.1813Q93.57125 271.1813 93.04 271.77505Q92.524376 272.35318 92.524376 273.5563ZM98.82125 276.66568L98.82125 270.44693L99.774376 270.44693L99.774376 271.38443Q100.13375 270.72818 100.430626 270.52505Q100.743126 270.3063 101.118126 270.3063Q101.649376 270.3063 102.19625 270.63443L101.836876 271.6188Q101.44625 271.38443 101.07125 271.38443Q100.711876 271.38443 100.430626 271.60318Q100.165 271.8063 100.055626 272.1813Q99.868126 272.7438 99.868126 273.40005L99.868126 276.66568L98.82125 276.66568ZM102.63375 277.1813L103.665 277.33755Q103.7275 277.8063 104.024376 278.02505Q104.415 278.32193 105.086876 278.32193Q105.82125 278.32193 106.211876 278.02505Q106.618126 277.72818 106.75875 277.21255Q106.8525 276.88443 106.836876 275.85318Q106.149376 276.66568 105.118126 276.66568Q103.836876 276.66568 103.13375 275.7438Q102.430626 274.8063 102.430626 273.52505Q102.430626 272.63443 102.743126 271.88443Q103.07125 271.1188 103.680626 270.71255Q104.29 270.3063 105.118126 270.3063Q106.2275 270.3063 106.94625 271.19693L106.94625 270.44693L107.915 270.44693L107.915 275.82193Q107.915 277.27505 107.618126 277.88443Q107.32125 278.4938 106.680626 278.83755Q106.04 279.19693 105.1025 279.19693Q103.993126 279.19693 103.305626 278.69693Q102.618126 278.19693 102.63375 277.1813ZM103.50875 273.44693Q103.50875 274.66568 103.993126 275.22818Q104.4775 275.79068 105.211876 275.79068Q105.94625 275.79068 106.430626 275.22818Q106.930626 274.66568 106.930626 273.47818Q106.930626 272.33755 106.415 271.75943Q105.915 271.1813 105.19625 271.1813Q104.493126 271.1813 103.993126 271.75943Q103.50875 272.32193 103.50875 273.44693ZM114.086876 274.66568L115.180626 274.79068Q114.930626 275.7438 114.2275 276.27505Q113.524376 276.8063 112.44625 276.8063Q111.086876 276.8063 110.274376 275.96255Q109.4775 275.1188 109.4775 273.60318Q109.4775 272.04068 110.29 271.1813Q111.1025 270.3063 112.38375 270.3063Q113.63375 270.3063 114.415 271.15005Q115.211876 271.9938 115.211876 273.54068Q115.211876 273.63443 115.211876 273.82193L110.57125 273.82193Q110.63375 274.85318 111.149376 275.40005Q111.665 275.9313 112.44625 275.9313Q113.024376 275.9313 113.430626 275.63443Q113.8525 275.32193 114.086876 274.66568ZM110.63375 272.96255L114.1025 272.96255Q114.04 272.16568 113.711876 271.77505Q113.19625 271.16568 112.399376 271.16568Q111.665 271.16568 111.165 271.65005Q110.680626 272.13443 110.63375 272.96255ZM119.13375 275.72818L119.29 276.65005Q118.836876 276.7438 118.493126 276.7438Q117.915 276.7438 117.6025 276.57193Q117.29 276.38443 117.149376 276.08755Q117.024376 275.79068 117.024376 274.83755L117.024376 271.25943L116.25875 271.25943L116.25875 270.44693L117.024376 270.44693L117.024376 268.90005L118.07125 268.27505L118.07125 270.44693L119.13375 270.44693L119.13375 271.25943L118.07125 271.25943L118.07125 274.90005Q118.07125 275.35318 118.118126 275.47818Q118.180626 275.60318 118.305626 275.6813Q118.430626 275.75943 118.665 275.75943Q118.8525 275.75943 119.13375 275.72818ZM127.743126 275.65005Q127.2275 276.22818 126.6025 276.52505Q125.993126 276.8063 125.274376 276.8063Q123.961876 276.8063 123.180626 275.91568Q122.555626 275.19693 122.555626 274.29068Q122.555626 273.4938 123.07125 272.85318Q123.586876 272.21255 124.6025 271.72818Q124.024376 271.0563 123.82125 270.65005Q123.63375 270.22818 123.63375 269.83755Q123.63375 269.07193 124.243126 268.50943Q124.8525 267.9313 125.774376 267.9313Q126.649376 267.9313 127.19625 268.47818Q127.75875 269.00943 127.75875 269.75943Q127.75875 270.9938 126.149376 271.85318L127.680626 273.82193Q127.94625 273.3063 128.08688 272.6188L129.19626 272.85318Q128.91501 273.97818 128.43063 274.71255Q129.02438 275.4938 129.77438 276.02505L129.05563 276.8688Q128.41501 276.44693 127.743126 275.65005ZM125.6025 271.1813Q126.29 270.77505 126.4775 270.47818Q126.680626 270.16568 126.680626 269.79068Q126.680626 269.35318 126.399376 269.07193Q126.13375 268.79068 125.711876 268.79068Q125.29 268.79068 124.993126 269.07193Q124.711876 269.35318 124.711876 269.7438Q124.711876 269.94693 124.82125 270.16568Q124.930626 270.38443 125.13375 270.63443L125.6025 271.1813ZM127.086876 274.82193L125.149376 272.41568Q124.29 272.9313 123.993126 273.3688Q123.69625 273.8063 123.69625 274.22818Q123.69625 274.75943 124.1025 275.32193Q124.524376 275.88443 125.29 275.88443Q125.75875 275.88443 126.25875 275.58755Q126.774376 275.29068 127.086876 274.82193ZM135.74313 275.65005Q135.22751 276.22818 134.60251 276.52505Q133.99313 276.8063 133.27438 276.8063Q131.96188 276.8063 131.18063 275.91568Q130.55563 275.19693 130.55563 274.29068Q130.55563 273.4938 131.07126 272.85318Q131.58688 272.21255 132.60251 271.72818Q132.02438 271.0563 131.82126 270.65005Q131.63376 270.22818 131.63376 269.83755Q131.63376 269.07193 132.24313 268.50943Q132.85251 267.9313 133.77438 267.9313Q134.64938 267.9313 135.19626 268.47818Q135.75876 269.00943 135.75876 269.75943Q135.75876 270.9938 134.14938 271.85318L135.68063 273.82193Q135.94626 273.3063 136.08688 272.6188L137.19626 272.85318Q136.91501 273.97818 136.43063 274.71255Q137.02438 275.4938 137.77438 276.02505L137.05563 276.8688Q136.41501 276.44693 135.74313 275.65005ZM133.60251 271.1813Q134.29001 270.77505 134.47751 270.47818Q134.68063 270.16568 134.68063 269.79068Q134.68063 269.35318 134.39938 269.07193Q134.13376 268.79068 133.71188 268.79068Q133.29001 268.79068 132.99313 269.07193Q132.71188 269.35318 132.71188 269.7438Q132.71188 269.94693 132.82126 270.16568Q132.93063 270.38443 133.13376 270.63443L133.60251 271.1813ZM135.08688 274.82193L133.14938 272.41568Q132.29001 272.9313 131.99313 273.3688Q131.69626 273.8063 131.69626 274.22818Q131.69626 274.75943 132.10251 275.32193Q132.52438 275.88443 133.29001 275.88443Q133.75876 275.88443 134.25876 275.58755Q134.77438 275.29068 135.08688 274.82193ZM141.82126 276.66568L141.82126 270.44693L142.77438 270.44693L142.77438 271.38443Q143.13376 270.72818 143.43063 270.52505Q143.74313 270.3063 144.11813 270.3063Q144.64938 270.3063 145.19626 270.63443L144.83688 271.6188Q144.44626 271.38443 144.07126 271.38443Q143.71188 271.38443 143.43063 271.60318Q143.16501 271.8063 143.05563 272.1813Q142.86813 272.7438 142.86813 273.40005L142.86813 276.66568L141.82126 276.66568ZM150.08688 274.66568L151.18063 274.79068Q150.93063 275.7438 150.22751 276.27505Q149.52438 276.8063 148.44626 276.8063Q147.08688 276.8063 146.27438 275.96255Q145.47751 275.1188 145.47751 273.60318Q145.47751 272.04068 146.29001 271.1813Q147.10251 270.3063 148.38376 270.3063Q149.63376 270.3063 150.41501 271.15005Q151.21188 271.9938 151.21188 273.54068Q151.21188 273.63443 151.21188 273.82193L146.57126 273.82193Q146.63376 274.85318 147.14938 275.40005Q147.66501 275.9313 148.44626 275.9313Q149.02438 275.9313 149.43063 275.63443Q149.85251 275.32193 150.08688 274.66568ZM146.63376 272.96255L150.10251 272.96255Q150.04001 272.16568 149.71188 271.77505Q149.19626 271.16568 148.39938 271.16568Q147.66501 271.16568 147.16501 271.65005Q146.68063 272.13443 146.63376 272.96255ZM152.41501 274.8063L153.44626 274.65005Q153.54001 275.27505 153.93063 275.60318Q154.33688 275.9313 155.07126 275.9313Q155.79001 275.9313 156.13376 275.65005Q156.49313 275.35318 156.49313 274.94693Q156.49313 274.58755 156.18063 274.38443Q155.96188 274.2438 155.10251 274.02505Q153.94626 273.72818 153.49313 273.52505Q153.05563 273.3063 152.82126 272.9313Q152.58688 272.5563 152.58688 272.08755Q152.58688 271.6813 152.77438 271.32193Q152.96188 270.96255 153.29001 270.72818Q153.54001 270.5563 153.96188 270.4313Q154.38376 270.3063 154.88376 270.3063Q155.60251 270.3063 156.14938 270.52505Q156.71188 270.72818 156.97751 271.08755Q157.24313 271.44693 157.33688 272.04068L156.30563 272.1813Q156.24313 271.71255 155.89938 271.44693Q155.57126 271.16568 154.94626 271.16568Q154.22751 271.16568 153.91501 271.41568Q153.60251 271.65005 153.60251 271.97818Q153.60251 272.1813 153.72751 272.33755Q153.86813 272.50943 154.13376 272.6188Q154.29001 272.6813 155.07126 272.88443Q156.19626 273.19693 156.63376 273.38443Q157.07126 273.57193 157.32126 273.9313Q157.57126 274.29068 157.57126 274.83755Q157.57126 275.3688 157.25876 275.83755Q156.96188 276.29068 156.38376 276.5563Q155.80563 276.8063 155.07126 276.8063Q153.85251 276.8063 153.21188 276.3063Q152.58688 275.79068 152.41501 274.8063ZM161.13376 275.72818L161.29001 276.65005Q160.83688 276.7438 160.49313 276.7438Q159.91501 276.7438 159.60251 276.57193Q159.29001 276.38443 159.14938 276.08755Q159.02438 275.79068 159.02438 274.83755L159.02438 271.25943L158.25876 271.25943L158.25876 270.44693L159.02438 270.44693L159.02438 268.90005L160.07126 268.27505L160.07126 270.44693L161.13376 270.44693L161.13376 271.25943L160.07126 271.25943L160.07126 274.90005Q160.07126 275.35318 160.11813 275.47818Q160.18063 275.60318 160.30563 275.6813Q160.43063 275.75943 160.66501 275.75943Q160.85251 275.75943 161.13376 275.72818ZM161.83688 269.29068L161.83688 268.07193L162.89938 268.07193L162.89938 269.29068L161.83688 269.29068ZM161.83688 276.66568L161.83688 270.44693L162.89938 270.44693L162.89938 276.66568L161.83688 276.66568ZM168.89938 274.38443L169.93063 274.52505Q169.75876 275.58755 169.05563 276.19693Q168.35251 276.8063 167.33688 276.8063Q166.05563 276.8063 165.27438 275.97818Q164.50876 275.13443 164.50876 273.57193Q164.50876 272.57193 164.83688 271.82193Q165.18063 271.0563 165.85251 270.6813Q166.54001 270.3063 167.35251 270.3063Q168.35251 270.3063 168.99313 270.82193Q169.64938 271.32193 169.83688 272.27505L168.80563 272.4313Q168.66501 271.8063 168.29001 271.4938Q167.91501 271.16568 167.38376 271.16568Q166.58688 271.16568 166.08688 271.7438Q165.58688 272.3063 165.58688 273.54068Q165.58688 274.8063 166.07126 275.3688Q166.55563 275.9313 167.32126 275.9313Q167.94626 275.9313 168.35251 275.5563Q168.77438 275.1813 168.89938 274.38443Z" fill-rule="nonzero"/><path fill="#000000" d="M138.83687 293.0563L138.83687 284.44693L139.79 284.44693L139.79 285.2438Q140.13374 284.77505 140.55562 284.54068Q140.99312 284.3063 141.6025 284.3063Q142.39937 284.3063 143.00874 284.71255Q143.61812 285.1188 143.915 285.8688Q144.2275 286.6188 144.2275 287.50943Q144.2275 288.46255 143.88374 289.22818Q143.55562 289.9938 142.89937 290.40005Q142.24312 290.8063 141.52437 290.8063Q140.99312 290.8063 140.57124 290.58755Q140.14937 290.35318 139.88374 290.02505L139.88374 293.0563L138.83687 293.0563ZM139.79 287.58755Q139.79 288.79068 140.27437 289.3688Q140.75874 289.9313 141.44624 289.9313Q142.14937 289.9313 142.64937 289.33755Q143.14937 288.7438 143.14937 287.4938Q143.14937 286.3063 142.665 285.72818Q142.18062 285.13443 141.49312 285.13443Q140.82124 285.13443 140.30562 285.75943Q139.79 286.38443 139.79 287.58755ZM145.82124 290.66568L145.82124 284.44693L146.77437 284.44693L146.77437 285.38443Q147.13374 284.72818 147.43062 284.52505Q147.74312 284.3063 148.11812 284.3063Q148.64937 284.3063 149.19624 284.63443L148.83687 285.6188Q148.44624 285.38443 148.07124 285.38443Q147.71187 285.38443 147.43062 285.60318Q147.165 285.8063 147.05562 286.1813Q146.86812 286.7438 146.86812 287.40005L146.86812 290.66568L145.82124 290.66568ZM153.915 290.66568L153.915 289.7438Q153.18062 290.8063 151.93062 290.8063Q151.38374 290.8063 150.89937 290.60318Q150.43062 290.38443 150.19624 290.07193Q149.96187 289.7438 149.86812 289.27505Q149.80562 288.97818 149.80562 288.29068L149.80562 284.44693L150.86812 284.44693L150.86812 287.90005Q150.86812 288.71255 150.93062 289.00943Q151.02437 289.41568 151.33687 289.66568Q151.665 289.90005 152.14937 289.90005Q152.61812 289.90005 153.02437 289.66568Q153.44624 289.41568 153.61812 288.9938Q153.80562 288.57193 153.80562 287.77505L153.80562 284.44693L154.8525 284.44693L154.8525 290.66568L153.915 290.66568ZM156.83687 290.66568L156.83687 284.44693L157.77437 284.44693L157.77437 285.32193Q158.46187 284.3063 159.75874 284.3063Q160.32124 284.3063 160.79 284.50943Q161.27437 284.71255 161.50874 285.04068Q161.74312 285.3688 161.83687 285.8063Q161.88374 286.10318 161.88374 286.83755L161.88374 290.66568L160.83687 290.66568L160.83687 286.88443Q160.83687 286.22818 160.71187 285.91568Q160.58687 285.60318 160.27437 285.41568Q159.96187 285.21255 159.54 285.21255Q158.86812 285.21255 158.36812 285.65005Q157.88374 286.07193 157.88374 287.25943L157.88374 290.66568L156.83687 290.66568ZM168.08687 288.66568L169.18062 288.79068Q168.93062 289.7438 168.2275 290.27505Q167.52437 290.8063 166.44624 290.8063Q165.08687 290.8063 164.27437 289.96255Q163.4775 289.1188 163.4775 287.60318Q163.4775 286.04068 164.29 285.1813Q165.1025 284.3063 166.38374 284.3063Q167.63374 284.3063 168.415 285.15005Q169.21187 285.9938 169.21187 287.54068Q169.21187 287.63443 169.21187 287.82193L164.57124 287.82193Q164.63374 288.85318 165.14937 289.40005Q165.665 289.9313 166.44624 289.9313Q167.02437 289.9313 167.43062 289.63443Q167.8525 289.32193 168.08687 288.66568ZM164.63374 286.96255L168.1025 286.96255Q168.04 286.16568 167.71187 285.77505Q167.19624 285.16568 166.39937 285.16568Q165.665 285.16568 165.165 285.65005Q164.68062 286.13443 164.63374 286.96255Z" fill-rule="nonzero"/><path fill="#000000" d="M173.04 348.36563Q173.04 346.83438 173.3525 345.9125Q173.665 344.975 174.27437 344.475Q174.89937 343.975 175.83687 343.975Q176.52437 343.975 177.04 344.25626Q177.57124 344.5375 177.915 345.06876Q178.25874 345.58438 178.44624 346.33438Q178.63374 347.08438 178.63374 348.36563Q178.63374 349.88126 178.32124 350.80313Q178.02437 351.725 177.39937 352.24063Q176.79 352.74063 175.83687 352.74063Q174.6025 352.74063 173.88374 351.85Q173.04 350.7875 173.04 348.36563ZM174.11812 348.36563Q174.11812 350.475 174.61812 351.17813Q175.11812 351.88126 175.83687 351.88126Q176.57124 351.88126 177.05562 351.17813Q177.55562 350.475 177.55562 348.36563Q177.55562 346.24063 177.05562 345.55313Q176.57124 344.85 175.82124 344.85Q175.1025 344.85 174.665 345.45938Q174.11812 346.24063 174.11812 348.36563Z" fill-rule="nonzero"/><path fill="#000000" d="M324.39334 350.35L325.50272 350.25626Q325.62772 351.06876 326.06522 351.475Q326.51834 351.88126 327.15897 351.88126Q327.90897 351.88126 328.44022 351.30313Q328.97147 350.725 328.97147 349.7875Q328.97147 348.88126 328.45584 348.36563Q327.95584 347.83438 327.12772 347.83438Q326.62772 347.83438 326.20584 348.06876Q325.7996 348.30313 325.56522 348.6625L324.58084 348.5375L325.40897 344.13126L329.69022 344.13126L329.69022 345.13126L326.25272 345.13126L325.7996 347.44376Q326.56522 346.89688 327.40897 346.89688Q328.53397 346.89688 329.2996 347.67813Q330.08084 348.45938 330.08084 349.69376Q330.08084 350.85 329.40897 351.70938Q328.58084 352.74063 327.15897 352.74063Q325.9871 352.74063 325.2371 352.08438Q324.50272 351.42813 324.39334 350.35ZM331.39334 348.36563Q331.39334 346.83438 331.70584 345.9125Q332.01834 344.975 332.62772 344.475Q333.25272 343.975 334.19022 343.975Q334.87772 343.975 335.39334 344.25626Q335.9246 344.5375 336.26834 345.06876Q336.6121 345.58438 336.7996 346.33438Q336.9871 347.08438 336.9871 348.36563Q336.9871 349.88126 336.6746 350.80313Q336.37772 351.725 335.75272 352.24063Q335.14334 352.74063 334.19022 352.74063Q332.95584 352.74063 332.2371 351.85Q331.39334 350.7875 331.39334 348.36563ZM332.47147 348.36563Q332.47147 350.475 332.97147 351.17813Q333.47147 351.88126 334.19022 351.88126Q334.9246 351.88126 335.40897 351.17813Q335.90897 350.475 335.90897 348.36563Q335.90897 346.24063 335.40897 345.55313Q334.9246 344.85 334.1746 344.85Q333.45584 344.85 333.01834 345.45938Q332.47147 346.24063 332.47147 348.36563Z" fill-rule="nonzero"/><path fill="#000000" d="M479.71542 352.6L478.66855 352.6L478.66855 345.88126Q478.27792 346.24063 477.65292 346.61563Q477.04355 346.975 476.55917 347.14688L476.55917 346.13126Q477.43417 345.70938 478.09042 345.13126Q478.7623 344.5375 479.04355 343.975L479.71542 343.975L479.71542 352.6ZM482.74667 348.36563Q482.74667 346.83438 483.05917 345.9125Q483.37167 344.975 483.98105 344.475Q484.60605 343.975 485.54355 343.975Q486.23105 343.975 486.74667 344.25626Q487.27792 344.5375 487.62167 345.06876Q487.96542 345.58438 488.15292 346.33438Q488.34042 347.08438 488.34042 348.36563Q488.34042 349.88126 488.02792 350.80313Q487.73105 351.725 487.10605 352.24063Q486.49667 352.74063 485.54355 352.74063Q484.30917 352.74063 483.59042 351.85Q482.74667 350.7875 482.74667 348.36563ZM483.8248 348.36563Q483.8248 350.475 484.3248 351.17813Q484.8248 351.88126 485.54355 351.88126Q486.27792 351.88126 486.7623 351.17813Q487.2623 350.475 487.2623 348.36563Q487.2623 346.24063 486.7623 345.55313Q486.27792 344.85 485.52792 344.85Q484.80917 344.85 484.37167 345.45938Q483.8248 346.24063 483.8248 348.36563ZM489.74667 348.36563Q489.74667 346.83438 490.05917 345.9125Q490.37167 344.975 490.98105 344.475Q491.60605 343.975 492.54355 343.975Q493.23105 343.975 493.74667 344.25626Q494.27792 344.5375 494.62167 345.06876Q494.96542 345.58438 495.15292 346.33438Q495.34042 347.08438 495.34042 348.36563Q495.34042 349.88126 495.02792 350.80313Q494.73105 351.725 494.10605 352.24063Q493.49667 352.74063 492.54355 352.74063Q491.30917 352.74063 490.59042 351.85Q489.74667 350.7875 489.74667 348.36563ZM490.8248 348.36563Q490.8248 350.475 491.3248 351.17813Q491.8248 351.88126 492.54355 351.88126Q493.27792 351.88126 493.7623 351.17813Q494.2623 350.475 494.2623 348.36563Q494.2623 346.24063 493.7623 345.55313Q493.27792 344.85 492.52792 344.85Q491.80917 344.85 491.37167 345.45938Q490.8248 346.24063 490.8248 348.36563Z" fill-rule="nonzero"/><path fill="#000000" d="M634.5687 352.6L633.52185 352.6L633.52185 345.88126Q633.1312 346.24063 632.5062 346.61563Q631.89685 346.975 631.4125 347.14688L631.4125 346.13126Q632.2875 345.70938 632.9437 345.13126Q633.6156 344.5375 633.89685 343.975L634.5687 343.975L634.5687 352.6ZM637.6 350.35L638.70935 350.25626Q638.83435 351.06876 639.27185 351.475Q639.725 351.88126 640.3656 351.88126Q641.1156 351.88126 641.64685 351.30313Q642.1781 350.725 642.1781 349.7875Q642.1781 348.88126 641.6625 348.36563Q641.1625 347.83438 640.33435 347.83438Q639.83435 347.83438 639.4125 348.06876Q639.0062 348.30313 638.77185 348.6625L637.7875 348.5375L638.6156 344.13126L642.89685 344.13126L642.89685 345.13126L639.45935 345.13126L639.0062 347.44376Q639.77185 346.89688 640.6156 346.89688Q641.7406 346.89688 642.5062 347.67813Q643.2875 348.45938 643.2875 349.69376Q643.2875 350.85 642.6156 351.70938Q641.7875 352.74063 640.3656 352.74063Q639.1937 352.74063 638.4437 352.08438Q637.70935 351.42813 637.6 350.35ZM644.6 348.36563Q644.6 346.83438 644.9125 345.9125Q645.225 344.975 645.83435 344.475Q646.45935 343.975 647.39685 343.975Q648.08435 343.975 648.6 344.25626Q649.1312 344.5375 649.475 345.06876Q649.8187 345.58438 650.0062 346.33438Q650.1937 347.08438 650.1937 348.36563Q650.1937 349.88126 649.8812 350.80313Q649.58435 351.725 648.95935 352.24063Q648.35 352.74063 647.39685 352.74063Q646.1625 352.74063 645.4437 351.85Q644.6 350.7875 644.6 348.36563ZM645.6781 348.36563Q645.6781 350.475 646.1781 351.17813Q646.6781 351.88126 647.39685 351.88126Q648.1312 351.88126 648.6156 351.17813Q649.1156 350.475 649.1156 348.36563Q649.1156 346.24063 648.6156 345.55313Q648.1312 344.85 647.3812 344.85Q646.6625 344.85 646.225 345.45938Q645.6781 346.24063 645.6781 348.36563Z" fill-rule="nonzero"/><path fill="#757575" d="M25.623417 38.30027L25.623417 25.67527L20.904667 25.67527L20.904667 23.98777L32.248417 23.98777L32.248417 25.67527L27.514042 25.67527L27.514042 38.30027L25.623417 38.30027ZM33.76404 26.003395L33.76404 23.98777L35.529667 23.98777L35.529667 26.003395L33.76404 26.003395ZM33.76404 38.30027L33.76404 27.92527L35.529667 27.92527L35.529667 38.30027L33.76404 38.30027ZM37.748417 38.30027L37.748417 27.92527L39.32654 27.92527L39.32654 29.378395Q39.810917 28.628395 40.623417 28.159645Q41.435917 27.690895 42.467167 27.690895Q43.623417 27.690895 44.35779 28.17527Q45.092167 28.64402 45.404667 29.503395Q46.63904 27.690895 48.60779 27.690895Q50.154667 27.690895 50.98279 28.55027Q51.810917 29.409645 51.810917 31.17527L51.810917 38.30027L50.060917 38.30027L50.060917 31.76902Q50.060917 30.70652 49.88904 30.253395Q49.717167 29.784645 49.26404 29.503395Q48.82654 29.222145 48.217167 29.222145Q47.123417 29.222145 46.38904 29.95652Q45.67029 30.67527 45.67029 32.26902L45.67029 38.30027L43.92029 38.30027L43.92029 31.565895Q43.92029 30.39402 43.48279 29.815895Q43.060917 29.222145 42.07654 29.222145Q41.342167 29.222145 40.70154 29.61277Q40.07654 30.003395 39.79529 30.753395Q39.51404 31.503395 39.51404 32.92527L39.51404 38.30027L37.748417 38.30027ZM61.85779 34.95652L63.67029 35.190895Q63.248417 36.76902 62.07654 37.659645Q60.92029 38.534645 59.10779 38.534645Q56.842167 38.534645 55.498417 37.14402Q54.17029 35.73777 54.17029 33.20652Q54.17029 30.58152 55.51404 29.14402Q56.85779 27.690895 59.01404 27.690895Q61.092167 27.690895 62.404667 29.11277Q63.73279 30.51902 63.73279 33.097145Q63.73279 33.253395 63.717167 33.565895L55.98279 33.565895Q56.07654 35.26902 56.95154 36.17527Q57.82654 37.08152 59.123417 37.08152Q60.092167 37.08152 60.76404 36.58152Q61.45154 36.065895 61.85779 34.95652ZM56.07654 32.11277L61.873417 32.11277Q61.76404 30.815895 61.217167 30.159645Q60.373417 29.14402 59.029667 29.14402Q57.82654 29.14402 56.998417 29.95652Q56.17029 30.753395 56.07654 32.11277ZM72.17029 38.30027L72.17029 29.30027L70.62341 29.30027L70.62341 27.92527L72.17029 27.92527L72.17029 26.83152Q72.17029 25.784645 72.35779 25.26902Q72.60779 24.58152 73.24841 24.159645Q73.88904 23.73777 75.04529 23.73777Q75.79529 23.73777 76.68591 23.909645L76.42029 25.440895Q75.87341 25.347145 75.38904 25.347145Q74.59216 25.347145 74.24841 25.690895Q73.92029 26.034645 73.92029 26.972145L73.92029 27.92527L75.95154 27.92527L75.95154 29.30027L73.92029 29.30027L73.92029 38.30027L72.17029 38.30027ZM77.10779 33.11277Q77.10779 30.23777 78.70154 28.847145Q80.04529 27.690895 81.96716 27.690895Q84.10779 27.690895 85.45154 29.097145Q86.81091 30.503395 86.81091 32.972145Q86.81091 34.972145 86.21716 36.128395Q85.62341 37.26902 84.46716 37.909645Q83.32654 38.534645 81.96716 38.534645Q79.77966 38.534645 78.43591 37.14402Q77.10779 35.73777 77.10779 33.11277ZM78.90466 33.11277Q78.90466 35.11277 79.76404 36.097145Q80.63904 37.08152 81.96716 37.08152Q83.27966 37.08152 84.13904 36.097145Q85.01404 35.097145 85.01404 33.05027Q85.01404 31.128395 84.13904 30.14402Q83.26404 29.14402 81.96716 29.14402Q80.63904 29.14402 79.76404 30.14402Q78.90466 31.128395 78.90466 33.11277ZM88.73279 38.30027L88.73279 27.92527L90.31091 27.92527L90.31091 29.503395Q90.92029 28.39402 91.43591 28.05027Q91.95154 27.690895 92.56091 27.690895Q93.45154 27.690895 94.37341 28.253395L93.76404 29.89402Q93.12341 29.503395 92.48279 29.503395Q91.90466 29.503395 91.43591 29.86277Q90.98279 30.20652 90.77966 30.815895Q90.49841 31.753395 90.49841 32.86277L90.49841 38.30027L88.73279 38.30027ZM102.01404 38.30027L102.01404 23.98777L108.35779 23.98777Q110.26404 23.98777 111.26404 24.378395Q112.26404 24.753395 112.85779 25.73777Q113.45154 26.70652 113.45154 27.89402Q113.45154 29.409645 112.46716 30.45652Q111.48279 31.503395 109.42029 31.784645Q110.17029 32.14402 110.56091 32.503395Q111.38904 33.253395 112.13904 34.409645L114.62341 38.30027L112.24841 38.30027L110.34216 35.315895Q109.51404 34.034645 108.98279 33.347145Q108.45154 32.659645 108.01404 32.39402Q107.59216 32.11277 107.15466 32.003395Q106.82654 31.940895 106.10779 31.940895L103.90466 31.940895L103.90466 38.30027L102.01404 38.30027ZM103.90466 30.30027L107.98279 30.30027Q109.27966 30.30027 109.99841 30.034645Q110.73279 29.76902 111.10779 29.17527Q111.49841 28.58152 111.49841 27.89402Q111.49841 26.878395 110.76404 26.222145Q110.02966 25.565895 108.43591 25.565895L103.90466 25.565895L103.90466 30.30027ZM122.85779 34.95652L124.67029 35.190895Q124.24841 36.76902 123.07654 37.659645Q121.92029 38.534645 120.10779 38.534645Q117.84216 38.534645 116.49841 37.14402Q115.17029 35.73777 115.17029 33.20652Q115.17029 30.58152 116.51404 29.14402Q117.85779 27.690895 120.01404 27.690895Q122.09216 27.690895 123.40466 29.11277Q124.73279 30.51902 124.73279 33.097145Q124.73279 33.253395 124.71716 33.565895L116.98279 33.565895Q117.07654 35.26902 117.95154 36.17527Q118.82654 37.08152 120.12341 37.08152Q121.09216 37.08152 121.76404 36.58152Q122.45154 36.065895 122.85779 34.95652ZM117.07654 32.11277L122.87341 32.11277Q122.76404 30.815895 122.21716 30.159645Q121.37341 29.14402 120.02966 29.14402Q118.82654 29.14402 117.99841 29.95652Q117.17029 30.753395 117.07654 32.11277ZM126.74841 38.30027L126.74841 27.92527L128.32654 27.92527L128.32654 29.378395Q128.81091 28.628395 129.62341 28.159645Q130.43591 27.690895 131.46716 27.690895Q132.62341 27.690895 133.35779 28.17527Q134.09216 28.64402 134.40466 29.503395Q135.63904 27.690895 137.60779 27.690895Q139.15466 27.690895 139.98279 28.55027Q140.81091 29.409645 140.81091 31.17527L140.81091 38.30027L139.06091 38.30027L139.06091 31.76902Q139.06091 30.70652 138.88904 30.253395Q138.71716 29.784645 138.26404 29.503395Q137.82654 29.222145 137.21716 29.222145Q136.12341 29.222145 135.38904 29.95652Q134.67029 30.67527 134.67029 32.26902L134.67029 38.30027L132.92029 38.30027L132.92029 31.565895Q132.92029 30.39402 132.48279 29.815895Q132.06091 29.222145 131.07654 29.222145Q130.34216 29.222145 129.70154 29.61277Q129.07654 30.003395 128.79529 30.753395Q128.51404 31.503395 128.51404 32.92527L128.51404 38.30027L126.74841 38.30027ZM143.10779 33.11277Q143.10779 30.23777 144.70154 28.847145Q146.04529 27.690895 147.96716 27.690895Q150.10779 27.690895 151.45154 29.097145Q152.81091 30.503395 152.81091 32.972145Q152.81091 34.972145 152.21716 36.128395Q151.62341 37.26902 150.46716 37.909645Q149.32654 38.534645 147.96716 38.534645Q145.77966 38.534645 144.43591 37.14402Q143.10779 35.73777 143.10779 33.11277ZM144.90466 33.11277Q144.90466 35.11277 145.76404 36.097145Q146.63904 37.08152 147.96716 37.08152Q149.27966 37.08152 150.13904 36.097145Q151.01404 35.097145 151.01404 33.05027Q151.01404 31.128395 150.13904 30.14402Q149.26404 29.14402 147.96716 29.14402Q146.63904 29.14402 145.76404 30.14402Q144.90466 31.128395 144.90466 33.11277ZM158.59216 36.722145L158.84216 38.284645Q158.10779 38.440895 157.51404 38.440895Q156.56091 38.440895 156.02966 38.14402Q155.51404 37.83152 155.29529 37.347145Q155.07654 36.847145 155.07654 35.26902L155.07654 29.30027L153.79529 29.30027L153.79529 27.92527L155.07654 27.92527L155.07654 25.36277L156.82654 24.30027L156.82654 27.92527L158.59216 27.92527L158.59216 29.30027L156.82654 29.30027L156.82654 35.36277Q156.82654 36.11277 156.92029 36.33152Q157.01404 36.534645 157.21716 36.67527Q157.43591 36.80027 157.82654 36.80027Q158.10779 36.80027 158.59216 36.722145ZM167.85779 34.95652L169.67029 35.190895Q169.24841 36.76902 168.07654 37.659645Q166.92029 38.534645 165.10779 38.534645Q162.84216 38.534645 161.49841 37.14402Q160.17029 35.73777 160.17029 33.20652Q160.17029 30.58152 161.51404 29.14402Q162.85779 27.690895 165.01404 27.690895Q167.09216 27.690895 168.40466 29.11277Q169.73279 30.51902 169.73279 33.097145Q169.73279 33.253395 169.71716 33.565895L161.98279 33.565895Q162.07654 35.26902 162.95154 36.17527Q163.82654 37.08152 165.12341 37.08152Q166.09216 37.08152 166.76404 36.58152Q167.45154 36.065895 167.85779 34.95652ZM162.07654 32.11277L167.87341 32.11277Q167.76404 30.815895 167.21716 30.159645Q166.37341 29.14402 165.02966 29.14402Q163.82654 29.14402 162.99841 29.95652Q162.17029 30.753395 162.07654 32.11277ZM177.34216 33.70652L179.12341 33.55027Q179.24841 34.61277 179.70154 35.30027Q180.17029 35.98777 181.13904 36.42527Q182.12341 36.847145 183.35779 36.847145Q184.43591 36.847145 185.26404 36.534645Q186.09216 36.20652 186.49841 35.64402Q186.90466 35.08152 186.90466 34.409645Q186.90466 33.73777 186.51404 33.23777Q186.12341 32.73777 185.23279 32.39402Q184.65466 32.159645 182.67029 31.690895Q180.70154 31.222145 179.92029 30.80027Q178.88904 30.26902 178.38904 29.472145Q177.88904 28.67527 177.88904 27.690895Q177.88904 26.597145 178.49841 25.659645Q179.10779 24.722145 180.29529 24.23777Q181.48279 23.73777 182.92029 23.73777Q184.51404 23.73777 185.73279 24.253395Q186.95154 24.76902 187.59216 25.76902Q188.24841 26.753395 188.29529 28.01902L186.48279 28.159645Q186.34216 26.80027 185.49841 26.11277Q184.65466 25.409645 182.99841 25.409645Q181.27966 25.409645 180.48279 26.05027Q179.70154 26.67527 179.70154 27.55027Q179.70154 28.33152 180.26404 28.83152Q180.81091 29.33152 183.12341 29.847145Q185.43591 30.36277 186.29529 30.753395Q187.54529 31.33152 188.13904 32.222145Q188.73279 33.097145 188.73279 34.253395Q188.73279 35.39402 188.07654 36.409645Q187.42029 37.42527 186.18591 37.98777Q184.96716 38.55027 183.43591 38.55027Q181.49841 38.55027 180.18591 37.98777Q178.87341 37.409645 178.12341 36.26902Q177.37341 35.128395 177.34216 33.70652ZM190.74841 38.30027L190.74841 27.92527L192.34216 27.92527L192.34216 29.409645Q193.48279 27.690895 195.63904 27.690895Q196.57654 27.690895 197.35779 28.034645Q198.15466 28.36277 198.54529 28.909645Q198.93591 29.45652 199.09216 30.20652Q199.18591 30.70652 199.18591 31.92527L199.18591 38.30027L197.42029 38.30027L197.42029 31.98777Q197.42029 30.909645 197.21716 30.378395Q197.01404 29.847145 196.48279 29.534645Q195.96716 29.222145 195.26404 29.222145Q194.13904 29.222145 193.32654 29.940895Q192.51404 30.64402 192.51404 32.628395L192.51404 38.30027L190.74841 38.30027ZM208.52966 37.01902Q207.54529 37.847145 206.63904 38.190895Q205.73279 38.534645 204.70154 38.534645Q202.99841 38.534645 202.07654 37.70652Q201.15466 36.86277 201.15466 35.565895Q201.15466 34.80027 201.49841 34.17527Q201.85779 33.55027 202.42029 33.17527Q202.98279 32.784645 203.68591 32.58152Q204.20154 32.45652 205.24841 32.315895Q207.37341 32.065895 208.37341 31.722145Q208.38904 31.36277 208.38904 31.253395Q208.38904 30.190895 207.88904 29.73777Q207.21716 29.14402 205.88904 29.14402Q204.63904 29.14402 204.04529 29.58152Q203.46716 30.01902 203.18591 31.128395L201.46716 30.89402Q201.70154 29.784645 202.23279 29.11277Q202.76404 28.42527 203.77966 28.065895Q204.79529 27.690895 206.13904 27.690895Q207.46716 27.690895 208.29529 28.003395Q209.12341 28.315895 209.51404 28.80027Q209.90466 29.26902 210.06091 29.98777Q210.15466 30.440895 210.15466 31.61277L210.15466 33.95652Q210.15466 36.409645 210.26404 37.065895Q210.37341 37.70652 210.71716 38.30027L208.87341 38.30027Q208.60779 37.753395 208.52966 37.01902ZM208.37341 33.097145Q207.42029 33.48777 205.49841 33.753395Q204.42029 33.909645 203.96716 34.11277Q203.52966 34.30027 203.27966 34.67527Q203.02966 35.05027 203.02966 35.51902Q203.02966 36.222145 203.56091 36.690895Q204.09216 37.159645 205.12341 37.159645Q206.13904 37.159645 206.92029 36.722145Q207.71716 36.26902 208.09216 35.503395Q208.37341 34.89402 208.37341 33.73777L208.37341 33.097145ZM212.74841 42.26902L212.74841 27.92527L214.35779 27.92527L214.35779 29.26902Q214.92029 28.48777 215.62341 28.097145Q216.34216 27.690895 217.35779 27.690895Q218.68591 27.690895 219.70154 28.378395Q220.71716 29.065895 221.23279 30.315895Q221.76404 31.55027 221.76404 33.034645Q221.76404 34.628395 221.18591 35.909645Q220.62341 37.17527 219.52966 37.86277Q218.43591 38.534645 217.23279 38.534645Q216.35779 38.534645 215.65466 38.159645Q214.96716 37.784645 214.51404 37.222145L214.51404 42.26902L212.74841 42.26902ZM214.34216 33.17527Q214.34216 35.17527 215.15466 36.128395Q215.96716 37.08152 217.12341 37.08152Q218.29529 37.08152 219.12341 36.097145Q219.96716 35.11277 219.96716 33.01902Q219.96716 31.05027 219.13904 30.065895Q218.32654 29.065895 217.20154 29.065895Q216.07654 29.065895 215.20154 30.128395Q214.34216 31.17527 214.34216 33.17527ZM223.04529 35.20652L224.79529 34.92527Q224.93591 35.972145 225.60779 36.534645Q226.27966 37.08152 227.48279 37.08152Q228.68591 37.08152 229.26404 36.597145Q229.85779 36.097145 229.85779 35.440895Q229.85779 34.847145 229.34216 34.503395Q228.98279 34.26902 227.54529 33.909645Q225.60779 33.409645 224.85779 33.065895Q224.12341 32.70652 223.73279 32.08152Q223.34216 31.440895 223.34216 30.67527Q223.34216 29.98777 223.65466 29.39402Q223.98279 28.80027 224.52966 28.409645Q224.93591 28.11277 225.63904 27.909645Q226.35779 27.690895 227.17029 27.690895Q228.38904 27.690895 229.31091 28.05027Q230.23279 28.39402 230.67029 29.003395Q231.10779 29.597145 231.27966 30.597145L229.56091 30.83152Q229.43591 30.034645 228.87341 29.597145Q228.31091 29.14402 227.29529 29.14402Q226.07654 29.14402 225.56091 29.55027Q225.04529 29.940895 225.04529 30.472145Q225.04529 30.815895 225.26404 31.097145Q225.46716 31.378395 225.93591 31.565895Q226.20154 31.659645 227.48279 32.003395Q229.35779 32.503395 230.09216 32.83152Q230.82654 33.14402 231.24841 33.753395Q231.67029 34.347145 231.67029 35.253395Q231.67029 36.128395 231.15466 36.909645Q230.63904 37.690895 229.67029 38.11277Q228.70154 38.534645 227.48279 38.534645Q225.46716 38.534645 224.40466 37.690895Q223.34216 36.847145 223.04529 35.20652ZM233.74841 38.30027L233.74841 23.98777L235.51404 23.98777L235.51404 29.11277Q236.74841 27.690895 238.62341 27.690895Q239.76404 27.690895 240.60779 28.14402Q241.46716 28.597145 241.82654 29.409645Q242.20154 30.20652 242.20154 31.722145L242.20154 38.30027L240.45154 38.30027L240.45154 31.722145Q240.45154 30.409645 239.87341 29.815895Q239.29529 29.20652 238.26404 29.20652Q237.48279 29.20652 236.77966 29.61277Q236.09216 30.01902 235.79529 30.722145Q235.51404 31.409645 235.51404 32.628395L235.51404 38.30027L233.74841 38.30027ZM244.10779 33.11277Q244.10779 30.23777 245.70154 28.847145Q247.04529 27.690895 248.96716 27.690895Q251.10779 27.690895 252.45154 29.097145Q253.81091 30.503395 253.81091 32.972145Q253.81091 34.972145 253.21716 36.128395Q252.62341 37.26902 251.46716 37.909645Q250.32654 38.534645 248.96716 38.534645Q246.77966 38.534645 245.43591 37.14402Q244.10779 35.73777 244.10779 33.11277ZM245.90466 33.11277Q245.90466 35.11277 246.76404 36.097145Q247.63904 37.08152 248.96716 37.08152Q250.27966 37.08152 251.13904 36.097145Q252.01404 35.097145 252.01404 33.05027Q252.01404 31.128395 251.13904 30.14402Q250.26404 29.14402 248.96716 29.14402Q247.63904 29.14402 246.76404 30.14402Q245.90466 31.128395 245.90466 33.11277ZM259.59216 36.722145L259.84216 38.284645Q259.1078 38.440895 258.51404 38.440895Q257.5609 38.440895 257.02966 38.14402Q256.51404 37.83152 256.2953 37.347145Q256.07654 36.847145 256.07654 35.26902L256.07654 29.30027L254.79529 29.30027L254.79529 27.92527L256.07654 27.92527L256.07654 25.36277L257.82654 24.30027L257.82654 27.92527L259.59216 27.92527L259.59216 29.30027L257.82654 29.30027L257.82654 35.36277Q257.82654 36.11277 257.9203 36.33152Q258.01404 36.534645 258.21716 36.67527Q258.4359 36.80027 258.82654 36.80027Q259.1078 36.80027 259.59216 36.722145ZM268.01404 38.30027L268.01404 23.98777L274.3578 23.98777Q276.26404 23.98777 277.26404 24.378395Q278.26404 24.753395 278.8578 25.73777Q279.45154 26.70652 279.45154 27.89402Q279.45154 29.409645 278.46716 30.45652Q277.4828 31.503395 275.4203 31.784645Q276.1703 32.14402 276.5609 32.503395Q277.38904 33.253395 278.13904 34.409645L280.6234 38.30027L278.2484 38.30027L276.34216 35.315895Q275.51404 34.034645 274.9828 33.347145Q274.45154 32.659645 274.01404 32.39402Q273.59216 32.11277 273.15466 32.003395Q272.82654 31.940895 272.1078 31.940895L269.90466 31.940895L269.90466 38.30027L268.01404 38.30027ZM269.90466 30.30027L273.9828 30.30027Q275.27966 30.30027 275.9984 30.034645Q276.7328 29.76902 277.1078 29.17527Q277.4984 28.58152 277.4984 27.89402Q277.4984 26.878395 276.76404 26.222145Q276.02966 25.565895 274.4359 25.565895L269.90466 25.565895L269.90466 30.30027ZM288.8578 34.95652L290.6703 35.190895Q290.2484 36.76902 289.07654 37.659645Q287.9203 38.534645 286.1078 38.534645Q283.84216 38.534645 282.4984 37.14402Q281.1703 35.73777 281.1703 33.20652Q281.1703 30.58152 282.51404 29.14402Q283.8578 27.690895 286.01404 27.690895Q288.09216 27.690895 289.40466 29.11277Q290.7328 30.51902 290.7328 33.097145Q290.7328 33.253395 290.71716 33.565895L282.9828 33.565895Q283.07654 35.26902 283.95154 36.17527Q284.82654 37.08152 286.1234 37.08152Q287.09216 37.08152 287.76404 36.58152Q288.45154 36.065895 288.8578 34.95652ZM283.07654 32.11277L288.8734 32.11277Q288.76404 30.815895 288.21716 30.159645Q287.3734 29.14402 286.02966 29.14402Q284.82654 29.14402 283.9984 29.95652Q283.1703 30.753395 283.07654 32.11277ZM292.7484 38.30027L292.7484 27.92527L294.32654 27.92527L294.32654 29.378395Q294.8109 28.628395 295.6234 28.159645Q296.4359 27.690895 297.46716 27.690895Q298.6234 27.690895 299.3578 28.17527Q300.09216 28.64402 300.40466 29.503395Q301.63904 27.690895 303.6078 27.690895Q305.15466 27.690895 305.9828 28.55027Q306.8109 29.409645 306.8109 31.17527L306.8109 38.30027L305.0609 38.30027L305.0609 31.76902Q305.0609 30.70652 304.88904 30.253395Q304.71716 29.784645 304.26404 29.503395Q303.82654 29.222145 303.21716 29.222145Q302.1234 29.222145 301.38904 29.95652Q300.6703 30.67527 300.6703 32.26902L300.6703 38.30027L298.9203 38.30027L298.9203 31.565895Q298.9203 30.39402 298.4828 29.815895Q298.0609 29.222145 297.07654 29.222145Q296.34216 29.222145 295.70154 29.61277Q295.07654 30.003395 294.7953 30.753395Q294.51404 31.503395 294.51404 32.92527L294.51404 38.30027L292.7484 38.30027ZM309.1078 33.11277Q309.1078 30.23777 310.70154 28.847145Q312.0453 27.690895 313.96716 27.690895Q316.1078 27.690895 317.45154 29.097145Q318.8109 30.503395 318.8109 32.972145Q318.8109 34.972145 318.21716 36.128395Q317.6234 37.26902 316.46716 37.909645Q315.32654 38.534645 313.96716 38.534645Q311.77966 38.534645 310.4359 37.14402Q309.1078 35.73777 309.1078 33.11277ZM310.90466 33.11277Q310.90466 35.11277 311.76404 36.097145Q312.63904 37.08152 313.96716 37.08152Q315.27966 37.08152 316.13904 36.097145Q317.01404 35.097145 317.01404 33.05027Q317.01404 31.128395 316.13904 30.14402Q315.26404 29.14402 313.96716 29.14402Q312.63904 29.14402 311.76404 30.14402Q310.90466 31.128395 310.90466 33.11277ZM323.63904 38.30027L319.6859 27.92527L321.5453 27.92527L323.77966 34.14402Q324.13904 35.14402 324.4359 36.222145Q324.6703 35.409645 325.09216 34.253395L327.38904 27.92527L329.20154 27.92527L325.27966 38.30027L323.63904 38.30027ZM337.52966 37.01902Q336.5453 37.847145 335.63904 38.190895Q334.7328 38.534645 333.70154 38.534645Q331.9984 38.534645 331.07654 37.70652Q330.15466 36.86277 330.15466 35.565895Q330.15466 34.80027 330.4984 34.17527Q330.8578 33.55027 331.4203 33.17527Q331.9828 32.784645 332.6859 32.58152Q333.20154 32.45652 334.2484 32.315895Q336.3734 32.065895 337.3734 31.722145Q337.38904 31.36277 337.38904 31.253395Q337.38904 30.190895 336.88904 29.73777Q336.21716 29.14402 334.88904 29.14402Q333.63904 29.14402 333.0453 29.58152Q332.46716 30.01902 332.1859 31.128395L330.46716 30.89402Q330.70154 29.784645 331.2328 29.11277Q331.76404 28.42527 332.77966 28.065895Q333.7953 27.690895 335.13904 27.690895Q336.46716 27.690895 337.2953 28.003395Q338.1234 28.315895 338.51404 28.80027Q338.90466 29.26902 339.0609 29.98777Q339.15466 30.440895 339.15466 31.61277L339.15466 33.95652Q339.15466 36.409645 339.26404 37.065895Q339.3734 37.70652 339.71716 38.30027L337.8734 38.30027Q337.6078 37.753395 337.52966 37.01902ZM337.3734 33.097145Q336.4203 33.48777 334.4984 33.753395Q333.4203 33.909645 332.96716 34.11277Q332.52966 34.30027 332.27966 34.67527Q332.02966 35.05027 332.02966 35.51902Q332.02966 36.222145 332.5609 36.690895Q333.09216 37.159645 334.1234 37.159645Q335.13904 37.159645 335.9203 36.722145Q336.71716 36.26902 337.09216 35.503395Q337.3734 34.89402 337.3734 33.73777L337.3734 33.097145ZM341.71716 38.30027L341.71716 23.98777L343.46716 23.98777L343.46716 38.30027L341.71716 38.30027ZM355.1078 42.503395Q353.65466 40.67527 352.65466 38.222145Q351.65466 35.753395 351.65466 33.11277Q351.65466 30.784645 352.40466 28.659645Q353.27966 26.190895 355.1078 23.73777L356.3734 23.73777Q355.1859 25.76902 354.8109 26.64402Q354.21716 27.98777 353.8734 29.45652Q353.45154 31.284645 353.45154 33.128395Q353.45154 37.815895 356.3734 42.503395L355.1078 42.503395ZM358.34216 33.70652L360.1234 33.55027Q360.2484 34.61277 360.70154 35.30027Q361.1703 35.98777 362.13904 36.42527Q363.1234 36.847145 364.3578 36.847145Q365.4359 36.847145 366.26404 36.534645Q367.09216 36.20652 367.4984 35.64402Q367.90466 35.08152 367.90466 34.409645Q367.90466 33.73777 367.51404 33.23777Q367.1234 32.73777 366.2328 32.39402Q365.65466 32.159645 363.6703 31.690895Q361.70154 31.222145 360.9203 30.80027Q359.88904 30.26902 359.38904 29.472145Q358.88904 28.67527 358.88904 27.690895Q358.88904 26.597145 359.4984 25.659645Q360.1078 24.722145 361.2953 24.23777Q362.4828 23.73777 363.9203 23.73777Q365.51404 23.73777 366.7328 24.253395Q367.95154 24.76902 368.59216 25.76902Q369.2484 26.753395 369.2953 28.01902L367.4828 28.159645Q367.34216 26.80027 366.4984 26.11277Q365.65466 25.409645 363.9984 25.409645Q362.27966 25.409645 361.4828 26.05027Q360.70154 26.67527 360.70154 27.55027Q360.70154 28.33152 361.26404 28.83152Q361.8109 29.33152 364.1234 29.847145Q366.4359 30.36277 367.2953 30.753395Q368.5453 31.33152 369.13904 32.222145Q369.7328 33.097145 369.7328 34.253395Q369.7328 35.39402 369.07654 36.409645Q368.4203 37.42527 367.1859 37.98777Q365.96716 38.55027 364.4359 38.55027Q362.4984 38.55027 361.1859 37.98777Q359.8734 37.409645 359.1234 36.26902Q358.3734 35.128395 358.34216 33.70652ZM371.7484 38.30027L371.7484 27.92527L373.32654 27.92527L373.32654 29.378395Q373.8109 28.628395 374.6234 28.159645Q375.4359 27.690895 376.46716 27.690895Q377.6234 27.690895 378.3578 28.17527Q379.09216 28.64402 379.40466 29.503395Q380.63904 27.690895 382.6078 27.690895Q384.15466 27.690895 384.9828 28.55027Q385.8109 29.409645 385.8109 31.17527L385.8109 38.30027L384.0609 38.30027L384.0609 31.76902Q384.0609 30.70652 383.88904 30.253395Q383.71716 29.784645 383.26404 29.503395Q382.82654 29.222145 382.21716 29.222145Q381.1234 29.222145 380.38904 29.95652Q379.6703 30.67527 379.6703 32.26902L379.6703 38.30027L377.9203 38.30027L377.9203 31.565895Q377.9203 30.39402 377.4828 29.815895Q377.0609 29.222145 376.07654 29.222145Q375.34216 29.222145 374.70154 29.61277Q374.07654 30.003395 373.7953 30.753395Q373.51404 31.503395 373.51404 32.92527L373.51404 38.30027L371.7484 38.30027ZM395.52966 37.01902Q394.5453 37.847145 393.63904 38.190895Q392.7328 38.534645 391.70154 38.534645Q389.9984 38.534645 389.07654 37.70652Q388.15466 36.86277 388.15466 35.565895Q388.15466 34.80027 388.4984 34.17527Q388.8578 33.55027 389.4203 33.17527Q389.9828 32.784645 390.6859 32.58152Q391.20154 32.45652 392.2484 32.315895Q394.3734 32.065895 395.3734 31.722145Q395.38904 31.36277 395.38904 31.253395Q395.38904 30.190895 394.88904 29.73777Q394.21716 29.14402 392.88904 29.14402Q391.63904 29.14402 391.0453 29.58152Q390.46716 30.01902 390.1859 31.128395L388.46716 30.89402Q388.70154 29.784645 389.2328 29.11277Q389.76404 28.42527 390.77966 28.065895Q391.7953 27.690895 393.13904 27.690895Q394.46716 27.690895 395.2953 28.003395Q396.1234 28.315895 396.51404 28.80027Q396.90466 29.26902 397.0609 29.98777Q397.15466 30.440895 397.15466 31.61277L397.15466 33.95652Q397.15466 36.409645 397.26404 37.065895Q397.3734 37.70652 397.71716 38.30027L395.8734 38.30027Q395.6078 37.753395 395.52966 37.01902ZM395.3734 33.097145Q394.4203 33.48777 392.4984 33.753395Q391.4203 33.909645 390.96716 34.11277Q390.52966 34.30027 390.27966 34.67527Q390.02966 35.05027 390.02966 35.51902Q390.02966 36.222145 390.5609 36.690895Q391.09216 37.159645 392.1234 37.159645Q393.13904 37.159645 393.9203 36.722145Q394.71716 36.26902 395.09216 35.503395Q395.3734 34.89402 395.3734 33.73777L395.3734 33.097145ZM399.71716 38.30027L399.71716 23.98777L401.46716 23.98777L401.46716 38.30027L399.71716 38.30027ZM403.71716 38.30027L403.71716 23.98777L405.46716 23.98777L405.46716 38.30027L403.71716 38.30027ZM414.8578 34.95652L416.6703 35.190895Q416.2484 36.76902 415.07654 37.659645Q413.9203 38.534645 412.1078 38.534645Q409.84216 38.534645 408.4984 37.14402Q407.1703 35.73777 407.1703 33.20652Q407.1703 30.58152 408.51404 29.14402Q409.8578 27.690895 412.01404 27.690895Q414.09216 27.690895 415.40466 29.11277Q416.7328 30.51902 416.7328 33.097145Q416.7328 33.253395 416.71716 33.565895L408.9828 33.565895Q409.07654 35.26902 409.95154 36.17527Q410.82654 37.08152 412.1234 37.08152Q413.09216 37.08152 413.76404 36.58152Q414.45154 36.065895 414.8578 34.95652ZM409.07654 32.11277L414.8734 32.11277Q414.76404 30.815895 414.21716 30.159645Q413.3734 29.14402 412.02966 29.14402Q410.82654 29.14402 409.9984 29.95652Q409.1703 30.753395 409.07654 32.11277ZM418.7328 38.30027L418.7328 27.92527L420.3109 27.92527L420.3109 29.503395Q420.9203 28.39402 421.4359 28.05027Q421.95154 27.690895 422.5609 27.690895Q423.45154 27.690895 424.3734 28.253395L423.76404 29.89402Q423.1234 29.503395 422.4828 29.503395Q421.90466 29.503395 421.4359 29.86277Q420.9828 30.20652 420.77966 30.815895Q420.4984 31.753395 420.4984 32.86277L420.4984 38.30027L418.7328 38.30027ZM431.76404 26.003395L431.76404 23.98777L433.52966 23.98777L433.52966 26.003395L431.76404 26.003395ZM431.76404 38.30027L431.76404 27.92527L433.52966 27.92527L433.52966 38.30027L431.76404 38.30027ZM435.0453 35.20652L436.7953 34.92527Q436.9359 35.972145 437.6078 36.534645Q438.27966 37.08152 439.4828 37.08152Q440.6859 37.08152 441.26404 36.597145Q441.8578 36.097145 441.8578 35.440895Q441.8578 34.847145 441.34216 34.503395Q440.9828 34.26902 439.5453 33.909645Q437.6078 33.409645 436.8578 33.065895Q436.1234 32.70652 435.7328 32.08152Q435.34216 31.440895 435.34216 30.67527Q435.34216 29.98777 435.65466 29.39402Q435.9828 28.80027 436.52966 28.409645Q436.9359 28.11277 437.63904 27.909645Q438.3578 27.690895 439.1703 27.690895Q440.38904 27.690895 441.3109 28.05027Q442.2328 28.39402 442.6703 29.003395Q443.1078 29.597145 443.27966 30.597145L441.5609 30.83152Q441.4359 30.034645 440.8734 29.597145Q440.3109 29.14402 439.2953 29.14402Q438.07654 29.14402 437.5609 29.55027Q437.0453 29.940895 437.0453 30.472145Q437.0453 30.815895 437.26404 31.097145Q437.46716 31.378395 437.9359 31.565895Q438.20154 31.659645 439.4828 32.003395Q441.3578 32.503395 442.09216 32.83152Q442.82654 33.14402 443.2484 33.753395Q443.6703 34.347145 443.6703 35.253395Q443.6703 36.128395 443.15466 36.909645Q442.63904 37.690895 441.6703 38.11277Q440.70154 38.534645 439.4828 38.534645Q437.46716 38.534645 436.40466 37.690895Q435.34216 36.847145 435.0453 35.20652ZM453.3734 38.30027L451.7484 38.30027L451.7484 23.98777L453.4984 23.98777L453.4984 29.097145Q454.6234 27.690895 456.34216 27.690895Q457.2953 27.690895 458.15466 28.08152Q459.01404 28.472145 459.5609 29.17527Q460.1078 29.86277 460.4203 30.847145Q460.7328 31.83152 460.7328 32.95652Q460.7328 35.628395 459.4203 37.08152Q458.1078 38.534645 456.26404 38.534645Q454.4203 38.534645 453.3734 37.003395L453.3734 38.30027ZM453.3578 33.034645Q453.3578 34.89402 453.8578 35.73777Q454.70154 37.08152 456.1078 37.08152Q457.26404 37.08152 458.09216 36.08152Q458.9359 35.08152 458.9359 33.097145Q458.9359 31.065895 458.1234 30.11277Q457.32654 29.14402 456.1859 29.14402Q455.02966 29.14402 454.1859 30.14402Q453.3578 31.14402 453.3578 33.034645ZM469.8578 34.95652L471.6703 35.190895Q471.2484 36.76902 470.07654 37.659645Q468.9203 38.534645 467.1078 38.534645Q464.84216 38.534645 463.4984 37.14402Q462.1703 35.73777 462.1703 33.20652Q462.1703 30.58152 463.51404 29.14402Q464.8578 27.690895 467.01404 27.690895Q469.09216 27.690895 470.40466 29.11277Q471.7328 30.51902 471.7328 33.097145Q471.7328 33.253395 471.71716 33.565895L463.9828 33.565895Q464.07654 35.26902 464.95154 36.17527Q465.82654 37.08152 467.1234 37.08152Q468.09216 37.08152 468.76404 36.58152Q469.45154 36.065895 469.8578 34.95652ZM464.07654 32.11277L469.8734 32.11277Q469.76404 30.815895 469.21716 30.159645Q468.3734 29.14402 467.02966 29.14402Q465.82654 29.14402 464.9984 29.95652Q464.1703 30.753395 464.07654 32.11277ZM477.59216 36.722145L477.84216 38.284645Q477.1078 38.440895 476.51404 38.440895Q475.5609 38.440895 475.02966 38.14402Q474.51404 37.83152 474.2953 37.347145Q474.07654 36.847145 474.07654 35.26902L474.07654 29.30027L472.7953 29.30027L472.7953 27.92527L474.07654 27.92527L474.07654 25.36277L475.82654 24.30027L475.82654 27.92527L477.59216 27.92527L477.59216 29.30027L475.82654 29.30027L475.82654 35.36277Q475.82654 36.11277 475.9203 36.33152Q476.01404 36.534645 476.21716 36.67527Q476.4359 36.80027 476.82654 36.80027Q477.1078 36.80027 477.59216 36.722145ZM483.59216 36.722145L483.84216 38.284645Q483.1078 38.440895 482.51404 38.440895Q481.5609 38.440895 481.02966 38.14402Q480.51404 37.83152 480.2953 37.347145Q480.07654 36.847145 480.07654 35.26902L480.07654 29.30027L478.7953 29.30027L478.7953 27.92527L480.07654 27.92527L480.07654 25.36277L481.82654 24.30027L481.82654 27.92527L483.59216 27.92527L483.59216 29.30027L481.82654 29.30027L481.82654 35.36277Q481.82654 36.11277 481.9203 36.33152Q482.01404 36.534645 482.21716 36.67527Q482.4359 36.80027 482.82654 36.80027Q483.1078 36.80027 483.59216 36.722145ZM492.8578 34.95652L494.6703 35.190895Q494.2484 36.76902 493.07654 37.659645Q491.9203 38.534645 490.1078 38.534645Q487.84216 38.534645 486.4984 37.14402Q485.1703 35.73777 485.1703 33.20652Q485.1703 30.58152 486.51404 29.14402Q487.8578 27.690895 490.01404 27.690895Q492.09216 27.690895 493.40466 29.11277Q494.7328 30.51902 494.7328 33.097145Q494.7328 33.253395 494.71716 33.565895L486.9828 33.565895Q487.07654 35.26902 487.95154 36.17527Q488.82654 37.08152 490.1234 37.08152Q491.09216 37.08152 491.76404 36.58152Q492.45154 36.065895 492.8578 34.95652ZM487.07654 32.11277L492.8734 32.11277Q492.76404 30.815895 492.21716 30.159645Q491.3734 29.14402 490.02966 29.14402Q488.82654 29.14402 487.9984 29.95652Q487.1703 30.753395 487.07654 32.11277ZM496.7328 38.30027L496.7328 27.92527L498.3109 27.92527L498.3109 29.503395Q498.9203 28.39402 499.4359 28.05027Q499.95154 27.690895 500.5609 27.690895Q501.45154 27.690895 502.3734 28.253395L501.76404 29.89402Q501.1234 29.503395 500.4828 29.503395Q499.90466 29.503395 499.4359 29.86277Q498.9828 30.20652 498.77966 30.815895Q498.4984 31.753395 498.4984 32.86277L498.4984 38.30027L496.7328 38.30027ZM504.90466 42.503395L503.65466 42.503395Q506.5609 37.815895 506.5609 33.128395Q506.5609 31.284645 506.15466 29.48777Q505.8109 28.01902 505.21716 26.67527Q504.84216 25.784645 503.65466 23.73777L504.90466 23.73777Q506.7484 26.190895 507.6234 28.659645Q508.3734 30.784645 508.3734 33.11277Q508.3734 35.753395 507.3578 38.222145Q506.3578 40.67527 504.90466 42.503395Z" fill-rule="nonzero"/></svg>