<svg version="1.1" viewBox="0.0 0.0 600.0 371.0" fill="none" stroke="none" stroke-linecap="square" stroke-miterlimit="10" width="600" height="371" xmlns:xlink="http://www.w3.org/1999/xlink" xmlns="http://www.w3.org/2000/svg"><path fill="#ffffff" d="M0 0L600.0 0L600.0 371.0L0 371.0L0 0Z" fill-rule="nonzero"/><path stroke="#333333" stroke-width="1.0" stroke-linecap="butt" d="M132.5 54.5L132.5 300.5" fill-rule="nonzero"/><path stroke="#cccccc" stroke-width="1.0" stroke-linecap="butt" d="M222.5 54.5L222.5 300.5" fill-rule="nonzero"/><path stroke="#cccccc" stroke-width="1.0" stroke-linecap="butt" d="M312.5 54.5L312.5 300.5" fill-rule="nonzero"/><path stroke="#cccccc" stroke-width="1.0" stroke-linecap="butt" d="M401.5 54.5L401.5 300.5" fill-rule="nonzero"/><path stroke="#cccccc" stroke-width="1.0" stroke-linecap="butt" d="M491.5 54.5L491.5 300.5" fill-rule="nonzero"/><path stroke="#cccccc" stroke-width="1.0" stroke-linecap="butt" d="M581.5 54.5L581.5 300.5" fill-rule="nonzero"/><clipPath id="id_0"><path d="M132.55 54.916668L581.45 54.916668L581.45 300.45L132.55 300.45L132.55 54.916668Z" clip-rule="nonzero"/></clipPath><path stroke="#000000" stroke-width="2.0" stroke-linecap="butt" stroke-opacity="0.0" clip-path="url(#id_0)" d="M133.0 112.0L133.0 75.0L201.0 75.0C202.10457 75.0 203.0 75.89543 203.0 77.0L203.0 110.0C203.0 111.10457 202.10457 112.0 201.0 112.0Z" fill-rule="nonzero"/><path fill="#4285f4" clip-path="url(#id_0)" d="M133.0 112.0L133.0 75.0L201.0 75.0C202.10457 75.0 203.0 75.89543 203.0 77.0L203.0 110.0C203.0 111.10457 202.10457 112.0 201.0 112.0Z" fill-rule="nonzero"/><path stroke="#000000" stroke-width="2.0" stroke-linecap="butt" stroke-opacity="0.0" clip-path="url(#id_0)" d="M133.0 168.0L133.0 131.0L239.0 131.0C240.10457 131.0 241.0 131.89543 241.0 133.0L241.0 166.0C241.0 167.10457 240.10457 168.0 239.0 168.0Z" fill-rule="nonzero"/><path fill="#4285f4" clip-path="url(#id_0)" d="M133.0 168.0L133.0 131.0L239.0 131.0C240.10457 131.0 241.0 131.89543 241.0 133.0L241.0 166.0C241.0 167.10457 240.10457 168.0 239.0 168.0Z" fill-rule="nonzero"/><path stroke="#000000" stroke-width="2.0" stroke-linecap="butt" stroke-opacity="0.0" clip-path="url(#id_0)" d="M133.0 225.0L133.0 188.0L379.0 188.0C380.10458 188.0 381.0 188.89543 381.0 190.0L381.0 223.0C381.0 224.10457 380.10458 225.0 379.0 225.0Z" fill-rule="nonzero"/><path fill="#4285f4" clip-path="url(#id_0)" d="M133.0 225.0L133.0 188.0L379.0 188.0C380.10458 188.0 381.0 188.89543 381.0 190.0L381.0 223.0C381.0 224.10457 380.10458 225.0 379.0 225.0Z" fill-rule="nonzero"/><path stroke="#000000" stroke-width="2.0" stroke-linecap="butt" stroke-opacity="0.0" clip-path="url(#id_0)" d="M133.0 281.0L133.0 244.0L571.0 244.0C572.10455 244.0 573.0 244.89543 573.0 246.0L573.0 279.0C573.0 280.10458 572.10455 281.0 571.0 281.0Z" fill-rule="nonzero"/><path fill="#4285f4" clip-path="url(#id_0)" d="M133.0 281.0L133.0 244.0L571.0 244.0C572.10455 244.0 573.0 244.89543 573.0 246.0L573.0 279.0C573.0 280.10458 572.10455 281.0 571.0 281.0Z" fill-rule="nonzero"/><path fill="#000000" d="M333.54688 346.6844L334.60938 346.59064Q334.6875 347.2469 334.96875 347.65314Q335.25 348.0594 335.82812 348.325Q336.42188 348.575 337.15625 348.575Q337.79688 348.575 338.29688 348.3875Q338.79688 348.1844 339.03125 347.85626Q339.28125 347.5125 339.28125 347.1219Q339.28125 346.71564 339.04688 346.41876Q338.8125 346.10626 338.28125 345.90314Q337.92188 345.7625 336.73438 345.48126Q335.5625 345.2 335.09375 344.95Q334.46875 344.6219 334.17188 344.15314Q333.875 343.66876 333.875 343.075Q333.875 342.4344 334.23438 341.8719Q334.60938 341.29376 335.3125 341.0125Q336.03125 340.71564 336.89062 340.71564Q337.84375 340.71564 338.57812 341.02814Q339.3125 341.325 339.70312 341.9344Q340.09375 342.52814 340.125 343.27814L339.03125 343.35626Q338.9375 342.54376 338.42188 342.1375Q337.92188 341.71564 336.9375 341.71564Q335.90625 341.71564 335.4375 342.09064Q334.96875 342.46564 334.96875 342.9969Q334.96875 343.46564 335.29688 343.7625Q335.625 344.0594 337.0 344.3719Q338.39062 344.6844 338.90625 344.91876Q339.65625 345.27814 340.01562 345.8094Q340.375 346.325 340.375 347.02814Q340.375 347.71564 339.98438 348.325Q339.59375 348.91876 338.85938 349.2625Q338.125 349.59064 337.20312 349.59064Q336.03125 349.59064 335.23438 349.2625Q334.45312 348.91876 334.0 348.23126Q333.5625 347.54376 333.54688 346.6844ZM346.04688 347.45L347.14062 347.575Q346.89062 348.52814 346.1875 349.0594Q345.48438 349.59064 344.40625 349.59064Q343.04688 349.59064 342.23438 348.7469Q341.4375 347.90314 341.4375 346.3875Q341.4375 344.825 342.25 343.96564Q343.0625 343.09064 344.34375 343.09064Q345.59375 343.09064 346.375 343.9344Q347.17188 344.77814 347.17188 346.325Q347.17188 346.41876 347.17188 346.60626L342.53125 346.60626Q342.59375 347.6375 343.10938 348.1844Q343.625 348.71564 344.40625 348.71564Q344.98438 348.71564 345.39062 348.41876Q345.8125 348.10626 346.04688 347.45ZM342.59375 345.7469L346.0625 345.7469Q346.0 344.95 345.67188 344.5594Q345.15625 343.95 344.35938 343.95Q343.625 343.95 343.125 344.4344Q342.64062 344.91876 342.59375 345.7469ZM352.85938 347.16876L353.89062 347.3094Q353.71875 348.3719 353.01562 348.98126Q352.3125 349.59064 351.29688 349.59064Q350.01562 349.59064 349.23438 348.7625Q348.46875 347.91876 348.46875 346.35626Q348.46875 345.35626 348.79688 344.60626Q349.14062 343.84064 349.8125 343.46564Q350.5 343.09064 351.3125 343.09064Q352.3125 343.09064 352.95312 343.60626Q353.60938 344.10626 353.79688 345.0594L352.76562 345.21564Q352.625 344.59064 352.25 344.27814Q351.875 343.95 351.34375 343.95Q350.54688 343.95 350.04688 344.52814Q349.54688 345.09064 349.54688 346.325Q349.54688 347.59064 350.03125 348.15314Q350.51562 348.71564 351.28125 348.71564Q351.90625 348.71564 352.3125 348.34064Q352.73438 347.96564 352.85938 347.16876ZM354.40625 346.34064Q354.40625 344.60626 355.35938 343.77814Q356.15625 343.09064 357.3125 343.09064Q358.59375 343.09064 359.40625 343.9344Q360.23438 344.7625 360.23438 346.2469Q360.23438 347.45 359.875 348.1375Q359.51562 348.825 358.8125 349.21564Q358.125 349.59064 357.3125 349.59064Q356.01562 349.59064 355.20312 348.7625Q354.40625 347.91876 354.40625 346.34064ZM355.48438 346.34064Q355.48438 347.52814 356.0 348.1219Q356.53125 348.71564 357.3125 348.71564Q358.10938 348.71564 358.625 348.1219Q359.14062 347.52814 359.14062 346.3094Q359.14062 345.15314 358.60938 344.5594Q358.09375 343.96564 357.3125 343.96564Q356.53125 343.96564 356.0 344.5594Q355.48438 345.1375 355.48438 346.34064ZM361.79688 349.45L361.79688 343.23126L362.73438 343.23126L362.73438 344.10626Q363.42188 343.09064 364.71875 343.09064Q365.28125 343.09064 365.75 343.29376Q366.23438 343.4969 366.46875 343.825Q366.70312 344.15314 366.79688 344.59064Q366.84375 344.8875 366.84375 345.6219L366.84375 349.45L365.79688 349.45L365.79688 345.66876Q365.79688 345.0125 365.67188 344.7Q365.54688 344.3875 365.23438 344.2Q364.92188 343.9969 364.5 343.9969Q363.82812 343.9969 363.32812 344.4344Q362.84375 344.85626 362.84375 346.04376L362.84375 349.45L361.79688 349.45ZM372.82812 349.45L372.82812 348.66876Q372.23438 349.59064 371.09375 349.59064Q370.34375 349.59064 369.71875 349.1844Q369.09375 348.7625 368.75 348.02814Q368.40625 347.29376 368.40625 346.34064Q368.40625 345.41876 368.71875 344.65314Q369.03125 343.8875 369.65625 343.4969Q370.28125 343.09064 371.04688 343.09064Q371.60938 343.09064 372.04688 343.325Q372.48438 343.5594 372.76562 343.9344L372.76562 340.85626L373.8125 340.85626L373.8125 349.45L372.82812 349.45ZM369.5 346.34064Q369.5 347.54376 370.0 348.1375Q370.5 348.71564 371.1875 348.71564Q371.875 348.71564 372.35938 348.15314Q372.84375 347.59064 372.84375 346.4344Q372.84375 345.15314 372.34375 344.5594Q371.85938 343.96564 371.14062 343.96564Q370.4375 343.96564 369.96875 344.54376Q369.5 345.10626 369.5 346.34064ZM375.375 347.59064L376.40625 347.4344Q376.5 348.0594 376.89062 348.3875Q377.29688 348.71564 378.03125 348.71564Q378.75 348.71564 379.09375 348.4344Q379.45312 348.1375 379.45312 347.73126Q379.45312 347.3719 379.14062 347.16876Q378.92188 347.02814 378.0625 346.8094Q376.90625 346.5125 376.45312 346.3094Q376.01562 346.09064 375.78125 345.71564Q375.54688 345.34064 375.54688 344.8719Q375.54688 344.46564 375.73438 344.10626Q375.92188 343.7469 376.25 343.5125Q376.5 343.34064 376.92188 343.21564Q377.34375 343.09064 377.84375 343.09064Q378.5625 343.09064 379.10938 343.3094Q379.67188 343.5125 379.9375 343.8719Q380.20312 344.23126 380.29688 344.825L379.26562 344.96564Q379.20312 344.4969 378.85938 344.23126Q378.53125 343.95 377.90625 343.95Q377.1875 343.95 376.875 344.2Q376.5625 344.4344 376.5625 344.7625Q376.5625 344.96564 376.6875 345.1219Q376.82812 345.29376 377.09375 345.40314Q377.25 345.46564 378.03125 345.66876Q379.15625 345.98126 379.59375 346.16876Q380.03125 346.35626 380.28125 346.71564Q380.53125 347.075 380.53125 347.6219Q380.53125 348.15314 380.21875 348.6219Q379.92188 349.075 379.34375 349.34064Q378.76562 349.59064 378.03125 349.59064Q376.8125 349.59064 376.17188 349.09064Q375.54688 348.575 375.375 347.59064Z" fill-rule="nonzero"/><path fill="#000000" d="M26.534388 209.12083L26.831263 207.99583Q28.221888 208.35521 28.956263 209.27708Q29.690638 210.19896 29.690638 211.54271Q29.690638 212.93333 29.128138 213.80833Q28.565638 214.68333 27.503138 215.13646Q26.425013 215.58958 25.190638 215.58958Q23.846888 215.58958 22.846888 215.07396Q21.846888 214.55833 21.331263 213.62083Q20.815638 212.66771 20.815638 211.52708Q20.815638 210.24583 21.471888 209.37083Q22.128138 208.48021 23.315638 208.13646L23.581263 209.26146Q22.643763 209.55833 22.221888 210.13646Q21.784388 210.69896 21.784388 211.55833Q21.784388 212.54271 22.268763 213.21458Q22.737513 213.87083 23.534388 214.15208Q24.331263 214.41771 25.190638 214.41771Q26.284388 214.41771 27.096888 214.10521Q27.909388 213.77708 28.315638 213.10521Q28.721888 212.43333 28.721888 211.63646Q28.721888 210.68333 28.175013 210.02708Q27.628138 209.35521 26.534388 209.12083ZM26.440638 206.77708Q24.706263 206.77708 23.878138 205.82396Q23.190638 205.02708 23.190638 203.87083Q23.190638 202.58958 24.034388 201.77708Q24.862513 200.94896 26.346888 200.94896Q27.550013 200.94896 28.237513 201.30833Q28.925013 201.66771 29.315638 202.37083Q29.690638 203.05833 29.690638 203.87083Q29.690638 205.16771 28.862513 205.98021Q28.018763 206.77708 26.440638 206.77708ZM26.440638 205.69896Q27.628138 205.69896 28.221888 205.18333Q28.815638 204.65208 28.815638 203.87083Q28.815638 203.07396 28.221888 202.55833Q27.628138 202.04271 26.409388 202.04271Q25.253138 202.04271 24.659388 202.57396Q24.065638 203.08958 24.065638 203.87083Q24.065638 204.65208 24.659388 205.18333Q25.237513 205.69896 26.440638 205.69896ZM29.550013 199.38646L23.331263 199.38646L23.331263 198.44896L24.206263 198.44896Q23.737513 198.15208 23.471888 197.66771Q23.190638 197.18333 23.190638 196.55833Q23.190638 195.87083 23.471888 195.43333Q23.753138 194.98021 24.268763 194.80833Q23.190638 194.05833 23.190638 192.88646Q23.190638 191.94896 23.706263 191.46458Q24.206263 190.96458 25.284388 190.96458L29.550013 190.96458L29.550013 192.01146L25.628138 192.01146Q25.003138 192.01146 24.721888 192.12083Q24.440638 192.21458 24.268763 192.48021Q24.096888 192.74583 24.096888 193.12083Q24.096888 193.77708 24.534388 194.21458Q24.971888 194.63646 25.940638 194.63646L29.550013 194.63646L29.550013 195.69896L25.503138 195.69896Q24.800013 195.69896 24.456263 195.96458Q24.096888 196.21458 24.096888 196.79271Q24.096888 197.24583 24.331263 197.62083Q24.565638 197.99583 25.018763 198.16771Q25.471888 198.33958 26.315638 198.33958L29.550013 198.33958L29.550013 199.38646ZM29.550013 189.38646L23.331263 189.38646L23.331263 188.44896L24.206263 188.44896Q23.737513 188.15208 23.471888 187.66771Q23.190638 187.18333 23.190638 186.55833Q23.190638 185.87083 23.471888 185.43333Q23.753138 184.98021 24.268763 184.80833Q23.190638 184.05833 23.190638 182.88646Q23.190638 181.94896 23.706263 181.46458Q24.206263 180.96458 25.284388 180.96458L29.550013 180.96458L29.550013 182.01146L25.628138 182.01146Q25.003138 182.01146 24.721888 182.12083Q24.440638 182.21458 24.268763 182.48021Q24.096888 182.74583 24.096888 183.12083Q24.096888 183.77708 24.534388 184.21458Q24.971888 184.63646 25.940638 184.63646L29.550013 184.63646L29.550013 185.69896L25.503138 185.69896Q24.800013 185.69896 24.456263 185.96458Q24.096888 186.21458 24.096888 186.79271Q24.096888 187.24583 24.331263 187.62083Q24.565638 187.99583 25.018763 188.16771Q25.471888 188.33958 26.315638 188.33958L29.550013 188.33958L29.550013 189.38646ZM28.784388 175.32396Q29.284388 175.91771 29.487513 176.46458Q29.690638 176.99583 29.690638 177.62083Q29.690638 178.65208 29.190638 179.19896Q28.690638 179.74583 27.909388 179.74583Q27.456263 179.74583 27.081263 179.54271Q26.690638 179.33958 26.471888 178.99583Q26.237513 178.65208 26.128138 178.23021Q26.034388 177.93333 25.956263 177.29271Q25.815638 176.02708 25.596888 175.41771Q25.378138 175.41771 25.331263 175.41771Q24.675013 175.41771 24.409388 175.71458Q24.065638 176.12083 24.065638 176.91771Q24.065638 177.65208 24.331263 178.01146Q24.581263 178.37083 25.237513 178.54271L25.096888 179.57396Q24.440638 179.43333 24.034388 179.10521Q23.628138 178.77708 23.409388 178.16771Q23.190638 177.55833 23.190638 176.76146Q23.190638 175.96458 23.378138 175.46458Q23.565638 174.96458 23.846888 174.73021Q24.128138 174.49583 24.565638 174.40208Q24.831263 174.35521 25.534388 174.35521L26.940638 174.35521Q28.409388 174.35521 28.800013 174.29271Q29.190638 174.21458 29.550013 174.01146L29.550013 175.12083Q29.221888 175.27708 28.784388 175.32396ZM26.425013 175.41771Q26.659388 175.99583 26.831263 177.13646Q26.925013 177.79271 27.050013 178.05833Q27.159388 178.32396 27.378138 178.48021Q27.596888 178.62083 27.878138 178.62083Q28.300013 178.62083 28.581263 178.30833Q28.862513 177.98021 28.862513 177.37083Q28.862513 176.76146 28.596888 176.29271Q28.331263 175.80833 27.862513 175.58958Q27.503138 175.41771 26.815638 175.41771L26.425013 175.41771ZM29.550013 172.38646L23.331263 172.38646L23.331263 171.44896L24.206263 171.44896Q23.190638 170.76146 23.190638 169.46458Q23.190638 168.90208 23.393763 168.43333Q23.596888 167.94896 23.925013 167.71458Q24.253138 167.48021 24.690638 167.38646Q24.987513 167.33958 25.721888 167.33958L29.550013 167.33958L29.550013 168.38646L25.768763 168.38646Q25.112513 168.38646 24.800013 168.51146Q24.487513 168.63646 24.300013 168.94896Q24.096888 169.26146 24.096888 169.68333Q24.096888 170.35521 24.534388 170.85521Q24.956263 171.33958 26.143763 171.33958L29.550013 171.33958L29.550013 172.38646ZM29.550013 161.35521L28.768763 161.35521Q29.690638 161.94896 29.690638 163.08958Q29.690638 163.83958 29.284388 164.46458Q28.862513 165.08958 28.128138 165.43333Q27.393763 165.77708 26.440638 165.77708Q25.518763 165.77708 24.753138 165.46458Q23.987513 165.15208 23.596888 164.52708Q23.190638 163.90208 23.190638 163.13646Q23.190638 162.57396 23.425013 162.13646Q23.659388 161.69896 24.034388 161.41771L20.956263 161.41771L20.956263 160.37083L29.550013 160.37083L29.550013 161.35521ZM26.440638 164.68333Q27.643763 164.68333 28.237513 164.18333Q28.815638 163.68333 28.815638 162.99583Q28.815638 162.30833 28.253138 161.82396Q27.690638 161.33958 26.534388 161.33958Q25.253138 161.33958 24.659388 161.83958Q24.065638 162.32396 24.065638 163.04271Q24.065638 163.74583 24.643763 164.21458Q25.206263 164.68333 26.440638 164.68333Z" fill-rule="nonzero"/><path fill="#000000" d="M58.315624 97.01667L57.33125 97.01667L57.33125 88.42292L58.39375 88.42292L58.39375 91.48542Q59.065624 90.657295 60.096874 90.657295Q60.675 90.657295 61.175 90.89167Q61.690624 91.11042 62.01875 91.532295Q62.3625 91.95417 62.55 92.54792Q62.7375 93.14167 62.7375 93.813545Q62.7375 95.407295 61.940624 96.282295Q61.14375 97.157295 60.05 97.157295Q58.940624 97.157295 58.315624 96.23542L58.315624 97.01667ZM58.3 93.86042Q58.3 94.969795 58.6125 95.469795Q59.1125 96.282295 59.95625 96.282295Q60.64375 96.282295 61.14375 95.688545Q61.659374 95.094795 61.659374 93.89167Q61.659374 92.67292 61.175 92.094795Q60.690624 91.51667 60.003124 91.51667Q59.315624 91.51667 58.8 92.126045Q58.3 92.719795 58.3 93.86042ZM68.425 97.01667L68.425 96.094795Q67.69063 97.157295 66.44063 97.157295Q65.89375 97.157295 65.40938 96.95417Q64.94063 96.73542 64.70625 96.42292Q64.47188 96.094795 64.37813 95.626045Q64.31563 95.32917 64.31563 94.64167L64.31563 90.79792L65.37813 90.79792L65.37813 94.251045Q65.37813 95.063545 65.44063 95.36042Q65.53438 95.76667 65.84688 96.01667Q66.175 96.251045 66.65938 96.251045Q67.12813 96.251045 67.53438 96.01667Q67.95625 95.76667 68.12813 95.344795Q68.31563 94.92292 68.31563 94.126045L68.31563 90.79792L69.3625 90.79792L69.3625 97.01667L68.425 97.01667ZM71.34688 99.407295L71.34688 90.79792L72.3 90.79792L72.3 91.594795Q72.64375 91.126045 73.06563 90.89167Q73.50313 90.657295 74.1125 90.657295Q74.90938 90.657295 75.51875 91.063545Q76.12813 91.469795 76.425 92.219795Q76.7375 92.969795 76.7375 93.86042Q76.7375 94.813545 76.39375 95.57917Q76.06563 96.344795 75.40938 96.751045Q74.75313 97.157295 74.03438 97.157295Q73.50313 97.157295 73.08125 96.938545Q72.65938 96.70417 72.39375 96.376045L72.39375 99.407295L71.34688 99.407295ZM72.3 93.938545Q72.3 95.14167 72.78438 95.719795Q73.26875 96.282295 73.95625 96.282295Q74.65938 96.282295 75.15938 95.688545Q75.65938 95.094795 75.65938 93.844795Q75.65938 92.657295 75.175 92.07917Q74.69063 91.48542 74.00313 91.48542Q73.33125 91.48542 72.81563 92.11042Q72.3 92.73542 72.3 93.938545ZM77.925 95.157295L78.95625 95.001045Q79.05 95.626045 79.44063 95.95417Q79.84688 96.282295 80.58125 96.282295Q81.3 96.282295 81.64375 96.001045Q82.00313 95.70417 82.00313 95.29792Q82.00313 94.938545 81.69063 94.73542Q81.47188 94.594795 80.6125 94.376045Q79.45625 94.07917 79.00313 93.876045Q78.56563 93.657295 78.33125 93.282295Q78.09688 92.907295 78.09688 92.438545Q78.09688 92.032295 78.28438 91.67292Q78.47188 91.313545 78.8 91.07917Q79.05 90.907295 79.47188 90.782295Q79.89375 90.657295 80.39375 90.657295Q81.1125 90.657295 81.65938 90.876045Q82.22188 91.07917 82.4875 91.438545Q82.75313 91.79792 82.84688 92.39167L81.81563 92.532295Q81.75313 92.063545 81.40938 91.79792Q81.08125 91.51667 80.45625 91.51667Q79.7375 91.51667 79.425 91.76667Q79.1125 92.001045 79.1125 92.32917Q79.1125 92.532295 79.2375 92.688545Q79.37813 92.86042 79.64375 92.969795Q79.8 93.032295 80.58125 93.23542Q81.70625 93.54792 82.14375 93.73542Q82.58125 93.92292 82.83125 94.282295Q83.08125 94.64167 83.08125 95.188545Q83.08125 95.719795 82.76875 96.188545Q82.47188 96.64167 81.89375 96.907295Q81.31563 97.157295 80.58125 97.157295Q79.3625 97.157295 78.72188 96.657295Q78.09688 96.14167 77.925 95.157295ZM86.64375 96.07917L86.8 97.001045Q86.34688 97.094795 86.00313 97.094795Q85.425 97.094795 85.1125 96.92292Q84.8 96.73542 84.65938 96.438545Q84.53438 96.14167 84.53438 95.188545L84.53438 91.61042L83.76875 91.61042L83.76875 90.79792L84.53438 90.79792L84.53438 89.251045L85.58125 88.626045L85.58125 90.79792L86.64375 90.79792L86.64375 91.61042L85.58125 91.61042L85.58125 95.251045Q85.58125 95.70417 85.62813 95.82917Q85.69063 95.95417 85.81563 96.032295Q85.94063 96.11042 86.175 96.11042Q86.3625 96.11042 86.64375 96.07917ZM91.40938 96.251045Q90.81563 96.751045 90.26875 96.95417Q89.7375 97.157295 89.1125 97.157295Q88.08125 97.157295 87.53438 96.657295Q86.9875 96.157295 86.9875 95.376045Q86.9875 94.92292 87.19063 94.54792Q87.39375 94.157295 87.7375 93.938545Q88.08125 93.70417 88.50313 93.594795Q88.8 93.501045 89.44063 93.42292Q90.70625 93.282295 91.31563 93.063545Q91.31563 92.844795 91.31563 92.79792Q91.31563 92.14167 91.01875 91.876045Q90.6125 91.532295 89.81563 91.532295Q89.08125 91.532295 88.72188 91.79792Q88.3625 92.04792 88.19063 92.70417L87.15938 92.563545Q87.3 91.907295 87.62813 91.501045Q87.95625 91.094795 88.56563 90.876045Q89.175 90.657295 89.97188 90.657295Q90.76875 90.657295 91.26875 90.844795Q91.76875 91.032295 92.00313 91.313545Q92.2375 91.594795 92.33125 92.032295Q92.37813 92.29792 92.37813 93.001045L92.37813 94.407295Q92.37813 95.876045 92.44063 96.26667Q92.51875 96.657295 92.72188 97.01667L91.6125 97.01667Q91.45625 96.688545 91.40938 96.251045ZM91.31563 93.89167Q90.7375 94.126045 89.59688 94.29792Q88.94063 94.39167 88.675 94.51667Q88.40938 94.626045 88.25313 94.844795Q88.1125 95.063545 88.1125 95.344795Q88.1125 95.76667 88.425 96.04792Q88.75313 96.32917 89.3625 96.32917Q89.97188 96.32917 90.44063 96.063545Q90.925 95.79792 91.14375 95.32917Q91.31563 94.969795 91.31563 94.282295L91.31563 93.89167ZM93.925 95.157295L94.95625 95.001045Q95.05 95.626045 95.44063 95.95417Q95.84688 96.282295 96.58125 96.282295Q97.3 96.282295 97.64375 96.001045Q98.00313 95.70417 98.00313 95.29792Q98.00313 94.938545 97.69063 94.73542Q97.47188 94.594795 96.6125 94.376045Q95.45625 94.07917 95.00313 93.876045Q94.56563 93.657295 94.33125 93.282295Q94.09688 92.907295 94.09688 92.438545Q94.09688 92.032295 94.28438 91.67292Q94.47188 91.313545 94.8 91.07917Q95.05 90.907295 95.47188 90.782295Q95.89375 90.657295 96.39375 90.657295Q97.1125 90.657295 97.65938 90.876045Q98.22188 91.07917 98.4875 91.438545Q98.75313 91.79792 98.84688 92.39167L97.81563 92.532295Q97.75313 92.063545 97.40938 91.79792Q97.08125 91.51667 96.45625 91.51667Q95.7375 91.51667 95.425 91.76667Q95.1125 92.001045 95.1125 92.32917Q95.1125 92.532295 95.2375 92.688545Q95.37813 92.86042 95.64375 92.969795Q95.8 93.032295 96.58125 93.23542Q97.70625 93.54792 98.14375 93.73542Q98.58125 93.92292 98.83125 94.282295Q99.08125 94.64167 99.08125 95.188545Q99.08125 95.719795 98.76875 96.188545Q98.47188 96.64167 97.89375 96.907295Q97.31563 97.157295 96.58125 97.157295Q95.3625 97.157295 94.72188 96.657295Q94.09688 96.14167 93.925 95.157295ZM100.34688 97.01667L100.34688 88.42292L101.39375 88.42292L101.39375 91.501045Q102.12813 90.657295 103.25313 90.657295Q103.95625 90.657295 104.45625 90.938545Q104.97188 91.20417 105.19063 91.688545Q105.40938 92.157295 105.40938 93.07917L105.40938 97.01667L104.3625 97.01667L104.3625 93.07917Q104.3625 92.282295 104.01875 91.92292Q103.675 91.563545 103.05 91.563545Q102.58125 91.563545 102.15938 91.813545Q101.75313 92.04792 101.56563 92.469795Q101.39375 92.876045 101.39375 93.61042L101.39375 97.01667L100.34688 97.01667ZM110.34688 99.407295L110.34688 90.79792L111.3 90.79792L111.3 91.594795Q111.64375 91.126045 112.06563 90.89167Q112.50313 90.657295 113.1125 90.657295Q113.90938 90.657295 114.51875 91.063545Q115.12813 91.469795 115.425 92.219795Q115.7375 92.969795 115.7375 93.86042Q115.7375 94.813545 115.39375 95.57917Q115.06563 96.344795 114.40938 96.751045Q113.75313 97.157295 113.03438 97.157295Q112.50313 97.157295 112.08125 96.938545Q111.65938 96.70417 111.39375 96.376045L111.39375 99.407295L110.34688 99.407295ZM111.3 93.938545Q111.3 95.14167 111.78438 95.719795Q112.26875 96.282295 112.95625 96.282295Q113.65938 96.282295 114.15938 95.688545Q114.65938 95.094795 114.65938 93.844795Q114.65938 92.657295 114.175 92.07917Q113.69063 91.48542 113.00313 91.48542Q112.33125 91.48542 111.81563 92.11042Q111.3 92.73542 111.3 93.938545ZM121.425 97.01667L121.425 96.094795Q120.69063 97.157295 119.44063 97.157295Q118.89375 97.157295 118.40938 96.95417Q117.94063 96.73542 117.70625 96.42292Q117.47188 96.094795 117.37813 95.626045Q117.31563 95.32917 117.31563 94.64167L117.31563 90.79792L118.37813 90.79792L118.37813 94.251045Q118.37813 95.063545 118.44063 95.36042Q118.53438 95.76667 118.84688 96.01667Q119.175 96.251045 119.65938 96.251045Q120.12813 96.251045 120.53438 96.01667Q120.95625 95.76667 121.12813 95.344795Q121.31563 94.92292 121.31563 94.126045L121.31563 90.79792L122.3625 90.79792L122.3625 97.01667L121.425 97.01667ZM126.64375 96.07917L126.8 97.001045Q126.34688 97.094795 126.00313 97.094795Q125.425 97.094795 125.1125 96.92292Q124.8 96.73542 124.65938 96.438545Q124.53438 96.14167 124.53438 95.188545L124.53438 91.61042L123.76875 91.61042L123.76875 90.79792L124.53438 90.79792L124.53438 89.251045L125.58125 88.626045L125.58125 90.79792L126.64375 90.79792L126.64375 91.61042L125.58125 91.61042L125.58125 95.251045Q125.58125 95.70417 125.62813 95.82917Q125.69063 95.95417 125.81563 96.032295Q125.94063 96.11042 126.175 96.11042Q126.3625 96.11042 126.64375 96.07917Z" fill-rule="nonzero"/><path fill="#000000" d="M55.33125 153.4611L55.33125 147.24236L56.284374 147.24236L56.284374 148.17986Q56.64375 147.5236 56.940624 147.32048Q57.253124 147.10173 57.628124 147.10173Q58.159374 147.10173 58.70625 147.42986L58.346874 148.41423Q57.95625 148.17986 57.58125 148.17986Q57.221874 148.17986 56.940624 148.3986Q56.675 148.60173 56.565624 148.97673Q56.378124 149.53923 56.378124 150.19548L56.378124 153.4611L55.33125 153.4611ZM63.596874 151.4611L64.69063 151.5861Q64.44063 152.53923 63.7375 153.07048Q63.034374 153.60173 61.95625 153.60173Q60.596874 153.60173 59.784374 152.75798Q58.9875 151.91423 58.9875 150.3986Q58.9875 148.8361 59.8 147.97673Q60.6125 147.10173 61.89375 147.10173Q63.14375 147.10173 63.925 147.94548Q64.72188 148.78923 64.72188 150.3361Q64.72188 150.42986 64.72188 150.61736L60.08125 150.61736Q60.14375 151.6486 60.659374 152.19548Q61.175 152.72673 61.95625 152.72673Q62.534374 152.72673 62.940624 152.42986Q63.3625 152.11736 63.596874 151.4611ZM60.14375 149.75798L63.6125 149.75798Q63.55 148.9611 63.221874 148.57048Q62.70625 147.9611 61.909374 147.9611Q61.175 147.9611 60.675 148.44548Q60.190624 148.92986 60.14375 149.75798ZM65.925 151.60173L66.95625 151.44548Q67.05 152.07048 67.44063 152.3986Q67.84688 152.72673 68.58125 152.72673Q69.3 152.72673 69.64375 152.44548Q70.00313 152.1486 70.00313 151.74236Q70.00313 151.38298 69.69063 151.17986Q69.47188 151.03923 68.6125 150.82048Q67.45625 150.5236 67.00313 150.32048Q66.56563 150.10173 66.33125 149.72673Q66.09688 149.35173 66.09688 148.88298Q66.09688 148.47673 66.28438 148.11736Q66.47188 147.75798 66.8 147.5236Q67.05 147.35173 67.47188 147.22673Q67.89375 147.10173 68.39375 147.10173Q69.1125 147.10173 69.65938 147.32048Q70.22188 147.5236 70.4875 147.88298Q70.75313 148.24236 70.84688 148.8361L69.81563 148.97673Q69.75313 148.50798 69.40938 148.24236Q69.08125 147.9611 68.45625 147.9611Q67.7375 147.9611 67.425 148.2111Q67.1125 148.44548 67.1125 148.7736Q67.1125 148.97673 67.2375 149.13298Q67.37813 149.30486 67.64375 149.41423Q67.8 149.47673 68.58125 149.67986Q69.70625 149.99236 70.14375 150.17986Q70.58125 150.36736 70.83125 150.72673Q71.08125 151.0861 71.08125 151.63298Q71.08125 152.16423 70.76875 152.63298Q70.47188 153.0861 69.89375 153.35173Q69.31563 153.60173 68.58125 153.60173Q67.3625 153.60173 66.72188 153.10173Q66.09688 152.5861 65.925 151.60173ZM74.64375 152.5236L74.8 153.44548Q74.34688 153.53923 74.00313 153.53923Q73.425 153.53923 73.1125 153.36736Q72.8 153.17986 72.65938 152.88298Q72.53438 152.5861 72.53438 151.63298L72.53438 148.05486L71.76875 148.05486L71.76875 147.24236L72.53438 147.24236L72.53438 145.69548L73.58125 145.07048L73.58125 147.24236L74.64375 147.24236L74.64375 148.05486L73.58125 148.05486L73.58125 151.69548Q73.58125 152.1486 73.62813 152.2736Q73.69063 152.3986 73.81563 152.47673Q73.94063 152.55486 74.175 152.55486Q74.3625 152.55486 74.64375 152.5236ZM75.34688 146.0861L75.34688 144.86736L76.40938 144.86736L76.40938 146.0861L75.34688 146.0861ZM75.34688 153.4611L75.34688 147.24236L76.40938 147.24236L76.40938 153.4611L75.34688 153.4611ZM82.40938 151.17986L83.44063 151.32048Q83.26875 152.38298 82.56563 152.99236Q81.8625 153.60173 80.84688 153.60173Q79.56563 153.60173 78.78438 152.7736Q78.01875 151.92986 78.01875 150.36736Q78.01875 149.36736 78.34688 148.61736Q78.69063 147.85173 79.3625 147.47673Q80.05 147.10173 80.8625 147.10173Q81.8625 147.10173 82.50313 147.61736Q83.15938 148.11736 83.34688 149.07048L82.31563 149.22673Q82.175 148.60173 81.8 148.28923Q81.425 147.9611 80.89375 147.9611Q80.09688 147.9611 79.59688 148.53923Q79.09688 149.10173 79.09688 150.3361Q79.09688 151.60173 79.58125 152.16423Q80.06563 152.72673 80.83125 152.72673Q81.45625 152.72673 81.8625 152.35173Q82.28438 151.97673 82.40938 151.17986ZM88.31563 153.4611L87.33125 153.4611L87.33125 144.86736L88.39375 144.86736L88.39375 147.92986Q89.06563 147.10173 90.09688 147.10173Q90.675 147.10173 91.175 147.3361Q91.69063 147.55486 92.01875 147.97673Q92.3625 148.3986 92.55 148.99236Q92.7375 149.5861 92.7375 150.25798Q92.7375 151.85173 91.94063 152.72673Q91.14375 153.60173 90.05 153.60173Q88.94063 153.60173 88.31563 152.67986L88.31563 153.4611ZM88.3 150.30486Q88.3 151.41423 88.6125 151.91423Q89.1125 152.72673 89.95625 152.72673Q90.64375 152.72673 91.14375 152.13298Q91.65938 151.53923 91.65938 150.3361Q91.65938 149.11736 91.175 148.53923Q90.69063 147.9611 90.00313 147.9611Q89.31563 147.9611 88.8 148.57048Q88.3 149.16423 88.3 150.30486ZM98.40938 152.69548Q97.81563 153.19548 97.26875 153.3986Q96.7375 153.60173 96.1125 153.60173Q95.08125 153.60173 94.53438 153.10173Q93.9875 152.60173 93.9875 151.82048Q93.9875 151.36736 94.19063 150.99236Q94.39375 150.60173 94.7375 150.38298Q95.08125 150.1486 95.50313 150.03923Q95.8 149.94548 96.44063 149.86736Q97.70625 149.72673 98.31563 149.50798Q98.31563 149.28923 98.31563 149.24236Q98.31563 148.5861 98.01875 148.32048Q97.6125 147.97673 96.81563 147.97673Q96.08125 147.97673 95.72188 148.24236Q95.3625 148.49236 95.19063 149.1486L94.15938 149.00798Q94.3 148.35173 94.62813 147.94548Q94.95625 147.53923 95.56563 147.32048Q96.175 147.10173 96.97188 147.10173Q97.76875 147.10173 98.26875 147.28923Q98.76875 147.47673 99.00313 147.75798Q99.2375 148.03923 99.33125 148.47673Q99.37813 148.74236 99.37813 149.44548L99.37813 150.85173Q99.37813 152.32048 99.44063 152.7111Q99.51875 153.10173 99.72188 153.4611L98.6125 153.4611Q98.45625 153.13298 98.40938 152.69548ZM98.31563 150.3361Q97.7375 150.57048 96.59688 150.74236Q95.94063 150.8361 95.675 150.9611Q95.40938 151.07048 95.25313 151.28923Q95.1125 151.50798 95.1125 151.78923Q95.1125 152.2111 95.425 152.49236Q95.75313 152.7736 96.3625 152.7736Q96.97188 152.7736 97.44063 152.50798Q97.925 152.24236 98.14375 151.7736Q98.31563 151.41423 98.31563 150.72673L98.31563 150.3361ZM105.40938 151.17986L106.44063 151.32048Q106.26875 152.38298 105.56563 152.99236Q104.8625 153.60173 103.84688 153.60173Q102.56563 153.60173 101.78438 152.7736Q101.01875 151.92986 101.01875 150.36736Q101.01875 149.36736 101.34688 148.61736Q101.69063 147.85173 102.3625 147.47673Q103.05 147.10173 103.8625 147.10173Q104.8625 147.10173 105.50313 147.61736Q106.15938 148.11736 106.34688 149.07048L105.31563 149.22673Q105.175 148.60173 104.8 148.28923Q104.425 147.9611 103.89375 147.9611Q103.09688 147.9611 102.59688 148.53923Q102.09688 149.10173 102.09688 150.3361Q102.09688 151.60173 102.58125 152.16423Q103.06563 152.72673 103.83125 152.72673Q104.45625 152.72673 104.8625 152.35173Q105.28438 151.97673 105.40938 151.17986ZM107.34688 153.4611L107.34688 144.86736L108.40938 144.86736L108.40938 149.7736L110.89375 147.24236L112.26875 147.24236L109.87813 149.53923L112.50313 153.4611L111.20625 153.4611L109.14375 150.2736L108.40938 150.99236L108.40938 153.4611L107.34688 153.4611ZM117.425 153.4611L117.425 152.53923Q116.69063 153.60173 115.44063 153.60173Q114.89375 153.60173 114.40938 153.3986Q113.94063 153.17986 113.70625 152.86736Q113.47188 152.53923 113.37813 152.07048Q113.31563 151.7736 113.31563 151.0861L113.31563 147.24236L114.37813 147.24236L114.37813 150.69548Q114.37813 151.50798 114.44063 151.80486Q114.53438 152.2111 114.84688 152.4611Q115.175 152.69548 115.65938 152.69548Q116.12813 152.69548 116.53438 152.4611Q116.95625 152.2111 117.12813 151.78923Q117.31563 151.36736 117.31563 150.57048L117.31563 147.24236L118.3625 147.24236L118.3625 153.4611L117.425 153.4611ZM120.34688 155.85173L120.34688 147.24236L121.3 147.24236L121.3 148.03923Q121.64375 147.57048 122.06563 147.3361Q122.50313 147.10173 123.1125 147.10173Q123.90938 147.10173 124.51875 147.50798Q125.12813 147.91423 125.425 148.66423Q125.7375 149.41423 125.7375 150.30486Q125.7375 151.25798 125.39375 152.0236Q125.06563 152.78923 124.40938 153.19548Q123.75313 153.60173 123.03438 153.60173Q122.50313 153.60173 122.08125 153.38298Q121.65938 153.1486 121.39375 152.82048L121.39375 155.85173L120.34688 155.85173ZM121.3 150.38298Q121.3 151.5861 121.78438 152.16423Q122.26875 152.72673 122.95625 152.72673Q123.65938 152.72673 124.15938 152.13298Q124.65938 151.53923 124.65938 150.28923Q124.65938 149.10173 124.175 148.5236Q123.69063 147.92986 123.00313 147.92986Q122.33125 147.92986 121.81563 148.55486Q121.3 149.17986 121.3 150.38298Z" fill-rule="nonzero"/><path fill="#000000" d="M66.31563 209.90555L65.33125 209.90555L65.33125 201.3118L66.39375 201.3118L66.39375 204.3743Q67.06563 203.54617 68.09688 203.54617Q68.675 203.54617 69.175 203.78055Q69.69063 203.9993 70.01875 204.42117Q70.3625 204.84305 70.55 205.4368Q70.7375 206.03055 70.7375 206.70242Q70.7375 208.29617 69.94063 209.17117Q69.14375 210.04617 68.05 210.04617Q66.94063 210.04617 66.31563 209.1243L66.31563 209.90555ZM66.3 206.7493Q66.3 207.85867 66.6125 208.35867Q67.1125 209.17117 67.95625 209.17117Q68.64375 209.17117 69.14375 208.57742Q69.65938 207.98367 69.65938 206.78055Q69.65938 205.5618 69.175 204.98367Q68.69063 204.40555 68.00313 204.40555Q67.31563 204.40555 66.8 205.01492Q66.3 205.60867 66.3 206.7493ZM71.95625 206.79617Q71.95625 205.0618 72.90938 204.23367Q73.70625 203.54617 74.8625 203.54617Q76.14375 203.54617 76.95625 204.38992Q77.78438 205.21805 77.78438 206.70242Q77.78438 207.90555 77.425 208.59305Q77.06563 209.28055 76.3625 209.67117Q75.675 210.04617 74.8625 210.04617Q73.56563 210.04617 72.75313 209.21805Q71.95625 208.3743 71.95625 206.79617ZM73.03438 206.79617Q73.03438 207.98367 73.55 208.57742Q74.08125 209.17117 74.8625 209.17117Q75.65938 209.17117 76.175 208.57742Q76.69063 207.98367 76.69063 206.76492Q76.69063 205.60867 76.15938 205.01492Q75.64375 204.42117 74.8625 204.42117Q74.08125 204.42117 73.55 205.01492Q73.03438 205.59305 73.03438 206.79617ZM79.33125 209.90555L79.33125 203.6868L80.28438 203.6868L80.28438 204.6243Q80.64375 203.96805 80.94063 203.76492Q81.25313 203.54617 81.62813 203.54617Q82.15938 203.54617 82.70625 203.8743L82.34688 204.85867Q81.95625 204.6243 81.58125 204.6243Q81.22188 204.6243 80.94063 204.84305Q80.675 205.04617 80.56563 205.42117Q80.37813 205.98367 80.37813 206.63992L80.37813 209.90555L79.33125 209.90555ZM83.14375 210.42117L84.175 210.57742Q84.2375 211.04617 84.53438 211.26492Q84.925 211.5618 85.59688 211.5618Q86.33125 211.5618 86.72188 211.26492Q87.12813 210.96805 87.26875 210.45242Q87.3625 210.1243 87.34688 209.09305Q86.65938 209.90555 85.62813 209.90555Q84.34688 209.90555 83.64375 208.98367Q82.94063 208.04617 82.94063 206.76492Q82.94063 205.8743 83.25313 205.1243Q83.58125 204.35867 84.19063 203.95242Q84.8 203.54617 85.62813 203.54617Q86.7375 203.54617 87.45625 204.4368L87.45625 203.6868L88.425 203.6868L88.425 209.0618Q88.425 210.51492 88.12813 211.1243Q87.83125 211.73367 87.19063 212.07742Q86.55 212.4368 85.6125 212.4368Q84.50313 212.4368 83.81563 211.9368Q83.12813 211.4368 83.14375 210.42117ZM84.01875 206.6868Q84.01875 207.90555 84.50313 208.46805Q84.9875 209.03055 85.72188 209.03055Q86.45625 209.03055 86.94063 208.46805Q87.44063 207.90555 87.44063 206.71805Q87.44063 205.57742 86.925 204.9993Q86.425 204.42117 85.70625 204.42117Q85.00313 204.42117 84.50313 204.9993Q84.01875 205.5618 84.01875 206.6868ZM97.40938 207.6243L98.44063 207.76492Q98.26875 208.82742 97.56563 209.4368Q96.8625 210.04617 95.84688 210.04617Q94.56563 210.04617 93.78438 209.21805Q93.01875 208.3743 93.01875 206.8118Q93.01875 205.8118 93.34688 205.0618Q93.69063 204.29617 94.3625 203.92117Q95.05 203.54617 95.8625 203.54617Q96.8625 203.54617 97.50313 204.0618Q98.15938 204.5618 98.34688 205.51492L97.31563 205.67117Q97.175 205.04617 96.8 204.73367Q96.425 204.40555 95.89375 204.40555Q95.09688 204.40555 94.59688 204.98367Q94.09688 205.54617 94.09688 206.78055Q94.09688 208.04617 94.58125 208.60867Q95.06563 209.17117 95.83125 209.17117Q96.45625 209.17117 96.8625 208.79617Q97.28438 208.42117 97.40938 207.6243ZM99.33125 209.90555L99.33125 203.6868L100.28438 203.6868L100.28438 204.6243Q100.64375 203.96805 100.94063 203.76492Q101.25313 203.54617 101.62813 203.54617Q102.15938 203.54617 102.70625 203.8743L102.34688 204.85867Q101.95625 204.6243 101.58125 204.6243Q101.22188 204.6243 100.94063 204.84305Q100.675 205.04617 100.56563 205.42117Q100.37813 205.98367 100.37813 206.63992L100.37813 209.90555L99.33125 209.90555ZM107.59688 207.90555L108.69063 208.03055Q108.44063 208.98367 107.7375 209.51492Q107.03438 210.04617 105.95625 210.04617Q104.59688 210.04617 103.78438 209.20242Q102.9875 208.35867 102.9875 206.84305Q102.9875 205.28055 103.8 204.42117Q104.6125 203.54617 105.89375 203.54617Q107.14375 203.54617 107.925 204.38992Q108.72188 205.23367 108.72188 206.78055Q108.72188 206.8743 108.72188 207.0618L104.08125 207.0618Q104.14375 208.09305 104.65938 208.63992Q105.175 209.17117 105.95625 209.17117Q106.53438 209.17117 106.94063 208.8743Q107.3625 208.5618 107.59688 207.90555ZM104.14375 206.20242L107.6125 206.20242Q107.55 205.40555 107.22188 205.01492Q106.70625 204.40555 105.90938 204.40555Q105.175 204.40555 104.675 204.88992Q104.19063 205.3743 104.14375 206.20242ZM114.40938 209.13992Q113.81563 209.63992 113.26875 209.84305Q112.7375 210.04617 112.1125 210.04617Q111.08125 210.04617 110.53438 209.54617Q109.9875 209.04617 109.9875 208.26492Q109.9875 207.8118 110.19063 207.4368Q110.39375 207.04617 110.7375 206.82742Q111.08125 206.59305 111.50313 206.48367Q111.8 206.38992 112.44063 206.3118Q113.70625 206.17117 114.31563 205.95242Q114.31563 205.73367 114.31563 205.6868Q114.31563 205.03055 114.01875 204.76492Q113.6125 204.42117 112.81563 204.42117Q112.08125 204.42117 111.72188 204.6868Q111.3625 204.9368 111.19063 205.59305L110.15938 205.45242Q110.3 204.79617 110.62813 204.38992Q110.95625 203.98367 111.56563 203.76492Q112.175 203.54617 112.97188 203.54617Q113.76875 203.54617 114.26875 203.73367Q114.76875 203.92117 115.00313 204.20242Q115.2375 204.48367 115.33125 204.92117Q115.37813 205.1868 115.37813 205.88992L115.37813 207.29617Q115.37813 208.76492 115.44063 209.15555Q115.51875 209.54617 115.72188 209.90555L114.6125 209.90555Q114.45625 209.57742 114.40938 209.13992ZM114.31563 206.78055Q113.7375 207.01492 112.59688 207.1868Q111.94063 207.28055 111.675 207.40555Q111.40938 207.51492 111.25313 207.73367Q111.1125 207.95242 111.1125 208.23367Q111.1125 208.65555 111.425 208.9368Q111.75313 209.21805 112.3625 209.21805Q112.97188 209.21805 113.44063 208.95242Q113.925 208.6868 114.14375 208.21805Q114.31563 207.85867 114.31563 207.17117L114.31563 206.78055ZM119.64375 208.96805L119.8 209.88992Q119.34688 209.98367 119.00313 209.98367Q118.425 209.98367 118.1125 209.8118Q117.8 209.6243 117.65938 209.32742Q117.53438 209.03055 117.53438 208.07742L117.53438 204.4993L116.76875 204.4993L116.76875 203.6868L117.53438 203.6868L117.53438 202.13992L118.58125 201.51492L118.58125 203.6868L119.64375 203.6868L119.64375 204.4993L118.58125 204.4993L118.58125 208.13992Q118.58125 208.59305 118.62813 208.71805Q118.69063 208.84305 118.81563 208.92117Q118.94063 208.9993 119.175 208.9993Q119.3625 208.9993 119.64375 208.96805ZM124.59688 207.90555L125.69063 208.03055Q125.44063 208.98367 124.7375 209.51492Q124.03438 210.04617 122.95625 210.04617Q121.59688 210.04617 120.78438 209.20242Q119.9875 208.35867 119.9875 206.84305Q119.9875 205.28055 120.8 204.42117Q121.6125 203.54617 122.89375 203.54617Q124.14375 203.54617 124.925 204.38992Q125.72188 205.23367 125.72188 206.78055Q125.72188 206.8743 125.72188 207.0618L121.08125 207.0618Q121.14375 208.09305 121.65938 208.63992Q122.175 209.17117 122.95625 209.17117Q123.53438 209.17117 123.94063 208.8743Q124.3625 208.5618 124.59688 207.90555ZM121.14375 206.20242L124.6125 206.20242Q124.55 205.40555 124.22188 205.01492Q123.70625 204.40555 122.90938 204.40555Q122.175 204.40555 121.675 204.88992Q121.19063 205.3743 121.14375 206.20242Z" fill-rule="nonzero"/><path fill="#000000" d="M53.64375 265.4125L53.8 266.33438Q53.346874 266.42813 53.003124 266.42813Q52.425 266.42813 52.1125 266.25626Q51.8 266.06876 51.659374 265.77188Q51.534374 265.475 51.534374 264.52188L51.534374 260.94376L50.76875 260.94376L50.76875 260.13126L51.534374 260.13126L51.534374 258.58438L52.58125 257.95938L52.58125 260.13126L53.64375 260.13126L53.64375 260.94376L52.58125 260.94376L52.58125 264.58438Q52.58125 265.0375 52.628124 265.1625Q52.690624 265.2875 52.815624 265.36563Q52.940624 265.44376 53.175 265.44376Q53.3625 265.44376 53.64375 265.4125ZM58.409374 265.58438Q57.815624 266.08438 57.26875 266.2875Q56.7375 266.49063 56.1125 266.49063Q55.08125 266.49063 54.534374 265.99063Q53.9875 265.49063 53.9875 264.70938Q53.9875 264.25626 54.190624 263.88126Q54.39375 263.49063 54.7375 263.27188Q55.08125 263.0375 55.503124 262.92813Q55.8 262.83438 56.440624 262.75626Q57.70625 262.61563 58.315624 262.39688Q58.315624 262.17813 58.315624 262.13126Q58.315624 261.475 58.01875 261.20938Q57.6125 260.86563 56.815624 260.86563Q56.08125 260.86563 55.721874 261.13126Q55.3625 261.38126 55.190624 262.0375L54.159374 261.89688Q54.3 261.24063 54.628124 260.83438Q54.95625 260.42813 55.565624 260.20938Q56.175 259.99063 56.971874 259.99063Q57.76875 259.99063 58.26875 260.17813Q58.76875 260.36563 59.003124 260.64688Q59.2375 260.92813 59.33125 261.36563Q59.378124 261.63126 59.378124 262.33438L59.378124 263.74063Q59.378124 265.20938 59.440624 265.6Q59.51875 265.99063 59.721874 266.35L58.6125 266.35Q58.45625 266.02188 58.409374 265.58438ZM58.315624 263.225Q57.7375 263.45938 56.596874 263.63126Q55.940624 263.725 55.675 263.85Q55.409374 263.95938 55.253124 264.17813Q55.1125 264.39688 55.1125 264.67813Q55.1125 265.1 55.425 265.38126Q55.753124 265.6625 56.3625 265.6625Q56.971874 265.6625 57.440624 265.39688Q57.925 265.13126 58.14375 264.6625Q58.315624 264.30313 58.315624 263.61563L58.315624 263.225ZM61.33125 266.35L61.33125 260.13126L62.284374 260.13126L62.284374 261.06876Q62.64375 260.4125 62.940624 260.20938Q63.253124 259.99063 63.628124 259.99063Q64.15938 259.99063 64.70625 260.31876L64.34688 261.30313Q63.95625 261.06876 63.58125 261.06876Q63.221874 261.06876 62.940624 261.2875Q62.675 261.49063 62.565624 261.86563Q62.378124 262.42813 62.378124 263.08438L62.378124 266.35L61.33125 266.35ZM68.65938 268.88126L68.65938 257.61563L69.56563 257.61563L69.56563 268.88126L68.65938 268.88126ZM74.14375 266.86563L75.175 267.02188Q75.2375 267.49063 75.53438 267.70938Q75.925 268.00626 76.59688 268.00626Q77.33125 268.00626 77.72188 267.70938Q78.12813 267.4125 78.26875 266.89688Q78.3625 266.56876 78.34688 265.5375Q77.65938 266.35 76.62813 266.35Q75.34688 266.35 74.64375 265.42813Q73.94063 264.49063 73.94063 263.20938Q73.94063 262.31876 74.25313 261.56876Q74.58125 260.80313 75.19063 260.39688Q75.8 259.99063 76.62813 259.99063Q77.7375 259.99063 78.45625 260.88126L78.45625 260.13126L79.425 260.13126L79.425 265.50626Q79.425 266.95938 79.12813 267.56876Q78.83125 268.17813 78.19063 268.52188Q77.55 268.88126 76.6125 268.88126Q75.50313 268.88126 74.81563 268.38126Q74.12813 267.88126 74.14375 266.86563ZM75.01875 263.13126Q75.01875 264.35 75.50313 264.9125Q75.9875 265.475 76.72188 265.475Q77.45625 265.475 77.94063 264.9125Q78.44063 264.35 78.44063 263.1625Q78.44063 262.02188 77.925 261.44376Q77.425 260.86563 76.70625 260.86563Q76.00313 260.86563 75.50313 261.44376Q75.01875 262.00626 75.01875 263.13126ZM80.78438 266.35L80.78438 265.49063L84.75313 260.94376Q84.06563 260.975 83.55 260.975L81.01875 260.975L81.01875 260.13126L86.1125 260.13126L86.1125 260.81876L82.7375 264.77188L82.08125 265.49063Q82.8 265.44376 83.40938 265.44376L86.3 265.44376L86.3 266.35L80.78438 266.35ZM87.34688 258.975L87.34688 257.75626L88.40938 257.75626L88.40938 258.975L87.34688 258.975ZM87.34688 266.35L87.34688 260.13126L88.40938 260.13126L88.40938 266.35L87.34688 266.35ZM90.34688 268.74063L90.34688 260.13126L91.3 260.13126L91.3 260.92813Q91.64375 260.45938 92.06563 260.225Q92.50313 259.99063 93.1125 259.99063Q93.90938 259.99063 94.51875 260.39688Q95.12813 260.80313 95.425 261.55313Q95.7375 262.30313 95.7375 263.19376Q95.7375 264.14688 95.39375 264.9125Q95.06563 265.67813 94.40938 266.08438Q93.75313 266.49063 93.03438 266.49063Q92.50313 266.49063 92.08125 266.27188Q91.65938 266.0375 91.39375 265.70938L91.39375 268.74063L90.34688 268.74063ZM91.3 263.27188Q91.3 264.475 91.78438 265.05313Q92.26875 265.61563 92.95625 265.61563Q93.65938 265.61563 94.15938 265.02188Q94.65938 264.42813 94.65938 263.17813Q94.65938 261.99063 94.175 261.4125Q93.69063 260.81876 93.00313 260.81876Q92.33125 260.81876 91.81563 261.44376Q91.3 262.06876 91.3 263.27188ZM100.65938 268.88126L100.65938 257.61563L101.56563 257.61563L101.56563 268.88126L100.65938 268.88126ZM106.14375 266.86563L107.175 267.02188Q107.2375 267.49063 107.53438 267.70938Q107.925 268.00626 108.59688 268.00626Q109.33125 268.00626 109.72188 267.70938Q110.12813 267.4125 110.26875 266.89688Q110.3625 266.56876 110.34688 265.5375Q109.65938 266.35 108.62813 266.35Q107.34688 266.35 106.64375 265.42813Q105.94063 264.49063 105.94063 263.20938Q105.94063 262.31876 106.25313 261.56876Q106.58125 260.80313 107.19063 260.39688Q107.8 259.99063 108.62813 259.99063Q109.7375 259.99063 110.45625 260.88126L110.45625 260.13126L111.425 260.13126L111.425 265.50626Q111.425 266.95938 111.12813 267.56876Q110.83125 268.17813 110.19063 268.52188Q109.55 268.88126 108.6125 268.88126Q107.50313 268.88126 106.81563 268.38126Q106.12813 267.88126 106.14375 266.86563ZM107.01875 263.13126Q107.01875 264.35 107.50313 264.9125Q107.9875 265.475 108.72188 265.475Q109.45625 265.475 109.94063 264.9125Q110.44063 264.35 110.44063 263.1625Q110.44063 262.02188 109.925 261.44376Q109.425 260.86563 108.70625 260.86563Q108.00313 260.86563 107.50313 261.44376Q107.01875 262.00626 107.01875 263.13126ZM113.34688 268.74063L113.34688 260.13126L114.3 260.13126L114.3 260.92813Q114.64375 260.45938 115.06563 260.225Q115.50313 259.99063 116.1125 259.99063Q116.90938 259.99063 117.51875 260.39688Q118.12813 260.80313 118.425 261.55313Q118.7375 262.30313 118.7375 263.19376Q118.7375 264.14688 118.39375 264.9125Q118.06563 265.67813 117.40938 266.08438Q116.75313 266.49063 116.03438 266.49063Q115.50313 266.49063 115.08125 266.27188Q114.65938 266.0375 114.39375 265.70938L114.39375 268.74063L113.34688 268.74063ZM114.3 263.27188Q114.3 264.475 114.78438 265.05313Q115.26875 265.61563 115.95625 265.61563Q116.65938 265.61563 117.15938 265.02188Q117.65938 264.42813 117.65938 263.17813Q117.65938 261.99063 117.175 261.4125Q116.69063 260.81876 116.00313 260.81876Q115.33125 260.81876 114.81563 261.44376Q114.3 262.06876 114.3 263.27188ZM120.14375 266.86563L121.175 267.02188Q121.2375 267.49063 121.53438 267.70938Q121.925 268.00626 122.59688 268.00626Q123.33125 268.00626 123.72188 267.70938Q124.12813 267.4125 124.26875 266.89688Q124.3625 266.56876 124.34688 265.5375Q123.65938 266.35 122.62813 266.35Q121.34688 266.35 120.64375 265.42813Q119.94063 264.49063 119.94063 263.20938Q119.94063 262.31876 120.25313 261.56876Q120.58125 260.80313 121.19063 260.39688Q121.8 259.99063 122.62813 259.99063Q123.7375 259.99063 124.45625 260.88126L124.45625 260.13126L125.425 260.13126L125.425 265.50626Q125.425 266.95938 125.12813 267.56876Q124.83125 268.17813 124.19063 268.52188Q123.55 268.88126 122.6125 268.88126Q121.50313 268.88126 120.81563 268.38126Q120.12813 267.88126 120.14375 266.86563ZM121.01875 263.13126Q121.01875 264.35 121.50313 264.9125Q121.9875 265.475 122.72188 265.475Q123.45625 265.475 123.94063 264.9125Q124.44063 264.35 124.44063 263.1625Q124.44063 262.02188 123.925 261.44376Q123.425 260.86563 122.70625 260.86563Q122.00313 260.86563 121.50313 261.44376Q121.01875 262.00626 121.01875 263.13126Z" fill-rule="nonzero"/><path fill="#000000" d="M129.55 313.21564Q129.55 311.6844 129.8625 310.7625Q130.175 309.825 130.78438 309.325Q131.40938 308.825 132.34688 308.825Q133.03438 308.825 133.55 309.10626Q134.08125 309.3875 134.425 309.91876Q134.76875 310.4344 134.95625 311.1844Q135.14375 311.9344 135.14375 313.21564Q135.14375 314.73126 134.83125 315.65314Q134.53438 316.575 133.90938 317.09064Q133.3 317.59064 132.34688 317.59064Q131.1125 317.59064 130.39375 316.7Q129.55 315.6375 129.55 313.21564ZM130.62813 313.21564Q130.62813 315.325 131.12813 316.02814Q131.62813 316.73126 132.34688 316.73126Q133.08125 316.73126 133.56563 316.02814Q134.06563 315.325 134.06563 313.21564Q134.06563 311.09064 133.56563 310.40314Q133.08125 309.7 132.33125 309.7Q131.6125 309.7 131.175 310.3094Q130.62813 311.09064 130.62813 313.21564Z" fill-rule="nonzero"/><path fill="#000000" d="M219.33 315.2L220.43938 315.10626Q220.56438 315.91876 221.00188 316.325Q221.455 316.73126 222.09563 316.73126Q222.84563 316.73126 223.37688 316.15314Q223.90813 315.575 223.90813 314.6375Q223.90813 313.73126 223.3925 313.21564Q222.8925 312.6844 222.06438 312.6844Q221.56438 312.6844 221.1425 312.91876Q220.73625 313.15314 220.50188 313.5125L219.5175 313.3875L220.34563 308.98126L224.62688 308.98126L224.62688 309.98126L221.18938 309.98126L220.73625 312.29376Q221.50188 311.7469 222.34563 311.7469Q223.47063 311.7469 224.23625 312.52814Q225.0175 313.3094 225.0175 314.54376Q225.0175 315.7 224.34563 316.5594Q223.5175 317.59064 222.09563 317.59064Q220.92375 317.59064 220.17375 316.9344Q219.43938 316.27814 219.33 315.2Z" fill-rule="nonzero"/><path fill="#000000" d="M309.57874 317.45L308.53186 317.45L308.53186 310.73126Q308.14124 311.09064 307.51624 311.46564Q306.90686 311.825 306.4225 311.9969L306.4225 310.98126Q307.2975 310.5594 307.95374 309.98126Q308.6256 309.3875 308.90686 308.825L309.57874 308.825L309.57874 317.45ZM312.61 313.21564Q312.61 311.6844 312.9225 310.7625Q313.235 309.825 313.84436 309.325Q314.46936 308.825 315.40686 308.825Q316.09436 308.825 316.61 309.10626Q317.14124 309.3875 317.485 309.91876Q317.82874 310.4344 318.01624 311.1844Q318.20374 311.9344 318.20374 313.21564Q318.20374 314.73126 317.89124 315.65314Q317.59436 316.575 316.96936 317.09064Q316.36 317.59064 315.40686 317.59064Q314.1725 317.59064 313.45374 316.7Q312.61 315.6375 312.61 313.21564ZM313.6881 313.21564Q313.6881 315.325 314.1881 316.02814Q314.6881 316.73126 315.40686 316.73126Q316.14124 316.73126 316.6256 316.02814Q317.1256 315.325 317.1256 313.21564Q317.1256 311.09064 316.6256 310.40314Q316.14124 309.7 315.39124 309.7Q314.6725 309.7 314.235 310.3094Q313.6881 311.09064 313.6881 313.21564Z" fill-rule="nonzero"/><path fill="#000000" d="M399.35876 317.45L398.3119 317.45L398.3119 310.73126Q397.92126 311.09064 397.29626 311.46564Q396.6869 311.825 396.2025 311.9969L396.2025 310.98126Q397.0775 310.5594 397.73376 309.98126Q398.40564 309.3875 398.6869 308.825L399.35876 308.825L399.35876 317.45ZM402.39 315.2L403.4994 315.10626Q403.6244 315.91876 404.0619 316.325Q404.515 316.73126 405.15564 316.73126Q405.90564 316.73126 406.4369 316.15314Q406.96814 315.575 406.96814 314.6375Q406.96814 313.73126 406.4525 313.21564Q405.9525 312.6844 405.1244 312.6844Q404.6244 312.6844 404.2025 312.91876Q403.79626 313.15314 403.5619 313.5125L402.5775 313.3875L403.40564 308.98126L407.6869 308.98126L407.6869 309.98126L404.2494 309.98126L403.79626 312.29376Q404.5619 311.7469 405.40564 311.7469Q406.53064 311.7469 407.29626 312.52814Q408.0775 313.3094 408.0775 314.54376Q408.0775 315.7 407.40564 316.5594Q406.5775 317.59064 405.15564 317.59064Q403.98376 317.59064 403.23376 316.9344Q402.4994 316.27814 402.39 315.2Z" fill-rule="nonzero"/><path fill="#000000" d="M490.7169 316.4344L490.7169 317.45L485.0294 317.45Q485.0294 317.075 485.1544 316.71564Q485.37314 316.1375 485.8419 315.575Q486.32626 315.0125 487.2325 314.27814Q488.63876 313.1219 489.12314 312.45Q489.62314 311.77814 489.62314 311.1844Q489.62314 310.5594 489.17 310.1375Q488.7169 309.7 487.99814 309.7Q487.2325 309.7 486.7794 310.15314Q486.32626 310.60626 486.31064 311.41876L485.2325 311.3094Q485.3419 310.09064 486.06064 309.46564Q486.795 308.825 488.0294 308.825Q489.26376 308.825 489.9825 309.5125Q490.70126 310.2 490.70126 311.21564Q490.70126 311.73126 490.4825 312.23126Q490.2794 312.71564 489.7794 313.27814Q489.295 313.825 488.17 314.77814Q487.2169 315.575 486.93564 315.8719Q486.67 316.15314 486.49814 316.4344L490.7169 316.4344ZM492.17 313.21564Q492.17 311.6844 492.4825 310.7625Q492.795 309.825 493.4044 309.325Q494.0294 308.825 494.9669 308.825Q495.6544 308.825 496.17 309.10626Q496.70126 309.3875 497.045 309.91876Q497.38876 310.4344 497.57626 311.1844Q497.76376 311.9344 497.76376 313.21564Q497.76376 314.73126 497.45126 315.65314Q497.1544 316.575 496.5294 317.09064Q495.92 317.59064 494.9669 317.59064Q493.7325 317.59064 493.01376 316.7Q492.17 315.6375 492.17 313.21564ZM493.24814 313.21564Q493.24814 315.325 493.74814 316.02814Q494.24814 316.73126 494.9669 316.73126Q495.70126 316.73126 496.18564 316.02814Q496.68564 315.325 496.68564 313.21564Q496.68564 311.09064 496.18564 310.40314Q495.70126 309.7 494.95126 309.7Q494.2325 309.7 493.795 310.3094Q493.24814 311.09064 493.24814 313.21564Z" fill-rule="nonzero"/><path fill="#000000" d="M580.4969 316.4344L580.4969 317.45L574.8094 317.45Q574.8094 317.075 574.9344 316.71564Q575.15314 316.1375 575.6219 315.575Q576.10626 315.0125 577.0125 314.27814Q578.41876 313.1219 578.90314 312.45Q579.40314 311.77814 579.40314 311.1844Q579.40314 310.5594 578.95 310.1375Q578.4969 309.7 577.77814 309.7Q577.0125 309.7 576.5594 310.15314Q576.10626 310.60626 576.09064 311.41876L575.0125 311.3094Q575.1219 310.09064 575.84064 309.46564Q576.575 308.825 577.8094 308.825Q579.04376 308.825 579.7625 309.5125Q580.48126 310.2 580.48126 311.21564Q580.48126 311.73126 580.2625 312.23126Q580.0594 312.71564 579.5594 313.27814Q579.075 313.825 577.95 314.77814Q576.9969 315.575 576.71564 315.8719Q576.45 316.15314 576.27814 316.4344L580.4969 316.4344ZM581.95 315.2L583.0594 315.10626Q583.1844 315.91876 583.6219 316.325Q584.075 316.73126 584.71564 316.73126Q585.46564 316.73126 585.9969 316.15314Q586.52814 315.575 586.52814 314.6375Q586.52814 313.73126 586.0125 313.21564Q585.5125 312.6844 584.6844 312.6844Q584.1844 312.6844 583.7625 312.91876Q583.35626 313.15314 583.1219 313.5125L582.1375 313.3875L582.96564 308.98126L587.2469 308.98126L587.2469 309.98126L583.8094 309.98126L583.35626 312.29376Q584.1219 311.7469 584.96564 311.7469Q586.09064 311.7469 586.85626 312.52814Q587.6375 313.3094 587.6375 314.54376Q587.6375 315.7 586.96564 316.5594Q586.1375 317.59064 584.71564 317.59064Q583.54376 317.59064 582.79376 316.9344Q582.0594 316.27814 581.95 315.2Z" fill-rule="nonzero"/><path fill="#757575" d="M23.7375 37.55L23.7375 24.925L19.01875 24.925L19.01875 23.2375L30.3625 23.2375L30.3625 24.925L25.628124 24.925L25.628124 37.55L23.7375 37.55ZM31.878124 25.253124L31.878124 23.2375L33.64375 23.2375L33.64375 25.253124L31.878124 25.253124ZM31.878124 37.55L31.878124 27.175L33.64375 27.175L33.64375 37.55L31.878124 37.55ZM35.8625 37.55L35.8625 27.175L37.440624 27.175L37.440624 28.628124Q37.925 27.878124 38.7375 27.409374Q39.55 26.940624 40.58125 26.940624Q41.7375 26.940624 42.471874 27.425Q43.20625 27.89375 43.51875 28.753124Q44.753124 26.940624 46.721874 26.940624Q48.26875 26.940624 49.096874 27.8Q49.925 28.659374 49.925 30.425L49.925 37.55L48.175 37.55L48.175 31.01875Q48.175 29.95625 48.003124 29.503124Q47.83125 29.034374 47.378124 28.753124Q46.940624 28.471874 46.33125 28.471874Q45.2375 28.471874 44.503124 29.20625Q43.784374 29.925 43.784374 31.51875L43.784374 37.55L42.034374 37.55L42.034374 30.815624Q42.034374 29.64375 41.596874 29.065624Q41.175 28.471874 40.190624 28.471874Q39.45625 28.471874 38.815624 28.8625Q38.190624 29.253124 37.909374 30.003124Q37.628124 30.753124 37.628124 32.175L37.628124 37.55L35.8625 37.55ZM59.971874 34.20625L61.784374 34.440624Q61.3625 36.01875 60.190624 36.909374Q59.034374 37.784374 57.221874 37.784374Q54.95625 37.784374 53.6125 36.39375Q52.284374 34.9875 52.284374 32.45625Q52.284374 29.83125 53.628124 28.39375Q54.971874 26.940624 57.128124 26.940624Q59.20625 26.940624 60.51875 28.3625Q61.846874 29.76875 61.846874 32.346874Q61.846874 32.503124 61.83125 32.815624L54.096874 32.815624Q54.190624 34.51875 55.065624 35.425Q55.940624 36.33125 57.2375 36.33125Q58.20625 36.33125 58.878124 35.83125Q59.565624 35.315624 59.971874 34.20625ZM54.190624 31.3625L59.9875 31.3625Q59.878124 30.065624 59.33125 29.409374Q58.4875 28.39375 57.14375 28.39375Q55.940624 28.39375 55.1125 29.20625Q54.284374 30.003124 54.190624 31.3625ZM70.28438 37.55L70.28438 28.55L68.7375 28.55L68.7375 27.175L70.28438 27.175L70.28438 26.08125Q70.28438 25.034374 70.47188 24.51875Q70.72188 23.83125 71.3625 23.409374Q72.00313 22.9875 73.15938 22.9875Q73.90938 22.9875 74.8 23.159374L74.53438 24.690624Q73.9875 24.596874 73.50313 24.596874Q72.70625 24.596874 72.3625 24.940624Q72.03438 25.284374 72.03438 26.221874L72.03438 27.175L74.06563 27.175L74.06563 28.55L72.03438 28.55L72.03438 37.55L70.28438 37.55ZM75.22188 32.3625Q75.22188 29.4875 76.81563 28.096874Q78.15938 26.940624 80.08125 26.940624Q82.22188 26.940624 83.56563 28.346874Q84.925 29.753124 84.925 32.221874Q84.925 34.221874 84.33125 35.378124Q83.7375 36.51875 82.58125 37.159374Q81.44063 37.784374 80.08125 37.784374Q77.89375 37.784374 76.55 36.39375Q75.22188 34.9875 75.22188 32.3625ZM77.01875 32.3625Q77.01875 34.3625 77.87813 35.346874Q78.75313 36.33125 80.08125 36.33125Q81.39375 36.33125 82.25313 35.346874Q83.12813 34.346874 83.12813 32.3Q83.12813 30.378124 82.25313 29.39375Q81.37813 28.39375 80.08125 28.39375Q78.75313 28.39375 77.87813 29.39375Q77.01875 30.378124 77.01875 32.3625ZM86.84688 37.55L86.84688 27.175L88.425 27.175L88.425 28.753124Q89.03438 27.64375 89.55 27.3Q90.06563 26.940624 90.675 26.940624Q91.56563 26.940624 92.4875 27.503124L91.87813 29.14375Q91.2375 28.753124 90.59688 28.753124Q90.01875 28.753124 89.55 29.1125Q89.09688 29.45625 88.89375 30.065624Q88.6125 31.003124 88.6125 32.1125L88.6125 37.55L86.84688 37.55ZM106.00313 37.55L104.2375 37.55L104.2375 26.346874Q103.6125 26.95625 102.58125 27.565624Q101.55 28.159374 100.72188 28.471874L100.72188 26.76875Q102.20625 26.08125 103.3 25.096874Q104.40938 24.096874 104.8625 23.175L106.00313 23.175L106.00313 37.55ZM111.3625 37.55L111.3625 35.55L113.3625 35.55L113.3625 37.55L111.3625 37.55ZM123.00313 37.55L121.2375 37.55L121.2375 26.346874Q120.6125 26.95625 119.58125 27.565624Q118.55 28.159374 117.72188 28.471874L117.72188 26.76875Q119.20625 26.08125 120.3 25.096874Q121.40938 24.096874 121.8625 23.175L123.00313 23.175L123.00313 37.55ZM140.8 31.940624L140.8 30.253124L146.8625 30.2375L146.8625 35.55Q145.45625 36.675 143.97188 37.2375Q142.4875 37.8 140.925 37.8Q138.81563 37.8 137.09688 36.89375Q135.37813 35.9875 134.4875 34.284374Q133.6125 32.565624 133.6125 30.45625Q133.6125 28.3625 134.4875 26.565624Q135.3625 24.753124 137.00313 23.878124Q138.64375 22.9875 140.78438 22.9875Q142.33125 22.9875 143.58125 23.4875Q144.84688 23.9875 145.55 24.89375Q146.26875 25.784374 146.64375 27.2375L144.94063 27.70625Q144.6125 26.6125 144.12813 25.9875Q143.65938 25.3625 142.76875 24.9875Q141.87813 24.6125 140.8 24.6125Q139.4875 24.6125 138.53438 25.003124Q137.59688 25.39375 137.01875 26.05Q136.44063 26.690624 136.1125 27.45625Q135.56563 28.784374 135.56563 30.346874Q135.56563 32.253124 136.22188 33.55Q136.89375 34.83125 138.14375 35.45625Q139.40938 36.08125 140.81563 36.08125Q142.05 36.08125 143.22188 35.6125Q144.39375 35.14375 145.00313 34.596874L145.00313 31.940624L140.8 31.940624ZM150.01875 37.55L150.01875 23.2375L155.39375 23.2375Q157.03438 23.2375 158.01875 23.675Q159.00313 24.096874 159.56563 25.003124Q160.12813 25.909374 160.12813 26.89375Q160.12813 27.815624 159.62813 28.628124Q159.14375 29.440624 158.12813 29.925Q159.425 30.315624 160.12813 31.2375Q160.83125 32.14375 160.83125 33.39375Q160.83125 34.409374 160.39375 35.26875Q159.97188 36.128124 159.34688 36.596874Q158.72188 37.065624 157.78438 37.315624Q156.84688 37.55 155.47188 37.55L150.01875 37.55ZM151.90938 29.253124L155.00313 29.253124Q156.26875 29.253124 156.81563 29.08125Q157.53438 28.8625 157.89375 28.378124Q158.26875 27.878124 158.26875 27.1125Q158.26875 26.409374 157.925 25.8625Q157.58125 25.315624 156.94063 25.128124Q156.31563 24.925 154.76875 24.925L151.90938 24.925L151.90938 29.253124ZM151.90938 35.8625L155.47188 35.8625Q156.39375 35.8625 156.76875 35.784374Q157.425 35.675 157.8625 35.409374Q158.3 35.128124 158.58125 34.6125Q158.8625 34.08125 158.8625 33.39375Q158.8625 32.596874 158.45625 32.003124Q158.05 31.409374 157.31563 31.175Q156.58125 30.940624 155.22188 30.940624L151.90938 30.940624L151.90938 35.8625ZM168.45625 32.95625L170.2375 32.8Q170.3625 33.8625 170.81563 34.55Q171.28438 35.2375 172.25313 35.675Q173.2375 36.096874 174.47188 36.096874Q175.55 36.096874 176.37813 35.784374Q177.20625 35.45625 177.6125 34.89375Q178.01875 34.33125 178.01875 33.659374Q178.01875 32.9875 177.62813 32.4875Q177.2375 31.9875 176.34688 31.64375Q175.76875 31.409374 173.78438 30.940624Q171.81563 30.471874 171.03438 30.05Q170.00313 29.51875 169.50313 28.721874Q169.00313 27.925 169.00313 26.940624Q169.00313 25.846874 169.6125 24.909374Q170.22188 23.971874 171.40938 23.4875Q172.59688 22.9875 174.03438 22.9875Q175.62813 22.9875 176.84688 23.503124Q178.06563 24.01875 178.70625 25.01875Q179.3625 26.003124 179.40938 27.26875L177.59688 27.409374Q177.45625 26.05 176.6125 25.3625Q175.76875 24.659374 174.1125 24.659374Q172.39375 24.659374 171.59688 25.3Q170.81563 25.925 170.81563 26.8Q170.81563 27.58125 171.37813 28.08125Q171.925 28.58125 174.2375 29.096874Q176.55 29.6125 177.40938 30.003124Q178.65938 30.58125 179.25313 31.471874Q179.84688 32.346874 179.84688 33.503124Q179.84688 34.64375 179.19063 35.659374Q178.53438 36.675 177.3 37.2375Q176.08125 37.8 174.55 37.8Q172.6125 37.8 171.3 37.2375Q169.9875 36.659374 169.2375 35.51875Q168.4875 34.378124 168.45625 32.95625ZM181.8625 37.55L181.8625 27.175L183.45625 27.175L183.45625 28.659374Q184.59688 26.940624 186.75313 26.940624Q187.69063 26.940624 188.47188 27.284374Q189.26875 27.6125 189.65938 28.159374Q190.05 28.70625 190.20625 29.45625Q190.3 29.95625 190.3 31.175L190.3 37.55L188.53438 37.55L188.53438 31.2375Q188.53438 30.159374 188.33125 29.628124Q188.12813 29.096874 187.59688 28.784374Q187.08125 28.471874 186.37813 28.471874Q185.25313 28.471874 184.44063 29.190624Q183.62813 29.89375 183.62813 31.878124L183.62813 37.55L181.8625 37.55ZM199.64375 36.26875Q198.65938 37.096874 197.75313 37.440624Q196.84688 37.784374 195.81563 37.784374Q194.1125 37.784374 193.19063 36.95625Q192.26875 36.1125 192.26875 34.815624Q192.26875 34.05 192.6125 33.425Q192.97188 32.8 193.53438 32.425Q194.09688 32.034374 194.8 31.83125Q195.31563 31.70625 196.3625 31.565624Q198.4875 31.315624 199.4875 30.971874Q199.50313 30.6125 199.50313 30.503124Q199.50313 29.440624 199.00313 28.9875Q198.33125 28.39375 197.00313 28.39375Q195.75313 28.39375 195.15938 28.83125Q194.58125 29.26875 194.3 30.378124L192.58125 30.14375Q192.81563 29.034374 193.34688 28.3625Q193.87813 27.675 194.89375 27.315624Q195.90938 26.940624 197.25313 26.940624Q198.58125 26.940624 199.40938 27.253124Q200.2375 27.565624 200.62813 28.05Q201.01875 28.51875 201.175 29.2375Q201.26875 29.690624 201.26875 30.8625L201.26875 33.20625Q201.26875 35.659374 201.37813 36.315624Q201.4875 36.95625 201.83125 37.55L199.9875 37.55Q199.72188 37.003124 199.64375 36.26875ZM199.4875 32.346874Q198.53438 32.7375 196.6125 33.003124Q195.53438 33.159374 195.08125 33.3625Q194.64375 33.55 194.39375 33.925Q194.14375 34.3 194.14375 34.76875Q194.14375 35.471874 194.675 35.940624Q195.20625 36.409374 196.2375 36.409374Q197.25313 36.409374 198.03438 35.971874Q198.83125 35.51875 199.20625 34.753124Q199.4875 34.14375 199.4875 32.9875L199.4875 32.346874ZM203.8625 41.51875L203.8625 27.175L205.47188 27.175L205.47188 28.51875Q206.03438 27.7375 206.7375 27.346874Q207.45625 26.940624 208.47188 26.940624Q209.8 26.940624 210.81563 27.628124Q211.83125 28.315624 212.34688 29.565624Q212.87813 30.8 212.87813 32.284374Q212.87813 33.878124 212.3 35.159374Q211.7375 36.425 210.64375 37.1125Q209.55 37.784374 208.34688 37.784374Q207.47188 37.784374 206.76875 37.409374Q206.08125 37.034374 205.62813 36.471874L205.62813 41.51875L203.8625 41.51875ZM205.45625 32.425Q205.45625 34.425 206.26875 35.378124Q207.08125 36.33125 208.2375 36.33125Q209.40938 36.33125 210.2375 35.346874Q211.08125 34.3625 211.08125 32.26875Q211.08125 30.3 210.25313 29.315624Q209.44063 28.315624 208.31563 28.315624Q207.19063 28.315624 206.31563 29.378124Q205.45625 30.425 205.45625 32.425ZM214.15938 34.45625L215.90938 34.175Q216.05 35.221874 216.72188 35.784374Q217.39375 36.33125 218.59688 36.33125Q219.8 36.33125 220.37813 35.846874Q220.97188 35.346874 220.97188 34.690624Q220.97188 34.096874 220.45625 33.753124Q220.09688 33.51875 218.65938 33.159374Q216.72188 32.659374 215.97188 32.315624Q215.2375 31.95625 214.84688 31.33125Q214.45625 30.690624 214.45625 29.925Q214.45625 29.2375 214.76875 28.64375Q215.09688 28.05 215.64375 27.659374Q216.05 27.3625 216.75313 27.159374Q217.47188 26.940624 218.28438 26.940624Q219.50313 26.940624 220.425 27.3Q221.34688 27.64375 221.78438 28.253124Q222.22188 28.846874 222.39375 29.846874L220.675 30.08125Q220.55 29.284374 219.9875 28.846874Q219.425 28.39375 218.40938 28.39375Q217.19063 28.39375 216.675 28.8Q216.15938 29.190624 216.15938 29.721874Q216.15938 30.065624 216.37813 30.346874Q216.58125 30.628124 217.05 30.815624Q217.31563 30.909374 218.59688 31.253124Q220.47188 31.753124 221.20625 32.08125Q221.94063 32.39375 222.3625 33.003124Q222.78438 33.596874 222.78438 34.503124Q222.78438 35.378124 222.26875 36.159374Q221.75313 36.940624 220.78438 37.3625Q219.81563 37.784374 218.59688 37.784374Q216.58125 37.784374 215.51875 36.940624Q214.45625 36.096874 214.15938 34.45625ZM224.8625 37.55L224.8625 23.2375L226.62813 23.2375L226.62813 28.3625Q227.8625 26.940624 229.7375 26.940624Q230.87813 26.940624 231.72188 27.39375Q232.58125 27.846874 232.94063 28.659374Q233.31563 29.45625 233.31563 30.971874L233.31563 37.55L231.56563 37.55L231.56563 30.971874Q231.56563 29.659374 230.9875 29.065624Q230.40938 28.45625 229.37813 28.45625Q228.59688 28.45625 227.89375 28.8625Q227.20625 29.26875 226.90938 29.971874Q226.62813 30.659374 226.62813 31.878124L226.62813 37.55L224.8625 37.55ZM235.22188 32.3625Q235.22188 29.4875 236.81563 28.096874Q238.15938 26.940624 240.08125 26.940624Q242.22188 26.940624 243.56563 28.346874Q244.925 29.753124 244.925 32.221874Q244.925 34.221874 244.33125 35.378124Q243.7375 36.51875 242.58125 37.159374Q241.44063 37.784374 240.08125 37.784374Q237.89375 37.784374 236.55 36.39375Q235.22188 34.9875 235.22188 32.3625ZM237.01875 32.3625Q237.01875 34.3625 237.87813 35.346874Q238.75313 36.33125 240.08125 36.33125Q241.39375 36.33125 242.25313 35.346874Q243.12813 34.346874 243.12813 32.3Q243.12813 30.378124 242.25313 29.39375Q241.37813 28.39375 240.08125 28.39375Q238.75313 28.39375 237.87813 29.39375Q237.01875 30.378124 237.01875 32.3625ZM250.70625 35.971874L250.95625 37.534374Q250.22188 37.690624 249.62813 37.690624Q248.675 37.690624 248.14375 37.39375Q247.62813 37.08125 247.40938 36.596874Q247.19063 36.096874 247.19063 34.51875L247.19063 28.55L245.90938 28.55L245.90938 27.175L247.19063 27.175L247.19063 24.6125L248.94063 23.55L248.94063 27.175L250.70625 27.175L250.70625 28.55L248.94063 28.55L248.94063 34.6125Q248.94063 35.3625 249.03438 35.58125Q249.12813 35.784374 249.33125 35.925Q249.55 36.05 249.94063 36.05Q250.22188 36.05 250.70625 35.971874ZM262.22186 41.753124Q260.76874 39.925 259.76874 37.471874Q258.76874 35.003124 258.76874 32.3625Q258.76874 30.034374 259.51874 27.909374Q260.39374 25.440624 262.22186 22.9875L263.4875 22.9875Q262.3 25.01875 261.925 25.89375Q261.33124 27.2375 260.9875 28.70625Q260.5656 30.534374 260.5656 32.378124Q260.5656 37.065624 263.4875 41.753124L262.22186 41.753124ZM265.45624 32.95625L267.2375 32.8Q267.3625 33.8625 267.8156 34.55Q268.28436 35.2375 269.2531 35.675Q270.2375 36.096874 271.47186 36.096874Q272.55 36.096874 273.3781 35.784374Q274.20624 35.45625 274.6125 34.89375Q275.01874 34.33125 275.01874 33.659374Q275.01874 32.9875 274.6281 32.4875Q274.2375 31.9875 273.34686 31.64375Q272.76874 31.409374 270.78436 30.940624Q268.8156 30.471874 268.03436 30.05Q267.0031 29.51875 266.5031 28.721874Q266.0031 27.925 266.0031 26.940624Q266.0031 25.846874 266.6125 24.909374Q267.22186 23.971874 268.40936 23.4875Q269.59686 22.9875 271.03436 22.9875Q272.6281 22.9875 273.84686 23.503124Q275.0656 24.01875 275.70624 25.01875Q276.3625 26.003124 276.40936 27.26875L274.59686 27.409374Q274.45624 26.05 273.6125 25.3625Q272.76874 24.659374 271.1125 24.659374Q269.39374 24.659374 268.59686 25.3Q267.8156 25.925 267.8156 26.8Q267.8156 27.58125 268.3781 28.08125Q268.925 28.58125 271.2375 29.096874Q273.55 29.6125 274.40936 30.003124Q275.65936 30.58125 276.2531 31.471874Q276.84686 32.346874 276.84686 33.503124Q276.84686 34.64375 276.1906 35.659374Q275.53436 36.675 274.3 37.2375Q273.08124 37.8 271.55 37.8Q269.6125 37.8 268.3 37.2375Q266.9875 36.659374 266.2375 35.51875Q265.4875 34.378124 265.45624 32.95625ZM278.8625 37.55L278.8625 27.175L280.4406 27.175L280.4406 28.628124Q280.925 27.878124 281.7375 27.409374Q282.55 26.940624 283.58124 26.940624Q284.7375 26.940624 285.47186 27.425Q286.20624 27.89375 286.51874 28.753124Q287.7531 26.940624 289.72186 26.940624Q291.26874 26.940624 292.09686 27.8Q292.925 28.659374 292.925 30.425L292.925 37.55L291.175 37.55L291.175 31.01875Q291.175 29.95625 291.0031 29.503124Q290.83124 29.034374 290.3781 28.753124Q289.9406 28.471874 289.33124 28.471874Q288.2375 28.471874 287.5031 29.20625Q286.78436 29.925 286.78436 31.51875L286.78436 37.55L285.03436 37.55L285.03436 30.815624Q285.03436 29.64375 284.59686 29.065624Q284.175 28.471874 283.1906 28.471874Q282.45624 28.471874 281.8156 28.8625Q281.1906 29.253124 280.90936 30.003124Q280.6281 30.753124 280.6281 32.175L280.6281 37.55L278.8625 37.55ZM302.64374 36.26875Q301.65936 37.096874 300.7531 37.440624Q299.84686 37.784374 298.8156 37.784374Q297.1125 37.784374 296.1906 36.95625Q295.26874 36.1125 295.26874 34.815624Q295.26874 34.05 295.6125 33.425Q295.97186 32.8 296.53436 32.425Q297.09686 32.034374 297.8 31.83125Q298.3156 31.70625 299.3625 31.565624Q301.4875 31.315624 302.4875 30.971874Q302.5031 30.6125 302.5031 30.503124Q302.5031 29.440624 302.0031 28.9875Q301.33124 28.39375 300.0031 28.39375Q298.7531 28.39375 298.15936 28.83125Q297.58124 29.26875 297.3 30.378124L295.58124 30.14375Q295.8156 29.034374 296.34686 28.3625Q296.8781 27.675 297.89374 27.315624Q298.90936 26.940624 300.2531 26.940624Q301.58124 26.940624 302.40936 27.253124Q303.2375 27.565624 303.6281 28.05Q304.01874 28.51875 304.175 29.2375Q304.26874 29.690624 304.26874 30.8625L304.26874 33.20625Q304.26874 35.659374 304.3781 36.315624Q304.4875 36.95625 304.83124 37.55L302.9875 37.55Q302.72186 37.003124 302.64374 36.26875ZM302.4875 32.346874Q301.53436 32.7375 299.6125 33.003124Q298.53436 33.159374 298.08124 33.3625Q297.64374 33.55 297.39374 33.925Q297.14374 34.3 297.14374 34.76875Q297.14374 35.471874 297.675 35.940624Q298.20624 36.409374 299.2375 36.409374Q300.2531 36.409374 301.03436 35.971874Q301.83124 35.51875 302.20624 34.753124Q302.4875 34.14375 302.4875 32.9875L302.4875 32.346874ZM306.83124 37.55L306.83124 23.2375L308.58124 23.2375L308.58124 37.55L306.83124 37.55ZM310.83124 37.55L310.83124 23.2375L312.58124 23.2375L312.58124 37.55L310.83124 37.55ZM321.97186 34.20625L323.78436 34.440624Q323.3625 36.01875 322.1906 36.909374Q321.03436 37.784374 319.22186 37.784374Q316.95624 37.784374 315.6125 36.39375Q314.28436 34.9875 314.28436 32.45625Q314.28436 29.83125 315.6281 28.39375Q316.97186 26.940624 319.1281 26.940624Q321.20624 26.940624 322.51874 28.3625Q323.84686 29.76875 323.84686 32.346874Q323.84686 32.503124 323.83124 32.815624L316.09686 32.815624Q316.1906 34.51875 317.0656 35.425Q317.9406 36.33125 319.2375 36.33125Q320.20624 36.33125 320.8781 35.83125Q321.5656 35.315624 321.97186 34.20625ZM316.1906 31.3625L321.9875 31.3625Q321.8781 30.065624 321.33124 29.409374Q320.4875 28.39375 319.14374 28.39375Q317.9406 28.39375 317.1125 29.20625Q316.28436 30.003124 316.1906 31.3625ZM325.84686 37.55L325.84686 27.175L327.425 27.175L327.425 28.753124Q328.03436 27.64375 328.55 27.3Q329.0656 26.940624 329.675 26.940624Q330.5656 26.940624 331.4875 27.503124L330.8781 29.14375Q330.2375 28.753124 329.59686 28.753124Q329.01874 28.753124 328.55 29.1125Q328.09686 29.45625 327.89374 30.065624Q327.6125 31.003124 327.6125 32.1125L327.6125 37.55L325.84686 37.55ZM338.8781 25.253124L338.8781 23.2375L340.64374 23.2375L340.64374 25.253124L338.8781 25.253124ZM338.8781 37.55L338.8781 27.175L340.64374 27.175L340.64374 37.55L338.8781 37.55ZM342.15936 34.45625L343.90936 34.175Q344.05 35.221874 344.72186 35.784374Q345.39374 36.33125 346.59686 36.33125Q347.8 36.33125 348.3781 35.846874Q348.97186 35.346874 348.97186 34.690624Q348.97186 34.096874 348.45624 33.753124Q348.09686 33.51875 346.65936 33.159374Q344.72186 32.659374 343.97186 32.315624Q343.2375 31.95625 342.84686 31.33125Q342.45624 30.690624 342.45624 29.925Q342.45624 29.2375 342.76874 28.64375Q343.09686 28.05 343.64374 27.659374Q344.05 27.3625 344.7531 27.159374Q345.47186 26.940624 346.28436 26.940624Q347.5031 26.940624 348.425 27.3Q349.34686 27.64375 349.78436 28.253124Q350.22186 28.846874 350.39374 29.846874L348.675 30.08125Q348.55 29.284374 347.9875 28.846874Q347.425 28.39375 346.40936 28.39375Q345.1906 28.39375 344.675 28.8Q344.15936 29.190624 344.15936 29.721874Q344.15936 30.065624 344.3781 30.346874Q344.58124 30.628124 345.05 30.815624Q345.3156 30.909374 346.59686 31.253124Q348.47186 31.753124 349.20624 32.08125Q349.9406 32.39375 350.3625 33.003124Q350.78436 33.596874 350.78436 34.503124Q350.78436 35.378124 350.26874 36.159374Q349.7531 36.940624 348.78436 37.3625Q347.8156 37.784374 346.59686 37.784374Q344.58124 37.784374 343.51874 36.940624Q342.45624 36.096874 342.15936 34.45625ZM360.4875 37.55L358.8625 37.55L358.8625 23.2375L360.6125 23.2375L360.6125 28.346874Q361.7375 26.940624 363.45624 26.940624Q364.40936 26.940624 365.26874 27.33125Q366.1281 27.721874 366.675 28.425Q367.22186 29.1125 367.53436 30.096874Q367.84686 31.08125 367.84686 32.20625Q367.84686 34.878124 366.53436 36.33125Q365.22186 37.784374 363.3781 37.784374Q361.53436 37.784374 360.4875 36.253124L360.4875 37.55ZM360.47186 32.284374Q360.47186 34.14375 360.97186 34.9875Q361.8156 36.33125 363.22186 36.33125Q364.3781 36.33125 365.20624 35.33125Q366.05 34.33125 366.05 32.346874Q366.05 30.315624 365.2375 29.3625Q364.4406 28.39375 363.3 28.39375Q362.14374 28.39375 361.3 29.39375Q360.47186 30.39375 360.47186 32.284374ZM376.97186 34.20625L378.78436 34.440624Q378.3625 36.01875 377.1906 36.909374Q376.03436 37.784374 374.22186 37.784374Q371.95624 37.784374 370.6125 36.39375Q369.28436 34.9875 369.28436 32.45625Q369.28436 29.83125 370.6281 28.39375Q371.97186 26.940624 374.1281 26.940624Q376.20624 26.940624 377.51874 28.3625Q378.84686 29.76875 378.84686 32.346874Q378.84686 32.503124 378.83124 32.815624L371.09686 32.815624Q371.1906 34.51875 372.0656 35.425Q372.9406 36.33125 374.2375 36.33125Q375.20624 36.33125 375.8781 35.83125Q376.5656 35.315624 376.97186 34.20625ZM371.1906 31.3625L376.9875 31.3625Q376.8781 30.065624 376.33124 29.409374Q375.4875 28.39375 374.14374 28.39375Q372.9406 28.39375 372.1125 29.20625Q371.28436 30.003124 371.1906 31.3625ZM384.70624 35.971874L384.95624 37.534374Q384.22186 37.690624 383.6281 37.690624Q382.675 37.690624 382.14374 37.39375Q381.6281 37.08125 381.40936 36.596874Q381.1906 36.096874 381.1906 34.51875L381.1906 28.55L379.90936 28.55L379.90936 27.175L381.1906 27.175L381.1906 24.6125L382.9406 23.55L382.9406 27.175L384.70624 27.175L384.70624 28.55L382.9406 28.55L382.9406 34.6125Q382.9406 35.3625 383.03436 35.58125Q383.1281 35.784374 383.33124 35.925Q383.55 36.05 383.9406 36.05Q384.22186 36.05 384.70624 35.971874ZM390.70624 35.971874L390.95624 37.534374Q390.22186 37.690624 389.6281 37.690624Q388.675 37.690624 388.14374 37.39375Q387.6281 37.08125 387.40936 36.596874Q387.1906 36.096874 387.1906 34.51875L387.1906 28.55L385.90936 28.55L385.90936 27.175L387.1906 27.175L387.1906 24.6125L388.9406 23.55L388.9406 27.175L390.70624 27.175L390.70624 28.55L388.9406 28.55L388.9406 34.6125Q388.9406 35.3625 389.03436 35.58125Q389.1281 35.784374 389.33124 35.925Q389.55 36.05 389.9406 36.05Q390.22186 36.05 390.70624 35.971874ZM399.97186 34.20625L401.78436 34.440624Q401.3625 36.01875 400.1906 36.909374Q399.03436 37.784374 397.22186 37.784374Q394.95624 37.784374 393.6125 36.39375Q392.28436 34.9875 392.28436 32.45625Q392.28436 29.83125 393.6281 28.39375Q394.97186 26.940624 397.1281 26.940624Q399.20624 26.940624 400.51874 28.3625Q401.84686 29.76875 401.84686 32.346874Q401.84686 32.503124 401.83124 32.815624L394.09686 32.815624Q394.1906 34.51875 395.0656 35.425Q395.9406 36.33125 397.2375 36.33125Q398.20624 36.33125 398.8781 35.83125Q399.5656 35.315624 399.97186 34.20625ZM394.1906 31.3625L399.9875 31.3625Q399.8781 30.065624 399.33124 29.409374Q398.4875 28.39375 397.14374 28.39375Q395.9406 28.39375 395.1125 29.20625Q394.28436 30.003124 394.1906 31.3625ZM403.84686 37.55L403.84686 27.175L405.425 27.175L405.425 28.753124Q406.03436 27.64375 406.55 27.3Q407.0656 26.940624 407.675 26.940624Q408.5656 26.940624 409.4875 27.503124L408.8781 29.14375Q408.2375 28.753124 407.59686 28.753124Q407.01874 28.753124 406.55 29.1125Q406.09686 29.45625 405.89374 30.065624Q405.6125 31.003124 405.6125 32.1125L405.6125 37.55L403.84686 37.55ZM412.01874 41.753124L410.76874 41.753124Q413.675 37.065624 413.675 32.378124Q413.675 30.534374 413.26874 28.7375Q412.925 27.26875 412.33124 25.925Q411.95624 25.034374 410.76874 22.9875L412.01874 22.9875Q413.8625 25.440624 414.7375 27.909374Q415.4875 30.034374 415.4875 32.3625Q415.4875 35.003124 414.47186 37.471874Q413.47186 39.925 412.01874 41.753124Z" fill-rule="nonzero"/></svg>