<svg version="1.1" viewBox="0.0 0.0 600.0 371.0" fill="none" stroke="none" stroke-linecap="square" stroke-miterlimit="10" width="600" height="371" xmlns:xlink="http://www.w3.org/1999/xlink" xmlns="http://www.w3.org/2000/svg"><path fill="#ffffff" d="M0 0L600.0 0L600.0 371.0L0 371.0L0 0Z" fill-rule="nonzero"/><path stroke="#333333" stroke-width="1.0" stroke-linecap="butt" d="M160.5 54.5L160.5 300.5" fill-rule="nonzero"/><path stroke="#cccccc" stroke-width="1.0" stroke-linecap="butt" d="M244.5 54.5L244.5 300.5" fill-rule="nonzero"/><path stroke="#cccccc" stroke-width="1.0" stroke-linecap="butt" d="M328.5 54.5L328.5 300.5" fill-rule="nonzero"/><path stroke="#cccccc" stroke-width="1.0" stroke-linecap="butt" d="M413.5 54.5L413.5 300.5" fill-rule="nonzero"/><path stroke="#cccccc" stroke-width="1.0" stroke-linecap="butt" d="M497.5 54.5L497.5 300.5" fill-rule="nonzero"/><path stroke="#cccccc" stroke-width="1.0" stroke-linecap="butt" d="M581.5 54.5L581.5 300.5" fill-rule="nonzero"/><clipPath id="id_0"><path d="M160.55 54.916668L581.45 54.916668L581.45 300.45L160.55 300.45L160.55 54.916668Z" clip-rule="nonzero"/></clipPath><path stroke="#000000" stroke-width="2.0" stroke-linecap="butt" stroke-opacity="0.0" clip-path="url(#id_0)" d="M161.0 112.0L161.0 75.0L220.0 75.0C221.10457 75.0 222.0 75.89543 222.0 77.0L222.0 110.0C222.0 111.10457 221.10457 112.0 220.0 112.0Z" fill-rule="nonzero"/><path fill="#4285f4" clip-path="url(#id_0)" d="M161.0 112.0L161.0 75.0L220.0 75.0C221.10457 75.0 222.0 75.89543 222.0 77.0L222.0 110.0C222.0 111.10457 221.10457 112.0 220.0 112.0Z" fill-rule="nonzero"/><path stroke="#000000" stroke-width="2.0" stroke-linecap="butt" stroke-opacity="0.0" clip-path="url(#id_0)" d="M161.0 168.0L161.0 131.0L261.0 131.0C262.10458 131.0 263.0 131.89543 263.0 133.0L263.0 166.0C263.0 167.10457 262.10458 168.0 261.0 168.0Z" fill-rule="nonzero"/><path fill="#4285f4" clip-path="url(#id_0)" d="M161.0 168.0L161.0 131.0L261.0 131.0C262.10458 131.0 263.0 131.89543 263.0 133.0L263.0 166.0C263.0 167.10457 262.10458 168.0 261.0 168.0Z" fill-rule="nonzero"/><path stroke="#000000" stroke-width="2.0" stroke-linecap="butt" stroke-opacity="0.0" clip-path="url(#id_0)" d="M161.0 225.0L161.0 188.0L280.0 188.0C281.10458 188.0 282.0 188.89543 282.0 190.0L282.0 223.0C282.0 224.10457 281.10458 225.0 280.0 225.0Z" fill-rule="nonzero"/><path fill="#4285f4" clip-path="url(#id_0)" d="M161.0 225.0L161.0 188.0L280.0 188.0C281.10458 188.0 282.0 188.89543 282.0 190.0L282.0 223.0C282.0 224.10457 281.10458 225.0 280.0 225.0Z" fill-rule="nonzero"/><path stroke="#000000" stroke-width="2.0" stroke-linecap="butt" stroke-opacity="0.0" clip-path="url(#id_0)" d="M161.0 281.0L161.0 244.0L508.0 244.0C509.10458 244.0 510.0 244.89543 510.0 246.0L510.0 279.0C510.0 280.10458 509.10458 281.0 508.0 281.0Z" fill-rule="nonzero"/><path fill="#4285f4" clip-path="url(#id_0)" d="M161.0 281.0L161.0 244.0L508.0 244.0C509.10458 244.0 510.0 244.89543 510.0 246.0L510.0 279.0C510.0 280.10458 509.10458 281.0 508.0 281.0Z" fill-rule="nonzero"/><path fill="#000000" d="M347.54688 346.6844L348.60938 346.59064Q348.6875 347.2469 348.96875 347.65314Q349.25 348.0594 349.82812 348.325Q350.42188 348.575 351.15625 348.575Q351.79688 348.575 352.29688 348.3875Q352.79688 348.1844 353.03125 347.85626Q353.28125 347.5125 353.28125 347.1219Q353.28125 346.71564 353.04688 346.41876Q352.8125 346.10626 352.28125 345.90314Q351.92188 345.7625 350.73438 345.48126Q349.5625 345.2 349.09375 344.95Q348.46875 344.6219 348.17188 344.15314Q347.875 343.66876 347.875 343.075Q347.875 342.4344 348.23438 341.8719Q348.60938 341.29376 349.3125 341.0125Q350.03125 340.71564 350.89062 340.71564Q351.84375 340.71564 352.57812 341.02814Q353.3125 341.325 353.70312 341.9344Q354.09375 342.52814 354.125 343.27814L353.03125 343.35626Q352.9375 342.54376 352.42188 342.1375Q351.92188 341.71564 350.9375 341.71564Q349.90625 341.71564 349.4375 342.09064Q348.96875 342.46564 348.96875 342.9969Q348.96875 343.46564 349.29688 343.7625Q349.625 344.0594 351.0 344.3719Q352.39062 344.6844 352.90625 344.91876Q353.65625 345.27814 354.01562 345.8094Q354.375 346.325 354.375 347.02814Q354.375 347.71564 353.98438 348.325Q353.59375 348.91876 352.85938 349.2625Q352.125 349.59064 351.20312 349.59064Q350.03125 349.59064 349.23438 349.2625Q348.45312 348.91876 348.0 348.23126Q347.5625 347.54376 347.54688 346.6844ZM360.04688 347.45L361.14062 347.575Q360.89062 348.52814 360.1875 349.0594Q359.48438 349.59064 358.40625 349.59064Q357.04688 349.59064 356.23438 348.7469Q355.4375 347.90314 355.4375 346.3875Q355.4375 344.825 356.25 343.96564Q357.0625 343.09064 358.34375 343.09064Q359.59375 343.09064 360.375 343.9344Q361.17188 344.77814 361.17188 346.325Q361.17188 346.41876 361.17188 346.60626L356.53125 346.60626Q356.59375 347.6375 357.10938 348.1844Q357.625 348.71564 358.40625 348.71564Q358.98438 348.71564 359.39062 348.41876Q359.8125 348.10626 360.04688 347.45ZM356.59375 345.7469L360.0625 345.7469Q360.0 344.95 359.67188 344.5594Q359.15625 343.95 358.35938 343.95Q357.625 343.95 357.125 344.4344Q356.64062 344.91876 356.59375 345.7469ZM366.85938 347.16876L367.89062 347.3094Q367.71875 348.3719 367.01562 348.98126Q366.3125 349.59064 365.29688 349.59064Q364.01562 349.59064 363.23438 348.7625Q362.46875 347.91876 362.46875 346.35626Q362.46875 345.35626 362.79688 344.60626Q363.14062 343.84064 363.8125 343.46564Q364.5 343.09064 365.3125 343.09064Q366.3125 343.09064 366.95312 343.60626Q367.60938 344.10626 367.79688 345.0594L366.76562 345.21564Q366.625 344.59064 366.25 344.27814Q365.875 343.95 365.34375 343.95Q364.54688 343.95 364.04688 344.52814Q363.54688 345.09064 363.54688 346.325Q363.54688 347.59064 364.03125 348.15314Q364.51562 348.71564 365.28125 348.71564Q365.90625 348.71564 366.3125 348.34064Q366.73438 347.96564 366.85938 347.16876ZM368.40625 346.34064Q368.40625 344.60626 369.35938 343.77814Q370.15625 343.09064 371.3125 343.09064Q372.59375 343.09064 373.40625 343.9344Q374.23438 344.7625 374.23438 346.2469Q374.23438 347.45 373.875 348.1375Q373.51562 348.825 372.8125 349.21564Q372.125 349.59064 371.3125 349.59064Q370.01562 349.59064 369.20312 348.7625Q368.40625 347.91876 368.40625 346.34064ZM369.48438 346.34064Q369.48438 347.52814 370.0 348.1219Q370.53125 348.71564 371.3125 348.71564Q372.10938 348.71564 372.625 348.1219Q373.14062 347.52814 373.14062 346.3094Q373.14062 345.15314 372.60938 344.5594Q372.09375 343.96564 371.3125 343.96564Q370.53125 343.96564 370.0 344.5594Q369.48438 345.1375 369.48438 346.34064ZM375.79688 349.45L375.79688 343.23126L376.73438 343.23126L376.73438 344.10626Q377.42188 343.09064 378.71875 343.09064Q379.28125 343.09064 379.75 343.29376Q380.23438 343.4969 380.46875 343.825Q380.70312 344.15314 380.79688 344.59064Q380.84375 344.8875 380.84375 345.6219L380.84375 349.45L379.79688 349.45L379.79688 345.66876Q379.79688 345.0125 379.67188 344.7Q379.54688 344.3875 379.23438 344.2Q378.92188 343.9969 378.5 343.9969Q377.82812 343.9969 377.32812 344.4344Q376.84375 344.85626 376.84375 346.04376L376.84375 349.45L375.79688 349.45ZM386.82812 349.45L386.82812 348.66876Q386.23438 349.59064 385.09375 349.59064Q384.34375 349.59064 383.71875 349.1844Q383.09375 348.7625 382.75 348.02814Q382.40625 347.29376 382.40625 346.34064Q382.40625 345.41876 382.71875 344.65314Q383.03125 343.8875 383.65625 343.4969Q384.28125 343.09064 385.04688 343.09064Q385.60938 343.09064 386.04688 343.325Q386.48438 343.5594 386.76562 343.9344L386.76562 340.85626L387.8125 340.85626L387.8125 349.45L386.82812 349.45ZM383.5 346.34064Q383.5 347.54376 384.0 348.1375Q384.5 348.71564 385.1875 348.71564Q385.875 348.71564 386.35938 348.15314Q386.84375 347.59064 386.84375 346.4344Q386.84375 345.15314 386.34375 344.5594Q385.85938 343.96564 385.14062 343.96564Q384.4375 343.96564 383.96875 344.54376Q383.5 345.10626 383.5 346.34064ZM389.375 347.59064L390.40625 347.4344Q390.5 348.0594 390.89062 348.3875Q391.29688 348.71564 392.03125 348.71564Q392.75 348.71564 393.09375 348.4344Q393.45312 348.1375 393.45312 347.73126Q393.45312 347.3719 393.14062 347.16876Q392.92188 347.02814 392.0625 346.8094Q390.90625 346.5125 390.45312 346.3094Q390.01562 346.09064 389.78125 345.71564Q389.54688 345.34064 389.54688 344.8719Q389.54688 344.46564 389.73438 344.10626Q389.92188 343.7469 390.25 343.5125Q390.5 343.34064 390.92188 343.21564Q391.34375 343.09064 391.84375 343.09064Q392.5625 343.09064 393.10938 343.3094Q393.67188 343.5125 393.9375 343.8719Q394.20312 344.23126 394.29688 344.825L393.26562 344.96564Q393.20312 344.4969 392.85938 344.23126Q392.53125 343.95 391.90625 343.95Q391.1875 343.95 390.875 344.2Q390.5625 344.4344 390.5625 344.7625Q390.5625 344.96564 390.6875 345.1219Q390.82812 345.29376 391.09375 345.40314Q391.25 345.46564 392.03125 345.66876Q393.15625 345.98126 393.59375 346.16876Q394.03125 346.35626 394.28125 346.71564Q394.53125 347.075 394.53125 347.6219Q394.53125 348.15314 394.21875 348.6219Q393.92188 349.075 393.34375 349.34064Q392.76562 349.59064 392.03125 349.59064Q390.8125 349.59064 390.17188 349.09064Q389.54688 348.575 389.375 347.59064Z" fill-rule="nonzero"/><path fill="#000000" d="M26.534388 209.12083L26.831263 207.99583Q28.221888 208.35521 28.956263 209.27708Q29.690638 210.19896 29.690638 211.54271Q29.690638 212.93333 29.128138 213.80833Q28.565638 214.68333 27.503138 215.13646Q26.425013 215.58958 25.190638 215.58958Q23.846888 215.58958 22.846888 215.07396Q21.846888 214.55833 21.331263 213.62083Q20.815638 212.66771 20.815638 211.52708Q20.815638 210.24583 21.471888 209.37083Q22.128138 208.48021 23.315638 208.13646L23.581263 209.26146Q22.643763 209.55833 22.221888 210.13646Q21.784388 210.69896 21.784388 211.55833Q21.784388 212.54271 22.268763 213.21458Q22.737513 213.87083 23.534388 214.15208Q24.331263 214.41771 25.190638 214.41771Q26.284388 214.41771 27.096888 214.10521Q27.909388 213.77708 28.315638 213.10521Q28.721888 212.43333 28.721888 211.63646Q28.721888 210.68333 28.175013 210.02708Q27.628138 209.35521 26.534388 209.12083ZM26.440638 206.77708Q24.706263 206.77708 23.878138 205.82396Q23.190638 205.02708 23.190638 203.87083Q23.190638 202.58958 24.034388 201.77708Q24.862513 200.94896 26.346888 200.94896Q27.550013 200.94896 28.237513 201.30833Q28.925013 201.66771 29.315638 202.37083Q29.690638 203.05833 29.690638 203.87083Q29.690638 205.16771 28.862513 205.98021Q28.018763 206.77708 26.440638 206.77708ZM26.440638 205.69896Q27.628138 205.69896 28.221888 205.18333Q28.815638 204.65208 28.815638 203.87083Q28.815638 203.07396 28.221888 202.55833Q27.628138 202.04271 26.409388 202.04271Q25.253138 202.04271 24.659388 202.57396Q24.065638 203.08958 24.065638 203.87083Q24.065638 204.65208 24.659388 205.18333Q25.237513 205.69896 26.440638 205.69896ZM29.550013 199.38646L23.331263 199.38646L23.331263 198.44896L24.206263 198.44896Q23.737513 198.15208 23.471888 197.66771Q23.190638 197.18333 23.190638 196.55833Q23.190638 195.87083 23.471888 195.43333Q23.753138 194.98021 24.268763 194.80833Q23.190638 194.05833 23.190638 192.88646Q23.190638 191.94896 23.706263 191.46458Q24.206263 190.96458 25.284388 190.96458L29.550013 190.96458L29.550013 192.01146L25.628138 192.01146Q25.003138 192.01146 24.721888 192.12083Q24.440638 192.21458 24.268763 192.48021Q24.096888 192.74583 24.096888 193.12083Q24.096888 193.77708 24.534388 194.21458Q24.971888 194.63646 25.940638 194.63646L29.550013 194.63646L29.550013 195.69896L25.503138 195.69896Q24.800013 195.69896 24.456263 195.96458Q24.096888 196.21458 24.096888 196.79271Q24.096888 197.24583 24.331263 197.62083Q24.565638 197.99583 25.018763 198.16771Q25.471888 198.33958 26.315638 198.33958L29.550013 198.33958L29.550013 199.38646ZM29.550013 189.38646L23.331263 189.38646L23.331263 188.44896L24.206263 188.44896Q23.737513 188.15208 23.471888 187.66771Q23.190638 187.18333 23.190638 186.55833Q23.190638 185.87083 23.471888 185.43333Q23.753138 184.98021 24.268763 184.80833Q23.190638 184.05833 23.190638 182.88646Q23.190638 181.94896 23.706263 181.46458Q24.206263 180.96458 25.284388 180.96458L29.550013 180.96458L29.550013 182.01146L25.628138 182.01146Q25.003138 182.01146 24.721888 182.12083Q24.440638 182.21458 24.268763 182.48021Q24.096888 182.74583 24.096888 183.12083Q24.096888 183.77708 24.534388 184.21458Q24.971888 184.63646 25.940638 184.63646L29.550013 184.63646L29.550013 185.69896L25.503138 185.69896Q24.800013 185.69896 24.456263 185.96458Q24.096888 186.21458 24.096888 186.79271Q24.096888 187.24583 24.331263 187.62083Q24.565638 187.99583 25.018763 188.16771Q25.471888 188.33958 26.315638 188.33958L29.550013 188.33958L29.550013 189.38646ZM28.784388 175.32396Q29.284388 175.91771 29.487513 176.46458Q29.690638 176.99583 29.690638 177.62083Q29.690638 178.65208 29.190638 179.19896Q28.690638 179.74583 27.909388 179.74583Q27.456263 179.74583 27.081263 179.54271Q26.690638 179.33958 26.471888 178.99583Q26.237513 178.65208 26.128138 178.23021Q26.034388 177.93333 25.956263 177.29271Q25.815638 176.02708 25.596888 175.41771Q25.378138 175.41771 25.331263 175.41771Q24.675013 175.41771 24.409388 175.71458Q24.065638 176.12083 24.065638 176.91771Q24.065638 177.65208 24.331263 178.01146Q24.581263 178.37083 25.237513 178.54271L25.096888 179.57396Q24.440638 179.43333 24.034388 179.10521Q23.628138 178.77708 23.409388 178.16771Q23.190638 177.55833 23.190638 176.76146Q23.190638 175.96458 23.378138 175.46458Q23.565638 174.96458 23.846888 174.73021Q24.128138 174.49583 24.565638 174.40208Q24.831263 174.35521 25.534388 174.35521L26.940638 174.35521Q28.409388 174.35521 28.800013 174.29271Q29.190638 174.21458 29.550013 174.01146L29.550013 175.12083Q29.221888 175.27708 28.784388 175.32396ZM26.425013 175.41771Q26.659388 175.99583 26.831263 177.13646Q26.925013 177.79271 27.050013 178.05833Q27.159388 178.32396 27.378138 178.48021Q27.596888 178.62083 27.878138 178.62083Q28.300013 178.62083 28.581263 178.30833Q28.862513 177.98021 28.862513 177.37083Q28.862513 176.76146 28.596888 176.29271Q28.331263 175.80833 27.862513 175.58958Q27.503138 175.41771 26.815638 175.41771L26.425013 175.41771ZM29.550013 172.38646L23.331263 172.38646L23.331263 171.44896L24.206263 171.44896Q23.190638 170.76146 23.190638 169.46458Q23.190638 168.90208 23.393763 168.43333Q23.596888 167.94896 23.925013 167.71458Q24.253138 167.48021 24.690638 167.38646Q24.987513 167.33958 25.721888 167.33958L29.550013 167.33958L29.550013 168.38646L25.768763 168.38646Q25.112513 168.38646 24.800013 168.51146Q24.487513 168.63646 24.300013 168.94896Q24.096888 169.26146 24.096888 169.68333Q24.096888 170.35521 24.534388 170.85521Q24.956263 171.33958 26.143763 171.33958L29.550013 171.33958L29.550013 172.38646ZM29.550013 161.35521L28.768763 161.35521Q29.690638 161.94896 29.690638 163.08958Q29.690638 163.83958 29.284388 164.46458Q28.862513 165.08958 28.128138 165.43333Q27.393763 165.77708 26.440638 165.77708Q25.518763 165.77708 24.753138 165.46458Q23.987513 165.15208 23.596888 164.52708Q23.190638 163.90208 23.190638 163.13646Q23.190638 162.57396 23.425013 162.13646Q23.659388 161.69896 24.034388 161.41771L20.956263 161.41771L20.956263 160.37083L29.550013 160.37083L29.550013 161.35521ZM26.440638 164.68333Q27.643763 164.68333 28.237513 164.18333Q28.815638 163.68333 28.815638 162.99583Q28.815638 162.30833 28.253138 161.82396Q27.690638 161.33958 26.534388 161.33958Q25.253138 161.33958 24.659388 161.83958Q24.065638 162.32396 24.065638 163.04271Q24.065638 163.74583 24.643763 164.21458Q25.206263 164.68333 26.440638 164.68333Z" fill-rule="nonzero"/><path fill="#000000" d="M53.64375 96.07917L53.8 97.001045Q53.346874 97.094795 53.003124 97.094795Q52.425 97.094795 52.1125 96.92292Q51.8 96.73542 51.659374 96.438545Q51.534374 96.14167 51.534374 95.188545L51.534374 91.61042L50.76875 91.61042L50.76875 90.79792L51.534374 90.79792L51.534374 89.251045L52.58125 88.626045L52.58125 90.79792L53.64375 90.79792L53.64375 91.61042L52.58125 91.61042L52.58125 95.251045Q52.58125 95.70417 52.628124 95.82917Q52.690624 95.95417 52.815624 96.032295Q52.940624 96.11042 53.175 96.11042Q53.3625 96.11042 53.64375 96.07917ZM58.409374 96.251045Q57.815624 96.751045 57.26875 96.95417Q56.7375 97.157295 56.1125 97.157295Q55.08125 97.157295 54.534374 96.657295Q53.9875 96.157295 53.9875 95.376045Q53.9875 94.92292 54.190624 94.54792Q54.39375 94.157295 54.7375 93.938545Q55.08125 93.70417 55.503124 93.594795Q55.8 93.501045 56.440624 93.42292Q57.70625 93.282295 58.315624 93.063545Q58.315624 92.844795 58.315624 92.79792Q58.315624 92.14167 58.01875 91.876045Q57.6125 91.532295 56.815624 91.532295Q56.08125 91.532295 55.721874 91.79792Q55.3625 92.04792 55.190624 92.70417L54.159374 92.563545Q54.3 91.907295 54.628124 91.501045Q54.95625 91.094795 55.565624 90.876045Q56.175 90.657295 56.971874 90.657295Q57.76875 90.657295 58.26875 90.844795Q58.76875 91.032295 59.003124 91.313545Q59.2375 91.594795 59.33125 92.032295Q59.378124 92.29792 59.378124 93.001045L59.378124 94.407295Q59.378124 95.876045 59.440624 96.26667Q59.51875 96.657295 59.721874 97.01667L58.6125 97.01667Q58.45625 96.688545 58.409374 96.251045ZM58.315624 93.89167Q57.7375 94.126045 56.596874 94.29792Q55.940624 94.39167 55.675 94.51667Q55.409374 94.626045 55.253124 94.844795Q55.1125 95.063545 55.1125 95.344795Q55.1125 95.76667 55.425 96.04792Q55.753124 96.32917 56.3625 96.32917Q56.971874 96.32917 57.440624 96.063545Q57.925 95.79792 58.14375 95.32917Q58.315624 94.969795 58.315624 94.282295L58.315624 93.89167ZM61.33125 97.01667L61.33125 90.79792L62.284374 90.79792L62.284374 91.73542Q62.64375 91.07917 62.940624 90.876045Q63.253124 90.657295 63.628124 90.657295Q64.15938 90.657295 64.70625 90.98542L64.34688 91.969795Q63.95625 91.73542 63.58125 91.73542Q63.221874 91.73542 62.940624 91.95417Q62.675 92.157295 62.565624 92.532295Q62.378124 93.094795 62.378124 93.751045L62.378124 97.01667L61.33125 97.01667ZM68.65938 99.54792L68.65938 88.282295L69.56563 88.282295L69.56563 99.54792L68.65938 99.54792ZM74.14375 97.532295L75.175 97.688545Q75.2375 98.157295 75.53438 98.376045Q75.925 98.67292 76.59688 98.67292Q77.33125 98.67292 77.72188 98.376045Q78.12813 98.07917 78.26875 97.563545Q78.3625 97.23542 78.34688 96.20417Q77.65938 97.01667 76.62813 97.01667Q75.34688 97.01667 74.64375 96.094795Q73.94063 95.157295 73.94063 93.876045Q73.94063 92.98542 74.25313 92.23542Q74.58125 91.469795 75.19063 91.063545Q75.8 90.657295 76.62813 90.657295Q77.7375 90.657295 78.45625 91.54792L78.45625 90.79792L79.425 90.79792L79.425 96.17292Q79.425 97.626045 79.12813 98.23542Q78.83125 98.844795 78.19063 99.188545Q77.55 99.54792 76.6125 99.54792Q75.50313 99.54792 74.81563 99.04792Q74.12813 98.54792 74.14375 97.532295ZM75.01875 93.79792Q75.01875 95.01667 75.50313 95.57917Q75.9875 96.14167 76.72188 96.14167Q77.45625 96.14167 77.94063 95.57917Q78.44063 95.01667 78.44063 93.82917Q78.44063 92.688545 77.925 92.11042Q77.425 91.532295 76.70625 91.532295Q76.00313 91.532295 75.50313 92.11042Q75.01875 92.67292 75.01875 93.79792ZM80.78438 97.01667L80.78438 96.157295L84.75313 91.61042Q84.06563 91.64167 83.55 91.64167L81.01875 91.64167L81.01875 90.79792L86.1125 90.79792L86.1125 91.48542L82.7375 95.438545L82.08125 96.157295Q82.8 96.11042 83.40938 96.11042L86.3 96.11042L86.3 97.01667L80.78438 97.01667ZM87.34688 89.64167L87.34688 88.42292L88.40938 88.42292L88.40938 89.64167L87.34688 89.64167ZM87.34688 97.01667L87.34688 90.79792L88.40938 90.79792L88.40938 97.01667L87.34688 97.01667ZM90.34688 99.407295L90.34688 90.79792L91.3 90.79792L91.3 91.594795Q91.64375 91.126045 92.06563 90.89167Q92.50313 90.657295 93.1125 90.657295Q93.90938 90.657295 94.51875 91.063545Q95.12813 91.469795 95.425 92.219795Q95.7375 92.969795 95.7375 93.86042Q95.7375 94.813545 95.39375 95.57917Q95.06563 96.344795 94.40938 96.751045Q93.75313 97.157295 93.03438 97.157295Q92.50313 97.157295 92.08125 96.938545Q91.65938 96.70417 91.39375 96.376045L91.39375 99.407295L90.34688 99.407295ZM91.3 93.938545Q91.3 95.14167 91.78438 95.719795Q92.26875 96.282295 92.95625 96.282295Q93.65938 96.282295 94.15938 95.688545Q94.65938 95.094795 94.65938 93.844795Q94.65938 92.657295 94.175 92.07917Q93.69063 91.48542 93.00313 91.48542Q92.33125 91.48542 91.81563 92.11042Q91.3 92.73542 91.3 93.938545ZM100.65938 99.54792L100.65938 88.282295L101.56563 88.282295L101.56563 99.54792L100.65938 99.54792ZM106.14375 97.532295L107.175 97.688545Q107.2375 98.157295 107.53438 98.376045Q107.925 98.67292 108.59688 98.67292Q109.33125 98.67292 109.72188 98.376045Q110.12813 98.07917 110.26875 97.563545Q110.3625 97.23542 110.34688 96.20417Q109.65938 97.01667 108.62813 97.01667Q107.34688 97.01667 106.64375 96.094795Q105.94063 95.157295 105.94063 93.876045Q105.94063 92.98542 106.25313 92.23542Q106.58125 91.469795 107.19063 91.063545Q107.8 90.657295 108.62813 90.657295Q109.7375 90.657295 110.45625 91.54792L110.45625 90.79792L111.425 90.79792L111.425 96.17292Q111.425 97.626045 111.12813 98.23542Q110.83125 98.844795 110.19063 99.188545Q109.55 99.54792 108.6125 99.54792Q107.50313 99.54792 106.81563 99.04792Q106.12813 98.54792 106.14375 97.532295ZM107.01875 93.79792Q107.01875 95.01667 107.50313 95.57917Q107.9875 96.14167 108.72188 96.14167Q109.45625 96.14167 109.94063 95.57917Q110.44063 95.01667 110.44063 93.82917Q110.44063 92.688545 109.925 92.11042Q109.425 91.532295 108.70625 91.532295Q108.00313 91.532295 107.50313 92.11042Q107.01875 92.67292 107.01875 93.79792ZM113.34688 99.407295L113.34688 90.79792L114.3 90.79792L114.3 91.594795Q114.64375 91.126045 115.06563 90.89167Q115.50313 90.657295 116.1125 90.657295Q116.90938 90.657295 117.51875 91.063545Q118.12813 91.469795 118.425 92.219795Q118.7375 92.969795 118.7375 93.86042Q118.7375 94.813545 118.39375 95.57917Q118.06563 96.344795 117.40938 96.751045Q116.75313 97.157295 116.03438 97.157295Q115.50313 97.157295 115.08125 96.938545Q114.65938 96.70417 114.39375 96.376045L114.39375 99.407295L113.34688 99.407295ZM114.3 93.938545Q114.3 95.14167 114.78438 95.719795Q115.26875 96.282295 115.95625 96.282295Q116.65938 96.282295 117.15938 95.688545Q117.65938 95.094795 117.65938 93.844795Q117.65938 92.657295 117.175 92.07917Q116.69063 91.48542 116.00313 91.48542Q115.33125 91.48542 114.81563 92.11042Q114.3 92.73542 114.3 93.938545ZM120.14375 97.532295L121.175 97.688545Q121.2375 98.157295 121.53438 98.376045Q121.925 98.67292 122.59688 98.67292Q123.33125 98.67292 123.72188 98.376045Q124.12813 98.07917 124.26875 97.563545Q124.3625 97.23542 124.34688 96.20417Q123.65938 97.01667 122.62813 97.01667Q121.34688 97.01667 120.64375 96.094795Q119.94063 95.157295 119.94063 93.876045Q119.94063 92.98542 120.25313 92.23542Q120.58125 91.469795 121.19063 91.063545Q121.8 90.657295 122.62813 90.657295Q123.7375 90.657295 124.45625 91.54792L124.45625 90.79792L125.425 90.79792L125.425 96.17292Q125.425 97.626045 125.12813 98.23542Q124.83125 98.844795 124.19063 99.188545Q123.55 99.54792 122.6125 99.54792Q121.50313 99.54792 120.81563 99.04792Q120.12813 98.54792 120.14375 97.532295ZM121.01875 93.79792Q121.01875 95.01667 121.50313 95.57917Q121.9875 96.14167 122.72188 96.14167Q123.45625 96.14167 123.94063 95.57917Q124.44063 95.01667 124.44063 93.82917Q124.44063 92.688545 123.925 92.11042Q123.425 91.532295 122.70625 91.532295Q122.00313 91.532295 121.50313 92.11042Q121.01875 92.67292 121.01875 93.79792ZM130.65938 99.54792L130.65938 88.282295L131.56563 88.282295L131.56563 99.54792L130.65938 99.54792ZM135.925 95.157295L136.95625 95.001045Q137.05 95.626045 137.44063 95.95417Q137.84688 96.282295 138.58125 96.282295Q139.3 96.282295 139.64375 96.001045Q140.00313 95.70417 140.00313 95.29792Q140.00313 94.938545 139.69063 94.73542Q139.47188 94.594795 138.6125 94.376045Q137.45625 94.07917 137.00313 93.876045Q136.56563 93.657295 136.33125 93.282295Q136.09688 92.907295 136.09688 92.438545Q136.09688 92.032295 136.28438 91.67292Q136.47188 91.313545 136.8 91.07917Q137.05 90.907295 137.47188 90.782295Q137.89375 90.657295 138.39375 90.657295Q139.1125 90.657295 139.65938 90.876045Q140.22188 91.07917 140.4875 91.438545Q140.75313 91.79792 140.84688 92.39167L139.81563 92.532295Q139.75313 92.063545 139.40938 91.79792Q139.08125 91.51667 138.45625 91.51667Q137.7375 91.51667 137.425 91.76667Q137.1125 92.001045 137.1125 92.32917Q137.1125 92.532295 137.2375 92.688545Q137.37813 92.86042 137.64375 92.969795Q137.8 93.032295 138.58125 93.23542Q139.70625 93.54792 140.14375 93.73542Q140.58125 93.92292 140.83125 94.282295Q141.08125 94.64167 141.08125 95.188545Q141.08125 95.719795 140.76875 96.188545Q140.47188 96.64167 139.89375 96.907295Q139.31563 97.157295 138.58125 97.157295Q137.3625 97.157295 136.72188 96.657295Q136.09688 96.14167 135.925 95.157295ZM141.925 95.157295L142.95625 95.001045Q143.05 95.626045 143.44063 95.95417Q143.84688 96.282295 144.58125 96.282295Q145.3 96.282295 145.64375 96.001045Q146.00313 95.70417 146.00313 95.29792Q146.00313 94.938545 145.69063 94.73542Q145.47188 94.594795 144.6125 94.376045Q143.45625 94.07917 143.00313 93.876045Q142.56563 93.657295 142.33125 93.282295Q142.09688 92.907295 142.09688 92.438545Q142.09688 92.032295 142.28438 91.67292Q142.47188 91.313545 142.8 91.07917Q143.05 90.907295 143.47188 90.782295Q143.89375 90.657295 144.39375 90.657295Q145.1125 90.657295 145.65938 90.876045Q146.22188 91.07917 146.4875 91.438545Q146.75313 91.79792 146.84688 92.39167L145.81563 92.532295Q145.75313 92.063545 145.40938 91.79792Q145.08125 91.51667 144.45625 91.51667Q143.7375 91.51667 143.425 91.76667Q143.1125 92.001045 143.1125 92.32917Q143.1125 92.532295 143.2375 92.688545Q143.37813 92.86042 143.64375 92.969795Q143.8 93.032295 144.58125 93.23542Q145.70625 93.54792 146.14375 93.73542Q146.58125 93.92292 146.83125 94.282295Q147.08125 94.64167 147.08125 95.188545Q147.08125 95.719795 146.76875 96.188545Q146.47188 96.64167 145.89375 96.907295Q145.31563 97.157295 144.58125 97.157295Q143.3625 97.157295 142.72188 96.657295Q142.09688 96.14167 141.925 95.157295ZM148.34688 97.01667L148.34688 88.42292L149.39375 88.42292L149.39375 91.501045Q150.12813 90.657295 151.25313 90.657295Q151.95625 90.657295 152.45625 90.938545Q152.97188 91.20417 153.19063 91.688545Q153.40938 92.157295 153.40938 93.07917L153.40938 97.01667L152.3625 97.01667L152.3625 93.07917Q152.3625 92.282295 152.01875 91.92292Q151.675 91.563545 151.05 91.563545Q150.58125 91.563545 150.15938 91.813545Q149.75313 92.04792 149.56563 92.469795Q149.39375 92.876045 149.39375 93.61042L149.39375 97.01667L148.34688 97.01667Z" fill-rule="nonzero"/><path fill="#000000" d="M86.31563 153.4611L85.33125 153.4611L85.33125 144.86736L86.39375 144.86736L86.39375 147.92986Q87.06563 147.10173 88.09688 147.10173Q88.675 147.10173 89.175 147.3361Q89.69063 147.55486 90.01875 147.97673Q90.3625 148.3986 90.55 148.99236Q90.7375 149.5861 90.7375 150.25798Q90.7375 151.85173 89.94063 152.72673Q89.14375 153.60173 88.05 153.60173Q86.94063 153.60173 86.31563 152.67986L86.31563 153.4611ZM86.3 150.30486Q86.3 151.41423 86.6125 151.91423Q87.1125 152.72673 87.95625 152.72673Q88.64375 152.72673 89.14375 152.13298Q89.65938 151.53923 89.65938 150.3361Q89.65938 149.11736 89.175 148.53923Q88.69063 147.9611 88.00313 147.9611Q87.31563 147.9611 86.8 148.57048Q86.3 149.16423 86.3 150.30486ZM96.425 153.4611L96.425 152.53923Q95.69063 153.60173 94.44063 153.60173Q93.89375 153.60173 93.40938 153.3986Q92.94063 153.17986 92.70625 152.86736Q92.47188 152.53923 92.37813 152.07048Q92.31563 151.7736 92.31563 151.0861L92.31563 147.24236L93.37813 147.24236L93.37813 150.69548Q93.37813 151.50798 93.44063 151.80486Q93.53438 152.2111 93.84688 152.4611Q94.175 152.69548 94.65938 152.69548Q95.12813 152.69548 95.53438 152.4611Q95.95625 152.2111 96.12813 151.78923Q96.31563 151.36736 96.31563 150.57048L96.31563 147.24236L97.3625 147.24236L97.3625 153.4611L96.425 153.4611ZM99.34688 155.85173L99.34688 147.24236L100.3 147.24236L100.3 148.03923Q100.64375 147.57048 101.06563 147.3361Q101.50313 147.10173 102.1125 147.10173Q102.90938 147.10173 103.51875 147.50798Q104.12813 147.91423 104.425 148.66423Q104.7375 149.41423 104.7375 150.30486Q104.7375 151.25798 104.39375 152.0236Q104.06563 152.78923 103.40938 153.19548Q102.75313 153.60173 102.03438 153.60173Q101.50313 153.60173 101.08125 153.38298Q100.65938 153.1486 100.39375 152.82048L100.39375 155.85173L99.34688 155.85173ZM100.3 150.38298Q100.3 151.5861 100.78438 152.16423Q101.26875 152.72673 101.95625 152.72673Q102.65938 152.72673 103.15938 152.13298Q103.65938 151.53923 103.65938 150.28923Q103.65938 149.10173 103.175 148.5236Q102.69063 147.92986 102.00313 147.92986Q101.33125 147.92986 100.81563 148.55486Q100.3 149.17986 100.3 150.38298ZM105.925 151.60173L106.95625 151.44548Q107.05 152.07048 107.44063 152.3986Q107.84688 152.72673 108.58125 152.72673Q109.3 152.72673 109.64375 152.44548Q110.00313 152.1486 110.00313 151.74236Q110.00313 151.38298 109.69063 151.17986Q109.47188 151.03923 108.6125 150.82048Q107.45625 150.5236 107.00313 150.32048Q106.56563 150.10173 106.33125 149.72673Q106.09688 149.35173 106.09688 148.88298Q106.09688 148.47673 106.28438 148.11736Q106.47188 147.75798 106.8 147.5236Q107.05 147.35173 107.47188 147.22673Q107.89375 147.10173 108.39375 147.10173Q109.1125 147.10173 109.65938 147.32048Q110.22188 147.5236 110.4875 147.88298Q110.75313 148.24236 110.84688 148.8361L109.81563 148.97673Q109.75313 148.50798 109.40938 148.24236Q109.08125 147.9611 108.45625 147.9611Q107.7375 147.9611 107.425 148.2111Q107.1125 148.44548 107.1125 148.7736Q107.1125 148.97673 107.2375 149.13298Q107.37813 149.30486 107.64375 149.41423Q107.8 149.47673 108.58125 149.67986Q109.70625 149.99236 110.14375 150.17986Q110.58125 150.36736 110.83125 150.72673Q111.08125 151.0861 111.08125 151.63298Q111.08125 152.16423 110.76875 152.63298Q110.47188 153.0861 109.89375 153.35173Q109.31563 153.60173 108.58125 153.60173Q107.3625 153.60173 106.72188 153.10173Q106.09688 152.5861 105.925 151.60173ZM114.64375 152.5236L114.8 153.44548Q114.34688 153.53923 114.00313 153.53923Q113.425 153.53923 113.1125 153.36736Q112.8 153.17986 112.65938 152.88298Q112.53438 152.5861 112.53438 151.63298L112.53438 148.05486L111.76875 148.05486L111.76875 147.24236L112.53438 147.24236L112.53438 145.69548L113.58125 145.07048L113.58125 147.24236L114.64375 147.24236L114.64375 148.05486L113.58125 148.05486L113.58125 151.69548Q113.58125 152.1486 113.62813 152.2736Q113.69063 152.3986 113.81563 152.47673Q113.94063 152.55486 114.175 152.55486Q114.3625 152.55486 114.64375 152.5236ZM119.40938 152.69548Q118.81563 153.19548 118.26875 153.3986Q117.7375 153.60173 117.1125 153.60173Q116.08125 153.60173 115.53438 153.10173Q114.9875 152.60173 114.9875 151.82048Q114.9875 151.36736 115.19063 150.99236Q115.39375 150.60173 115.7375 150.38298Q116.08125 150.1486 116.50313 150.03923Q116.8 149.94548 117.44063 149.86736Q118.70625 149.72673 119.31563 149.50798Q119.31563 149.28923 119.31563 149.24236Q119.31563 148.5861 119.01875 148.32048Q118.6125 147.97673 117.81563 147.97673Q117.08125 147.97673 116.72188 148.24236Q116.3625 148.49236 116.19063 149.1486L115.15938 149.00798Q115.3 148.35173 115.62813 147.94548Q115.95625 147.53923 116.56563 147.32048Q117.175 147.10173 117.97188 147.10173Q118.76875 147.10173 119.26875 147.28923Q119.76875 147.47673 120.00313 147.75798Q120.2375 148.03923 120.33125 148.47673Q120.37813 148.74236 120.37813 149.44548L120.37813 150.85173Q120.37813 152.32048 120.44063 152.7111Q120.51875 153.10173 120.72188 153.4611L119.6125 153.4611Q119.45625 153.13298 119.40938 152.69548ZM119.31563 150.3361Q118.7375 150.57048 117.59688 150.74236Q116.94063 150.8361 116.675 150.9611Q116.40938 151.07048 116.25313 151.28923Q116.1125 151.50798 116.1125 151.78923Q116.1125 152.2111 116.425 152.49236Q116.75313 152.7736 117.3625 152.7736Q117.97188 152.7736 118.44063 152.50798Q118.925 152.24236 119.14375 151.7736Q119.31563 151.41423 119.31563 150.72673L119.31563 150.3361ZM121.925 151.60173L122.95625 151.44548Q123.05 152.07048 123.44063 152.3986Q123.84688 152.72673 124.58125 152.72673Q125.3 152.72673 125.64375 152.44548Q126.00313 152.1486 126.00313 151.74236Q126.00313 151.38298 125.69063 151.17986Q125.47188 151.03923 124.6125 150.82048Q123.45625 150.5236 123.00313 150.32048Q122.56563 150.10173 122.33125 149.72673Q122.09688 149.35173 122.09688 148.88298Q122.09688 148.47673 122.28438 148.11736Q122.47188 147.75798 122.8 147.5236Q123.05 147.35173 123.47188 147.22673Q123.89375 147.10173 124.39375 147.10173Q125.1125 147.10173 125.65938 147.32048Q126.22188 147.5236 126.4875 147.88298Q126.75313 148.24236 126.84688 148.8361L125.81563 148.97673Q125.75313 148.50798 125.40938 148.24236Q125.08125 147.9611 124.45625 147.9611Q123.7375 147.9611 123.425 148.2111Q123.1125 148.44548 123.1125 148.7736Q123.1125 148.97673 123.2375 149.13298Q123.37813 149.30486 123.64375 149.41423Q123.8 149.47673 124.58125 149.67986Q125.70625 149.99236 126.14375 150.17986Q126.58125 150.36736 126.83125 150.72673Q127.08125 151.0861 127.08125 151.63298Q127.08125 152.16423 126.76875 152.63298Q126.47188 153.0861 125.89375 153.35173Q125.31563 153.60173 124.58125 153.60173Q123.3625 153.60173 122.72188 153.10173Q122.09688 152.5861 121.925 151.60173ZM128.34688 153.4611L128.34688 144.86736L129.39375 144.86736L129.39375 147.94548Q130.12813 147.10173 131.25313 147.10173Q131.95625 147.10173 132.45625 147.38298Q132.97188 147.6486 133.19063 148.13298Q133.40938 148.60173 133.40938 149.5236L133.40938 153.4611L132.3625 153.4611L132.3625 149.5236Q132.3625 148.72673 132.01875 148.36736Q131.675 148.00798 131.05 148.00798Q130.58125 148.00798 130.15938 148.25798Q129.75313 148.49236 129.56563 148.91423Q129.39375 149.32048 129.39375 150.05486L129.39375 153.4611L128.34688 153.4611ZM138.34688 155.85173L138.34688 147.24236L139.3 147.24236L139.3 148.03923Q139.64375 147.57048 140.06563 147.3361Q140.50313 147.10173 141.1125 147.10173Q141.90938 147.10173 142.51875 147.50798Q143.12813 147.91423 143.425 148.66423Q143.7375 149.41423 143.7375 150.30486Q143.7375 151.25798 143.39375 152.0236Q143.06563 152.78923 142.40938 153.19548Q141.75313 153.60173 141.03438 153.60173Q140.50313 153.60173 140.08125 153.38298Q139.65938 153.1486 139.39375 152.82048L139.39375 155.85173L138.34688 155.85173ZM139.3 150.38298Q139.3 151.5861 139.78438 152.16423Q140.26875 152.72673 140.95625 152.72673Q141.65938 152.72673 142.15938 152.13298Q142.65938 151.53923 142.65938 150.28923Q142.65938 149.10173 142.175 148.5236Q141.69063 147.92986 141.00313 147.92986Q140.33125 147.92986 139.81563 148.55486Q139.3 149.17986 139.3 150.38298ZM149.425 153.4611L149.425 152.53923Q148.69063 153.60173 147.44063 153.60173Q146.89375 153.60173 146.40938 153.3986Q145.94063 153.17986 145.70625 152.86736Q145.47188 152.53923 145.37813 152.07048Q145.31563 151.7736 145.31563 151.0861L145.31563 147.24236L146.37813 147.24236L146.37813 150.69548Q146.37813 151.50798 146.44063 151.80486Q146.53438 152.2111 146.84688 152.4611Q147.175 152.69548 147.65938 152.69548Q148.12813 152.69548 148.53438 152.4611Q148.95625 152.2111 149.12813 151.78923Q149.31563 151.36736 149.31563 150.57048L149.31563 147.24236L150.3625 147.24236L150.3625 153.4611L149.425 153.4611ZM154.64375 152.5236L154.8 153.44548Q154.34688 153.53923 154.00313 153.53923Q153.425 153.53923 153.1125 153.36736Q152.8 153.17986 152.65938 152.88298Q152.53438 152.5861 152.53438 151.63298L152.53438 148.05486L151.76875 148.05486L151.76875 147.24236L152.53438 147.24236L152.53438 145.69548L153.58125 145.07048L153.58125 147.24236L154.64375 147.24236L154.64375 148.05486L153.58125 148.05486L153.58125 151.69548Q153.58125 152.1486 153.62813 152.2736Q153.69063 152.3986 153.81563 152.47673Q153.94063 152.55486 154.175 152.55486Q154.3625 152.55486 154.64375 152.5236Z" fill-rule="nonzero"/><path fill="#000000" d="M94.31563 209.90555L93.33125 209.90555L93.33125 201.3118L94.39375 201.3118L94.39375 204.3743Q95.06563 203.54617 96.09688 203.54617Q96.675 203.54617 97.175 203.78055Q97.69063 203.9993 98.01875 204.42117Q98.3625 204.84305 98.55 205.4368Q98.7375 206.03055 98.7375 206.70242Q98.7375 208.29617 97.94063 209.17117Q97.14375 210.04617 96.05 210.04617Q94.94063 210.04617 94.31563 209.1243L94.31563 209.90555ZM94.3 206.7493Q94.3 207.85867 94.6125 208.35867Q95.1125 209.17117 95.95625 209.17117Q96.64375 209.17117 97.14375 208.57742Q97.65938 207.98367 97.65938 206.78055Q97.65938 205.5618 97.175 204.98367Q96.69063 204.40555 96.00313 204.40555Q95.31563 204.40555 94.8 205.01492Q94.3 205.60867 94.3 206.7493ZM99.95625 206.79617Q99.95625 205.0618 100.90938 204.23367Q101.70625 203.54617 102.8625 203.54617Q104.14375 203.54617 104.95625 204.38992Q105.78438 205.21805 105.78438 206.70242Q105.78438 207.90555 105.425 208.59305Q105.06563 209.28055 104.3625 209.67117Q103.675 210.04617 102.8625 210.04617Q101.56563 210.04617 100.75313 209.21805Q99.95625 208.3743 99.95625 206.79617ZM101.03438 206.79617Q101.03438 207.98367 101.55 208.57742Q102.08125 209.17117 102.8625 209.17117Q103.65938 209.17117 104.175 208.57742Q104.69063 207.98367 104.69063 206.76492Q104.69063 205.60867 104.15938 205.01492Q103.64375 204.42117 102.8625 204.42117Q102.08125 204.42117 101.55 205.01492Q101.03438 205.59305 101.03438 206.79617ZM107.33125 209.90555L107.33125 203.6868L108.28438 203.6868L108.28438 204.6243Q108.64375 203.96805 108.94063 203.76492Q109.25313 203.54617 109.62813 203.54617Q110.15938 203.54617 110.70625 203.8743L110.34688 204.85867Q109.95625 204.6243 109.58125 204.6243Q109.22188 204.6243 108.94063 204.84305Q108.675 205.04617 108.56563 205.42117Q108.37813 205.98367 108.37813 206.63992L108.37813 209.90555L107.33125 209.90555ZM111.14375 210.42117L112.175 210.57742Q112.2375 211.04617 112.53438 211.26492Q112.925 211.5618 113.59688 211.5618Q114.33125 211.5618 114.72188 211.26492Q115.12813 210.96805 115.26875 210.45242Q115.3625 210.1243 115.34688 209.09305Q114.65938 209.90555 113.62813 209.90555Q112.34688 209.90555 111.64375 208.98367Q110.94063 208.04617 110.94063 206.76492Q110.94063 205.8743 111.25313 205.1243Q111.58125 204.35867 112.19063 203.95242Q112.8 203.54617 113.62813 203.54617Q114.7375 203.54617 115.45625 204.4368L115.45625 203.6868L116.425 203.6868L116.425 209.0618Q116.425 210.51492 116.12813 211.1243Q115.83125 211.73367 115.19063 212.07742Q114.55 212.4368 113.6125 212.4368Q112.50313 212.4368 111.81563 211.9368Q111.12813 211.4368 111.14375 210.42117ZM112.01875 206.6868Q112.01875 207.90555 112.50313 208.46805Q112.9875 209.03055 113.72188 209.03055Q114.45625 209.03055 114.94063 208.46805Q115.44063 207.90555 115.44063 206.71805Q115.44063 205.57742 114.925 204.9993Q114.425 204.42117 113.70625 204.42117Q113.00313 204.42117 112.50313 204.9993Q112.01875 205.5618 112.01875 206.6868ZM125.40938 207.6243L126.44063 207.76492Q126.26875 208.82742 125.56563 209.4368Q124.8625 210.04617 123.84688 210.04617Q122.56563 210.04617 121.78438 209.21805Q121.01875 208.3743 121.01875 206.8118Q121.01875 205.8118 121.34688 205.0618Q121.69063 204.29617 122.3625 203.92117Q123.05 203.54617 123.8625 203.54617Q124.8625 203.54617 125.50313 204.0618Q126.15938 204.5618 126.34688 205.51492L125.31563 205.67117Q125.175 205.04617 124.8 204.73367Q124.425 204.40555 123.89375 204.40555Q123.09688 204.40555 122.59688 204.98367Q122.09688 205.54617 122.09688 206.78055Q122.09688 208.04617 122.58125 208.60867Q123.06563 209.17117 123.83125 209.17117Q124.45625 209.17117 124.8625 208.79617Q125.28438 208.42117 125.40938 207.6243ZM127.33125 209.90555L127.33125 203.6868L128.28438 203.6868L128.28438 204.6243Q128.64375 203.96805 128.94063 203.76492Q129.25313 203.54617 129.62813 203.54617Q130.15938 203.54617 130.70625 203.8743L130.34688 204.85867Q129.95625 204.6243 129.58125 204.6243Q129.22188 204.6243 128.94063 204.84305Q128.675 205.04617 128.56563 205.42117Q128.37813 205.98367 128.37813 206.63992L128.37813 209.90555L127.33125 209.90555ZM135.59688 207.90555L136.69063 208.03055Q136.44063 208.98367 135.7375 209.51492Q135.03438 210.04617 133.95625 210.04617Q132.59688 210.04617 131.78438 209.20242Q130.9875 208.35867 130.9875 206.84305Q130.9875 205.28055 131.8 204.42117Q132.6125 203.54617 133.89375 203.54617Q135.14375 203.54617 135.925 204.38992Q136.72188 205.23367 136.72188 206.78055Q136.72188 206.8743 136.72188 207.0618L132.08125 207.0618Q132.14375 208.09305 132.65938 208.63992Q133.175 209.17117 133.95625 209.17117Q134.53438 209.17117 134.94063 208.8743Q135.3625 208.5618 135.59688 207.90555ZM132.14375 206.20242L135.6125 206.20242Q135.55 205.40555 135.22188 205.01492Q134.70625 204.40555 133.90938 204.40555Q133.175 204.40555 132.675 204.88992Q132.19063 205.3743 132.14375 206.20242ZM142.40938 209.13992Q141.81563 209.63992 141.26875 209.84305Q140.7375 210.04617 140.1125 210.04617Q139.08125 210.04617 138.53438 209.54617Q137.9875 209.04617 137.9875 208.26492Q137.9875 207.8118 138.19063 207.4368Q138.39375 207.04617 138.7375 206.82742Q139.08125 206.59305 139.50313 206.48367Q139.8 206.38992 140.44063 206.3118Q141.70625 206.17117 142.31563 205.95242Q142.31563 205.73367 142.31563 205.6868Q142.31563 205.03055 142.01875 204.76492Q141.6125 204.42117 140.81563 204.42117Q140.08125 204.42117 139.72188 204.6868Q139.3625 204.9368 139.19063 205.59305L138.15938 205.45242Q138.3 204.79617 138.62813 204.38992Q138.95625 203.98367 139.56563 203.76492Q140.175 203.54617 140.97188 203.54617Q141.76875 203.54617 142.26875 203.73367Q142.76875 203.92117 143.00313 204.20242Q143.2375 204.48367 143.33125 204.92117Q143.37813 205.1868 143.37813 205.88992L143.37813 207.29617Q143.37813 208.76492 143.44063 209.15555Q143.51875 209.54617 143.72188 209.90555L142.6125 209.90555Q142.45625 209.57742 142.40938 209.13992ZM142.31563 206.78055Q141.7375 207.01492 140.59688 207.1868Q139.94063 207.28055 139.675 207.40555Q139.40938 207.51492 139.25313 207.73367Q139.1125 207.95242 139.1125 208.23367Q139.1125 208.65555 139.425 208.9368Q139.75313 209.21805 140.3625 209.21805Q140.97188 209.21805 141.44063 208.95242Q141.925 208.6868 142.14375 208.21805Q142.31563 207.85867 142.31563 207.17117L142.31563 206.78055ZM147.64375 208.96805L147.8 209.88992Q147.34688 209.98367 147.00313 209.98367Q146.425 209.98367 146.1125 209.8118Q145.8 209.6243 145.65938 209.32742Q145.53438 209.03055 145.53438 208.07742L145.53438 204.4993L144.76875 204.4993L144.76875 203.6868L145.53438 203.6868L145.53438 202.13992L146.58125 201.51492L146.58125 203.6868L147.64375 203.6868L147.64375 204.4993L146.58125 204.4993L146.58125 208.13992Q146.58125 208.59305 146.62813 208.71805Q146.69063 208.84305 146.81563 208.92117Q146.94063 208.9993 147.175 208.9993Q147.3625 208.9993 147.64375 208.96805ZM152.59688 207.90555L153.69063 208.03055Q153.44063 208.98367 152.7375 209.51492Q152.03438 210.04617 150.95625 210.04617Q149.59688 210.04617 148.78438 209.20242Q147.9875 208.35867 147.9875 206.84305Q147.9875 205.28055 148.8 204.42117Q149.6125 203.54617 150.89375 203.54617Q152.14375 203.54617 152.925 204.38992Q153.72188 205.23367 153.72188 206.78055Q153.72188 206.8743 153.72188 207.0618L149.08125 207.0618Q149.14375 208.09305 149.65938 208.63992Q150.175 209.17117 150.95625 209.17117Q151.53438 209.17117 151.94063 208.8743Q152.3625 208.5618 152.59688 207.90555ZM149.14375 206.20242L152.6125 206.20242Q152.55 205.40555 152.22188 205.01492Q151.70625 204.40555 150.90938 204.40555Q150.175 204.40555 149.675 204.88992Q149.19063 205.3743 149.14375 206.20242Z" fill-rule="nonzero"/><path fill="#000000" d="M83.33125 266.35L83.33125 260.13126L84.28438 260.13126L84.28438 261.06876Q84.64375 260.4125 84.94063 260.20938Q85.25313 259.99063 85.62813 259.99063Q86.15938 259.99063 86.70625 260.31876L86.34688 261.30313Q85.95625 261.06876 85.58125 261.06876Q85.22188 261.06876 84.94063 261.2875Q84.675 261.49063 84.56563 261.86563Q84.37813 262.42813 84.37813 263.08438L84.37813 266.35L83.33125 266.35ZM91.59688 264.35L92.69063 264.475Q92.44063 265.42813 91.7375 265.95938Q91.03438 266.49063 89.95625 266.49063Q88.59688 266.49063 87.78438 265.64688Q86.9875 264.80313 86.9875 263.2875Q86.9875 261.725 87.8 260.86563Q88.6125 259.99063 89.89375 259.99063Q91.14375 259.99063 91.925 260.83438Q92.72188 261.67813 92.72188 263.225Q92.72188 263.31876 92.72188 263.50626L88.08125 263.50626Q88.14375 264.5375 88.65938 265.08438Q89.175 265.61563 89.95625 265.61563Q90.53438 265.61563 90.94063 265.31876Q91.3625 265.00626 91.59688 264.35ZM88.14375 262.64688L91.6125 262.64688Q91.55 261.85 91.22188 261.45938Q90.70625 260.85 89.90938 260.85Q89.175 260.85 88.675 261.33438Q88.19063 261.81876 88.14375 262.64688ZM93.925 264.49063L94.95625 264.33438Q95.05 264.95938 95.44063 265.2875Q95.84688 265.61563 96.58125 265.61563Q97.3 265.61563 97.64375 265.33438Q98.00313 265.0375 98.00313 264.63126Q98.00313 264.27188 97.69063 264.06876Q97.47188 263.92813 96.6125 263.70938Q95.45625 263.4125 95.00313 263.20938Q94.56563 262.99063 94.33125 262.61563Q94.09688 262.24063 94.09688 261.77188Q94.09688 261.36563 94.28438 261.00626Q94.47188 260.64688 94.8 260.4125Q95.05 260.24063 95.47188 260.11563Q95.89375 259.99063 96.39375 259.99063Q97.1125 259.99063 97.65938 260.20938Q98.22188 260.4125 98.4875 260.77188Q98.75313 261.13126 98.84688 261.725L97.81563 261.86563Q97.75313 261.39688 97.40938 261.13126Q97.08125 260.85 96.45625 260.85Q95.7375 260.85 95.425 261.1Q95.1125 261.33438 95.1125 261.6625Q95.1125 261.86563 95.2375 262.02188Q95.37813 262.19376 95.64375 262.30313Q95.8 262.36563 96.58125 262.56876Q97.70625 262.88126 98.14375 263.06876Q98.58125 263.25626 98.83125 263.61563Q99.08125 263.975 99.08125 264.52188Q99.08125 265.05313 98.76875 265.52188Q98.47188 265.975 97.89375 266.24063Q97.31563 266.49063 96.58125 266.49063Q95.3625 266.49063 94.72188 265.99063Q94.09688 265.475 93.925 264.49063ZM102.64375 265.4125L102.8 266.33438Q102.34688 266.42813 102.00313 266.42813Q101.425 266.42813 101.1125 266.25626Q100.8 266.06876 100.65938 265.77188Q100.53438 265.475 100.53438 264.52188L100.53438 260.94376L99.76875 260.94376L99.76875 260.13126L100.53438 260.13126L100.53438 258.58438L101.58125 257.95938L101.58125 260.13126L102.64375 260.13126L102.64375 260.94376L101.58125 260.94376L101.58125 264.58438Q101.58125 265.0375 101.62813 265.1625Q101.69063 265.2875 101.81563 265.36563Q101.94063 265.44376 102.175 265.44376Q102.3625 265.44376 102.64375 265.4125ZM103.34688 258.975L103.34688 257.75626L104.40938 257.75626L104.40938 258.975L103.34688 258.975ZM103.34688 266.35L103.34688 260.13126L104.40938 260.13126L104.40938 266.35L103.34688 266.35ZM110.40938 264.06876L111.44063 264.20938Q111.26875 265.27188 110.56563 265.88126Q109.8625 266.49063 108.84688 266.49063Q107.56563 266.49063 106.78438 265.6625Q106.01875 264.81876 106.01875 263.25626Q106.01875 262.25626 106.34688 261.50626Q106.69063 260.74063 107.3625 260.36563Q108.05 259.99063 108.8625 259.99063Q109.8625 259.99063 110.50313 260.50626Q111.15938 261.00626 111.34688 261.95938L110.31563 262.11563Q110.175 261.49063 109.8 261.17813Q109.425 260.85 108.89375 260.85Q108.09688 260.85 107.59688 261.42813Q107.09688 261.99063 107.09688 263.225Q107.09688 264.49063 107.58125 265.05313Q108.06563 265.61563 108.83125 265.61563Q109.45625 265.61563 109.8625 265.24063Q110.28438 264.86563 110.40938 264.06876ZM116.31563 266.35L115.33125 266.35L115.33125 257.75626L116.39375 257.75626L116.39375 260.81876Q117.06563 259.99063 118.09688 259.99063Q118.675 259.99063 119.175 260.225Q119.69063 260.44376 120.01875 260.86563Q120.3625 261.2875 120.55 261.88126Q120.7375 262.475 120.7375 263.14688Q120.7375 264.74063 119.94063 265.61563Q119.14375 266.49063 118.05 266.49063Q116.94063 266.49063 116.31563 265.56876L116.31563 266.35ZM116.3 263.19376Q116.3 264.30313 116.6125 264.80313Q117.1125 265.61563 117.95625 265.61563Q118.64375 265.61563 119.14375 265.02188Q119.65938 264.42813 119.65938 263.225Q119.65938 262.00626 119.175 261.42813Q118.69063 260.85 118.00313 260.85Q117.31563 260.85 116.8 261.45938Q116.3 262.05313 116.3 263.19376ZM126.40938 265.58438Q125.81563 266.08438 125.26875 266.2875Q124.7375 266.49063 124.1125 266.49063Q123.08125 266.49063 122.53438 265.99063Q121.9875 265.49063 121.9875 264.70938Q121.9875 264.25626 122.19063 263.88126Q122.39375 263.49063 122.7375 263.27188Q123.08125 263.0375 123.50313 262.92813Q123.8 262.83438 124.44063 262.75626Q125.70625 262.61563 126.31563 262.39688Q126.31563 262.17813 126.31563 262.13126Q126.31563 261.475 126.01875 261.20938Q125.6125 260.86563 124.81563 260.86563Q124.08125 260.86563 123.72188 261.13126Q123.3625 261.38126 123.19063 262.0375L122.15938 261.89688Q122.3 261.24063 122.62813 260.83438Q122.95625 260.42813 123.56563 260.20938Q124.175 259.99063 124.97188 259.99063Q125.76875 259.99063 126.26875 260.17813Q126.76875 260.36563 127.00313 260.64688Q127.2375 260.92813 127.33125 261.36563Q127.37813 261.63126 127.37813 262.33438L127.37813 263.74063Q127.37813 265.20938 127.44063 265.6Q127.51875 265.99063 127.72188 266.35L126.6125 266.35Q126.45625 266.02188 126.40938 265.58438ZM126.31563 263.225Q125.7375 263.45938 124.59688 263.63126Q123.94063 263.725 123.675 263.85Q123.40938 263.95938 123.25313 264.17813Q123.1125 264.39688 123.1125 264.67813Q123.1125 265.1 123.425 265.38126Q123.75313 265.6625 124.3625 265.6625Q124.97188 265.6625 125.44063 265.39688Q125.925 265.13126 126.14375 264.6625Q126.31563 264.30313 126.31563 263.61563L126.31563 263.225ZM133.40938 264.06876L134.44063 264.20938Q134.26875 265.27188 133.56563 265.88126Q132.8625 266.49063 131.84688 266.49063Q130.56563 266.49063 129.78438 265.6625Q129.01875 264.81876 129.01875 263.25626Q129.01875 262.25626 129.34688 261.50626Q129.69063 260.74063 130.3625 260.36563Q131.05 259.99063 131.8625 259.99063Q132.8625 259.99063 133.50313 260.50626Q134.15938 261.00626 134.34688 261.95938L133.31563 262.11563Q133.175 261.49063 132.8 261.17813Q132.425 260.85 131.89375 260.85Q131.09688 260.85 130.59688 261.42813Q130.09688 261.99063 130.09688 263.225Q130.09688 264.49063 130.58125 265.05313Q131.06563 265.61563 131.83125 265.61563Q132.45625 265.61563 132.8625 265.24063Q133.28438 264.86563 133.40938 264.06876ZM135.34688 266.35L135.34688 257.75626L136.40938 257.75626L136.40938 262.6625L138.89375 260.13126L140.26875 260.13126L137.87813 262.42813L140.50313 266.35L139.20625 266.35L137.14375 263.1625L136.40938 263.88126L136.40938 266.35L135.34688 266.35ZM145.425 266.35L145.425 265.42813Q144.69063 266.49063 143.44063 266.49063Q142.89375 266.49063 142.40938 266.2875Q141.94063 266.06876 141.70625 265.75626Q141.47188 265.42813 141.37813 264.95938Q141.31563 264.6625 141.31563 263.975L141.31563 260.13126L142.37813 260.13126L142.37813 263.58438Q142.37813 264.39688 142.44063 264.69376Q142.53438 265.1 142.84688 265.35Q143.175 265.58438 143.65938 265.58438Q144.12813 265.58438 144.53438 265.35Q144.95625 265.1 145.12813 264.67813Q145.31563 264.25626 145.31563 263.45938L145.31563 260.13126L146.3625 260.13126L146.3625 266.35L145.425 266.35ZM148.34688 268.74063L148.34688 260.13126L149.3 260.13126L149.3 260.92813Q149.64375 260.45938 150.06563 260.225Q150.50313 259.99063 151.1125 259.99063Q151.90938 259.99063 152.51875 260.39688Q153.12813 260.80313 153.425 261.55313Q153.7375 262.30313 153.7375 263.19376Q153.7375 264.14688 153.39375 264.9125Q153.06563 265.67813 152.40938 266.08438Q151.75313 266.49063 151.03438 266.49063Q150.50313 266.49063 150.08125 266.27188Q149.65938 266.0375 149.39375 265.70938L149.39375 268.74063L148.34688 268.74063ZM149.3 263.27188Q149.3 264.475 149.78438 265.05313Q150.26875 265.61563 150.95625 265.61563Q151.65938 265.61563 152.15938 265.02188Q152.65938 264.42813 152.65938 263.17813Q152.65938 261.99063 152.175 261.4125Q151.69063 260.81876 151.00313 260.81876Q150.33125 260.81876 149.81563 261.44376Q149.3 262.06876 149.3 263.27188Z" fill-rule="nonzero"/><path fill="#000000" d="M157.55 313.21564Q157.55 311.6844 157.8625 310.7625Q158.175 309.825 158.78438 309.325Q159.40938 308.825 160.34688 308.825Q161.03438 308.825 161.55 309.10626Q162.08125 309.3875 162.425 309.91876Q162.76875 310.4344 162.95625 311.1844Q163.14375 311.9344 163.14375 313.21564Q163.14375 314.73126 162.83125 315.65314Q162.53438 316.575 161.90938 317.09064Q161.3 317.59064 160.34688 317.59064Q159.1125 317.59064 158.39375 316.7Q157.55 315.6375 157.55 313.21564ZM158.62813 313.21564Q158.62813 315.325 159.12813 316.02814Q159.62813 316.73126 160.34688 316.73126Q161.08125 316.73126 161.56563 316.02814Q162.06563 315.325 162.06563 313.21564Q162.06563 311.09064 161.56563 310.40314Q161.08125 309.7 160.33125 309.7Q159.6125 309.7 159.175 310.3094Q158.62813 311.09064 158.62813 313.21564Z" fill-rule="nonzero"/><path fill="#000000" d="M238.69875 317.45L237.65187 317.45L237.65187 310.73126Q237.26125 311.09064 236.63625 311.46564Q236.02687 311.825 235.5425 311.9969L235.5425 310.98126Q236.4175 310.5594 237.07375 309.98126Q237.74562 309.3875 238.02687 308.825L238.69875 308.825L238.69875 317.45ZM241.73 313.21564Q241.73 311.6844 242.0425 310.7625Q242.355 309.825 242.96437 309.325Q243.58937 308.825 244.52687 308.825Q245.21437 308.825 245.73 309.10626Q246.26125 309.3875 246.605 309.91876Q246.94875 310.4344 247.13625 311.1844Q247.32375 311.9344 247.32375 313.21564Q247.32375 314.73126 247.01125 315.65314Q246.71437 316.575 246.08937 317.09064Q245.48 317.59064 244.52687 317.59064Q243.2925 317.59064 242.57375 316.7Q241.73 315.6375 241.73 313.21564ZM242.80812 313.21564Q242.80812 315.325 243.30812 316.02814Q243.80812 316.73126 244.52687 316.73126Q245.26125 316.73126 245.74562 316.02814Q246.24562 315.325 246.24562 313.21564Q246.24562 311.09064 245.74562 310.40314Q245.26125 309.7 244.51125 309.7Q243.7925 309.7 243.355 310.3094Q242.80812 311.09064 242.80812 313.21564ZM248.73 313.21564Q248.73 311.6844 249.0425 310.7625Q249.355 309.825 249.96437 309.325Q250.58937 308.825 251.52687 308.825Q252.21437 308.825 252.73 309.10626Q253.26125 309.3875 253.605 309.91876Q253.94875 310.4344 254.13625 311.1844Q254.32375 311.9344 254.32375 313.21564Q254.32375 314.73126 254.01125 315.65314Q253.71437 316.575 253.08937 317.09064Q252.48 317.59064 251.52687 317.59064Q250.2925 317.59064 249.57375 316.7Q248.73 315.6375 248.73 313.21564ZM249.80812 313.21564Q249.80812 315.325 250.30812 316.02814Q250.80812 316.73126 251.52687 316.73126Q252.26125 316.73126 252.74562 316.02814Q253.24562 315.325 253.24562 313.21564Q253.24562 311.09064 252.74562 310.40314Q252.26125 309.7 251.51125 309.7Q250.7925 309.7 250.355 310.3094Q249.80812 311.09064 249.80812 313.21564Z" fill-rule="nonzero"/><path fill="#000000" d="M324.45688 316.4344L324.45688 317.45L318.76938 317.45Q318.76938 317.075 318.89438 316.71564Q319.11313 316.1375 319.58188 315.575Q320.06625 315.0125 320.9725 314.27814Q322.37875 313.1219 322.86313 312.45Q323.36313 311.77814 323.36313 311.1844Q323.36313 310.5594 322.91 310.1375Q322.45688 309.7 321.73813 309.7Q320.9725 309.7 320.51938 310.15314Q320.06625 310.60626 320.05063 311.41876L318.9725 311.3094Q319.08188 310.09064 319.80063 309.46564Q320.535 308.825 321.76938 308.825Q323.00375 308.825 323.7225 309.5125Q324.44125 310.2 324.44125 311.21564Q324.44125 311.73126 324.2225 312.23126Q324.01938 312.71564 323.51938 313.27814Q323.035 313.825 321.91 314.77814Q320.95688 315.575 320.67563 315.8719Q320.41 316.15314 320.23813 316.4344L324.45688 316.4344ZM325.91 313.21564Q325.91 311.6844 326.2225 310.7625Q326.535 309.825 327.14438 309.325Q327.76938 308.825 328.70688 308.825Q329.39438 308.825 329.91 309.10626Q330.44125 309.3875 330.785 309.91876Q331.12875 310.4344 331.31625 311.1844Q331.50375 311.9344 331.50375 313.21564Q331.50375 314.73126 331.19125 315.65314Q330.89438 316.575 330.26938 317.09064Q329.66 317.59064 328.70688 317.59064Q327.4725 317.59064 326.75375 316.7Q325.91 315.6375 325.91 313.21564ZM326.98813 313.21564Q326.98813 315.325 327.48813 316.02814Q327.98813 316.73126 328.70688 316.73126Q329.44125 316.73126 329.92563 316.02814Q330.42563 315.325 330.42563 313.21564Q330.42563 311.09064 329.92563 310.40314Q329.44125 309.7 328.69125 309.7Q327.9725 309.7 327.535 310.3094Q326.98813 311.09064 326.98813 313.21564ZM332.91 313.21564Q332.91 311.6844 333.2225 310.7625Q333.535 309.825 334.14438 309.325Q334.76938 308.825 335.70688 308.825Q336.39438 308.825 336.91 309.10626Q337.44125 309.3875 337.785 309.91876Q338.12875 310.4344 338.31625 311.1844Q338.50375 311.9344 338.50375 313.21564Q338.50375 314.73126 338.19125 315.65314Q337.89438 316.575 337.26938 317.09064Q336.66 317.59064 335.70688 317.59064Q334.4725 317.59064 333.75375 316.7Q332.91 315.6375 332.91 313.21564ZM333.98813 313.21564Q333.98813 315.325 334.48813 316.02814Q334.98813 316.73126 335.70688 316.73126Q336.44125 316.73126 336.92563 316.02814Q337.42563 315.325 337.42563 313.21564Q337.42563 311.09064 336.92563 310.40314Q336.44125 309.7 335.69125 309.7Q334.9725 309.7 334.535 310.3094Q333.98813 311.09064 333.98813 313.21564Z" fill-rule="nonzero"/><path fill="#000000" d="M403.09 315.1844L404.1525 315.04376Q404.32437 315.9344 404.76187 316.34064Q405.19937 316.73126 405.82437 316.73126Q406.57437 316.73126 407.09 316.21564Q407.60562 315.7 407.60562 314.9344Q407.60562 314.21564 407.12125 313.7469Q406.6525 313.2625 405.91812 313.2625Q405.62125 313.2625 405.16812 313.3875L405.29312 312.45Q405.4025 312.46564 405.465 312.46564Q406.13687 312.46564 406.66812 312.1219Q407.215 311.7625 407.215 311.02814Q407.215 310.45 406.82437 310.075Q406.43375 309.6844 405.80875 309.6844Q405.19937 309.6844 404.7775 310.075Q404.37125 310.46564 404.26187 311.23126L403.19937 311.04376Q403.38687 309.9969 404.07437 309.41876Q404.76187 308.825 405.7775 308.825Q406.48062 308.825 407.07437 309.1375Q407.66812 309.4344 407.98062 309.95Q408.29312 310.46564 408.29312 311.0594Q408.29312 311.60626 407.99625 312.075Q407.69937 312.52814 407.12125 312.79376Q407.87125 312.96564 408.29312 313.52814Q408.715 314.075 408.715 314.91876Q408.715 316.04376 407.88687 316.825Q407.07437 317.60626 405.82437 317.60626Q404.69937 317.60626 403.94937 316.9344Q403.19937 316.2469 403.09 315.1844ZM410.09 313.21564Q410.09 311.6844 410.4025 310.7625Q410.715 309.825 411.32437 309.325Q411.94937 308.825 412.88687 308.825Q413.57437 308.825 414.09 309.10626Q414.62125 309.3875 414.965 309.91876Q415.30875 310.4344 415.49625 311.1844Q415.68375 311.9344 415.68375 313.21564Q415.68375 314.73126 415.37125 315.65314Q415.07437 316.575 414.44937 317.09064Q413.84 317.59064 412.88687 317.59064Q411.6525 317.59064 410.93375 316.7Q410.09 315.6375 410.09 313.21564ZM411.16812 313.21564Q411.16812 315.325 411.66812 316.02814Q412.16812 316.73126 412.88687 316.73126Q413.62125 316.73126 414.10562 316.02814Q414.60562 315.325 414.60562 313.21564Q414.60562 311.09064 414.10562 310.40314Q413.62125 309.7 412.87125 309.7Q412.1525 309.7 411.715 310.3094Q411.16812 311.09064 411.16812 313.21564ZM417.09 313.21564Q417.09 311.6844 417.4025 310.7625Q417.715 309.825 418.32437 309.325Q418.94937 308.825 419.88687 308.825Q420.57437 308.825 421.09 309.10626Q421.62125 309.3875 421.965 309.91876Q422.30875 310.4344 422.49625 311.1844Q422.68375 311.9344 422.68375 313.21564Q422.68375 314.73126 422.37125 315.65314Q422.07437 316.575 421.44937 317.09064Q420.84 317.59064 419.88687 317.59064Q418.6525 317.59064 417.93375 316.7Q417.09 315.6375 417.09 313.21564ZM418.16812 313.21564Q418.16812 315.325 418.66812 316.02814Q419.16812 316.73126 419.88687 316.73126Q420.62125 316.73126 421.10562 316.02814Q421.60562 315.325 421.60562 313.21564Q421.60562 311.09064 421.10562 310.40314Q420.62125 309.7 419.87125 309.7Q419.1525 309.7 418.715 310.3094Q418.16812 311.09064 418.16812 313.21564Z" fill-rule="nonzero"/><path fill="#000000" d="M490.645 317.45L490.645 315.3875L486.92624 315.3875L486.92624 314.41876L490.8481 308.85626L491.7075 308.85626L491.7075 314.41876L492.86374 314.41876L492.86374 315.3875L491.7075 315.3875L491.7075 317.45L490.645 317.45ZM490.645 314.41876L490.645 310.5594L487.9575 314.41876L490.645 314.41876ZM494.27 313.21564Q494.27 311.6844 494.5825 310.7625Q494.895 309.825 495.50436 309.325Q496.12936 308.825 497.06686 308.825Q497.75436 308.825 498.27 309.10626Q498.80124 309.3875 499.145 309.91876Q499.48874 310.4344 499.67624 311.1844Q499.86374 311.9344 499.86374 313.21564Q499.86374 314.73126 499.55124 315.65314Q499.25436 316.575 498.62936 317.09064Q498.02 317.59064 497.06686 317.59064Q495.8325 317.59064 495.11374 316.7Q494.27 315.6375 494.27 313.21564ZM495.3481 313.21564Q495.3481 315.325 495.8481 316.02814Q496.3481 316.73126 497.06686 316.73126Q497.80124 316.73126 498.2856 316.02814Q498.7856 315.325 498.7856 313.21564Q498.7856 311.09064 498.2856 310.40314Q497.80124 309.7 497.05124 309.7Q496.3325 309.7 495.895 310.3094Q495.3481 311.09064 495.3481 313.21564ZM501.27 313.21564Q501.27 311.6844 501.5825 310.7625Q501.895 309.825 502.50436 309.325Q503.12936 308.825 504.06686 308.825Q504.75436 308.825 505.27 309.10626Q505.80124 309.3875 506.145 309.91876Q506.48874 310.4344 506.67624 311.1844Q506.86374 311.9344 506.86374 313.21564Q506.86374 314.73126 506.55124 315.65314Q506.25436 316.575 505.62936 317.09064Q505.02 317.59064 504.06686 317.59064Q502.8325 317.59064 502.11374 316.7Q501.27 315.6375 501.27 313.21564ZM502.3481 313.21564Q502.3481 315.325 502.8481 316.02814Q503.3481 316.73126 504.06686 316.73126Q504.80124 316.73126 505.2856 316.02814Q505.7856 315.325 505.7856 313.21564Q505.7856 311.09064 505.2856 310.40314Q504.80124 309.7 504.05124 309.7Q503.3325 309.7 502.895 310.3094Q502.3481 311.09064 502.3481 313.21564Z" fill-rule="nonzero"/><path fill="#000000" d="M571.45 315.2L572.5594 315.10626Q572.6844 315.91876 573.1219 316.325Q573.575 316.73126 574.21564 316.73126Q574.96564 316.73126 575.4969 316.15314Q576.02814 315.575 576.02814 314.6375Q576.02814 313.73126 575.5125 313.21564Q575.0125 312.6844 574.1844 312.6844Q573.6844 312.6844 573.2625 312.91876Q572.85626 313.15314 572.6219 313.5125L571.6375 313.3875L572.46564 308.98126L576.7469 308.98126L576.7469 309.98126L573.3094 309.98126L572.85626 312.29376Q573.6219 311.7469 574.46564 311.7469Q575.59064 311.7469 576.35626 312.52814Q577.1375 313.3094 577.1375 314.54376Q577.1375 315.7 576.46564 316.5594Q575.6375 317.59064 574.21564 317.59064Q573.04376 317.59064 572.29376 316.9344Q571.5594 316.27814 571.45 315.2ZM578.45 313.21564Q578.45 311.6844 578.7625 310.7625Q579.075 309.825 579.6844 309.325Q580.3094 308.825 581.2469 308.825Q581.9344 308.825 582.45 309.10626Q582.98126 309.3875 583.325 309.91876Q583.66876 310.4344 583.85626 311.1844Q584.04376 311.9344 584.04376 313.21564Q584.04376 314.73126 583.73126 315.65314Q583.4344 316.575 582.8094 317.09064Q582.2 317.59064 581.2469 317.59064Q580.0125 317.59064 579.29376 316.7Q578.45 315.6375 578.45 313.21564ZM579.52814 313.21564Q579.52814 315.325 580.02814 316.02814Q580.52814 316.73126 581.2469 316.73126Q581.98126 316.73126 582.46564 316.02814Q582.96564 315.325 582.96564 313.21564Q582.96564 311.09064 582.46564 310.40314Q581.98126 309.7 581.23126 309.7Q580.5125 309.7 580.075 310.3094Q579.52814 311.09064 579.52814 313.21564ZM585.45 313.21564Q585.45 311.6844 585.7625 310.7625Q586.075 309.825 586.6844 309.325Q587.3094 308.825 588.2469 308.825Q588.9344 308.825 589.45 309.10626Q589.98126 309.3875 590.325 309.91876Q590.66876 310.4344 590.85626 311.1844Q591.04376 311.9344 591.04376 313.21564Q591.04376 314.73126 590.73126 315.65314Q590.4344 316.575 589.8094 317.09064Q589.2 317.59064 588.2469 317.59064Q587.0125 317.59064 586.29376 316.7Q585.45 315.6375 585.45 313.21564ZM586.52814 313.21564Q586.52814 315.325 587.02814 316.02814Q587.52814 316.73126 588.2469 316.73126Q588.98126 316.73126 589.46564 316.02814Q589.96564 315.325 589.96564 313.21564Q589.96564 311.09064 589.46564 310.40314Q588.98126 309.7 588.23126 309.7Q587.5125 309.7 587.075 310.3094Q586.52814 311.09064 586.52814 313.21564Z" fill-rule="nonzero"/><path fill="#757575" d="M23.7375 37.55L23.7375 24.925L19.01875 24.925L19.01875 23.2375L30.3625 23.2375L30.3625 24.925L25.628124 24.925L25.628124 37.55L23.7375 37.55ZM31.878124 25.253124L31.878124 23.2375L33.64375 23.2375L33.64375 25.253124L31.878124 25.253124ZM31.878124 37.55L31.878124 27.175L33.64375 27.175L33.64375 37.55L31.878124 37.55ZM35.8625 37.55L35.8625 27.175L37.440624 27.175L37.440624 28.628124Q37.925 27.878124 38.7375 27.409374Q39.55 26.940624 40.58125 26.940624Q41.7375 26.940624 42.471874 27.425Q43.20625 27.89375 43.51875 28.753124Q44.753124 26.940624 46.721874 26.940624Q48.26875 26.940624 49.096874 27.8Q49.925 28.659374 49.925 30.425L49.925 37.55L48.175 37.55L48.175 31.01875Q48.175 29.95625 48.003124 29.503124Q47.83125 29.034374 47.378124 28.753124Q46.940624 28.471874 46.33125 28.471874Q45.2375 28.471874 44.503124 29.20625Q43.784374 29.925 43.784374 31.51875L43.784374 37.55L42.034374 37.55L42.034374 30.815624Q42.034374 29.64375 41.596874 29.065624Q41.175 28.471874 40.190624 28.471874Q39.45625 28.471874 38.815624 28.8625Q38.190624 29.253124 37.909374 30.003124Q37.628124 30.753124 37.628124 32.175L37.628124 37.55L35.8625 37.55ZM59.971874 34.20625L61.784374 34.440624Q61.3625 36.01875 60.190624 36.909374Q59.034374 37.784374 57.221874 37.784374Q54.95625 37.784374 53.6125 36.39375Q52.284374 34.9875 52.284374 32.45625Q52.284374 29.83125 53.628124 28.39375Q54.971874 26.940624 57.128124 26.940624Q59.20625 26.940624 60.51875 28.3625Q61.846874 29.76875 61.846874 32.346874Q61.846874 32.503124 61.83125 32.815624L54.096874 32.815624Q54.190624 34.51875 55.065624 35.425Q55.940624 36.33125 57.2375 36.33125Q58.20625 36.33125 58.878124 35.83125Q59.565624 35.315624 59.971874 34.20625ZM54.190624 31.3625L59.9875 31.3625Q59.878124 30.065624 59.33125 29.409374Q58.4875 28.39375 57.14375 28.39375Q55.940624 28.39375 55.1125 29.20625Q54.284374 30.003124 54.190624 31.3625ZM70.28438 37.55L70.28438 28.55L68.7375 28.55L68.7375 27.175L70.28438 27.175L70.28438 26.08125Q70.28438 25.034374 70.47188 24.51875Q70.72188 23.83125 71.3625 23.409374Q72.00313 22.9875 73.15938 22.9875Q73.90938 22.9875 74.8 23.159374L74.53438 24.690624Q73.9875 24.596874 73.50313 24.596874Q72.70625 24.596874 72.3625 24.940624Q72.03438 25.284374 72.03438 26.221874L72.03438 27.175L74.06563 27.175L74.06563 28.55L72.03438 28.55L72.03438 37.55L70.28438 37.55ZM75.22188 32.3625Q75.22188 29.4875 76.81563 28.096874Q78.15938 26.940624 80.08125 26.940624Q82.22188 26.940624 83.56563 28.346874Q84.925 29.753124 84.925 32.221874Q84.925 34.221874 84.33125 35.378124Q83.7375 36.51875 82.58125 37.159374Q81.44063 37.784374 80.08125 37.784374Q77.89375 37.784374 76.55 36.39375Q75.22188 34.9875 75.22188 32.3625ZM77.01875 32.3625Q77.01875 34.3625 77.87813 35.346874Q78.75313 36.33125 80.08125 36.33125Q81.39375 36.33125 82.25313 35.346874Q83.12813 34.346874 83.12813 32.3Q83.12813 30.378124 82.25313 29.39375Q81.37813 28.39375 80.08125 28.39375Q78.75313 28.39375 77.87813 29.39375Q77.01875 30.378124 77.01875 32.3625ZM86.84688 37.55L86.84688 27.175L88.425 27.175L88.425 28.753124Q89.03438 27.64375 89.55 27.3Q90.06563 26.940624 90.675 26.940624Q91.56563 26.940624 92.4875 27.503124L91.87813 29.14375Q91.2375 28.753124 90.59688 28.753124Q90.01875 28.753124 89.55 29.1125Q89.09688 29.45625 88.89375 30.065624Q88.6125 31.003124 88.6125 32.1125L88.6125 37.55L86.84688 37.55ZM106.00313 37.55L104.2375 37.55L104.2375 26.346874Q103.6125 26.95625 102.58125 27.565624Q101.55 28.159374 100.72188 28.471874L100.72188 26.76875Q102.20625 26.08125 103.3 25.096874Q104.40938 24.096874 104.8625 23.175L106.00313 23.175L106.00313 37.55ZM111.3625 37.55L111.3625 35.55L113.3625 35.55L113.3625 37.55L111.3625 37.55ZM123.00313 37.55L121.2375 37.55L121.2375 26.346874Q120.6125 26.95625 119.58125 27.565624Q118.55 28.159374 117.72188 28.471874L117.72188 26.76875Q119.20625 26.08125 120.3 25.096874Q121.40938 24.096874 121.8625 23.175L123.00313 23.175L123.00313 37.55ZM140.8 31.940624L140.8 30.253124L146.8625 30.2375L146.8625 35.55Q145.45625 36.675 143.97188 37.2375Q142.4875 37.8 140.925 37.8Q138.81563 37.8 137.09688 36.89375Q135.37813 35.9875 134.4875 34.284374Q133.6125 32.565624 133.6125 30.45625Q133.6125 28.3625 134.4875 26.565624Q135.3625 24.753124 137.00313 23.878124Q138.64375 22.9875 140.78438 22.9875Q142.33125 22.9875 143.58125 23.4875Q144.84688 23.9875 145.55 24.89375Q146.26875 25.784374 146.64375 27.2375L144.94063 27.70625Q144.6125 26.6125 144.12813 25.9875Q143.65938 25.3625 142.76875 24.9875Q141.87813 24.6125 140.8 24.6125Q139.4875 24.6125 138.53438 25.003124Q137.59688 25.39375 137.01875 26.05Q136.44063 26.690624 136.1125 27.45625Q135.56563 28.784374 135.56563 30.346874Q135.56563 32.253124 136.22188 33.55Q136.89375 34.83125 138.14375 35.45625Q139.40938 36.08125 140.81563 36.08125Q142.05 36.08125 143.22188 35.6125Q144.39375 35.14375 145.00313 34.596874L145.00313 31.940624L140.8 31.940624ZM150.01875 37.55L150.01875 23.2375L155.39375 23.2375Q157.03438 23.2375 158.01875 23.675Q159.00313 24.096874 159.56563 25.003124Q160.12813 25.909374 160.12813 26.89375Q160.12813 27.815624 159.62813 28.628124Q159.14375 29.440624 158.12813 29.925Q159.425 30.315624 160.12813 31.2375Q160.83125 32.14375 160.83125 33.39375Q160.83125 34.409374 160.39375 35.26875Q159.97188 36.128124 159.34688 36.596874Q158.72188 37.065624 157.78438 37.315624Q156.84688 37.55 155.47188 37.55L150.01875 37.55ZM151.90938 29.253124L155.00313 29.253124Q156.26875 29.253124 156.81563 29.08125Q157.53438 28.8625 157.89375 28.378124Q158.26875 27.878124 158.26875 27.1125Q158.26875 26.409374 157.925 25.8625Q157.58125 25.315624 156.94063 25.128124Q156.31563 24.925 154.76875 24.925L151.90938 24.925L151.90938 29.253124ZM151.90938 35.8625L155.47188 35.8625Q156.39375 35.8625 156.76875 35.784374Q157.425 35.675 157.8625 35.409374Q158.3 35.128124 158.58125 34.6125Q158.8625 34.08125 158.8625 33.39375Q158.8625 32.596874 158.45625 32.003124Q158.05 31.409374 157.31563 31.175Q156.58125 30.940624 155.22188 30.940624L151.90938 30.940624L151.90938 35.8625ZM169.12813 37.55L169.12813 23.2375L175.47188 23.2375Q177.37813 23.2375 178.37813 23.628124Q179.37813 24.003124 179.97188 24.9875Q180.56563 25.95625 180.56563 27.14375Q180.56563 28.659374 179.58125 29.70625Q178.59688 30.753124 176.53438 31.034374Q177.28438 31.39375 177.675 31.753124Q178.50313 32.503124 179.25313 33.659374L181.7375 37.55L179.3625 37.55L177.45625 34.565624Q176.62813 33.284374 176.09688 32.596874Q175.56563 31.909374 175.12813 31.64375Q174.70625 31.3625 174.26875 31.253124Q173.94063 31.190624 173.22188 31.190624L171.01875 31.190624L171.01875 37.55L169.12813 37.55ZM171.01875 29.55L175.09688 29.55Q176.39375 29.55 177.1125 29.284374Q177.84688 29.01875 178.22188 28.425Q178.6125 27.83125 178.6125 27.14375Q178.6125 26.128124 177.87813 25.471874Q177.14375 24.815624 175.55 24.815624L171.01875 24.815624L171.01875 29.55ZM189.97188 34.20625L191.78438 34.440624Q191.3625 36.01875 190.19063 36.909374Q189.03438 37.784374 187.22188 37.784374Q184.95625 37.784374 183.6125 36.39375Q182.28438 34.9875 182.28438 32.45625Q182.28438 29.83125 183.62813 28.39375Q184.97188 26.940624 187.12813 26.940624Q189.20625 26.940624 190.51875 28.3625Q191.84688 29.76875 191.84688 32.346874Q191.84688 32.503124 191.83125 32.815624L184.09688 32.815624Q184.19063 34.51875 185.06563 35.425Q185.94063 36.33125 187.2375 36.33125Q188.20625 36.33125 188.87813 35.83125Q189.56563 35.315624 189.97188 34.20625ZM184.19063 31.3625L189.9875 31.3625Q189.87813 30.065624 189.33125 29.409374Q188.4875 28.39375 187.14375 28.39375Q185.94063 28.39375 185.1125 29.20625Q184.28438 30.003124 184.19063 31.3625ZM193.8625 37.55L193.8625 27.175L195.44063 27.175L195.44063 28.628124Q195.925 27.878124 196.7375 27.409374Q197.55 26.940624 198.58125 26.940624Q199.7375 26.940624 200.47188 27.425Q201.20625 27.89375 201.51875 28.753124Q202.75313 26.940624 204.72188 26.940624Q206.26875 26.940624 207.09688 27.8Q207.925 28.659374 207.925 30.425L207.925 37.55L206.175 37.55L206.175 31.01875Q206.175 29.95625 206.00313 29.503124Q205.83125 29.034374 205.37813 28.753124Q204.94063 28.471874 204.33125 28.471874Q203.2375 28.471874 202.50313 29.20625Q201.78438 29.925 201.78438 31.51875L201.78438 37.55L200.03438 37.55L200.03438 30.815624Q200.03438 29.64375 199.59688 29.065624Q199.175 28.471874 198.19063 28.471874Q197.45625 28.471874 196.81563 28.8625Q196.19063 29.253124 195.90938 30.003124Q195.62813 30.753124 195.62813 32.175L195.62813 37.55L193.8625 37.55ZM210.22188 32.3625Q210.22188 29.4875 211.81563 28.096874Q213.15938 26.940624 215.08125 26.940624Q217.22188 26.940624 218.56563 28.346874Q219.925 29.753124 219.925 32.221874Q219.925 34.221874 219.33125 35.378124Q218.7375 36.51875 217.58125 37.159374Q216.44063 37.784374 215.08125 37.784374Q212.89375 37.784374 211.55 36.39375Q210.22188 34.9875 210.22188 32.3625ZM212.01875 32.3625Q212.01875 34.3625 212.87813 35.346874Q213.75313 36.33125 215.08125 36.33125Q216.39375 36.33125 217.25313 35.346874Q218.12813 34.346874 218.12813 32.3Q218.12813 30.378124 217.25313 29.39375Q216.37813 28.39375 215.08125 28.39375Q213.75313 28.39375 212.87813 29.39375Q212.01875 30.378124 212.01875 32.3625ZM225.70625 35.971874L225.95625 37.534374Q225.22188 37.690624 224.62813 37.690624Q223.675 37.690624 223.14375 37.39375Q222.62813 37.08125 222.40938 36.596874Q222.19063 36.096874 222.19063 34.51875L222.19063 28.55L220.90938 28.55L220.90938 27.175L222.19063 27.175L222.19063 24.6125L223.94063 23.55L223.94063 27.175L225.70625 27.175L225.70625 28.55L223.94063 28.55L223.94063 34.6125Q223.94063 35.3625 224.03438 35.58125Q224.12813 35.784374 224.33125 35.925Q224.55 36.05 224.94063 36.05Q225.22188 36.05 225.70625 35.971874ZM234.97188 34.20625L236.78438 34.440624Q236.3625 36.01875 235.19063 36.909374Q234.03438 37.784374 232.22188 37.784374Q229.95625 37.784374 228.6125 36.39375Q227.28438 34.9875 227.28438 32.45625Q227.28438 29.83125 228.62813 28.39375Q229.97188 26.940624 232.12813 26.940624Q234.20625 26.940624 235.51875 28.3625Q236.84688 29.76875 236.84688 32.346874Q236.84688 32.503124 236.83125 32.815624L229.09688 32.815624Q229.19063 34.51875 230.06563 35.425Q230.94063 36.33125 232.2375 36.33125Q233.20625 36.33125 233.87813 35.83125Q234.56563 35.315624 234.97188 34.20625ZM229.19063 31.3625L234.9875 31.3625Q234.87813 30.065624 234.33125 29.409374Q233.4875 28.39375 232.14375 28.39375Q230.94063 28.39375 230.1125 29.20625Q229.28438 30.003124 229.19063 31.3625ZM244.45625 32.95625L246.2375 32.8Q246.3625 33.8625 246.81563 34.55Q247.28438 35.2375 248.25313 35.675Q249.2375 36.096874 250.47188 36.096874Q251.55 36.096874 252.37813 35.784374Q253.20625 35.45625 253.6125 34.89375Q254.01875 34.33125 254.01875 33.659374Q254.01875 32.9875 253.62813 32.4875Q253.2375 31.9875 252.34688 31.64375Q251.76875 31.409374 249.78438 30.940624Q247.81563 30.471874 247.03438 30.05Q246.00313 29.51875 245.50313 28.721874Q245.00313 27.925 245.00313 26.940624Q245.00313 25.846874 245.6125 24.909374Q246.22188 23.971874 247.40938 23.4875Q248.59688 22.9875 250.03438 22.9875Q251.62813 22.9875 252.84688 23.503124Q254.06563 24.01875 254.70625 25.01875Q255.3625 26.003124 255.40938 27.26875L253.59688 27.409374Q253.45625 26.05 252.6125 25.3625Q251.76875 24.659374 250.1125 24.659374Q248.39375 24.659374 247.59688 25.3Q246.81563 25.925 246.81563 26.8Q246.81563 27.58125 247.37813 28.08125Q247.925 28.58125 250.2375 29.096874Q252.55 29.6125 253.40938 30.003124Q254.65938 30.58125 255.25313 31.471874Q255.84688 32.346874 255.84688 33.503124Q255.84688 34.64375 255.19063 35.659374Q254.53438 36.675 253.3 37.2375Q252.08125 37.8 250.55 37.8Q248.6125 37.8 247.3 37.2375Q245.9875 36.659374 245.2375 35.51875Q244.4875 34.378124 244.45625 32.95625ZM257.8625 37.55L257.8625 27.175L259.45624 27.175L259.45624 28.659374Q260.59686 26.940624 262.7531 26.940624Q263.6906 26.940624 264.47186 27.284374Q265.26874 27.6125 265.65936 28.159374Q266.05 28.70625 266.20624 29.45625Q266.3 29.95625 266.3 31.175L266.3 37.55L264.53436 37.55L264.53436 31.2375Q264.53436 30.159374 264.33124 29.628124Q264.1281 29.096874 263.59686 28.784374Q263.08124 28.471874 262.3781 28.471874Q261.2531 28.471874 260.4406 29.190624Q259.6281 29.89375 259.6281 31.878124L259.6281 37.55L257.8625 37.55ZM275.64374 36.26875Q274.65936 37.096874 273.7531 37.440624Q272.84686 37.784374 271.8156 37.784374Q270.1125 37.784374 269.1906 36.95625Q268.26874 36.1125 268.26874 34.815624Q268.26874 34.05 268.6125 33.425Q268.97186 32.8 269.53436 32.425Q270.09686 32.034374 270.8 31.83125Q271.3156 31.70625 272.3625 31.565624Q274.4875 31.315624 275.4875 30.971874Q275.5031 30.6125 275.5031 30.503124Q275.5031 29.440624 275.0031 28.9875Q274.33124 28.39375 273.0031 28.39375Q271.7531 28.39375 271.15936 28.83125Q270.58124 29.26875 270.3 30.378124L268.58124 30.14375Q268.8156 29.034374 269.34686 28.3625Q269.8781 27.675 270.89374 27.315624Q271.90936 26.940624 273.2531 26.940624Q274.58124 26.940624 275.40936 27.253124Q276.2375 27.565624 276.6281 28.05Q277.01874 28.51875 277.175 29.2375Q277.26874 29.690624 277.26874 30.8625L277.26874 33.20625Q277.26874 35.659374 277.3781 36.315624Q277.4875 36.95625 277.83124 37.55L275.9875 37.55Q275.72186 37.003124 275.64374 36.26875ZM275.4875 32.346874Q274.53436 32.7375 272.6125 33.003124Q271.53436 33.159374 271.08124 33.3625Q270.64374 33.55 270.39374 33.925Q270.14374 34.3 270.14374 34.76875Q270.14374 35.471874 270.675 35.940624Q271.20624 36.409374 272.2375 36.409374Q273.2531 36.409374 274.03436 35.971874Q274.83124 35.51875 275.20624 34.753124Q275.4875 34.14375 275.4875 32.9875L275.4875 32.346874ZM279.8625 41.51875L279.8625 27.175L281.47186 27.175L281.47186 28.51875Q282.03436 27.7375 282.7375 27.346874Q283.45624 26.940624 284.47186 26.940624Q285.8 26.940624 286.8156 27.628124Q287.83124 28.315624 288.34686 29.565624Q288.8781 30.8 288.8781 32.284374Q288.8781 33.878124 288.3 35.159374Q287.7375 36.425 286.64374 37.1125Q285.55 37.784374 284.34686 37.784374Q283.47186 37.784374 282.76874 37.409374Q282.08124 37.034374 281.6281 36.471874L281.6281 41.51875L279.8625 41.51875ZM281.45624 32.425Q281.45624 34.425 282.26874 35.378124Q283.08124 36.33125 284.2375 36.33125Q285.40936 36.33125 286.2375 35.346874Q287.08124 34.3625 287.08124 32.26875Q287.08124 30.3 286.2531 29.315624Q285.4406 28.315624 284.3156 28.315624Q283.1906 28.315624 282.3156 29.378124Q281.45624 30.425 281.45624 32.425ZM290.15936 34.45625L291.90936 34.175Q292.05 35.221874 292.72186 35.784374Q293.39374 36.33125 294.59686 36.33125Q295.8 36.33125 296.3781 35.846874Q296.97186 35.346874 296.97186 34.690624Q296.97186 34.096874 296.45624 33.753124Q296.09686 33.51875 294.65936 33.159374Q292.72186 32.659374 291.97186 32.315624Q291.2375 31.95625 290.84686 31.33125Q290.45624 30.690624 290.45624 29.925Q290.45624 29.2375 290.76874 28.64375Q291.09686 28.05 291.64374 27.659374Q292.05 27.3625 292.7531 27.159374Q293.47186 26.940624 294.28436 26.940624Q295.5031 26.940624 296.425 27.3Q297.34686 27.64375 297.78436 28.253124Q298.22186 28.846874 298.39374 29.846874L296.675 30.08125Q296.55 29.284374 295.9875 28.846874Q295.425 28.39375 294.40936 28.39375Q293.1906 28.39375 292.675 28.8Q292.15936 29.190624 292.15936 29.721874Q292.15936 30.065624 292.3781 30.346874Q292.58124 30.628124 293.05 30.815624Q293.3156 30.909374 294.59686 31.253124Q296.47186 31.753124 297.20624 32.08125Q297.9406 32.39375 298.3625 33.003124Q298.78436 33.596874 298.78436 34.503124Q298.78436 35.378124 298.26874 36.159374Q297.7531 36.940624 296.78436 37.3625Q295.8156 37.784374 294.59686 37.784374Q292.58124 37.784374 291.51874 36.940624Q290.45624 36.096874 290.15936 34.45625ZM300.8625 37.55L300.8625 23.2375L302.6281 23.2375L302.6281 28.3625Q303.8625 26.940624 305.7375 26.940624Q306.8781 26.940624 307.72186 27.39375Q308.58124 27.846874 308.9406 28.659374Q309.3156 29.45625 309.3156 30.971874L309.3156 37.55L307.5656 37.55L307.5656 30.971874Q307.5656 29.659374 306.9875 29.065624Q306.40936 28.45625 305.3781 28.45625Q304.59686 28.45625 303.89374 28.8625Q303.20624 29.26875 302.90936 29.971874Q302.6281 30.659374 302.6281 31.878124L302.6281 37.55L300.8625 37.55ZM311.22186 32.3625Q311.22186 29.4875 312.8156 28.096874Q314.15936 26.940624 316.08124 26.940624Q318.22186 26.940624 319.5656 28.346874Q320.925 29.753124 320.925 32.221874Q320.925 34.221874 320.33124 35.378124Q319.7375 36.51875 318.58124 37.159374Q317.4406 37.784374 316.08124 37.784374Q313.89374 37.784374 312.55 36.39375Q311.22186 34.9875 311.22186 32.3625ZM313.01874 32.3625Q313.01874 34.3625 313.8781 35.346874Q314.7531 36.33125 316.08124 36.33125Q317.39374 36.33125 318.2531 35.346874Q319.1281 34.346874 319.1281 32.3Q319.1281 30.378124 318.2531 29.39375Q317.3781 28.39375 316.08124 28.39375Q314.7531 28.39375 313.8781 29.39375Q313.01874 30.378124 313.01874 32.3625ZM326.70624 35.971874L326.95624 37.534374Q326.22186 37.690624 325.6281 37.690624Q324.675 37.690624 324.14374 37.39375Q323.6281 37.08125 323.40936 36.596874Q323.1906 36.096874 323.1906 34.51875L323.1906 28.55L321.90936 28.55L321.90936 27.175L323.1906 27.175L323.1906 24.6125L324.9406 23.55L324.9406 27.175L326.70624 27.175L326.70624 28.55L324.9406 28.55L324.9406 34.6125Q324.9406 35.3625 325.03436 35.58125Q325.1281 35.784374 325.33124 35.925Q325.55 36.05 325.9406 36.05Q326.22186 36.05 326.70624 35.971874ZM338.22186 41.753124Q336.76874 39.925 335.76874 37.471874Q334.76874 35.003124 334.76874 32.3625Q334.76874 30.034374 335.51874 27.909374Q336.39374 25.440624 338.22186 22.9875L339.4875 22.9875Q338.3 25.01875 337.925 25.89375Q337.33124 27.2375 336.9875 28.70625Q336.5656 30.534374 336.5656 32.378124Q336.5656 37.065624 339.4875 41.753124L338.22186 41.753124ZM341.45624 32.95625L343.2375 32.8Q343.3625 33.8625 343.8156 34.55Q344.28436 35.2375 345.2531 35.675Q346.2375 36.096874 347.47186 36.096874Q348.55 36.096874 349.3781 35.784374Q350.20624 35.45625 350.6125 34.89375Q351.01874 34.33125 351.01874 33.659374Q351.01874 32.9875 350.6281 32.4875Q350.2375 31.9875 349.34686 31.64375Q348.76874 31.409374 346.78436 30.940624Q344.8156 30.471874 344.03436 30.05Q343.0031 29.51875 342.5031 28.721874Q342.0031 27.925 342.0031 26.940624Q342.0031 25.846874 342.6125 24.909374Q343.22186 23.971874 344.40936 23.4875Q345.59686 22.9875 347.03436 22.9875Q348.6281 22.9875 349.84686 23.503124Q351.0656 24.01875 351.70624 25.01875Q352.3625 26.003124 352.40936 27.26875L350.59686 27.409374Q350.45624 26.05 349.6125 25.3625Q348.76874 24.659374 347.1125 24.659374Q345.39374 24.659374 344.59686 25.3Q343.8156 25.925 343.8156 26.8Q343.8156 27.58125 344.3781 28.08125Q344.925 28.58125 347.2375 29.096874Q349.55 29.6125 350.40936 30.003124Q351.65936 30.58125 352.2531 31.471874Q352.84686 32.346874 352.84686 33.503124Q352.84686 34.64375 352.1906 35.659374Q351.53436 36.675 350.3 37.2375Q349.08124 37.8 347.55 37.8Q345.6125 37.8 344.3 37.2375Q342.9875 36.659374 342.2375 35.51875Q341.4875 34.378124 341.45624 32.95625ZM354.8625 37.55L354.8625 27.175L356.4406 27.175L356.4406 28.628124Q356.925 27.878124 357.7375 27.409374Q358.55 26.940624 359.58124 26.940624Q360.7375 26.940624 361.47186 27.425Q362.20624 27.89375 362.51874 28.753124Q363.7531 26.940624 365.72186 26.940624Q367.26874 26.940624 368.09686 27.8Q368.925 28.659374 368.925 30.425L368.925 37.55L367.175 37.55L367.175 31.01875Q367.175 29.95625 367.0031 29.503124Q366.83124 29.034374 366.3781 28.753124Q365.9406 28.471874 365.33124 28.471874Q364.2375 28.471874 363.5031 29.20625Q362.78436 29.925 362.78436 31.51875L362.78436 37.55L361.03436 37.55L361.03436 30.815624Q361.03436 29.64375 360.59686 29.065624Q360.175 28.471874 359.1906 28.471874Q358.45624 28.471874 357.8156 28.8625Q357.1906 29.253124 356.90936 30.003124Q356.6281 30.753124 356.6281 32.175L356.6281 37.55L354.8625 37.55ZM378.64374 36.26875Q377.65936 37.096874 376.7531 37.440624Q375.84686 37.784374 374.8156 37.784374Q373.1125 37.784374 372.1906 36.95625Q371.26874 36.1125 371.26874 34.815624Q371.26874 34.05 371.6125 33.425Q371.97186 32.8 372.53436 32.425Q373.09686 32.034374 373.8 31.83125Q374.3156 31.70625 375.3625 31.565624Q377.4875 31.315624 378.4875 30.971874Q378.5031 30.6125 378.5031 30.503124Q378.5031 29.440624 378.0031 28.9875Q377.33124 28.39375 376.0031 28.39375Q374.7531 28.39375 374.15936 28.83125Q373.58124 29.26875 373.3 30.378124L371.58124 30.14375Q371.8156 29.034374 372.34686 28.3625Q372.8781 27.675 373.89374 27.315624Q374.90936 26.940624 376.2531 26.940624Q377.58124 26.940624 378.40936 27.253124Q379.2375 27.565624 379.6281 28.05Q380.01874 28.51875 380.175 29.2375Q380.26874 29.690624 380.26874 30.8625L380.26874 33.20625Q380.26874 35.659374 380.3781 36.315624Q380.4875 36.95625 380.83124 37.55L378.9875 37.55Q378.72186 37.003124 378.64374 36.26875ZM378.4875 32.346874Q377.53436 32.7375 375.6125 33.003124Q374.53436 33.159374 374.08124 33.3625Q373.64374 33.55 373.39374 33.925Q373.14374 34.3 373.14374 34.76875Q373.14374 35.471874 373.675 35.940624Q374.20624 36.409374 375.2375 36.409374Q376.2531 36.409374 377.03436 35.971874Q377.83124 35.51875 378.20624 34.753124Q378.4875 34.14375 378.4875 32.9875L378.4875 32.346874ZM382.83124 37.55L382.83124 23.2375L384.58124 23.2375L384.58124 37.55L382.83124 37.55ZM386.83124 37.55L386.83124 23.2375L388.58124 23.2375L388.58124 37.55L386.83124 37.55ZM397.97186 34.20625L399.78436 34.440624Q399.3625 36.01875 398.1906 36.909374Q397.03436 37.784374 395.22186 37.784374Q392.95624 37.784374 391.6125 36.39375Q390.28436 34.9875 390.28436 32.45625Q390.28436 29.83125 391.6281 28.39375Q392.97186 26.940624 395.1281 26.940624Q397.20624 26.940624 398.51874 28.3625Q399.84686 29.76875 399.84686 32.346874Q399.84686 32.503124 399.83124 32.815624L392.09686 32.815624Q392.1906 34.51875 393.0656 35.425Q393.9406 36.33125 395.2375 36.33125Q396.20624 36.33125 396.8781 35.83125Q397.5656 35.315624 397.97186 34.20625ZM392.1906 31.3625L397.9875 31.3625Q397.8781 30.065624 397.33124 29.409374Q396.4875 28.39375 395.14374 28.39375Q393.9406 28.39375 393.1125 29.20625Q392.28436 30.003124 392.1906 31.3625ZM401.84686 37.55L401.84686 27.175L403.425 27.175L403.425 28.753124Q404.03436 27.64375 404.55 27.3Q405.0656 26.940624 405.675 26.940624Q406.5656 26.940624 407.4875 27.503124L406.8781 29.14375Q406.2375 28.753124 405.59686 28.753124Q405.01874 28.753124 404.55 29.1125Q404.09686 29.45625 403.89374 30.065624Q403.6125 31.003124 403.6125 32.1125L403.6125 37.55L401.84686 37.55ZM414.8781 25.253124L414.8781 23.2375L416.64374 23.2375L416.64374 25.253124L414.8781 25.253124ZM414.8781 37.55L414.8781 27.175L416.64374 27.175L416.64374 37.55L414.8781 37.55ZM418.15936 34.45625L419.90936 34.175Q420.05 35.221874 420.72186 35.784374Q421.39374 36.33125 422.59686 36.33125Q423.8 36.33125 424.3781 35.846874Q424.97186 35.346874 424.97186 34.690624Q424.97186 34.096874 424.45624 33.753124Q424.09686 33.51875 422.65936 33.159374Q420.72186 32.659374 419.97186 32.315624Q419.2375 31.95625 418.84686 31.33125Q418.45624 30.690624 418.45624 29.925Q418.45624 29.2375 418.76874 28.64375Q419.09686 28.05 419.64374 27.659374Q420.05 27.3625 420.7531 27.159374Q421.47186 26.940624 422.28436 26.940624Q423.5031 26.940624 424.425 27.3Q425.34686 27.64375 425.78436 28.253124Q426.22186 28.846874 426.39374 29.846874L424.675 30.08125Q424.55 29.284374 423.9875 28.846874Q423.425 28.39375 422.40936 28.39375Q421.1906 28.39375 420.675 28.8Q420.15936 29.190624 420.15936 29.721874Q420.15936 30.065624 420.3781 30.346874Q420.58124 30.628124 421.05 30.815624Q421.3156 30.909374 422.59686 31.253124Q424.47186 31.753124 425.20624 32.08125Q425.9406 32.39375 426.3625 33.003124Q426.78436 33.596874 426.78436 34.503124Q426.78436 35.378124 426.26874 36.159374Q425.7531 36.940624 424.78436 37.3625Q423.8156 37.784374 422.59686 37.784374Q420.58124 37.784374 419.51874 36.940624Q418.45624 36.096874 418.15936 34.45625ZM436.4875 37.55L434.8625 37.55L434.8625 23.2375L436.6125 23.2375L436.6125 28.346874Q437.7375 26.940624 439.45624 26.940624Q440.40936 26.940624 441.26874 27.33125Q442.1281 27.721874 442.675 28.425Q443.22186 29.1125 443.53436 30.096874Q443.84686 31.08125 443.84686 32.20625Q443.84686 34.878124 442.53436 36.33125Q441.22186 37.784374 439.3781 37.784374Q437.53436 37.784374 436.4875 36.253124L436.4875 37.55ZM436.47186 32.284374Q436.47186 34.14375 436.97186 34.9875Q437.8156 36.33125 439.22186 36.33125Q440.3781 36.33125 441.20624 35.33125Q442.05 34.33125 442.05 32.346874Q442.05 30.315624 441.2375 29.3625Q440.4406 28.39375 439.3 28.39375Q438.14374 28.39375 437.3 29.39375Q436.47186 30.39375 436.47186 32.284374ZM452.97186 34.20625L454.78436 34.440624Q454.3625 36.01875 453.1906 36.909374Q452.03436 37.784374 450.22186 37.784374Q447.95624 37.784374 446.6125 36.39375Q445.28436 34.9875 445.28436 32.45625Q445.28436 29.83125 446.6281 28.39375Q447.97186 26.940624 450.1281 26.940624Q452.20624 26.940624 453.51874 28.3625Q454.84686 29.76875 454.84686 32.346874Q454.84686 32.503124 454.83124 32.815624L447.09686 32.815624Q447.1906 34.51875 448.0656 35.425Q448.9406 36.33125 450.2375 36.33125Q451.20624 36.33125 451.8781 35.83125Q452.5656 35.315624 452.97186 34.20625ZM447.1906 31.3625L452.9875 31.3625Q452.8781 30.065624 452.33124 29.409374Q451.4875 28.39375 450.14374 28.39375Q448.9406 28.39375 448.1125 29.20625Q447.28436 30.003124 447.1906 31.3625ZM460.70624 35.971874L460.95624 37.534374Q460.22186 37.690624 459.6281 37.690624Q458.675 37.690624 458.14374 37.39375Q457.6281 37.08125 457.40936 36.596874Q457.1906 36.096874 457.1906 34.51875L457.1906 28.55L455.90936 28.55L455.90936 27.175L457.1906 27.175L457.1906 24.6125L458.9406 23.55L458.9406 27.175L460.70624 27.175L460.70624 28.55L458.9406 28.55L458.9406 34.6125Q458.9406 35.3625 459.03436 35.58125Q459.1281 35.784374 459.33124 35.925Q459.55 36.05 459.9406 36.05Q460.22186 36.05 460.70624 35.971874ZM466.70624 35.971874L466.95624 37.534374Q466.22186 37.690624 465.6281 37.690624Q464.675 37.690624 464.14374 37.39375Q463.6281 37.08125 463.40936 36.596874Q463.1906 36.096874 463.1906 34.51875L463.1906 28.55L461.90936 28.55L461.90936 27.175L463.1906 27.175L463.1906 24.6125L464.9406 23.55L464.9406 27.175L466.70624 27.175L466.70624 28.55L464.9406 28.55L464.9406 34.6125Q464.9406 35.3625 465.03436 35.58125Q465.1281 35.784374 465.33124 35.925Q465.55 36.05 465.9406 36.05Q466.22186 36.05 466.70624 35.971874ZM475.97186 34.20625L477.78436 34.440624Q477.3625 36.01875 476.1906 36.909374Q475.03436 37.784374 473.22186 37.784374Q470.95624 37.784374 469.6125 36.39375Q468.28436 34.9875 468.28436 32.45625Q468.28436 29.83125 469.6281 28.39375Q470.97186 26.940624 473.1281 26.940624Q475.20624 26.940624 476.51874 28.3625Q477.84686 29.76875 477.84686 32.346874Q477.84686 32.503124 477.83124 32.815624L470.09686 32.815624Q470.1906 34.51875 471.0656 35.425Q471.9406 36.33125 473.2375 36.33125Q474.20624 36.33125 474.8781 35.83125Q475.5656 35.315624 475.97186 34.20625ZM470.1906 31.3625L475.9875 31.3625Q475.8781 30.065624 475.33124 29.409374Q474.4875 28.39375 473.14374 28.39375Q471.9406 28.39375 471.1125 29.20625Q470.28436 30.003124 470.1906 31.3625ZM479.84686 37.55L479.84686 27.175L481.425 27.175L481.425 28.753124Q482.03436 27.64375 482.55 27.3Q483.0656 26.940624 483.675 26.940624Q484.5656 26.940624 485.4875 27.503124L484.8781 29.14375Q484.2375 28.753124 483.59686 28.753124Q483.01874 28.753124 482.55 29.1125Q482.09686 29.45625 481.89374 30.065624Q481.6125 31.003124 481.6125 32.1125L481.6125 37.55L479.84686 37.55ZM488.01874 41.753124L486.76874 41.753124Q489.675 37.065624 489.675 32.378124Q489.675 30.534374 489.26874 28.7375Q488.925 27.26875 488.33124 25.925Q487.95624 25.034374 486.76874 22.9875L488.01874 22.9875Q489.8625 25.440624 490.7375 27.909374Q491.4875 30.034374 491.4875 32.3625Q491.4875 35.003124 490.47186 37.471874Q489.47186 39.925 488.01874 41.753124Z" fill-rule="nonzero"/></svg>