<svg version="1.1" viewBox="0.0 0.0 661.0 408.0" fill="none" stroke="none" stroke-linecap="square" stroke-miterlimit="10" width="661" height="408" xmlns:xlink="http://www.w3.org/1999/xlink" xmlns="http://www.w3.org/2000/svg"><path fill="#ffffff" d="M0 0L661.0 0L661.0 408.0L0 408.0L0 0Z" fill-rule="nonzero"/><path stroke="#333333" stroke-width="1.0" stroke-linecap="butt" d="M176.5 58.5L176.5 335.5" fill-rule="nonzero"/><path stroke="#cccccc" stroke-width="1.0" stroke-linecap="butt" d="M330.5 58.5L330.5 335.5" fill-rule="nonzero"/><path stroke="#cccccc" stroke-width="1.0" stroke-linecap="butt" d="M485.5 58.5L485.5 335.5" fill-rule="nonzero"/><path stroke="#cccccc" stroke-width="1.0" stroke-linecap="butt" d="M640.5 58.5L640.5 335.5" fill-rule="nonzero"/><clipPath id="id_0"><path d="M176.04 58.0L640.6 58.0L640.6 335.6L176.04 335.6L176.04 58.0Z" clip-rule="nonzero"/></clipPath><path stroke="#000000" stroke-width="2.0" stroke-linecap="butt" stroke-opacity="0.0" clip-path="url(#id_0)" d="M176.0 122.0L176.0 81.0L261.0 81.0C262.10458 81.0 263.0 81.89543 263.0 83.0L263.0 120.0C263.0 121.10457 262.10458 122.0 261.0 122.0Z" fill-rule="nonzero"/><path fill="#4285f4" clip-path="url(#id_0)" d="M176.0 122.0L176.0 81.0L261.0 81.0C262.10458 81.0 263.0 81.89543 263.0 83.0L263.0 120.0C263.0 121.10457 262.10458 122.0 261.0 122.0Z" fill-rule="nonzero"/><path stroke="#000000" stroke-width="2.0" stroke-linecap="butt" stroke-opacity="0.0" clip-path="url(#id_0)" d="M176.0 186.0L176.0 145.0L325.0 145.0C326.10458 145.0 327.0 145.89543 327.0 147.0L327.0 184.0C327.0 185.10457 326.10458 186.0 325.0 186.0Z" fill-rule="nonzero"/><path fill="#4285f4" clip-path="url(#id_0)" d="M176.0 186.0L176.0 145.0L325.0 145.0C326.10458 145.0 327.0 145.89543 327.0 147.0L327.0 184.0C327.0 185.10457 326.10458 186.0 325.0 186.0Z" fill-rule="nonzero"/><path stroke="#000000" stroke-width="2.0" stroke-linecap="butt" stroke-opacity="0.0" clip-path="url(#id_0)" d="M176.0 250.0L176.0 209.0L338.0 209.0C339.10458 209.0 340.0 209.89543 340.0 211.0L340.0 248.0C340.0 249.10457 339.10458 250.0 338.0 250.0Z" fill-rule="nonzero"/><path fill="#4285f4" clip-path="url(#id_0)" d="M176.0 250.0L176.0 209.0L338.0 209.0C339.10458 209.0 340.0 209.89543 340.0 211.0L340.0 248.0C340.0 249.10457 339.10458 250.0 338.0 250.0Z" fill-rule="nonzero"/><path stroke="#000000" stroke-width="2.0" stroke-linecap="butt" stroke-opacity="0.0" clip-path="url(#id_0)" d="M176.0 314.0L176.0 273.0L627.0 273.0C628.10455 273.0 629.0 273.89542 629.0 275.0L629.0 312.0C629.0 313.10458 628.10455 314.0 627.0 314.0Z" fill-rule="nonzero"/><path fill="#4285f4" clip-path="url(#id_0)" d="M176.0 314.0L176.0 273.0L627.0 273.0C628.10455 273.0 629.0 273.89542 629.0 275.0L629.0 312.0C629.0 313.10458 628.10455 314.0 627.0 314.0Z" fill-rule="nonzero"/><path fill="#000000" d="M384.86688 381.83438L385.92938 381.74063Q386.0075 382.39688 386.28876 382.80313Q386.57 383.20938 387.14813 383.475Q387.74188 383.725 388.47626 383.725Q389.11688 383.725 389.61688 383.5375Q390.11688 383.33438 390.35126 383.00626Q390.60126 382.6625 390.60126 382.27188Q390.60126 381.86563 390.36688 381.56876Q390.1325 381.25626 389.60126 381.05313Q389.24188 380.9125 388.05438 380.63126Q386.8825 380.35 386.41376 380.1Q385.78876 379.77188 385.49188 379.30313Q385.195 378.81876 385.195 378.225Q385.195 377.58438 385.55438 377.02188Q385.92938 376.44376 386.6325 376.1625Q387.35126 375.86563 388.21063 375.86563Q389.16376 375.86563 389.89813 376.17813Q390.6325 376.475 391.02313 377.08438Q391.41376 377.67813 391.445 378.42813L390.35126 378.50626Q390.2575 377.69376 389.74188 377.2875Q389.24188 376.86563 388.2575 376.86563Q387.22626 376.86563 386.7575 377.24063Q386.28876 377.61563 386.28876 378.14688Q386.28876 378.61563 386.61688 378.9125Q386.945 379.20938 388.32 379.52188Q389.71063 379.83438 390.22626 380.06876Q390.97626 380.42813 391.33563 380.95938Q391.695 381.475 391.695 382.17813Q391.695 382.86563 391.30438 383.475Q390.91376 384.06876 390.17938 384.4125Q389.445 384.74063 388.52313 384.74063Q387.35126 384.74063 386.55438 384.4125Q385.77313 384.06876 385.32 383.38126Q384.8825 382.69376 384.86688 381.83438ZM397.36688 382.6L398.46063 382.725Q398.21063 383.67813 397.5075 384.20938Q396.80438 384.74063 395.72626 384.74063Q394.36688 384.74063 393.55438 383.89688Q392.7575 383.05313 392.7575 381.5375Q392.7575 379.975 393.57 379.11563Q394.3825 378.24063 395.66376 378.24063Q396.91376 378.24063 397.695 379.08438Q398.49188 379.92813 398.49188 381.475Q398.49188 381.56876 398.49188 381.75626L393.85126 381.75626Q393.91376 382.7875 394.42938 383.33438Q394.945 383.86563 395.72626 383.86563Q396.30438 383.86563 396.71063 383.56876Q397.1325 383.25626 397.36688 382.6ZM393.91376 380.89688L397.3825 380.89688Q397.32 380.1 396.99188 379.70938Q396.47626 379.1 395.67938 379.1Q394.945 379.1 394.445 379.58438Q393.96063 380.06876 393.91376 380.89688ZM404.17938 382.31876L405.21063 382.45938Q405.03876 383.52188 404.33563 384.13126Q403.6325 384.74063 402.61688 384.74063Q401.33563 384.74063 400.55438 383.9125Q399.78876 383.06876 399.78876 381.50626Q399.78876 380.50626 400.11688 379.75626Q400.46063 378.99063 401.1325 378.61563Q401.82 378.24063 402.6325 378.24063Q403.6325 378.24063 404.27313 378.75626Q404.92938 379.25626 405.11688 380.20938L404.08563 380.36563Q403.945 379.74063 403.57 379.42813Q403.195 379.1 402.66376 379.1Q401.86688 379.1 401.36688 379.67813Q400.86688 380.24063 400.86688 381.475Q400.86688 382.74063 401.35126 383.30313Q401.83563 383.86563 402.60126 383.86563Q403.22626 383.86563 403.6325 383.49063Q404.05438 383.11563 404.17938 382.31876ZM405.72626 381.49063Q405.72626 379.75626 406.67938 378.92813Q407.47626 378.24063 408.6325 378.24063Q409.91376 378.24063 410.72626 379.08438Q411.55438 379.9125 411.55438 381.39688Q411.55438 382.6 411.195 383.2875Q410.83563 383.975 410.1325 384.36563Q409.445 384.74063 408.6325 384.74063Q407.33563 384.74063 406.52313 383.9125Q405.72626 383.06876 405.72626 381.49063ZM406.80438 381.49063Q406.80438 382.67813 407.32 383.27188Q407.85126 383.86563 408.6325 383.86563Q409.42938 383.86563 409.945 383.27188Q410.46063 382.67813 410.46063 381.45938Q410.46063 380.30313 409.92938 379.70938Q409.41376 379.11563 408.6325 379.11563Q407.85126 379.11563 407.32 379.70938Q406.80438 380.2875 406.80438 381.49063ZM413.11688 384.6L413.11688 378.38126L414.05438 378.38126L414.05438 379.25626Q414.74188 378.24063 416.03876 378.24063Q416.60126 378.24063 417.07 378.44376Q417.55438 378.64688 417.78876 378.975Q418.02313 379.30313 418.11688 379.74063Q418.16376 380.0375 418.16376 380.77188L418.16376 384.6L417.11688 384.6L417.11688 380.81876Q417.11688 380.1625 416.99188 379.85Q416.86688 379.5375 416.55438 379.35Q416.24188 379.14688 415.82 379.14688Q415.14813 379.14688 414.64813 379.58438Q414.16376 380.00626 414.16376 381.19376L414.16376 384.6L413.11688 384.6ZM424.14813 384.6L424.14813 383.81876Q423.55438 384.74063 422.41376 384.74063Q421.66376 384.74063 421.03876 384.33438Q420.41376 383.9125 420.07 383.17813Q419.72626 382.44376 419.72626 381.49063Q419.72626 380.56876 420.03876 379.80313Q420.35126 379.0375 420.97626 378.64688Q421.60126 378.24063 422.36688 378.24063Q422.92938 378.24063 423.36688 378.475Q423.80438 378.70938 424.08563 379.08438L424.08563 376.00626L425.1325 376.00626L425.1325 384.6L424.14813 384.6ZM420.82 381.49063Q420.82 382.69376 421.32 383.2875Q421.82 383.86563 422.5075 383.86563Q423.195 383.86563 423.67938 383.30313Q424.16376 382.74063 424.16376 381.58438Q424.16376 380.30313 423.66376 379.70938Q423.17938 379.11563 422.46063 379.11563Q421.7575 379.11563 421.28876 379.69376Q420.82 380.25626 420.82 381.49063ZM426.695 382.74063L427.72626 382.58438Q427.82 383.20938 428.21063 383.5375Q428.61688 383.86563 429.35126 383.86563Q430.07 383.86563 430.41376 383.58438Q430.77313 383.2875 430.77313 382.88126Q430.77313 382.52188 430.46063 382.31876Q430.24188 382.17813 429.3825 381.95938Q428.22626 381.6625 427.77313 381.45938Q427.33563 381.24063 427.10126 380.86563Q426.86688 380.49063 426.86688 380.02188Q426.86688 379.61563 427.05438 379.25626Q427.24188 378.89688 427.57 378.6625Q427.82 378.49063 428.24188 378.36563Q428.66376 378.24063 429.16376 378.24063Q429.8825 378.24063 430.42938 378.45938Q430.99188 378.6625 431.2575 379.02188Q431.52313 379.38126 431.61688 379.975L430.58563 380.11563Q430.52313 379.64688 430.17938 379.38126Q429.85126 379.1 429.22626 379.1Q428.5075 379.1 428.195 379.35Q427.8825 379.58438 427.8825 379.9125Q427.8825 380.11563 428.0075 380.27188Q428.14813 380.44376 428.41376 380.55313Q428.57 380.61563 429.35126 380.81876Q430.47626 381.13126 430.91376 381.31876Q431.35126 381.50626 431.60126 381.86563Q431.85126 382.225 431.85126 382.77188Q431.85126 383.30313 431.53876 383.77188Q431.24188 384.225 430.66376 384.49063Q430.08563 384.74063 429.35126 384.74063Q428.1325 384.74063 427.49188 384.24063Q426.86688 383.725 426.695 382.74063Z" fill-rule="nonzero"/><path fill="#000000" d="M28.38438 228.2375L28.681255 227.1125Q30.07188 227.47188 30.806255 228.39375Q31.54063 229.31563 31.54063 230.65938Q31.54063 232.05 30.97813 232.925Q30.41563 233.8 29.35313 234.25313Q28.275005 234.70625 27.04063 234.70625Q25.69688 234.70625 24.69688 234.19063Q23.69688 233.675 23.181255 232.7375Q22.66563 231.78438 22.66563 230.64375Q22.66563 229.3625 23.32188 228.4875Q23.97813 227.59688 25.16563 227.25313L25.431255 228.37813Q24.493755 228.675 24.07188 229.25313Q23.63438 229.81563 23.63438 230.675Q23.63438 231.65938 24.118755 232.33125Q24.587505 232.9875 25.38438 233.26875Q26.181255 233.53438 27.04063 233.53438Q28.13438 233.53438 28.94688 233.22188Q29.75938 232.89375 30.16563 232.22188Q30.57188 231.55 30.57188 230.75313Q30.57188 229.8 30.025005 229.14375Q29.47813 228.47188 28.38438 228.2375ZM28.29063 225.89375Q26.556255 225.89375 25.72813 224.94063Q25.04063 224.14375 25.04063 222.9875Q25.04063 221.70625 25.88438 220.89375Q26.712505 220.06563 28.19688 220.06563Q29.400005 220.06563 30.087505 220.425Q30.775005 220.78438 31.16563 221.4875Q31.54063 222.175 31.54063 222.9875Q31.54063 224.28438 30.712505 225.09688Q29.868755 225.89375 28.29063 225.89375ZM28.29063 224.81563Q29.47813 224.81563 30.07188 224.3Q30.66563 223.76875 30.66563 222.9875Q30.66563 222.19063 30.07188 221.675Q29.47813 221.15938 28.25938 221.15938Q27.10313 221.15938 26.50938 221.69063Q25.91563 222.20625 25.91563 222.9875Q25.91563 223.76875 26.50938 224.3Q27.087505 224.81563 28.29063 224.81563ZM31.400005 218.50313L25.181255 218.50313L25.181255 217.56563L26.056255 217.56563Q25.587505 217.26875 25.32188 216.78438Q25.04063 216.3 25.04063 215.675Q25.04063 214.9875 25.32188 214.55Q25.60313 214.09688 26.118755 213.925Q25.04063 213.175 25.04063 212.00313Q25.04063 211.06563 25.556255 210.58125Q26.056255 210.08125 27.13438 210.08125L31.400005 210.08125L31.400005 211.12813L27.47813 211.12813Q26.85313 211.12813 26.57188 211.2375Q26.29063 211.33125 26.118755 211.59688Q25.94688 211.8625 25.94688 212.2375Q25.94688 212.89375 26.38438 213.33125Q26.82188 213.75313 27.79063 213.75313L31.400005 213.75313L31.400005 214.81563L27.35313 214.81563Q26.650005 214.81563 26.306255 215.08125Q25.94688 215.33125 25.94688 215.90938Q25.94688 216.3625 26.181255 216.7375Q26.41563 217.1125 26.868755 217.28438Q27.32188 217.45625 28.16563 217.45625L31.400005 217.45625L31.400005 218.50313ZM31.400005 208.50313L25.181255 208.50313L25.181255 207.56563L26.056255 207.56563Q25.587505 207.26875 25.32188 206.78438Q25.04063 206.3 25.04063 205.675Q25.04063 204.9875 25.32188 204.55Q25.60313 204.09688 26.118755 203.925Q25.04063 203.175 25.04063 202.00313Q25.04063 201.06563 25.556255 200.58125Q26.056255 200.08125 27.13438 200.08125L31.400005 200.08125L31.400005 201.12813L27.47813 201.12813Q26.85313 201.12813 26.57188 201.2375Q26.29063 201.33125 26.118755 201.59688Q25.94688 201.8625 25.94688 202.2375Q25.94688 202.89375 26.38438 203.33125Q26.82188 203.75313 27.79063 203.75313L31.400005 203.75313L31.400005 204.81563L27.35313 204.81563Q26.650005 204.81563 26.306255 205.08125Q25.94688 205.33125 25.94688 205.90938Q25.94688 206.3625 26.181255 206.7375Q26.41563 207.1125 26.868755 207.28438Q27.32188 207.45625 28.16563 207.45625L31.400005 207.45625L31.400005 208.50313ZM30.63438 194.44063Q31.13438 195.03438 31.337505 195.58125Q31.54063 196.1125 31.54063 196.7375Q31.54063 197.76875 31.04063 198.31563Q30.54063 198.8625 29.75938 198.8625Q29.306255 198.8625 28.931255 198.65938Q28.54063 198.45625 28.32188 198.1125Q28.087505 197.76875 27.97813 197.34688Q27.88438 197.05 27.806255 196.40938Q27.66563 195.14375 27.44688 194.53438Q27.22813 194.53438 27.181255 194.53438Q26.525005 194.53438 26.25938 194.83125Q25.91563 195.2375 25.91563 196.03438Q25.91563 196.76875 26.181255 197.12813Q26.431255 197.4875 27.087505 197.65938L26.94688 198.69063Q26.29063 198.55 25.88438 198.22188Q25.47813 197.89375 25.25938 197.28438Q25.04063 196.675 25.04063 195.87813Q25.04063 195.08125 25.22813 194.58125Q25.41563 194.08125 25.69688 193.84688Q25.97813 193.6125 26.41563 193.51875Q26.681255 193.47188 27.38438 193.47188L28.79063 193.47188Q30.25938 193.47188 30.650005 193.40938Q31.04063 193.33125 31.400005 193.12813L31.400005 194.2375Q31.07188 194.39375 30.63438 194.44063ZM28.275005 194.53438Q28.50938 195.1125 28.681255 196.25313Q28.775005 196.90938 28.900005 197.175Q29.00938 197.44063 29.22813 197.59688Q29.44688 197.7375 29.72813 197.7375Q30.150005 197.7375 30.431255 197.425Q30.712505 197.09688 30.712505 196.4875Q30.712505 195.87813 30.44688 195.40938Q30.181255 194.925 29.712505 194.70625Q29.35313 194.53438 28.66563 194.53438L28.275005 194.53438ZM31.400005 191.50313L25.181255 191.50313L25.181255 190.56563L26.056255 190.56563Q25.04063 189.87813 25.04063 188.58125Q25.04063 188.01875 25.243755 187.55Q25.44688 187.06563 25.775005 186.83125Q26.10313 186.59688 26.54063 186.50313Q26.837505 186.45625 27.57188 186.45625L31.400005 186.45625L31.400005 187.50313L27.618755 187.50313Q26.962505 187.50313 26.650005 187.62813Q26.337505 187.75313 26.150005 188.06563Q25.94688 188.37813 25.94688 188.8Q25.94688 189.47188 26.38438 189.97188Q26.806255 190.45625 27.993755 190.45625L31.400005 190.45625L31.400005 191.50313ZM31.400005 180.47188L30.618755 180.47188Q31.54063 181.06563 31.54063 182.20625Q31.54063 182.95625 31.13438 183.58125Q30.712505 184.20625 29.97813 184.55Q29.243755 184.89375 28.29063 184.89375Q27.368755 184.89375 26.60313 184.58125Q25.837505 184.26875 25.44688 183.64375Q25.04063 183.01875 25.04063 182.25313Q25.04063 181.69063 25.275005 181.25313Q25.50938 180.81563 25.88438 180.53438L22.806255 180.53438L22.806255 179.4875L31.400005 179.4875L31.400005 180.47188ZM28.29063 183.8Q29.493755 183.8 30.087505 183.3Q30.66563 182.8 30.66563 182.1125Q30.66563 181.425 30.10313 180.94063Q29.54063 180.45625 28.38438 180.45625Q27.10313 180.45625 26.50938 180.95625Q25.91563 181.44063 25.91563 182.15938Q25.91563 182.8625 26.493755 183.33125Q27.056255 183.8 28.29063 183.8Z" fill-rule="nonzero"/><path fill="#000000" d="M55.415 96.216484L56.44625 96.060234Q56.54 96.685234 56.930626 97.01336Q57.336876 97.341484 58.07125 97.341484Q58.79 97.341484 59.13375 97.060234Q59.493126 96.76336 59.493126 96.35711Q59.493126 95.997734 59.180626 95.79461Q58.961876 95.653984 58.1025 95.435234Q56.94625 95.13836 56.493126 94.935234Q56.055626 94.716484 55.82125 94.341484Q55.586876 93.966484 55.586876 93.497734Q55.586876 93.091484 55.774376 92.73211Q55.961876 92.372734 56.29 92.13836Q56.54 91.966484 56.961876 91.841484Q57.38375 91.716484 57.88375 91.716484Q58.6025 91.716484 59.149376 91.935234Q59.711876 92.13836 59.9775 92.497734Q60.243126 92.85711 60.336876 93.45086L59.305626 93.591484Q59.243126 93.122734 58.899376 92.85711Q58.57125 92.57586 57.94625 92.57586Q57.2275 92.57586 56.915 92.82586Q56.6025 93.060234 56.6025 93.38836Q56.6025 93.591484 56.7275 93.747734Q56.868126 93.91961 57.13375 94.028984Q57.29 94.091484 58.07125 94.29461Q59.19625 94.60711 59.63375 94.79461Q60.07125 94.98211 60.32125 95.341484Q60.57125 95.70086 60.57125 96.247734Q60.57125 96.778984 60.25875 97.247734Q59.961876 97.70086 59.38375 97.966484Q58.805626 98.216484 58.07125 98.216484Q56.8525 98.216484 56.211876 97.716484Q55.586876 97.20086 55.415 96.216484ZM61.415 96.216484L62.44625 96.060234Q62.54 96.685234 62.930626 97.01336Q63.336876 97.341484 64.07125 97.341484Q64.79 97.341484 65.13375 97.060234Q65.493126 96.76336 65.493126 96.35711Q65.493126 95.997734 65.180626 95.79461Q64.961876 95.653984 64.1025 95.435234Q62.94625 95.13836 62.493126 94.935234Q62.055626 94.716484 61.82125 94.341484Q61.586876 93.966484 61.586876 93.497734Q61.586876 93.091484 61.774376 92.73211Q61.961876 92.372734 62.29 92.13836Q62.54 91.966484 62.961876 91.841484Q63.38375 91.716484 63.88375 91.716484Q64.6025 91.716484 65.149376 91.935234Q65.711876 92.13836 65.9775 92.497734Q66.243126 92.85711 66.336876 93.45086L65.305626 93.591484Q65.243126 93.122734 64.899376 92.85711Q64.57125 92.57586 63.94625 92.57586Q63.2275 92.57586 62.915 92.82586Q62.6025 93.060234 62.6025 93.38836Q62.6025 93.591484 62.7275 93.747734Q62.868126 93.91961 63.13375 94.028984Q63.29 94.091484 64.07125 94.29461Q65.19625 94.60711 65.63375 94.79461Q66.07125 94.98211 66.32125 95.341484Q66.57125 95.70086 66.57125 96.247734Q66.57125 96.778984 66.25875 97.247734Q65.961876 97.70086 65.38375 97.966484Q64.805626 98.216484 64.07125 98.216484Q62.8525 98.216484 62.211876 97.716484Q61.586876 97.20086 61.415 96.216484ZM67.836876 98.07586L67.836876 89.48211L68.88375 89.48211L68.88375 92.560234Q69.618126 91.716484 70.743126 91.716484Q71.44625 91.716484 71.94625 91.997734Q72.461876 92.26336 72.680626 92.747734Q72.899376 93.216484 72.899376 94.13836L72.899376 98.07586L71.8525 98.07586L71.8525 94.13836Q71.8525 93.341484 71.50875 92.98211Q71.165 92.622734 70.54 92.622734Q70.07125 92.622734 69.649376 92.872734Q69.243126 93.10711 69.055626 93.528984Q68.88375 93.935234 68.88375 94.66961L68.88375 98.07586L67.836876 98.07586ZM78.149376 100.60711L78.149376 89.341484L79.055626 89.341484L79.055626 100.60711L78.149376 100.60711ZM83.63375 98.591484L84.665 98.747734Q84.7275 99.216484 85.024376 99.435234Q85.415 99.73211 86.086876 99.73211Q86.82125 99.73211 87.211876 99.435234Q87.618126 99.13836 87.75875 98.622734Q87.8525 98.29461 87.836876 97.26336Q87.149376 98.07586 86.118126 98.07586Q84.836876 98.07586 84.13375 97.153984Q83.430626 96.216484 83.430626 94.935234Q83.430626 94.04461 83.743126 93.29461Q84.07125 92.528984 84.680626 92.122734Q85.29 91.716484 86.118126 91.716484Q87.2275 91.716484 87.94625 92.60711L87.94625 91.85711L88.915 91.85711L88.915 97.23211Q88.915 98.685234 88.618126 99.29461Q88.32125 99.903984 87.680626 100.247734Q87.04 100.60711 86.1025 100.60711Q84.993126 100.60711 84.305626 100.10711Q83.618126 99.60711 83.63375 98.591484ZM84.50875 94.85711Q84.50875 96.07586 84.993126 96.63836Q85.4775 97.20086 86.211876 97.20086Q86.94625 97.20086 87.430626 96.63836Q87.930626 96.07586 87.930626 94.88836Q87.930626 93.747734 87.415 93.16961Q86.915 92.591484 86.19625 92.591484Q85.493126 92.591484 84.993126 93.16961Q84.50875 93.73211 84.50875 94.85711ZM90.836876 100.466484L90.836876 91.85711L91.79 91.85711L91.79 92.653984Q92.13375 92.185234 92.555626 91.95086Q92.993126 91.716484 93.6025 91.716484Q94.399376 91.716484 95.00875 92.122734Q95.618126 92.528984 95.915 93.278984Q96.2275 94.028984 96.2275 94.91961Q96.2275 95.872734 95.88375 96.63836Q95.555626 97.403984 94.899376 97.810234Q94.243126 98.216484 93.524376 98.216484Q92.993126 98.216484 92.57125 97.997734Q92.149376 97.76336 91.88375 97.435234L91.88375 100.466484L90.836876 100.466484ZM91.79 94.997734Q91.79 96.20086 92.274376 96.778984Q92.75875 97.341484 93.44625 97.341484Q94.149376 97.341484 94.649376 96.747734Q95.149376 96.153984 95.149376 94.903984Q95.149376 93.716484 94.665 93.13836Q94.180626 92.54461 93.493126 92.54461Q92.82125 92.54461 92.305626 93.16961Q91.79 93.79461 91.79 94.997734ZM97.63375 98.591484L98.665 98.747734Q98.7275 99.216484 99.024376 99.435234Q99.415 99.73211 100.086876 99.73211Q100.82125 99.73211 101.211876 99.435234Q101.618126 99.13836 101.75875 98.622734Q101.8525 98.29461 101.836876 97.26336Q101.149376 98.07586 100.118126 98.07586Q98.836876 98.07586 98.13375 97.153984Q97.430626 96.216484 97.430626 94.935234Q97.430626 94.04461 97.743126 93.29461Q98.07125 92.528984 98.680626 92.122734Q99.29 91.716484 100.118126 91.716484Q101.2275 91.716484 101.94625 92.60711L101.94625 91.85711L102.915 91.85711L102.915 97.23211Q102.915 98.685234 102.618126 99.29461Q102.32125 99.903984 101.680626 100.247734Q101.04 100.60711 100.1025 100.60711Q98.993126 100.60711 98.305626 100.10711Q97.618126 99.60711 97.63375 98.591484ZM98.50875 94.85711Q98.50875 96.07586 98.993126 96.63836Q99.4775 97.20086 100.211876 97.20086Q100.94625 97.20086 101.430626 96.63836Q101.930626 96.07586 101.930626 94.88836Q101.930626 93.747734 101.415 93.16961Q100.915 92.591484 100.19625 92.591484Q99.493126 92.591484 98.993126 93.16961Q98.50875 93.73211 98.50875 94.85711ZM107.415 95.497734L107.415 94.435234L110.665 94.435234L110.665 95.497734L107.415 95.497734ZM115.868126 98.07586L115.868126 97.29461Q115.274376 98.216484 114.13375 98.216484Q113.38375 98.216484 112.75875 97.810234Q112.13375 97.38836 111.79 96.653984Q111.44625 95.91961 111.44625 94.966484Q111.44625 94.04461 111.75875 93.278984Q112.07125 92.51336 112.69625 92.122734Q113.32125 91.716484 114.086876 91.716484Q114.649376 91.716484 115.086876 91.95086Q115.524376 92.185234 115.805626 92.560234L115.805626 89.48211L116.8525 89.48211L116.8525 98.07586L115.868126 98.07586ZM112.54 94.966484Q112.54 96.16961 113.04 96.76336Q113.54 97.341484 114.2275 97.341484Q114.915 97.341484 115.399376 96.778984Q115.88375 96.216484 115.88375 95.060234Q115.88375 93.778984 115.38375 93.185234Q114.899376 92.591484 114.180626 92.591484Q113.4775 92.591484 113.00875 93.16961Q112.54 93.73211 112.54 94.966484ZM122.149376 100.60711L122.149376 89.341484L123.055626 89.341484L123.055626 100.60711L122.149376 100.60711ZM127.63375 98.591484L128.66501 98.747734Q128.72751 99.216484 129.02438 99.435234Q129.41501 99.73211 130.08688 99.73211Q130.82126 99.73211 131.21188 99.435234Q131.61813 99.13836 131.75876 98.622734Q131.85251 98.29461 131.83688 97.26336Q131.14938 98.07586 130.11813 98.07586Q128.83688 98.07586 128.13376 97.153984Q127.430626 96.216484 127.430626 94.935234Q127.430626 94.04461 127.743126 93.29461Q128.07126 92.528984 128.68063 92.122734Q129.29001 91.716484 130.11813 91.716484Q131.22751 91.716484 131.94626 92.60711L131.94626 91.85711L132.91501 91.85711L132.91501 97.23211Q132.91501 98.685234 132.61813 99.29461Q132.32126 99.903984 131.68063 100.247734Q131.04001 100.60711 130.10251 100.60711Q128.99313 100.60711 128.30563 100.10711Q127.618126 99.60711 127.63375 98.591484ZM128.50876 94.85711Q128.50876 96.07586 128.99313 96.63836Q129.47751 97.20086 130.21188 97.20086Q130.94626 97.20086 131.43063 96.63836Q131.93063 96.07586 131.93063 94.88836Q131.93063 93.747734 131.41501 93.16961Q130.91501 92.591484 130.19626 92.591484Q129.49313 92.591484 128.99313 93.16961Q128.50876 93.73211 128.50876 94.85711ZM134.27438 98.07586L134.27438 97.216484L138.24313 92.66961Q137.55563 92.70086 137.04001 92.70086L134.50876 92.70086L134.50876 91.85711L139.60251 91.85711L139.60251 92.54461L136.22751 96.497734L135.57126 97.216484Q136.29001 97.16961 136.89938 97.16961L139.79001 97.16961L139.79001 98.07586L134.27438 98.07586ZM140.83688 90.70086L140.83688 89.48211L141.89938 89.48211L141.89938 90.70086L140.83688 90.70086ZM140.83688 98.07586L140.83688 91.85711L141.89938 91.85711L141.89938 98.07586L140.83688 98.07586ZM143.83688 100.466484L143.83688 91.85711L144.79001 91.85711L144.79001 92.653984Q145.13376 92.185234 145.55563 91.95086Q145.99313 91.716484 146.60251 91.716484Q147.39938 91.716484 148.00876 92.122734Q148.61813 92.528984 148.91501 93.278984Q149.22751 94.028984 149.22751 94.91961Q149.22751 95.872734 148.88376 96.63836Q148.55563 97.403984 147.89938 97.810234Q147.24313 98.216484 146.52438 98.216484Q145.99313 98.216484 145.57126 97.997734Q145.14938 97.76336 144.88376 97.435234L144.88376 100.466484L143.83688 100.466484ZM144.79001 94.997734Q144.79001 96.20086 145.27438 96.778984Q145.75876 97.341484 146.44626 97.341484Q147.14938 97.341484 147.64938 96.747734Q148.14938 96.153984 148.14938 94.903984Q148.14938 93.716484 147.66501 93.13836Q147.18063 92.54461 146.49313 92.54461Q145.82126 92.54461 145.30563 93.16961Q144.79001 93.79461 144.79001 94.997734ZM153.41501 95.497734L153.41501 94.435234L156.66501 94.435234L156.66501 95.497734L153.41501 95.497734ZM161.86813 98.07586L161.86813 97.29461Q161.27438 98.216484 160.13376 98.216484Q159.38376 98.216484 158.75876 97.810234Q158.13376 97.38836 157.79001 96.653984Q157.44626 95.91961 157.44626 94.966484Q157.44626 94.04461 157.75876 93.278984Q158.07126 92.51336 158.69626 92.122734Q159.32126 91.716484 160.08688 91.716484Q160.64938 91.716484 161.08688 91.95086Q161.52438 92.185234 161.80563 92.560234L161.80563 89.48211L162.85251 89.48211L162.85251 98.07586L161.86813 98.07586ZM158.54001 94.966484Q158.54001 96.16961 159.04001 96.76336Q159.54001 97.341484 160.22751 97.341484Q160.91501 97.341484 161.39938 96.778984Q161.88376 96.216484 161.88376 95.060234Q161.88376 93.778984 161.38376 93.185234Q160.89938 92.591484 160.18063 92.591484Q159.47751 92.591484 159.00876 93.16961Q158.54001 93.73211 158.54001 94.966484ZM168.14938 100.60711L168.14938 89.341484L169.05563 89.341484L169.05563 100.60711L168.14938 100.60711Z" fill-rule="nonzero"/><path fill="#000000" d="M146.13374 111.13836L146.29 112.060234Q145.83687 112.153984 145.49312 112.153984Q144.915 112.153984 144.6025 111.98211Q144.29 111.79461 144.14937 111.497734Q144.02437 111.20086 144.02437 110.247734L144.02437 106.66961L143.25874 106.66961L143.25874 105.85711L144.02437 105.85711L144.02437 104.310234L145.07124 103.685234L145.07124 105.85711L146.13374 105.85711L146.13374 106.66961L145.07124 106.66961L145.07124 110.310234Q145.07124 110.76336 145.11812 110.88836Q145.18062 111.01336 145.30562 111.091484Q145.43062 111.16961 145.665 111.16961Q145.8525 111.16961 146.13374 111.13836ZM150.89937 111.310234Q150.30562 111.810234 149.75874 112.01336Q149.2275 112.216484 148.6025 112.216484Q147.57124 112.216484 147.02437 111.716484Q146.4775 111.216484 146.4775 110.435234Q146.4775 109.98211 146.68062 109.60711Q146.88374 109.216484 147.2275 108.997734Q147.57124 108.76336 147.99312 108.653984Q148.29 108.560234 148.93062 108.48211Q150.19624 108.341484 150.80562 108.122734Q150.80562 107.903984 150.80562 107.85711Q150.80562 107.20086 150.50874 106.935234Q150.1025 106.591484 149.30562 106.591484Q148.57124 106.591484 148.21187 106.85711Q147.8525 107.10711 147.68062 107.76336L146.64937 107.622734Q146.79 106.966484 147.11812 106.560234Q147.44624 106.153984 148.05562 105.935234Q148.665 105.716484 149.46187 105.716484Q150.25874 105.716484 150.75874 105.903984Q151.25874 106.091484 151.49312 106.372734Q151.7275 106.653984 151.82124 107.091484Q151.86812 107.35711 151.86812 108.060234L151.86812 109.466484Q151.86812 110.935234 151.93062 111.32586Q152.00874 111.716484 152.21187 112.07586L151.1025 112.07586Q150.94624 111.747734 150.89937 111.310234ZM150.80562 108.95086Q150.2275 109.185234 149.08687 109.35711Q148.43062 109.45086 148.165 109.57586Q147.89937 109.685234 147.74312 109.903984Q147.6025 110.122734 147.6025 110.403984Q147.6025 110.82586 147.915 111.10711Q148.24312 111.38836 148.8525 111.38836Q149.46187 111.38836 149.93062 111.122734Q150.415 110.85711 150.63374 110.38836Q150.80562 110.028984 150.80562 109.341484L150.80562 108.95086ZM153.82124 112.07586L153.82124 105.85711L154.77437 105.85711L154.77437 106.79461Q155.13374 106.13836 155.43062 105.935234Q155.74312 105.716484 156.11812 105.716484Q156.64937 105.716484 157.19624 106.04461L156.83687 107.028984Q156.44624 106.79461 156.07124 106.79461Q155.71187 106.79461 155.43062 107.01336Q155.165 107.216484 155.05562 107.591484Q154.86812 108.153984 154.86812 108.810234L154.86812 112.07586L153.82124 112.07586ZM160.415 109.497734L160.415 108.435234L163.665 108.435234L163.665 109.497734L160.415 109.497734ZM164.13374 112.07586L166.39937 108.841484L164.30562 105.85711L165.61812 105.85711L166.57124 107.310234Q166.83687 107.73211 167.00874 108.01336Q167.25874 107.622734 167.4775 107.32586L168.52437 105.85711L169.79 105.85711L167.63374 108.778984L169.94624 112.07586L168.665 112.07586L167.38374 110.13836L167.04 109.622734L165.39937 112.07586L164.13374 112.07586Z" fill-rule="nonzero"/><path fill="#000000" d="M65.805626 168.89195L64.82125 168.89195L64.82125 160.2982L65.88375 160.2982L65.88375 163.3607Q66.555626 162.53258 67.586876 162.53258Q68.165 162.53258 68.665 162.76695Q69.180626 162.9857 69.50875 163.40758Q69.8525 163.82945 70.04 164.4232Q70.2275 165.01695 70.2275 165.68883Q70.2275 167.28258 69.430626 168.15758Q68.63375 169.03258 67.54 169.03258Q66.430626 169.03258 65.805626 168.1107L65.805626 168.89195ZM65.79 165.7357Q65.79 166.84508 66.1025 167.34508Q66.6025 168.15758 67.44625 168.15758Q68.13375 168.15758 68.63375 167.56383Q69.149376 166.97008 69.149376 165.76695Q69.149376 164.5482 68.665 163.97008Q68.180626 163.39195 67.493126 163.39195Q66.805626 163.39195 66.29 164.00133Q65.79 164.59508 65.79 165.7357ZM75.915 168.89195L75.915 167.97008Q75.180626 169.03258 73.930626 169.03258Q73.38375 169.03258 72.899376 168.82945Q72.430626 168.6107 72.19625 168.2982Q71.961876 167.97008 71.868126 167.50133Q71.805626 167.20445 71.805626 166.51695L71.805626 162.6732L72.868126 162.6732L72.868126 166.12633Q72.868126 166.93883 72.930626 167.2357Q73.024376 167.64195 73.336876 167.89195Q73.665 168.12633 74.149376 168.12633Q74.618126 168.12633 75.024376 167.89195Q75.44625 167.64195 75.618126 167.22008Q75.805626 166.7982 75.805626 166.00133L75.805626 162.6732L76.8525 162.6732L76.8525 168.89195L75.915 168.89195ZM78.836876 171.28258L78.836876 162.6732L79.79 162.6732L79.79 163.47008Q80.13375 163.00133 80.555626 162.76695Q80.993126 162.53258 81.6025 162.53258Q82.399376 162.53258 83.00875 162.93883Q83.618126 163.34508 83.915 164.09508Q84.2275 164.84508 84.2275 165.7357Q84.2275 166.68883 83.88375 167.45445Q83.555626 168.22008 82.899376 168.62633Q82.243126 169.03258 81.524376 169.03258Q80.993126 169.03258 80.57125 168.81383Q80.149376 168.57945 79.88375 168.25133L79.88375 171.28258L78.836876 171.28258ZM79.79 165.81383Q79.79 167.01695 80.274376 167.59508Q80.75875 168.15758 81.44625 168.15758Q82.149376 168.15758 82.649376 167.56383Q83.149376 166.97008 83.149376 165.72008Q83.149376 164.53258 82.665 163.95445Q82.180626 163.3607 81.493126 163.3607Q80.82125 163.3607 80.305626 163.9857Q79.79 164.6107 79.79 165.81383ZM85.415 167.03258L86.44625 166.87633Q86.54 167.50133 86.930626 167.82945Q87.336876 168.15758 88.07125 168.15758Q88.79 168.15758 89.13375 167.87633Q89.493126 167.57945 89.493126 167.1732Q89.493126 166.81383 89.180626 166.6107Q88.961876 166.47008 88.1025 166.25133Q86.94625 165.95445 86.493126 165.75133Q86.055626 165.53258 85.82125 165.15758Q85.586876 164.78258 85.586876 164.31383Q85.586876 163.90758 85.774376 163.5482Q85.961876 163.18883 86.29 162.95445Q86.54 162.78258 86.961876 162.65758Q87.38375 162.53258 87.88375 162.53258Q88.6025 162.53258 89.149376 162.75133Q89.711876 162.95445 89.9775 163.31383Q90.243126 163.6732 90.336876 164.26695L89.305626 164.40758Q89.243126 163.93883 88.899376 163.6732Q88.57125 163.39195 87.94625 163.39195Q87.2275 163.39195 86.915 163.64195Q86.6025 163.87633 86.6025 164.20445Q86.6025 164.40758 86.7275 164.56383Q86.868126 164.7357 87.13375 164.84508Q87.29 164.90758 88.07125 165.1107Q89.19625 165.4232 89.63375 165.6107Q90.07125 165.7982 90.32125 166.15758Q90.57125 166.51695 90.57125 167.06383Q90.57125 167.59508 90.25875 168.06383Q89.961876 168.51695 89.38375 168.78258Q88.805626 169.03258 88.07125 169.03258Q86.8525 169.03258 86.211876 168.53258Q85.586876 168.01695 85.415 167.03258ZM94.13375 167.95445L94.29 168.87633Q93.836876 168.97008 93.493126 168.97008Q92.915 168.97008 92.6025 168.7982Q92.29 168.6107 92.149376 168.31383Q92.024376 168.01695 92.024376 167.06383L92.024376 163.4857L91.25875 163.4857L91.25875 162.6732L92.024376 162.6732L92.024376 161.12633L93.07125 160.50133L93.07125 162.6732L94.13375 162.6732L94.13375 163.4857L93.07125 163.4857L93.07125 167.12633Q93.07125 167.57945 93.118126 167.70445Q93.180626 167.82945 93.305626 167.90758Q93.430626 167.9857 93.665 167.9857Q93.8525 167.9857 94.13375 167.95445ZM98.899376 168.12633Q98.305626 168.62633 97.75875 168.82945Q97.2275 169.03258 96.6025 169.03258Q95.57125 169.03258 95.024376 168.53258Q94.4775 168.03258 94.4775 167.25133Q94.4775 166.7982 94.680626 166.4232Q94.88375 166.03258 95.2275 165.81383Q95.57125 165.57945 95.993126 165.47008Q96.29 165.37633 96.930626 165.2982Q98.19625 165.15758 98.805626 164.93883Q98.805626 164.72008 98.805626 164.6732Q98.805626 164.01695 98.50875 163.75133Q98.1025 163.40758 97.305626 163.40758Q96.57125 163.40758 96.211876 163.6732Q95.8525 163.9232 95.680626 164.57945L94.649376 164.43883Q94.79 163.78258 95.118126 163.37633Q95.44625 162.97008 96.055626 162.75133Q96.665 162.53258 97.461876 162.53258Q98.25875 162.53258 98.75875 162.72008Q99.25875 162.90758 99.493126 163.18883Q99.7275 163.47008 99.82125 163.90758Q99.868126 164.1732 99.868126 164.87633L99.868126 166.28258Q99.868126 167.75133 99.930626 168.14195Q100.00875 168.53258 100.211876 168.89195L99.1025 168.89195Q98.94625 168.56383 98.899376 168.12633ZM98.805626 165.76695Q98.2275 166.00133 97.086876 166.1732Q96.430626 166.26695 96.165 166.39195Q95.899376 166.50133 95.743126 166.72008Q95.6025 166.93883 95.6025 167.22008Q95.6025 167.64195 95.915 167.9232Q96.243126 168.20445 96.8525 168.20445Q97.461876 168.20445 97.930626 167.93883Q98.415 167.6732 98.63375 167.20445Q98.805626 166.84508 98.805626 166.15758L98.805626 165.76695ZM101.415 167.03258L102.44625 166.87633Q102.54 167.50133 102.930626 167.82945Q103.336876 168.15758 104.07125 168.15758Q104.79 168.15758 105.13375 167.87633Q105.493126 167.57945 105.493126 167.1732Q105.493126 166.81383 105.180626 166.6107Q104.961876 166.47008 104.1025 166.25133Q102.94625 165.95445 102.493126 165.75133Q102.055626 165.53258 101.82125 165.15758Q101.586876 164.78258 101.586876 164.31383Q101.586876 163.90758 101.774376 163.5482Q101.961876 163.18883 102.29 162.95445Q102.54 162.78258 102.961876 162.65758Q103.38375 162.53258 103.88375 162.53258Q104.6025 162.53258 105.149376 162.75133Q105.711876 162.95445 105.9775 163.31383Q106.243126 163.6732 106.336876 164.26695L105.305626 164.40758Q105.243126 163.93883 104.899376 163.6732Q104.57125 163.39195 103.94625 163.39195Q103.2275 163.39195 102.915 163.64195Q102.6025 163.87633 102.6025 164.20445Q102.6025 164.40758 102.7275 164.56383Q102.868126 164.7357 103.13375 164.84508Q103.29 164.90758 104.07125 165.1107Q105.19625 165.4232 105.63375 165.6107Q106.07125 165.7982 106.32125 166.15758Q106.57125 166.51695 106.57125 167.06383Q106.57125 167.59508 106.25875 168.06383Q105.961876 168.51695 105.38375 168.78258Q104.805626 169.03258 104.07125 169.03258Q102.8525 169.03258 102.211876 168.53258Q101.586876 168.01695 101.415 167.03258ZM107.836876 168.89195L107.836876 160.2982L108.88375 160.2982L108.88375 163.37633Q109.618126 162.53258 110.743126 162.53258Q111.44625 162.53258 111.94625 162.81383Q112.461876 163.07945 112.680626 163.56383Q112.899376 164.03258 112.899376 164.95445L112.899376 168.89195L111.8525 168.89195L111.8525 164.95445Q111.8525 164.15758 111.50875 163.7982Q111.165 163.43883 110.54 163.43883Q110.07125 163.43883 109.649376 163.68883Q109.243126 163.9232 109.055626 164.34508Q108.88375 164.75133 108.88375 165.4857L108.88375 168.89195L107.836876 168.89195ZM117.63375 169.40758L118.665 169.56383Q118.7275 170.03258 119.024376 170.25133Q119.415 170.5482 120.086876 170.5482Q120.82125 170.5482 121.211876 170.25133Q121.618126 169.95445 121.75875 169.43883Q121.8525 169.1107 121.836876 168.07945Q121.149376 168.89195 120.118126 168.89195Q118.836876 168.89195 118.13375 167.97008Q117.430626 167.03258 117.430626 165.75133Q117.430626 164.8607 117.743126 164.1107Q118.07125 163.34508 118.680626 162.93883Q119.29 162.53258 120.118126 162.53258Q121.2275 162.53258 121.94625 163.4232L121.94625 162.6732L122.915 162.6732L122.915 168.0482Q122.915 169.50133 122.618126 170.1107Q122.32125 170.72008 121.680626 171.06383Q121.04 171.4232 120.1025 171.4232Q118.993126 171.4232 118.305626 170.9232Q117.618126 170.4232 117.63375 169.40758ZM118.50875 165.6732Q118.50875 166.89195 118.993126 167.45445Q119.4775 168.01695 120.211876 168.01695Q120.94625 168.01695 121.430626 167.45445Q121.930626 166.89195 121.930626 165.70445Q121.930626 164.56383 121.415 163.9857Q120.915 163.40758 120.19625 163.40758Q119.493126 163.40758 118.993126 163.9857Q118.50875 164.5482 118.50875 165.6732ZM129.08688 166.89195L130.18063 167.01695Q129.93063 167.97008 129.22751 168.50133Q128.52438 169.03258 127.44625 169.03258Q126.086876 169.03258 125.274376 168.18883Q124.4775 167.34508 124.4775 165.82945Q124.4775 164.26695 125.29 163.40758Q126.1025 162.53258 127.38375 162.53258Q128.63376 162.53258 129.41501 163.37633Q130.21188 164.22008 130.21188 165.76695Q130.21188 165.8607 130.21188 166.0482L125.57125 166.0482Q125.63375 167.07945 126.149376 167.62633Q126.665 168.15758 127.44625 168.15758Q128.02438 168.15758 128.43063 167.8607Q128.85251 167.5482 129.08688 166.89195ZM125.63375 165.18883L129.10251 165.18883Q129.04001 164.39195 128.71188 164.00133Q128.19626 163.39195 127.399376 163.39195Q126.665 163.39195 126.165 163.87633Q125.680626 164.3607 125.63375 165.18883ZM134.13376 167.95445L134.29001 168.87633Q133.83688 168.97008 133.49313 168.97008Q132.91501 168.97008 132.60251 168.7982Q132.29001 168.6107 132.14938 168.31383Q132.02438 168.01695 132.02438 167.06383L132.02438 163.4857L131.25876 163.4857L131.25876 162.6732L132.02438 162.6732L132.02438 161.12633L133.07126 160.50133L133.07126 162.6732L134.13376 162.6732L134.13376 163.4857L133.07126 163.4857L133.07126 167.12633Q133.07126 167.57945 133.11813 167.70445Q133.18063 167.82945 133.30563 167.90758Q133.43063 167.9857 133.66501 167.9857Q133.85251 167.9857 134.13376 167.95445ZM138.14938 171.4232L138.14938 160.15758L139.05563 160.15758L139.05563 171.4232L138.14938 171.4232ZM146.13376 167.95445L146.29001 168.87633Q145.83688 168.97008 145.49313 168.97008Q144.91501 168.97008 144.60251 168.7982Q144.29001 168.6107 144.14938 168.31383Q144.02438 168.01695 144.02438 167.06383L144.02438 163.4857L143.25876 163.4857L143.25876 162.6732L144.02438 162.6732L144.02438 161.12633L145.07126 160.50133L145.07126 162.6732L146.13376 162.6732L146.13376 163.4857L145.07126 163.4857L145.07126 167.12633Q145.07126 167.57945 145.11813 167.70445Q145.18063 167.82945 145.30563 167.90758Q145.43063 167.9857 145.66501 167.9857Q145.85251 167.9857 146.13376 167.95445ZM150.89938 168.12633Q150.30563 168.62633 149.75876 168.82945Q149.22751 169.03258 148.60251 169.03258Q147.57126 169.03258 147.02438 168.53258Q146.47751 168.03258 146.47751 167.25133Q146.47751 166.7982 146.68063 166.4232Q146.88376 166.03258 147.22751 165.81383Q147.57126 165.57945 147.99313 165.47008Q148.29001 165.37633 148.93063 165.2982Q150.19626 165.15758 150.80563 164.93883Q150.80563 164.72008 150.80563 164.6732Q150.80563 164.01695 150.50876 163.75133Q150.10251 163.40758 149.30563 163.40758Q148.57126 163.40758 148.21188 163.6732Q147.85251 163.9232 147.68063 164.57945L146.64938 164.43883Q146.79001 163.78258 147.11813 163.37633Q147.44626 162.97008 148.05563 162.75133Q148.66501 162.53258 149.46188 162.53258Q150.25876 162.53258 150.75876 162.72008Q151.25876 162.90758 151.49313 163.18883Q151.72751 163.47008 151.82126 163.90758Q151.86813 164.1732 151.86813 164.87633L151.86813 166.28258Q151.86813 167.75133 151.93063 168.14195Q152.00876 168.53258 152.21188 168.89195L151.10251 168.89195Q150.94626 168.56383 150.89938 168.12633ZM150.80563 165.76695Q150.22751 166.00133 149.08688 166.1732Q148.43063 166.26695 148.16501 166.39195Q147.89938 166.50133 147.74313 166.72008Q147.60251 166.93883 147.60251 167.22008Q147.60251 167.64195 147.91501 167.9232Q148.24313 168.20445 148.85251 168.20445Q149.46188 168.20445 149.93063 167.93883Q150.41501 167.6732 150.63376 167.20445Q150.80563 166.84508 150.80563 166.15758L150.80563 165.76695ZM153.82126 168.89195L153.82126 162.6732L154.77438 162.6732L154.77438 163.6107Q155.13376 162.95445 155.43063 162.75133Q155.74313 162.53258 156.11813 162.53258Q156.64938 162.53258 157.19626 162.8607L156.83688 163.84508Q156.44626 163.6107 156.07126 163.6107Q155.71188 163.6107 155.43063 163.82945Q155.16501 164.03258 155.05563 164.40758Q154.86813 164.97008 154.86813 165.62633L154.86813 168.89195L153.82126 168.89195ZM160.41501 166.31383L160.41501 165.25133L163.66501 165.25133L163.66501 166.31383L160.41501 166.31383ZM164.13376 168.89195L166.39938 165.65758L164.30563 162.6732L165.61813 162.6732L166.57126 164.12633Q166.83688 164.5482 167.00876 164.82945Q167.25876 164.43883 167.47751 164.14195L168.52438 162.6732L169.79001 162.6732L167.63376 165.59508L169.94626 168.89195L168.66501 168.89195L167.38376 166.95445L167.04001 166.43883L165.39938 168.89195L164.13376 168.89195Z" fill-rule="nonzero"/><path fill="#000000" d="M107.805626 232.70805L106.82125 232.70805L106.82125 224.1143L107.88375 224.1143L107.88375 227.1768Q108.555626 226.34868 109.586876 226.34868Q110.165 226.34868 110.665 226.58305Q111.180626 226.8018 111.50875 227.22368Q111.8525 227.64555 112.04 228.2393Q112.2275 228.83305 112.2275 229.50493Q112.2275 231.09868 111.430626 231.97368Q110.63375 232.84868 109.54 232.84868Q108.430626 232.84868 107.805626 231.9268L107.805626 232.70805ZM107.79 229.5518Q107.79 230.66118 108.1025 231.16118Q108.6025 231.97368 109.44625 231.97368Q110.13375 231.97368 110.63375 231.37993Q111.149376 230.78618 111.149376 229.58305Q111.149376 228.3643 110.665 227.78618Q110.180626 227.20805 109.493126 227.20805Q108.805626 227.20805 108.29 227.81743Q107.79 228.41118 107.79 229.5518ZM113.44625 229.59868Q113.44625 227.8643 114.399376 227.03618Q115.19625 226.34868 116.3525 226.34868Q117.63375 226.34868 118.44625 227.19243Q119.274376 228.02055 119.274376 229.50493Q119.274376 230.70805 118.915 231.39555Q118.555626 232.08305 117.8525 232.47368Q117.165 232.84868 116.3525 232.84868Q115.055626 232.84868 114.243126 232.02055Q113.44625 231.1768 113.44625 229.59868ZM114.524376 229.59868Q114.524376 230.78618 115.04 231.37993Q115.57125 231.97368 116.3525 231.97368Q117.149376 231.97368 117.665 231.37993Q118.180626 230.78618 118.180626 229.56743Q118.180626 228.41118 117.649376 227.81743Q117.13375 227.22368 116.3525 227.22368Q115.57125 227.22368 115.04 227.81743Q114.524376 228.39555 114.524376 229.59868ZM120.82125 232.70805L120.82125 226.4893L121.774376 226.4893L121.774376 227.4268Q122.13375 226.77055 122.430626 226.56743Q122.743126 226.34868 123.118126 226.34868Q123.649376 226.34868 124.19625 226.6768L123.836876 227.66118Q123.44625 227.4268 123.07125 227.4268Q122.711876 227.4268 122.430626 227.64555Q122.165 227.84868 122.055626 228.22368Q121.868126 228.78618 121.868126 229.44243L121.868126 232.70805L120.82125 232.70805ZM124.63375 233.22368L125.665 233.37993Q125.7275 233.84868 126.024376 234.06743Q126.415 234.3643 127.086876 234.3643Q127.82125 234.3643 128.21188 234.06743Q128.61813 233.77055 128.75876 233.25493Q128.85251 232.9268 128.83688 231.89555Q128.14938 232.70805 127.118126 232.70805Q125.836876 232.70805 125.13375 231.78618Q124.430626 230.84868 124.430626 229.56743Q124.430626 228.6768 124.743126 227.9268Q125.07125 227.16118 125.680626 226.75493Q126.29 226.34868 127.118126 226.34868Q128.22751 226.34868 128.94626 227.2393L128.94626 226.4893L129.91501 226.4893L129.91501 231.8643Q129.91501 233.31743 129.61813 233.9268Q129.32126 234.53618 128.68063 234.87993Q128.04001 235.2393 127.1025 235.2393Q125.993126 235.2393 125.305626 234.7393Q124.618126 234.2393 124.63375 233.22368ZM125.50875 229.4893Q125.50875 230.70805 125.993126 231.27055Q126.4775 231.83305 127.211876 231.83305Q127.94625 231.83305 128.43063 231.27055Q128.93063 230.70805 128.93063 229.52055Q128.93063 228.37993 128.41501 227.8018Q127.915 227.22368 127.19625 227.22368Q126.493126 227.22368 125.993126 227.8018Q125.50875 228.3643 125.50875 229.4893ZM139.08688 230.70805L140.18063 230.83305Q139.93063 231.78618 139.22751 232.31743Q138.52438 232.84868 137.44626 232.84868Q136.08688 232.84868 135.27438 232.00493Q134.47751 231.16118 134.47751 229.64555Q134.47751 228.08305 135.29001 227.22368Q136.10251 226.34868 137.38376 226.34868Q138.63376 226.34868 139.41501 227.19243Q140.21188 228.03618 140.21188 229.58305Q140.21188 229.6768 140.21188 229.8643L135.57126 229.8643Q135.63376 230.89555 136.14938 231.44243Q136.66501 231.97368 137.44626 231.97368Q138.02438 231.97368 138.43063 231.6768Q138.85251 231.3643 139.08688 230.70805ZM135.63376 229.00493L139.10251 229.00493Q139.04001 228.20805 138.71188 227.81743Q138.19626 227.20805 137.39938 227.20805Q136.66501 227.20805 136.16501 227.69243Q135.68063 228.1768 135.63376 229.00493ZM141.13376 232.70805L143.39938 229.47368L141.30563 226.4893L142.61813 226.4893L143.57126 227.94243Q143.83688 228.3643 144.00876 228.64555Q144.25876 228.25493 144.47751 227.95805L145.52438 226.4893L146.79001 226.4893L144.63376 229.41118L146.94626 232.70805L145.66501 232.70805L144.38376 230.77055L144.04001 230.25493L142.39938 232.70805L141.13376 232.70805ZM150.13376 231.77055L150.29001 232.69243Q149.83688 232.78618 149.49313 232.78618Q148.91501 232.78618 148.60251 232.6143Q148.29001 232.4268 148.14938 232.12993Q148.02438 231.83305 148.02438 230.87993L148.02438 227.3018L147.25876 227.3018L147.25876 226.4893L148.02438 226.4893L148.02438 224.94243L149.07126 224.31743L149.07126 226.4893L150.13376 226.4893L150.13376 227.3018L149.07126 227.3018L149.07126 230.94243Q149.07126 231.39555 149.11813 231.52055Q149.18063 231.64555 149.30563 231.72368Q149.43063 231.8018 149.66501 231.8018Q149.85251 231.8018 150.13376 231.77055ZM150.82126 232.70805L150.82126 226.4893L151.77438 226.4893L151.77438 227.4268Q152.13376 226.77055 152.43063 226.56743Q152.74313 226.34868 153.11813 226.34868Q153.64938 226.34868 154.19626 226.6768L153.83688 227.66118Q153.44626 227.4268 153.07126 227.4268Q152.71188 227.4268 152.43063 227.64555Q152.16501 227.84868 152.05563 228.22368Q151.86813 228.78618 151.86813 229.44243L151.86813 232.70805L150.82126 232.70805ZM158.89938 231.94243Q158.30563 232.44243 157.75876 232.64555Q157.22751 232.84868 156.60251 232.84868Q155.57126 232.84868 155.02438 232.34868Q154.47751 231.84868 154.47751 231.06743Q154.47751 230.6143 154.68063 230.2393Q154.88376 229.84868 155.22751 229.62993Q155.57126 229.39555 155.99313 229.28618Q156.29001 229.19243 156.93063 229.1143Q158.19626 228.97368 158.80563 228.75493Q158.80563 228.53618 158.80563 228.4893Q158.80563 227.83305 158.50876 227.56743Q158.10251 227.22368 157.30563 227.22368Q156.57126 227.22368 156.21188 227.4893Q155.85251 227.7393 155.68063 228.39555L154.64938 228.25493Q154.79001 227.59868 155.11813 227.19243Q155.44626 226.78618 156.05563 226.56743Q156.66501 226.34868 157.46188 226.34868Q158.25876 226.34868 158.75876 226.53618Q159.25876 226.72368 159.49313 227.00493Q159.72751 227.28618 159.82126 227.72368Q159.86813 227.9893 159.86813 228.69243L159.86813 230.09868Q159.86813 231.56743 159.93063 231.95805Q160.00876 232.34868 160.21188 232.70805L159.10251 232.70805Q158.94626 232.37993 158.89938 231.94243ZM158.80563 229.58305Q158.22751 229.81743 157.08688 229.9893Q156.43063 230.08305 156.16501 230.20805Q155.89938 230.31743 155.74313 230.53618Q155.60251 230.75493 155.60251 231.03618Q155.60251 231.45805 155.91501 231.7393Q156.24313 232.02055 156.85251 232.02055Q157.46188 232.02055 157.93063 231.75493Q158.41501 231.4893 158.63376 231.02055Q158.80563 230.66118 158.80563 229.97368L158.80563 229.58305ZM165.89938 230.4268L166.93063 230.56743Q166.75876 231.62993 166.05563 232.2393Q165.35251 232.84868 164.33688 232.84868Q163.05563 232.84868 162.27438 232.02055Q161.50876 231.1768 161.50876 229.6143Q161.50876 228.6143 161.83688 227.8643Q162.18063 227.09868 162.85251 226.72368Q163.54001 226.34868 164.35251 226.34868Q165.35251 226.34868 165.99313 226.8643Q166.64938 227.3643 166.83688 228.31743L165.80563 228.47368Q165.66501 227.84868 165.29001 227.53618Q164.91501 227.20805 164.38376 227.20805Q163.58688 227.20805 163.08688 227.78618Q162.58688 228.34868 162.58688 229.58305Q162.58688 230.84868 163.07126 231.41118Q163.55563 231.97368 164.32126 231.97368Q164.94626 231.97368 165.35251 231.59868Q165.77438 231.22368 165.89938 230.4268ZM170.13376 231.77055L170.29001 232.69243Q169.83688 232.78618 169.49313 232.78618Q168.91501 232.78618 168.60251 232.6143Q168.29001 232.4268 168.14938 232.12993Q168.02438 231.83305 168.02438 230.87993L168.02438 227.3018L167.25876 227.3018L167.25876 226.4893L168.02438 226.4893L168.02438 224.94243L169.07126 224.31743L169.07126 226.4893L170.13376 226.4893L170.13376 227.3018L169.07126 227.3018L169.07126 230.94243Q169.07126 231.39555 169.11813 231.52055Q169.18063 231.64555 169.30563 231.72368Q169.43063 231.8018 169.66501 231.8018Q169.85251 231.8018 170.13376 231.77055Z" fill-rule="nonzero"/><path fill="#000000" d="M100.82125 296.52414L100.82125 290.3054L101.774376 290.3054L101.774376 291.2429Q102.13375 290.58664 102.430626 290.3835Q102.743126 290.16476 103.118126 290.16476Q103.649376 290.16476 104.19625 290.4929L103.836876 291.47726Q103.44625 291.2429 103.07125 291.2429Q102.711876 291.2429 102.430626 291.46164Q102.165 291.66476 102.055626 292.03976Q101.868126 292.60226 101.868126 293.2585L101.868126 296.52414L100.82125 296.52414ZM109.086876 294.52414L110.180626 294.64914Q109.930626 295.60226 109.2275 296.1335Q108.524376 296.66476 107.44625 296.66476Q106.086876 296.66476 105.274376 295.821Q104.4775 294.97726 104.4775 293.46164Q104.4775 291.89914 105.29 291.03976Q106.1025 290.16476 107.38375 290.16476Q108.63375 290.16476 109.415 291.0085Q110.211876 291.85226 110.211876 293.39914Q110.211876 293.4929 110.211876 293.6804L105.57125 293.6804Q105.63375 294.71164 106.149376 295.2585Q106.665 295.78976 107.44625 295.78976Q108.024376 295.78976 108.430626 295.4929Q108.8525 295.1804 109.086876 294.52414ZM105.63375 292.821L109.1025 292.821Q109.04 292.02414 108.711876 291.6335Q108.19625 291.02414 107.399376 291.02414Q106.665 291.02414 106.165 291.5085Q105.680626 291.9929 105.63375 292.821ZM111.415 294.66476L112.44625 294.5085Q112.54 295.1335 112.930626 295.46164Q113.336876 295.78976 114.07125 295.78976Q114.79 295.78976 115.13375 295.5085Q115.493126 295.21164 115.493126 294.8054Q115.493126 294.446 115.180626 294.2429Q114.961876 294.10226 114.1025 293.8835Q112.94625 293.58664 112.493126 293.3835Q112.055626 293.16476 111.82125 292.78976Q111.586876 292.41476 111.586876 291.946Q111.586876 291.53976 111.774376 291.1804Q111.961876 290.821 112.29 290.58664Q112.54 290.41476 112.961876 290.28976Q113.38375 290.16476 113.88375 290.16476Q114.6025 290.16476 115.149376 290.3835Q115.711876 290.58664 115.9775 290.946Q116.243126 291.3054 116.336876 291.89914L115.305626 292.03976Q115.243126 291.571 114.899376 291.3054Q114.57125 291.02414 113.94625 291.02414Q113.2275 291.02414 112.915 291.27414Q112.6025 291.5085 112.6025 291.83664Q112.6025 292.03976 112.7275 292.196Q112.868126 292.3679 113.13375 292.47726Q113.29 292.53976 114.07125 292.7429Q115.19625 293.0554 115.63375 293.2429Q116.07125 293.4304 116.32125 293.78976Q116.57125 294.14914 116.57125 294.696Q116.57125 295.22726 116.25875 295.696Q115.961876 296.14914 115.38375 296.41476Q114.805626 296.66476 114.07125 296.66476Q112.8525 296.66476 112.211876 296.16476Q111.586876 295.64914 111.415 294.66476ZM120.13375 295.58664L120.29 296.5085Q119.836876 296.60226 119.493126 296.60226Q118.915 296.60226 118.6025 296.4304Q118.29 296.2429 118.149376 295.946Q118.024376 295.64914 118.024376 294.696L118.024376 291.1179L117.25875 291.1179L117.25875 290.3054L118.024376 290.3054L118.024376 288.7585L119.07125 288.1335L119.07125 290.3054L120.13375 290.3054L120.13375 291.1179L119.07125 291.1179L119.07125 294.7585Q119.07125 295.21164 119.118126 295.33664Q119.180626 295.46164 119.305626 295.53976Q119.430626 295.6179 119.665 295.6179Q119.8525 295.6179 120.13375 295.58664ZM120.836876 289.14914L120.836876 287.9304L121.899376 287.9304L121.899376 289.14914L120.836876 289.14914ZM120.836876 296.52414L120.836876 290.3054L121.899376 290.3054L121.899376 296.52414L120.836876 296.52414ZM127.899376 294.2429L128.93063 294.3835Q128.75876 295.446 128.05563 296.0554Q127.3525 296.66476 126.336876 296.66476Q125.055626 296.66476 124.274376 295.83664Q123.50875 294.9929 123.50875 293.4304Q123.50875 292.4304 123.836876 291.6804Q124.180626 290.91476 124.8525 290.53976Q125.54 290.16476 126.3525 290.16476Q127.3525 290.16476 127.993126 290.6804Q128.64938 291.1804 128.83688 292.1335L127.805626 292.28976Q127.665 291.66476 127.29 291.35226Q126.915 291.02414 126.38375 291.02414Q125.586876 291.02414 125.086876 291.60226Q124.586876 292.16476 124.586876 293.39914Q124.586876 294.66476 125.07125 295.22726Q125.555626 295.78976 126.32125 295.78976Q126.94625 295.78976 127.3525 295.41476Q127.774376 295.03976 127.899376 294.2429ZM132.82126 296.52414L132.82126 290.3054L133.77438 290.3054L133.77438 291.2429Q134.13376 290.58664 134.43063 290.3835Q134.74313 290.16476 135.11813 290.16476Q135.64938 290.16476 136.19626 290.4929L135.83688 291.47726Q135.44626 291.2429 135.07126 291.2429Q134.71188 291.2429 134.43063 291.46164Q134.16501 291.66476 134.05563 292.03976Q133.86813 292.60226 133.86813 293.2585L133.86813 296.52414L132.82126 296.52414ZM141.08688 294.52414L142.18063 294.64914Q141.93063 295.60226 141.22751 296.1335Q140.52438 296.66476 139.44626 296.66476Q138.08688 296.66476 137.27438 295.821Q136.47751 294.97726 136.47751 293.46164Q136.47751 291.89914 137.29001 291.03976Q138.10251 290.16476 139.38376 290.16476Q140.63376 290.16476 141.41501 291.0085Q142.21188 291.85226 142.21188 293.39914Q142.21188 293.4929 142.21188 293.6804L137.57126 293.6804Q137.63376 294.71164 138.14938 295.2585Q138.66501 295.78976 139.44626 295.78976Q140.02438 295.78976 140.43063 295.4929Q140.85251 295.1804 141.08688 294.52414ZM137.63376 292.821L141.10251 292.821Q141.04001 292.02414 140.71188 291.6335Q140.19626 291.02414 139.39938 291.02414Q138.66501 291.02414 138.16501 291.5085Q137.68063 291.9929 137.63376 292.821ZM143.41501 294.66476L144.44626 294.5085Q144.54001 295.1335 144.93063 295.46164Q145.33688 295.78976 146.07126 295.78976Q146.79001 295.78976 147.13376 295.5085Q147.49313 295.21164 147.49313 294.8054Q147.49313 294.446 147.18063 294.2429Q146.96188 294.10226 146.10251 293.8835Q144.94626 293.58664 144.49313 293.3835Q144.05563 293.16476 143.82126 292.78976Q143.58688 292.41476 143.58688 291.946Q143.58688 291.53976 143.77438 291.1804Q143.96188 290.821 144.29001 290.58664Q144.54001 290.41476 144.96188 290.28976Q145.38376 290.16476 145.88376 290.16476Q146.60251 290.16476 147.14938 290.3835Q147.71188 290.58664 147.97751 290.946Q148.24313 291.3054 148.33688 291.89914L147.30563 292.03976Q147.24313 291.571 146.89938 291.3054Q146.57126 291.02414 145.94626 291.02414Q145.22751 291.02414 144.91501 291.27414Q144.60251 291.5085 144.60251 291.83664Q144.60251 292.03976 144.72751 292.196Q144.86813 292.3679 145.13376 292.47726Q145.29001 292.53976 146.07126 292.7429Q147.19626 293.0554 147.63376 293.2429Q148.07126 293.4304 148.32126 293.78976Q148.57126 294.14914 148.57126 294.696Q148.57126 295.22726 148.25876 295.696Q147.96188 296.14914 147.38376 296.41476Q146.80563 296.66476 146.07126 296.66476Q144.85251 296.66476 144.21188 296.16476Q143.58688 295.64914 143.41501 294.66476ZM152.13376 295.58664L152.29001 296.5085Q151.83688 296.60226 151.49313 296.60226Q150.91501 296.60226 150.60251 296.4304Q150.29001 296.2429 150.14938 295.946Q150.02438 295.64914 150.02438 294.696L150.02438 291.1179L149.25876 291.1179L149.25876 290.3054L150.02438 290.3054L150.02438 288.7585L151.07126 288.1335L151.07126 290.3054L152.13376 290.3054L152.13376 291.1179L151.07126 291.1179L151.07126 294.7585Q151.07126 295.21164 151.11813 295.33664Q151.18063 295.46164 151.30563 295.53976Q151.43063 295.6179 151.66501 295.6179Q151.85251 295.6179 152.13376 295.58664ZM152.44626 293.41476Q152.44626 291.6804 153.39938 290.85226Q154.19626 290.16476 155.35251 290.16476Q156.63376 290.16476 157.44626 291.0085Q158.27438 291.83664 158.27438 293.321Q158.27438 294.52414 157.91501 295.21164Q157.55563 295.89914 156.85251 296.28976Q156.16501 296.66476 155.35251 296.66476Q154.05563 296.66476 153.24313 295.83664Q152.44626 294.9929 152.44626 293.41476ZM153.52438 293.41476Q153.52438 294.60226 154.04001 295.196Q154.57126 295.78976 155.35251 295.78976Q156.14938 295.78976 156.66501 295.196Q157.18063 294.60226 157.18063 293.3835Q157.18063 292.22726 156.64938 291.6335Q156.13376 291.03976 155.35251 291.03976Q154.57126 291.03976 154.04001 291.6335Q153.52438 292.21164 153.52438 293.41476ZM159.82126 296.52414L159.82126 290.3054L160.77438 290.3054L160.77438 291.2429Q161.13376 290.58664 161.43063 290.3835Q161.74313 290.16476 162.11813 290.16476Q162.64938 290.16476 163.19626 290.4929L162.83688 291.47726Q162.44626 291.2429 162.07126 291.2429Q161.71188 291.2429 161.43063 291.46164Q161.16501 291.66476 161.05563 292.03976Q160.86813 292.60226 160.86813 293.2585L160.86813 296.52414L159.82126 296.52414ZM168.08688 294.52414L169.18063 294.64914Q168.93063 295.60226 168.22751 296.1335Q167.52438 296.66476 166.44626 296.66476Q165.08688 296.66476 164.27438 295.821Q163.47751 294.97726 163.47751 293.46164Q163.47751 291.89914 164.29001 291.03976Q165.10251 290.16476 166.38376 290.16476Q167.63376 290.16476 168.41501 291.0085Q169.21188 291.85226 169.21188 293.39914Q169.21188 293.4929 169.21188 293.6804L164.57126 293.6804Q164.63376 294.71164 165.14938 295.2585Q165.66501 295.78976 166.44626 295.78976Q167.02438 295.78976 167.43063 295.4929Q167.85251 295.1804 168.08688 294.52414ZM164.63376 292.821L168.10251 292.821Q168.04001 292.02414 167.71188 291.6335Q167.19626 291.02414 166.39938 291.02414Q165.66501 291.02414 165.16501 291.5085Q164.68063 291.9929 164.63376 292.821Z" fill-rule="nonzero"/><path fill="#000000" d="M173.04 348.36563Q173.04 346.83438 173.3525 345.9125Q173.665 344.975 174.27437 344.475Q174.89937 343.975 175.83687 343.975Q176.52437 343.975 177.04 344.25626Q177.57124 344.5375 177.915 345.06876Q178.25874 345.58438 178.44624 346.33438Q178.63374 347.08438 178.63374 348.36563Q178.63374 349.88126 178.32124 350.80313Q178.02437 351.725 177.39937 352.24063Q176.79 352.74063 175.83687 352.74063Q174.6025 352.74063 173.88374 351.85Q173.04 350.7875 173.04 348.36563ZM174.11812 348.36563Q174.11812 350.475 174.61812 351.17813Q175.11812 351.88126 175.83687 351.88126Q176.57124 351.88126 177.05562 351.17813Q177.55562 350.475 177.55562 348.36563Q177.55562 346.24063 177.05562 345.55313Q176.57124 344.85 175.82124 344.85Q175.1025 344.85 174.665 345.45938Q174.11812 346.24063 174.11812 348.36563Z" fill-rule="nonzero"/><path fill="#000000" d="M324.39334 350.35L325.50272 350.25626Q325.62772 351.06876 326.06522 351.475Q326.51834 351.88126 327.15897 351.88126Q327.90897 351.88126 328.44022 351.30313Q328.97147 350.725 328.97147 349.7875Q328.97147 348.88126 328.45584 348.36563Q327.95584 347.83438 327.12772 347.83438Q326.62772 347.83438 326.20584 348.06876Q325.7996 348.30313 325.56522 348.6625L324.58084 348.5375L325.40897 344.13126L329.69022 344.13126L329.69022 345.13126L326.25272 345.13126L325.7996 347.44376Q326.56522 346.89688 327.40897 346.89688Q328.53397 346.89688 329.2996 347.67813Q330.08084 348.45938 330.08084 349.69376Q330.08084 350.85 329.40897 351.70938Q328.58084 352.74063 327.15897 352.74063Q325.9871 352.74063 325.2371 352.08438Q324.50272 351.42813 324.39334 350.35ZM331.39334 348.36563Q331.39334 346.83438 331.70584 345.9125Q332.01834 344.975 332.62772 344.475Q333.25272 343.975 334.19022 343.975Q334.87772 343.975 335.39334 344.25626Q335.9246 344.5375 336.26834 345.06876Q336.6121 345.58438 336.7996 346.33438Q336.9871 347.08438 336.9871 348.36563Q336.9871 349.88126 336.6746 350.80313Q336.37772 351.725 335.75272 352.24063Q335.14334 352.74063 334.19022 352.74063Q332.95584 352.74063 332.2371 351.85Q331.39334 350.7875 331.39334 348.36563ZM332.47147 348.36563Q332.47147 350.475 332.97147 351.17813Q333.47147 351.88126 334.19022 351.88126Q334.9246 351.88126 335.40897 351.17813Q335.90897 350.475 335.90897 348.36563Q335.90897 346.24063 335.40897 345.55313Q334.9246 344.85 334.1746 344.85Q333.45584 344.85 333.01834 345.45938Q332.47147 346.24063 332.47147 348.36563Z" fill-rule="nonzero"/><path fill="#000000" d="M479.71542 352.6L478.66855 352.6L478.66855 345.88126Q478.27792 346.24063 477.65292 346.61563Q477.04355 346.975 476.55917 347.14688L476.55917 346.13126Q477.43417 345.70938 478.09042 345.13126Q478.7623 344.5375 479.04355 343.975L479.71542 343.975L479.71542 352.6ZM482.74667 348.36563Q482.74667 346.83438 483.05917 345.9125Q483.37167 344.975 483.98105 344.475Q484.60605 343.975 485.54355 343.975Q486.23105 343.975 486.74667 344.25626Q487.27792 344.5375 487.62167 345.06876Q487.96542 345.58438 488.15292 346.33438Q488.34042 347.08438 488.34042 348.36563Q488.34042 349.88126 488.02792 350.80313Q487.73105 351.725 487.10605 352.24063Q486.49667 352.74063 485.54355 352.74063Q484.30917 352.74063 483.59042 351.85Q482.74667 350.7875 482.74667 348.36563ZM483.8248 348.36563Q483.8248 350.475 484.3248 351.17813Q484.8248 351.88126 485.54355 351.88126Q486.27792 351.88126 486.7623 351.17813Q487.2623 350.475 487.2623 348.36563Q487.2623 346.24063 486.7623 345.55313Q486.27792 344.85 485.52792 344.85Q484.80917 344.85 484.37167 345.45938Q483.8248 346.24063 483.8248 348.36563ZM489.74667 348.36563Q489.74667 346.83438 490.05917 345.9125Q490.37167 344.975 490.98105 344.475Q491.60605 343.975 492.54355 343.975Q493.23105 343.975 493.74667 344.25626Q494.27792 344.5375 494.62167 345.06876Q494.96542 345.58438 495.15292 346.33438Q495.34042 347.08438 495.34042 348.36563Q495.34042 349.88126 495.02792 350.80313Q494.73105 351.725 494.10605 352.24063Q493.49667 352.74063 492.54355 352.74063Q491.30917 352.74063 490.59042 351.85Q489.74667 350.7875 489.74667 348.36563ZM490.8248 348.36563Q490.8248 350.475 491.3248 351.17813Q491.8248 351.88126 492.54355 351.88126Q493.27792 351.88126 493.7623 351.17813Q494.2623 350.475 494.2623 348.36563Q494.2623 346.24063 493.7623 345.55313Q493.27792 344.85 492.52792 344.85Q491.80917 344.85 491.37167 345.45938Q490.8248 346.24063 490.8248 348.36563Z" fill-rule="nonzero"/><path fill="#000000" d="M634.5687 352.6L633.52185 352.6L633.52185 345.88126Q633.1312 346.24063 632.5062 346.61563Q631.89685 346.975 631.4125 347.14688L631.4125 346.13126Q632.2875 345.70938 632.9437 345.13126Q633.6156 344.5375 633.89685 343.975L634.5687 343.975L634.5687 352.6ZM637.6 350.35L638.70935 350.25626Q638.83435 351.06876 639.27185 351.475Q639.725 351.88126 640.3656 351.88126Q641.1156 351.88126 641.64685 351.30313Q642.1781 350.725 642.1781 349.7875Q642.1781 348.88126 641.6625 348.36563Q641.1625 347.83438 640.33435 347.83438Q639.83435 347.83438 639.4125 348.06876Q639.0062 348.30313 638.77185 348.6625L637.7875 348.5375L638.6156 344.13126L642.89685 344.13126L642.89685 345.13126L639.45935 345.13126L639.0062 347.44376Q639.77185 346.89688 640.6156 346.89688Q641.7406 346.89688 642.5062 347.67813Q643.2875 348.45938 643.2875 349.69376Q643.2875 350.85 642.6156 351.70938Q641.7875 352.74063 640.3656 352.74063Q639.1937 352.74063 638.4437 352.08438Q637.70935 351.42813 637.6 350.35ZM644.6 348.36563Q644.6 346.83438 644.9125 345.9125Q645.225 344.975 645.83435 344.475Q646.45935 343.975 647.39685 343.975Q648.08435 343.975 648.6 344.25626Q649.1312 344.5375 649.475 345.06876Q649.8187 345.58438 650.0062 346.33438Q650.1937 347.08438 650.1937 348.36563Q650.1937 349.88126 649.8812 350.80313Q649.58435 351.725 648.95935 352.24063Q648.35 352.74063 647.39685 352.74063Q646.1625 352.74063 645.4437 351.85Q644.6 350.7875 644.6 348.36563ZM645.6781 348.36563Q645.6781 350.475 646.1781 351.17813Q646.6781 351.88126 647.39685 351.88126Q648.1312 351.88126 648.6156 351.17813Q649.1156 350.475 649.1156 348.36563Q649.1156 346.24063 648.6156 345.55313Q648.1312 344.85 647.3812 344.85Q646.6625 344.85 646.225 345.45938Q645.6781 346.24063 645.6781 348.36563Z" fill-rule="nonzero"/><path fill="#757575" d="M25.623417 38.30027L25.623417 25.67527L20.904667 25.67527L20.904667 23.98777L32.248417 23.98777L32.248417 25.67527L27.514042 25.67527L27.514042 38.30027L25.623417 38.30027ZM33.76404 26.003395L33.76404 23.98777L35.529667 23.98777L35.529667 26.003395L33.76404 26.003395ZM33.76404 38.30027L33.76404 27.92527L35.529667 27.92527L35.529667 38.30027L33.76404 38.30027ZM37.748417 38.30027L37.748417 27.92527L39.32654 27.92527L39.32654 29.378395Q39.810917 28.628395 40.623417 28.159645Q41.435917 27.690895 42.467167 27.690895Q43.623417 27.690895 44.35779 28.17527Q45.092167 28.64402 45.404667 29.503395Q46.63904 27.690895 48.60779 27.690895Q50.154667 27.690895 50.98279 28.55027Q51.810917 29.409645 51.810917 31.17527L51.810917 38.30027L50.060917 38.30027L50.060917 31.76902Q50.060917 30.70652 49.88904 30.253395Q49.717167 29.784645 49.26404 29.503395Q48.82654 29.222145 48.217167 29.222145Q47.123417 29.222145 46.38904 29.95652Q45.67029 30.67527 45.67029 32.26902L45.67029 38.30027L43.92029 38.30027L43.92029 31.565895Q43.92029 30.39402 43.48279 29.815895Q43.060917 29.222145 42.07654 29.222145Q41.342167 29.222145 40.70154 29.61277Q40.07654 30.003395 39.79529 30.753395Q39.51404 31.503395 39.51404 32.92527L39.51404 38.30027L37.748417 38.30027ZM61.85779 34.95652L63.67029 35.190895Q63.248417 36.76902 62.07654 37.659645Q60.92029 38.534645 59.10779 38.534645Q56.842167 38.534645 55.498417 37.14402Q54.17029 35.73777 54.17029 33.20652Q54.17029 30.58152 55.51404 29.14402Q56.85779 27.690895 59.01404 27.690895Q61.092167 27.690895 62.404667 29.11277Q63.73279 30.51902 63.73279 33.097145Q63.73279 33.253395 63.717167 33.565895L55.98279 33.565895Q56.07654 35.26902 56.95154 36.17527Q57.82654 37.08152 59.123417 37.08152Q60.092167 37.08152 60.76404 36.58152Q61.45154 36.065895 61.85779 34.95652ZM56.07654 32.11277L61.873417 32.11277Q61.76404 30.815895 61.217167 30.159645Q60.373417 29.14402 59.029667 29.14402Q57.82654 29.14402 56.998417 29.95652Q56.17029 30.753395 56.07654 32.11277ZM72.17029 38.30027L72.17029 29.30027L70.62341 29.30027L70.62341 27.92527L72.17029 27.92527L72.17029 26.83152Q72.17029 25.784645 72.35779 25.26902Q72.60779 24.58152 73.24841 24.159645Q73.88904 23.73777 75.04529 23.73777Q75.79529 23.73777 76.68591 23.909645L76.42029 25.440895Q75.87341 25.347145 75.38904 25.347145Q74.59216 25.347145 74.24841 25.690895Q73.92029 26.034645 73.92029 26.972145L73.92029 27.92527L75.95154 27.92527L75.95154 29.30027L73.92029 29.30027L73.92029 38.30027L72.17029 38.30027ZM77.10779 33.11277Q77.10779 30.23777 78.70154 28.847145Q80.04529 27.690895 81.96716 27.690895Q84.10779 27.690895 85.45154 29.097145Q86.81091 30.503395 86.81091 32.972145Q86.81091 34.972145 86.21716 36.128395Q85.62341 37.26902 84.46716 37.909645Q83.32654 38.534645 81.96716 38.534645Q79.77966 38.534645 78.43591 37.14402Q77.10779 35.73777 77.10779 33.11277ZM78.90466 33.11277Q78.90466 35.11277 79.76404 36.097145Q80.63904 37.08152 81.96716 37.08152Q83.27966 37.08152 84.13904 36.097145Q85.01404 35.097145 85.01404 33.05027Q85.01404 31.128395 84.13904 30.14402Q83.26404 29.14402 81.96716 29.14402Q80.63904 29.14402 79.76404 30.14402Q78.90466 31.128395 78.90466 33.11277ZM88.73279 38.30027L88.73279 27.92527L90.31091 27.92527L90.31091 29.503395Q90.92029 28.39402 91.43591 28.05027Q91.95154 27.690895 92.56091 27.690895Q93.45154 27.690895 94.37341 28.253395L93.76404 29.89402Q93.12341 29.503395 92.48279 29.503395Q91.90466 29.503395 91.43591 29.86277Q90.98279 30.20652 90.77966 30.815895Q90.49841 31.753395 90.49841 32.86277L90.49841 38.30027L88.73279 38.30027ZM102.01404 38.30027L102.01404 23.98777L108.35779 23.98777Q110.26404 23.98777 111.26404 24.378395Q112.26404 24.753395 112.85779 25.73777Q113.45154 26.70652 113.45154 27.89402Q113.45154 29.409645 112.46716 30.45652Q111.48279 31.503395 109.42029 31.784645Q110.17029 32.14402 110.56091 32.503395Q111.38904 33.253395 112.13904 34.409645L114.62341 38.30027L112.24841 38.30027L110.34216 35.315895Q109.51404 34.034645 108.98279 33.347145Q108.45154 32.659645 108.01404 32.39402Q107.59216 32.11277 107.15466 32.003395Q106.82654 31.940895 106.10779 31.940895L103.90466 31.940895L103.90466 38.30027L102.01404 38.30027ZM103.90466 30.30027L107.98279 30.30027Q109.27966 30.30027 109.99841 30.034645Q110.73279 29.76902 111.10779 29.17527Q111.49841 28.58152 111.49841 27.89402Q111.49841 26.878395 110.76404 26.222145Q110.02966 25.565895 108.43591 25.565895L103.90466 25.565895L103.90466 30.30027ZM122.85779 34.95652L124.67029 35.190895Q124.24841 36.76902 123.07654 37.659645Q121.92029 38.534645 120.10779 38.534645Q117.84216 38.534645 116.49841 37.14402Q115.17029 35.73777 115.17029 33.20652Q115.17029 30.58152 116.51404 29.14402Q117.85779 27.690895 120.01404 27.690895Q122.09216 27.690895 123.40466 29.11277Q124.73279 30.51902 124.73279 33.097145Q124.73279 33.253395 124.71716 33.565895L116.98279 33.565895Q117.07654 35.26902 117.95154 36.17527Q118.82654 37.08152 120.12341 37.08152Q121.09216 37.08152 121.76404 36.58152Q122.45154 36.065895 122.85779 34.95652ZM117.07654 32.11277L122.87341 32.11277Q122.76404 30.815895 122.21716 30.159645Q121.37341 29.14402 120.02966 29.14402Q118.82654 29.14402 117.99841 29.95652Q117.17029 30.753395 117.07654 32.11277ZM126.74841 38.30027L126.74841 27.92527L128.32654 27.92527L128.32654 29.378395Q128.81091 28.628395 129.62341 28.159645Q130.43591 27.690895 131.46716 27.690895Q132.62341 27.690895 133.35779 28.17527Q134.09216 28.64402 134.40466 29.503395Q135.63904 27.690895 137.60779 27.690895Q139.15466 27.690895 139.98279 28.55027Q140.81091 29.409645 140.81091 31.17527L140.81091 38.30027L139.06091 38.30027L139.06091 31.76902Q139.06091 30.70652 138.88904 30.253395Q138.71716 29.784645 138.26404 29.503395Q137.82654 29.222145 137.21716 29.222145Q136.12341 29.222145 135.38904 29.95652Q134.67029 30.67527 134.67029 32.26902L134.67029 38.30027L132.92029 38.30027L132.92029 31.565895Q132.92029 30.39402 132.48279 29.815895Q132.06091 29.222145 131.07654 29.222145Q130.34216 29.222145 129.70154 29.61277Q129.07654 30.003395 128.79529 30.753395Q128.51404 31.503395 128.51404 32.92527L128.51404 38.30027L126.74841 38.30027ZM143.10779 33.11277Q143.10779 30.23777 144.70154 28.847145Q146.04529 27.690895 147.96716 27.690895Q150.10779 27.690895 151.45154 29.097145Q152.81091 30.503395 152.81091 32.972145Q152.81091 34.972145 152.21716 36.128395Q151.62341 37.26902 150.46716 37.909645Q149.32654 38.534645 147.96716 38.534645Q145.77966 38.534645 144.43591 37.14402Q143.10779 35.73777 143.10779 33.11277ZM144.90466 33.11277Q144.90466 35.11277 145.76404 36.097145Q146.63904 37.08152 147.96716 37.08152Q149.27966 37.08152 150.13904 36.097145Q151.01404 35.097145 151.01404 33.05027Q151.01404 31.128395 150.13904 30.14402Q149.26404 29.14402 147.96716 29.14402Q146.63904 29.14402 145.76404 30.14402Q144.90466 31.128395 144.90466 33.11277ZM158.59216 36.722145L158.84216 38.284645Q158.10779 38.440895 157.51404 38.440895Q156.56091 38.440895 156.02966 38.14402Q155.51404 37.83152 155.29529 37.347145Q155.07654 36.847145 155.07654 35.26902L155.07654 29.30027L153.79529 29.30027L153.79529 27.92527L155.07654 27.92527L155.07654 25.36277L156.82654 24.30027L156.82654 27.92527L158.59216 27.92527L158.59216 29.30027L156.82654 29.30027L156.82654 35.36277Q156.82654 36.11277 156.92029 36.33152Q157.01404 36.534645 157.21716 36.67527Q157.43591 36.80027 157.82654 36.80027Q158.10779 36.80027 158.59216 36.722145ZM167.85779 34.95652L169.67029 35.190895Q169.24841 36.76902 168.07654 37.659645Q166.92029 38.534645 165.10779 38.534645Q162.84216 38.534645 161.49841 37.14402Q160.17029 35.73777 160.17029 33.20652Q160.17029 30.58152 161.51404 29.14402Q162.85779 27.690895 165.01404 27.690895Q167.09216 27.690895 168.40466 29.11277Q169.73279 30.51902 169.73279 33.097145Q169.73279 33.253395 169.71716 33.565895L161.98279 33.565895Q162.07654 35.26902 162.95154 36.17527Q163.82654 37.08152 165.12341 37.08152Q166.09216 37.08152 166.76404 36.58152Q167.45154 36.065895 167.85779 34.95652ZM162.07654 32.11277L167.87341 32.11277Q167.76404 30.815895 167.21716 30.159645Q166.37341 29.14402 165.02966 29.14402Q163.82654 29.14402 162.99841 29.95652Q162.17029 30.753395 162.07654 32.11277ZM183.88904 38.30027L182.12341 38.30027L182.12341 27.097145Q181.49841 27.70652 180.46716 28.315895Q179.43591 28.909645 178.60779 29.222145L178.60779 27.51902Q180.09216 26.83152 181.18591 25.847145Q182.29529 24.847145 182.74841 23.92527L183.88904 23.92527L183.88904 38.30027ZM189.24841 38.30027L189.24841 36.30027L191.24841 36.30027L191.24841 38.30027L189.24841 38.30027ZM200.88904 38.30027L199.12341 38.30027L199.12341 27.097145Q198.49841 27.70652 197.46716 28.315895Q196.43591 28.909645 195.60779 29.222145L195.60779 27.51902Q197.09216 26.83152 198.18591 25.847145Q199.29529 24.847145 199.74841 23.92527L200.88904 23.92527L200.88904 38.30027ZM212.68591 32.690895L212.68591 31.003395L218.74841 30.98777L218.74841 36.30027Q217.34216 37.42527 215.85779 37.98777Q214.37341 38.55027 212.81091 38.55027Q210.70154 38.55027 208.98279 37.64402Q207.26404 36.73777 206.37341 35.034645Q205.49841 33.315895 205.49841 31.20652Q205.49841 29.11277 206.37341 27.315895Q207.24841 25.503395 208.88904 24.628395Q210.52966 23.73777 212.67029 23.73777Q214.21716 23.73777 215.46716 24.23777Q216.73279 24.73777 217.43591 25.64402Q218.15466 26.534645 218.52966 27.98777L216.82654 28.45652Q216.49841 27.36277 216.01404 26.73777Q215.54529 26.11277 214.65466 25.73777Q213.76404 25.36277 212.68591 25.36277Q211.37341 25.36277 210.42029 25.753395Q209.48279 26.14402 208.90466 26.80027Q208.32654 27.440895 207.99841 28.20652Q207.45154 29.534645 207.45154 31.097145Q207.45154 33.003395 208.10779 34.30027Q208.77966 35.58152 210.02966 36.20652Q211.29529 36.83152 212.70154 36.83152Q213.93591 36.83152 215.10779 36.36277Q216.27966 35.89402 216.88904 35.347145L216.88904 32.690895L212.68591 32.690895ZM221.90466 38.30027L221.90466 23.98777L227.27966 23.98777Q228.92029 23.98777 229.90466 24.42527Q230.88904 24.847145 231.45154 25.753395Q232.01404 26.659645 232.01404 27.64402Q232.01404 28.565895 231.51404 29.378395Q231.02966 30.190895 230.01404 30.67527Q231.31091 31.065895 232.01404 31.98777Q232.71716 32.89402 232.71716 34.14402Q232.71716 35.159645 232.27966 36.01902Q231.85779 36.878395 231.23279 37.347145Q230.60779 37.815895 229.67029 38.065895Q228.73279 38.30027 227.35779 38.30027L221.90466 38.30027ZM223.79529 30.003395L226.88904 30.003395Q228.15466 30.003395 228.70154 29.83152Q229.42029 29.61277 229.77966 29.128395Q230.15466 28.628395 230.15466 27.86277Q230.15466 27.159645 229.81091 26.61277Q229.46716 26.065895 228.82654 25.878395Q228.20154 25.67527 226.65466 25.67527L223.79529 25.67527L223.79529 30.003395ZM223.79529 36.61277L227.35779 36.61277Q228.27966 36.61277 228.65466 36.534645Q229.31091 36.42527 229.74841 36.159645Q230.18591 35.878395 230.46716 35.36277Q230.74841 34.83152 230.74841 34.14402Q230.74841 33.347145 230.34216 32.753395Q229.93591 32.159645 229.20154 31.92527Q228.46716 31.690895 227.10779 31.690895L223.79529 31.690895L223.79529 36.61277ZM240.34216 33.70652L242.12341 33.55027Q242.24841 34.61277 242.70154 35.30027Q243.17029 35.98777 244.13904 36.42527Q245.12341 36.847145 246.35779 36.847145Q247.43591 36.847145 248.26404 36.534645Q249.09216 36.20652 249.49841 35.64402Q249.90466 35.08152 249.90466 34.409645Q249.90466 33.73777 249.51404 33.23777Q249.12341 32.73777 248.23279 32.39402Q247.65466 32.159645 245.67029 31.690895Q243.70154 31.222145 242.92029 30.80027Q241.88904 30.26902 241.38904 29.472145Q240.88904 28.67527 240.88904 27.690895Q240.88904 26.597145 241.49841 25.659645Q242.10779 24.722145 243.29529 24.23777Q244.48279 23.73777 245.92029 23.73777Q247.51404 23.73777 248.73279 24.253395Q249.95154 24.76902 250.59216 25.76902Q251.24841 26.753395 251.29529 28.01902L249.48279 28.159645Q249.34216 26.80027 248.49841 26.11277Q247.65466 25.409645 245.99841 25.409645Q244.27966 25.409645 243.48279 26.05027Q242.70154 26.67527 242.70154 27.55027Q242.70154 28.33152 243.26404 28.83152Q243.81091 29.33152 246.12341 29.847145Q248.43591 30.36277 249.29529 30.753395Q250.54529 31.33152 251.13904 32.222145Q251.73279 33.097145 251.73279 34.253395Q251.73279 35.39402 251.07654 36.409645Q250.42029 37.42527 249.18591 37.98777Q247.96716 38.55027 246.43591 38.55027Q244.49841 38.55027 243.18591 37.98777Q241.87341 37.409645 241.12341 36.26902Q240.37341 35.128395 240.34216 33.70652ZM253.74841 38.30027L253.74841 27.92527L255.34216 27.92527L255.34216 29.409645Q256.4828 27.690895 258.63904 27.690895Q259.57654 27.690895 260.3578 28.034645Q261.15466 28.36277 261.5453 28.909645Q261.9359 29.45652 262.09216 30.20652Q262.1859 30.70652 262.1859 31.92527L262.1859 38.30027L260.4203 38.30027L260.4203 31.98777Q260.4203 30.909645 260.21716 30.378395Q260.01404 29.847145 259.4828 29.534645Q258.96716 29.222145 258.26404 29.222145Q257.13904 29.222145 256.32654 29.940895Q255.51404 30.64402 255.51404 32.628395L255.51404 38.30027L253.74841 38.30027ZM271.52966 37.01902Q270.5453 37.847145 269.63904 38.190895Q268.7328 38.534645 267.70154 38.534645Q265.9984 38.534645 265.07654 37.70652Q264.15466 36.86277 264.15466 35.565895Q264.15466 34.80027 264.4984 34.17527Q264.8578 33.55027 265.4203 33.17527Q265.9828 32.784645 266.6859 32.58152Q267.20154 32.45652 268.2484 32.315895Q270.3734 32.065895 271.3734 31.722145Q271.38904 31.36277 271.38904 31.253395Q271.38904 30.190895 270.88904 29.73777Q270.21716 29.14402 268.88904 29.14402Q267.63904 29.14402 267.0453 29.58152Q266.46716 30.01902 266.1859 31.128395L264.46716 30.89402Q264.70154 29.784645 265.2328 29.11277Q265.76404 28.42527 266.77966 28.065895Q267.7953 27.690895 269.13904 27.690895Q270.46716 27.690895 271.2953 28.003395Q272.1234 28.315895 272.51404 28.80027Q272.90466 29.26902 273.0609 29.98777Q273.15466 30.440895 273.15466 31.61277L273.15466 33.95652Q273.15466 36.409645 273.26404 37.065895Q273.3734 37.70652 273.71716 38.30027L271.8734 38.30027Q271.6078 37.753395 271.52966 37.01902ZM271.3734 33.097145Q270.4203 33.48777 268.4984 33.753395Q267.4203 33.909645 266.96716 34.11277Q266.52966 34.30027 266.27966 34.67527Q266.02966 35.05027 266.02966 35.51902Q266.02966 36.222145 266.5609 36.690895Q267.09216 37.159645 268.1234 37.159645Q269.13904 37.159645 269.9203 36.722145Q270.71716 36.26902 271.09216 35.503395Q271.3734 34.89402 271.3734 33.73777L271.3734 33.097145ZM275.7484 42.26902L275.7484 27.92527L277.3578 27.92527L277.3578 29.26902Q277.9203 28.48777 278.6234 28.097145Q279.34216 27.690895 280.3578 27.690895Q281.6859 27.690895 282.70154 28.378395Q283.71716 29.065895 284.2328 30.315895Q284.76404 31.55027 284.76404 33.034645Q284.76404 34.628395 284.1859 35.909645Q283.6234 37.17527 282.52966 37.86277Q281.4359 38.534645 280.2328 38.534645Q279.3578 38.534645 278.65466 38.159645Q277.96716 37.784645 277.51404 37.222145L277.51404 42.26902L275.7484 42.26902ZM277.34216 33.17527Q277.34216 35.17527 278.15466 36.128395Q278.96716 37.08152 280.1234 37.08152Q281.2953 37.08152 282.1234 36.097145Q282.96716 35.11277 282.96716 33.01902Q282.96716 31.05027 282.13904 30.065895Q281.32654 29.065895 280.20154 29.065895Q279.07654 29.065895 278.20154 30.128395Q277.34216 31.17527 277.34216 33.17527ZM286.0453 35.20652L287.7953 34.92527Q287.9359 35.972145 288.6078 36.534645Q289.27966 37.08152 290.4828 37.08152Q291.6859 37.08152 292.26404 36.597145Q292.8578 36.097145 292.8578 35.440895Q292.8578 34.847145 292.34216 34.503395Q291.9828 34.26902 290.5453 33.909645Q288.6078 33.409645 287.8578 33.065895Q287.1234 32.70652 286.7328 32.08152Q286.34216 31.440895 286.34216 30.67527Q286.34216 29.98777 286.65466 29.39402Q286.9828 28.80027 287.52966 28.409645Q287.9359 28.11277 288.63904 27.909645Q289.3578 27.690895 290.1703 27.690895Q291.38904 27.690895 292.3109 28.05027Q293.2328 28.39402 293.6703 29.003395Q294.1078 29.597145 294.27966 30.597145L292.5609 30.83152Q292.4359 30.034645 291.8734 29.597145Q291.3109 29.14402 290.2953 29.14402Q289.07654 29.14402 288.5609 29.55027Q288.0453 29.940895 288.0453 30.472145Q288.0453 30.815895 288.26404 31.097145Q288.46716 31.378395 288.9359 31.565895Q289.20154 31.659645 290.4828 32.003395Q292.3578 32.503395 293.09216 32.83152Q293.82654 33.14402 294.2484 33.753395Q294.6703 34.347145 294.6703 35.253395Q294.6703 36.128395 294.15466 36.909645Q293.63904 37.690895 292.6703 38.11277Q291.70154 38.534645 290.4828 38.534645Q288.46716 38.534645 287.40466 37.690895Q286.34216 36.847145 286.0453 35.20652ZM296.7484 38.30027L296.7484 23.98777L298.51404 23.98777L298.51404 29.11277Q299.7484 27.690895 301.6234 27.690895Q302.76404 27.690895 303.6078 28.14402Q304.46716 28.597145 304.82654 29.409645Q305.20154 30.20652 305.20154 31.722145L305.20154 38.30027L303.45154 38.30027L303.45154 31.722145Q303.45154 30.409645 302.8734 29.815895Q302.2953 29.20652 301.26404 29.20652Q300.4828 29.20652 299.77966 29.61277Q299.09216 30.01902 298.7953 30.722145Q298.51404 31.409645 298.51404 32.628395L298.51404 38.30027L296.7484 38.30027ZM307.1078 33.11277Q307.1078 30.23777 308.70154 28.847145Q310.0453 27.690895 311.96716 27.690895Q314.1078 27.690895 315.45154 29.097145Q316.8109 30.503395 316.8109 32.972145Q316.8109 34.972145 316.21716 36.128395Q315.6234 37.26902 314.46716 37.909645Q313.32654 38.534645 311.96716 38.534645Q309.77966 38.534645 308.4359 37.14402Q307.1078 35.73777 307.1078 33.11277ZM308.90466 33.11277Q308.90466 35.11277 309.76404 36.097145Q310.63904 37.08152 311.96716 37.08152Q313.27966 37.08152 314.13904 36.097145Q315.01404 35.097145 315.01404 33.05027Q315.01404 31.128395 314.13904 30.14402Q313.26404 29.14402 311.96716 29.14402Q310.63904 29.14402 309.76404 30.14402Q308.90466 31.128395 308.90466 33.11277ZM322.59216 36.722145L322.84216 38.284645Q322.1078 38.440895 321.51404 38.440895Q320.5609 38.440895 320.02966 38.14402Q319.51404 37.83152 319.2953 37.347145Q319.07654 36.847145 319.07654 35.26902L319.07654 29.30027L317.7953 29.30027L317.7953 27.92527L319.07654 27.92527L319.07654 25.36277L320.82654 24.30027L320.82654 27.92527L322.59216 27.92527L322.59216 29.30027L320.82654 29.30027L320.82654 35.36277Q320.82654 36.11277 320.9203 36.33152Q321.01404 36.534645 321.21716 36.67527Q321.4359 36.80027 321.82654 36.80027Q322.1078 36.80027 322.59216 36.722145ZM331.01404 38.30027L331.01404 23.98777L337.3578 23.98777Q339.26404 23.98777 340.26404 24.378395Q341.26404 24.753395 341.8578 25.73777Q342.45154 26.70652 342.45154 27.89402Q342.45154 29.409645 341.46716 30.45652Q340.4828 31.503395 338.4203 31.784645Q339.1703 32.14402 339.5609 32.503395Q340.38904 33.253395 341.13904 34.409645L343.6234 38.30027L341.2484 38.30027L339.34216 35.315895Q338.51404 34.034645 337.9828 33.347145Q337.45154 32.659645 337.01404 32.39402Q336.59216 32.11277 336.15466 32.003395Q335.82654 31.940895 335.1078 31.940895L332.90466 31.940895L332.90466 38.30027L331.01404 38.30027ZM332.90466 30.30027L336.9828 30.30027Q338.27966 30.30027 338.9984 30.034645Q339.7328 29.76902 340.1078 29.17527Q340.4984 28.58152 340.4984 27.89402Q340.4984 26.878395 339.76404 26.222145Q339.02966 25.565895 337.4359 25.565895L332.90466 25.565895L332.90466 30.30027ZM351.8578 34.95652L353.6703 35.190895Q353.2484 36.76902 352.07654 37.659645Q350.9203 38.534645 349.1078 38.534645Q346.84216 38.534645 345.4984 37.14402Q344.1703 35.73777 344.1703 33.20652Q344.1703 30.58152 345.51404 29.14402Q346.8578 27.690895 349.01404 27.690895Q351.09216 27.690895 352.40466 29.11277Q353.7328 30.51902 353.7328 33.097145Q353.7328 33.253395 353.71716 33.565895L345.9828 33.565895Q346.07654 35.26902 346.95154 36.17527Q347.82654 37.08152 349.1234 37.08152Q350.09216 37.08152 350.76404 36.58152Q351.45154 36.065895 351.8578 34.95652ZM346.07654 32.11277L351.8734 32.11277Q351.76404 30.815895 351.21716 30.159645Q350.3734 29.14402 349.02966 29.14402Q347.82654 29.14402 346.9984 29.95652Q346.1703 30.753395 346.07654 32.11277ZM355.0453 35.20652L356.7953 34.92527Q356.9359 35.972145 357.6078 36.534645Q358.27966 37.08152 359.4828 37.08152Q360.6859 37.08152 361.26404 36.597145Q361.8578 36.097145 361.8578 35.440895Q361.8578 34.847145 361.34216 34.503395Q360.9828 34.26902 359.5453 33.909645Q357.6078 33.409645 356.8578 33.065895Q356.1234 32.70652 355.7328 32.08152Q355.34216 31.440895 355.34216 30.67527Q355.34216 29.98777 355.65466 29.39402Q355.9828 28.80027 356.52966 28.409645Q356.9359 28.11277 357.63904 27.909645Q358.3578 27.690895 359.1703 27.690895Q360.38904 27.690895 361.3109 28.05027Q362.2328 28.39402 362.6703 29.003395Q363.1078 29.597145 363.27966 30.597145L361.5609 30.83152Q361.4359 30.034645 360.8734 29.597145Q360.3109 29.14402 359.2953 29.14402Q358.07654 29.14402 357.5609 29.55027Q357.0453 29.940895 357.0453 30.472145Q357.0453 30.815895 357.26404 31.097145Q357.46716 31.378395 357.9359 31.565895Q358.20154 31.659645 359.4828 32.003395Q361.3578 32.503395 362.09216 32.83152Q362.82654 33.14402 363.2484 33.753395Q363.6703 34.347145 363.6703 35.253395Q363.6703 36.128395 363.15466 36.909645Q362.63904 37.690895 361.6703 38.11277Q360.70154 38.534645 359.4828 38.534645Q357.46716 38.534645 356.40466 37.690895Q355.34216 36.847145 355.0453 35.20652ZM369.59216 36.722145L369.84216 38.284645Q369.1078 38.440895 368.51404 38.440895Q367.5609 38.440895 367.02966 38.14402Q366.51404 37.83152 366.2953 37.347145Q366.07654 36.847145 366.07654 35.26902L366.07654 29.30027L364.7953 29.30027L364.7953 27.92527L366.07654 27.92527L366.07654 25.36277L367.82654 24.30027L367.82654 27.92527L369.59216 27.92527L369.59216 29.30027L367.82654 29.30027L367.82654 35.36277Q367.82654 36.11277 367.9203 36.33152Q368.01404 36.534645 368.21716 36.67527Q368.4359 36.80027 368.82654 36.80027Q369.1078 36.80027 369.59216 36.722145ZM371.1078 33.11277Q371.1078 30.23777 372.70154 28.847145Q374.0453 27.690895 375.96716 27.690895Q378.1078 27.690895 379.45154 29.097145Q380.8109 30.503395 380.8109 32.972145Q380.8109 34.972145 380.21716 36.128395Q379.6234 37.26902 378.46716 37.909645Q377.32654 38.534645 375.96716 38.534645Q373.77966 38.534645 372.4359 37.14402Q371.1078 35.73777 371.1078 33.11277ZM372.90466 33.11277Q372.90466 35.11277 373.76404 36.097145Q374.63904 37.08152 375.96716 37.08152Q377.27966 37.08152 378.13904 36.097145Q379.01404 35.097145 379.01404 33.05027Q379.01404 31.128395 378.13904 30.14402Q377.26404 29.14402 375.96716 29.14402Q374.63904 29.14402 373.76404 30.14402Q372.90466 31.128395 372.90466 33.11277ZM382.7328 38.30027L382.7328 27.92527L384.3109 27.92527L384.3109 29.503395Q384.9203 28.39402 385.4359 28.05027Q385.95154 27.690895 386.5609 27.690895Q387.45154 27.690895 388.3734 28.253395L387.76404 29.89402Q387.1234 29.503395 386.4828 29.503395Q385.90466 29.503395 385.4359 29.86277Q384.9828 30.20652 384.77966 30.815895Q384.4984 31.753395 384.4984 32.86277L384.4984 38.30027L382.7328 38.30027ZM396.8578 34.95652L398.6703 35.190895Q398.2484 36.76902 397.07654 37.659645Q395.9203 38.534645 394.1078 38.534645Q391.84216 38.534645 390.4984 37.14402Q389.1703 35.73777 389.1703 33.20652Q389.1703 30.58152 390.51404 29.14402Q391.8578 27.690895 394.01404 27.690895Q396.09216 27.690895 397.40466 29.11277Q398.7328 30.51902 398.7328 33.097145Q398.7328 33.253395 398.71716 33.565895L390.9828 33.565895Q391.07654 35.26902 391.95154 36.17527Q392.82654 37.08152 394.1234 37.08152Q395.09216 37.08152 395.76404 36.58152Q396.45154 36.065895 396.8578 34.95652ZM391.07654 32.11277L396.8734 32.11277Q396.76404 30.815895 396.21716 30.159645Q395.3734 29.14402 394.02966 29.14402Q392.82654 29.14402 391.9984 29.95652Q391.1703 30.753395 391.07654 32.11277ZM410.1078 42.503395Q408.65466 40.67527 407.65466 38.222145Q406.65466 35.753395 406.65466 33.11277Q406.65466 30.784645 407.40466 28.659645Q408.27966 26.190895 410.1078 23.73777L411.3734 23.73777Q410.1859 25.76902 409.8109 26.64402Q409.21716 27.98777 408.8734 29.45652Q408.45154 31.284645 408.45154 33.128395Q408.45154 37.815895 411.3734 42.503395L410.1078 42.503395ZM413.34216 33.70652L415.1234 33.55027Q415.2484 34.61277 415.70154 35.30027Q416.1703 35.98777 417.13904 36.42527Q418.1234 36.847145 419.3578 36.847145Q420.4359 36.847145 421.26404 36.534645Q422.09216 36.20652 422.4984 35.64402Q422.90466 35.08152 422.90466 34.409645Q422.90466 33.73777 422.51404 33.23777Q422.1234 32.73777 421.2328 32.39402Q420.65466 32.159645 418.6703 31.690895Q416.70154 31.222145 415.9203 30.80027Q414.88904 30.26902 414.38904 29.472145Q413.88904 28.67527 413.88904 27.690895Q413.88904 26.597145 414.4984 25.659645Q415.1078 24.722145 416.2953 24.23777Q417.4828 23.73777 418.9203 23.73777Q420.51404 23.73777 421.7328 24.253395Q422.95154 24.76902 423.59216 25.76902Q424.2484 26.753395 424.2953 28.01902L422.4828 28.159645Q422.34216 26.80027 421.4984 26.11277Q420.65466 25.409645 418.9984 25.409645Q417.27966 25.409645 416.4828 26.05027Q415.70154 26.67527 415.70154 27.55027Q415.70154 28.33152 416.26404 28.83152Q416.8109 29.33152 419.1234 29.847145Q421.4359 30.36277 422.2953 30.753395Q423.5453 31.33152 424.13904 32.222145Q424.7328 33.097145 424.7328 34.253395Q424.7328 35.39402 424.07654 36.409645Q423.4203 37.42527 422.1859 37.98777Q420.96716 38.55027 419.4359 38.55027Q417.4984 38.55027 416.1859 37.98777Q414.8734 37.409645 414.1234 36.26902Q413.3734 35.128395 413.34216 33.70652ZM426.7484 38.30027L426.7484 27.92527L428.32654 27.92527L428.32654 29.378395Q428.8109 28.628395 429.6234 28.159645Q430.4359 27.690895 431.46716 27.690895Q432.6234 27.690895 433.3578 28.17527Q434.09216 28.64402 434.40466 29.503395Q435.63904 27.690895 437.6078 27.690895Q439.15466 27.690895 439.9828 28.55027Q440.8109 29.409645 440.8109 31.17527L440.8109 38.30027L439.0609 38.30027L439.0609 31.76902Q439.0609 30.70652 438.88904 30.253395Q438.71716 29.784645 438.26404 29.503395Q437.82654 29.222145 437.21716 29.222145Q436.1234 29.222145 435.38904 29.95652Q434.6703 30.67527 434.6703 32.26902L434.6703 38.30027L432.9203 38.30027L432.9203 31.565895Q432.9203 30.39402 432.4828 29.815895Q432.0609 29.222145 431.07654 29.222145Q430.34216 29.222145 429.70154 29.61277Q429.07654 30.003395 428.7953 30.753395Q428.51404 31.503395 428.51404 32.92527L428.51404 38.30027L426.7484 38.30027ZM450.52966 37.01902Q449.5453 37.847145 448.63904 38.190895Q447.7328 38.534645 446.70154 38.534645Q444.9984 38.534645 444.07654 37.70652Q443.15466 36.86277 443.15466 35.565895Q443.15466 34.80027 443.4984 34.17527Q443.8578 33.55027 444.4203 33.17527Q444.9828 32.784645 445.6859 32.58152Q446.20154 32.45652 447.2484 32.315895Q449.3734 32.065895 450.3734 31.722145Q450.38904 31.36277 450.38904 31.253395Q450.38904 30.190895 449.88904 29.73777Q449.21716 29.14402 447.88904 29.14402Q446.63904 29.14402 446.0453 29.58152Q445.46716 30.01902 445.1859 31.128395L443.46716 30.89402Q443.70154 29.784645 444.2328 29.11277Q444.76404 28.42527 445.77966 28.065895Q446.7953 27.690895 448.13904 27.690895Q449.46716 27.690895 450.2953 28.003395Q451.1234 28.315895 451.51404 28.80027Q451.90466 29.26902 452.0609 29.98777Q452.15466 30.440895 452.15466 31.61277L452.15466 33.95652Q452.15466 36.409645 452.26404 37.065895Q452.3734 37.70652 452.71716 38.30027L450.8734 38.30027Q450.6078 37.753395 450.52966 37.01902ZM450.3734 33.097145Q449.4203 33.48777 447.4984 33.753395Q446.4203 33.909645 445.96716 34.11277Q445.52966 34.30027 445.27966 34.67527Q445.02966 35.05027 445.02966 35.51902Q445.02966 36.222145 445.5609 36.690895Q446.09216 37.159645 447.1234 37.159645Q448.13904 37.159645 448.9203 36.722145Q449.71716 36.26902 450.09216 35.503395Q450.3734 34.89402 450.3734 33.73777L450.3734 33.097145ZM454.71716 38.30027L454.71716 23.98777L456.46716 23.98777L456.46716 38.30027L454.71716 38.30027ZM458.71716 38.30027L458.71716 23.98777L460.46716 23.98777L460.46716 38.30027L458.71716 38.30027ZM469.8578 34.95652L471.6703 35.190895Q471.2484 36.76902 470.07654 37.659645Q468.9203 38.534645 467.1078 38.534645Q464.84216 38.534645 463.4984 37.14402Q462.1703 35.73777 462.1703 33.20652Q462.1703 30.58152 463.51404 29.14402Q464.8578 27.690895 467.01404 27.690895Q469.09216 27.690895 470.40466 29.11277Q471.7328 30.51902 471.7328 33.097145Q471.7328 33.253395 471.71716 33.565895L463.9828 33.565895Q464.07654 35.26902 464.95154 36.17527Q465.82654 37.08152 467.1234 37.08152Q468.09216 37.08152 468.76404 36.58152Q469.45154 36.065895 469.8578 34.95652ZM464.07654 32.11277L469.8734 32.11277Q469.76404 30.815895 469.21716 30.159645Q468.3734 29.14402 467.02966 29.14402Q465.82654 29.14402 464.9984 29.95652Q464.1703 30.753395 464.07654 32.11277ZM473.7328 38.30027L473.7328 27.92527L475.3109 27.92527L475.3109 29.503395Q475.9203 28.39402 476.4359 28.05027Q476.95154 27.690895 477.5609 27.690895Q478.45154 27.690895 479.3734 28.253395L478.76404 29.89402Q478.1234 29.503395 477.4828 29.503395Q476.90466 29.503395 476.4359 29.86277Q475.9828 30.20652 475.77966 30.815895Q475.4984 31.753395 475.4984 32.86277L475.4984 38.30027L473.7328 38.30027ZM486.76404 26.003395L486.76404 23.98777L488.52966 23.98777L488.52966 26.003395L486.76404 26.003395ZM486.76404 38.30027L486.76404 27.92527L488.52966 27.92527L488.52966 38.30027L486.76404 38.30027ZM490.0453 35.20652L491.7953 34.92527Q491.9359 35.972145 492.6078 36.534645Q493.27966 37.08152 494.4828 37.08152Q495.6859 37.08152 496.26404 36.597145Q496.8578 36.097145 496.8578 35.440895Q496.8578 34.847145 496.34216 34.503395Q495.9828 34.26902 494.5453 33.909645Q492.6078 33.409645 491.8578 33.065895Q491.1234 32.70652 490.7328 32.08152Q490.34216 31.440895 490.34216 30.67527Q490.34216 29.98777 490.65466 29.39402Q490.9828 28.80027 491.52966 28.409645Q491.9359 28.11277 492.63904 27.909645Q493.3578 27.690895 494.1703 27.690895Q495.38904 27.690895 496.3109 28.05027Q497.2328 28.39402 497.6703 29.003395Q498.1078 29.597145 498.27966 30.597145L496.5609 30.83152Q496.4359 30.034645 495.8734 29.597145Q495.3109 29.14402 494.2953 29.14402Q493.07654 29.14402 492.5609 29.55027Q492.0453 29.940895 492.0453 30.472145Q492.0453 30.815895 492.26404 31.097145Q492.46716 31.378395 492.9359 31.565895Q493.20154 31.659645 494.4828 32.003395Q496.3578 32.503395 497.09216 32.83152Q497.82654 33.14402 498.2484 33.753395Q498.6703 34.347145 498.6703 35.253395Q498.6703 36.128395 498.15466 36.909645Q497.63904 37.690895 496.6703 38.11277Q495.70154 38.534645 494.4828 38.534645Q492.46716 38.534645 491.40466 37.690895Q490.34216 36.847145 490.0453 35.20652ZM508.3734 38.30027L506.7484 38.30027L506.7484 23.98777L508.4984 23.98777L508.4984 29.097145Q509.6234 27.690895 511.34216 27.690895Q512.2953 27.690895 513.15466 28.08152Q514.01404 28.472145 514.5609 29.17527Q515.1078 29.86277 515.4203 30.847145Q515.7328 31.83152 515.7328 32.95652Q515.7328 35.628395 514.4203 37.08152Q513.1078 38.534645 511.26404 38.534645Q509.4203 38.534645 508.3734 37.003395L508.3734 38.30027ZM508.3578 33.034645Q508.3578 34.89402 508.8578 35.73777Q509.70154 37.08152 511.1078 37.08152Q512.26404 37.08152 513.09216 36.08152Q513.9359 35.08152 513.9359 33.097145Q513.9359 31.065895 513.1234 30.11277Q512.32654 29.14402 511.1859 29.14402Q510.02966 29.14402 509.1859 30.14402Q508.3578 31.14402 508.3578 33.034645ZM524.8578 34.95652L526.6703 35.190895Q526.2484 36.76902 525.07654 37.659645Q523.9203 38.534645 522.1078 38.534645Q519.84216 38.534645 518.4984 37.14402Q517.1703 35.73777 517.1703 33.20652Q517.1703 30.58152 518.51404 29.14402Q519.8578 27.690895 522.01404 27.690895Q524.09216 27.690895 525.40466 29.11277Q526.7328 30.51902 526.7328 33.097145Q526.7328 33.253395 526.71716 33.565895L518.9828 33.565895Q519.07654 35.26902 519.95154 36.17527Q520.82654 37.08152 522.1234 37.08152Q523.09216 37.08152 523.76404 36.58152Q524.45154 36.065895 524.8578 34.95652ZM519.07654 32.11277L524.8734 32.11277Q524.76404 30.815895 524.21716 30.159645Q523.3734 29.14402 522.02966 29.14402Q520.82654 29.14402 519.9984 29.95652Q519.1703 30.753395 519.07654 32.11277ZM532.59216 36.722145L532.84216 38.284645Q532.1078 38.440895 531.51404 38.440895Q530.5609 38.440895 530.02966 38.14402Q529.51404 37.83152 529.2953 37.347145Q529.07654 36.847145 529.07654 35.26902L529.07654 29.30027L527.7953 29.30027L527.7953 27.92527L529.07654 27.92527L529.07654 25.36277L530.82654 24.30027L530.82654 27.92527L532.59216 27.92527L532.59216 29.30027L530.82654 29.30027L530.82654 35.36277Q530.82654 36.11277 530.9203 36.33152Q531.01404 36.534645 531.21716 36.67527Q531.4359 36.80027 531.82654 36.80027Q532.1078 36.80027 532.59216 36.722145ZM538.59216 36.722145L538.84216 38.284645Q538.1078 38.440895 537.51404 38.440895Q536.5609 38.440895 536.02966 38.14402Q535.51404 37.83152 535.2953 37.347145Q535.07654 36.847145 535.07654 35.26902L535.07654 29.30027L533.7953 29.30027L533.7953 27.92527L535.07654 27.92527L535.07654 25.36277L536.82654 24.30027L536.82654 27.92527L538.59216 27.92527L538.59216 29.30027L536.82654 29.30027L536.82654 35.36277Q536.82654 36.11277 536.9203 36.33152Q537.01404 36.534645 537.21716 36.67527Q537.4359 36.80027 537.82654 36.80027Q538.1078 36.80027 538.59216 36.722145ZM547.8578 34.95652L549.6703 35.190895Q549.2484 36.76902 548.07654 37.659645Q546.9203 38.534645 545.1078 38.534645Q542.84216 38.534645 541.4984 37.14402Q540.1703 35.73777 540.1703 33.20652Q540.1703 30.58152 541.51404 29.14402Q542.8578 27.690895 545.01404 27.690895Q547.09216 27.690895 548.40466 29.11277Q549.7328 30.51902 549.7328 33.097145Q549.7328 33.253395 549.71716 33.565895L541.9828 33.565895Q542.07654 35.26902 542.95154 36.17527Q543.82654 37.08152 545.1234 37.08152Q546.09216 37.08152 546.76404 36.58152Q547.45154 36.065895 547.8578 34.95652ZM542.07654 32.11277L547.8734 32.11277Q547.76404 30.815895 547.21716 30.159645Q546.3734 29.14402 545.02966 29.14402Q543.82654 29.14402 542.9984 29.95652Q542.1703 30.753395 542.07654 32.11277ZM551.7328 38.30027L551.7328 27.92527L553.3109 27.92527L553.3109 29.503395Q553.9203 28.39402 554.4359 28.05027Q554.95154 27.690895 555.5609 27.690895Q556.45154 27.690895 557.3734 28.253395L556.76404 29.89402Q556.1234 29.503395 555.4828 29.503395Q554.90466 29.503395 554.4359 29.86277Q553.9828 30.20652 553.77966 30.815895Q553.4984 31.753395 553.4984 32.86277L553.4984 38.30027L551.7328 38.30027ZM559.90466 42.503395L558.65466 42.503395Q561.5609 37.815895 561.5609 33.128395Q561.5609 31.284645 561.15466 29.48777Q560.8109 28.01902 560.21716 26.67527Q559.84216 25.784645 558.65466 23.73777L559.90466 23.73777Q561.7484 26.190895 562.6234 28.659645Q563.3734 30.784645 563.3734 33.11277Q563.3734 35.753395 562.3578 38.222145Q561.3578 40.67527 559.90466 42.503395Z" fill-rule="nonzero"/></svg>