<svg version="1.1" viewBox="0.0 0.0 600.0 371.0" fill="none" stroke="none" stroke-linecap="square" stroke-miterlimit="10" width="600" height="371" xmlns:xlink="http://www.w3.org/1999/xlink" xmlns="http://www.w3.org/2000/svg"><path fill="#ffffff" d="M0 0L600.0 0L600.0 371.0L0 371.0L0 0Z" fill-rule="nonzero"/><path stroke="#333333" stroke-width="1.0" stroke-linecap="butt" d="M132.5 54.5L132.5 300.5" fill-rule="nonzero"/><path stroke="#cccccc" stroke-width="1.0" stroke-linecap="butt" d="M244.5 54.5L244.5 300.5" fill-rule="nonzero"/><path stroke="#cccccc" stroke-width="1.0" stroke-linecap="butt" d="M357.5 54.5L357.5 300.5" fill-rule="nonzero"/><path stroke="#cccccc" stroke-width="1.0" stroke-linecap="butt" d="M469.5 54.5L469.5 300.5" fill-rule="nonzero"/><path stroke="#cccccc" stroke-width="1.0" stroke-linecap="butt" d="M581.5 54.5L581.5 300.5" fill-rule="nonzero"/><clipPath id="id_0"><path d="M132.55 54.916668L581.45 54.916668L581.45 300.45L132.55 300.45L132.55 54.916668Z" clip-rule="nonzero"/></clipPath><path stroke="#000000" stroke-width="2.0" stroke-linecap="butt" stroke-opacity="0.0" clip-path="url(#id_0)" d="M133.0 112.0L133.0 75.0L142.0 75.0C143.10457 75.0 144.0 75.89543 144.0 77.0L144.0 110.0C144.0 111.10457 143.10457 112.0 142.0 112.0Z" fill-rule="nonzero"/><path fill="#4285f4" clip-path="url(#id_0)" d="M133.0 112.0L133.0 75.0L142.0 75.0C143.10457 75.0 144.0 75.89543 144.0 77.0L144.0 110.0C144.0 111.10457 143.10457 112.0 142.0 112.0Z" fill-rule="nonzero"/><path stroke="#000000" stroke-width="2.0" stroke-linecap="butt" stroke-opacity="0.0" clip-path="url(#id_0)" d="M133.0 168.0L133.0 131.0L153.0 131.0C154.10457 131.0 155.0 131.89543 155.0 133.0L155.0 166.0C155.0 167.10457 154.10457 168.0 153.0 168.0Z" fill-rule="nonzero"/><path fill="#4285f4" clip-path="url(#id_0)" d="M133.0 168.0L133.0 131.0L153.0 131.0C154.10457 131.0 155.0 131.89543 155.0 133.0L155.0 166.0C155.0 167.10457 154.10457 168.0 153.0 168.0Z" fill-rule="nonzero"/><path stroke="#000000" stroke-width="2.0" stroke-linecap="butt" stroke-opacity="0.0" clip-path="url(#id_0)" d="M133.0 225.0L133.0 188.0L350.0 188.0C351.10458 188.0 352.0 188.89543 352.0 190.0L352.0 223.0C352.0 224.10457 351.10458 225.0 350.0 225.0Z" fill-rule="nonzero"/><path fill="#4285f4" clip-path="url(#id_0)" d="M133.0 225.0L133.0 188.0L350.0 188.0C351.10458 188.0 352.0 188.89543 352.0 190.0L352.0 223.0C352.0 224.10457 351.10458 225.0 350.0 225.0Z" fill-rule="nonzero"/><path stroke="#000000" stroke-width="2.0" stroke-linecap="butt" stroke-opacity="0.0" clip-path="url(#id_0)" d="M133.0 281.0L133.0 244.0L564.0 244.0C565.10455 244.0 566.0 244.89543 566.0 246.0L566.0 279.0C566.0 280.10458 565.10455 281.0 564.0 281.0Z" fill-rule="nonzero"/><path fill="#4285f4" clip-path="url(#id_0)" d="M133.0 281.0L133.0 244.0L564.0 244.0C565.10455 244.0 566.0 244.89543 566.0 246.0L566.0 279.0C566.0 280.10458 565.10455 281.0 564.0 281.0Z" fill-rule="nonzero"/><path fill="#000000" d="M333.54688 346.6844L334.60938 346.59064Q334.6875 347.2469 334.96875 347.65314Q335.25 348.0594 335.82812 348.325Q336.42188 348.575 337.15625 348.575Q337.79688 348.575 338.29688 348.3875Q338.79688 348.1844 339.03125 347.85626Q339.28125 347.5125 339.28125 347.1219Q339.28125 346.71564 339.04688 346.41876Q338.8125 346.10626 338.28125 345.90314Q337.92188 345.7625 336.73438 345.48126Q335.5625 345.2 335.09375 344.95Q334.46875 344.6219 334.17188 344.15314Q333.875 343.66876 333.875 343.075Q333.875 342.4344 334.23438 341.8719Q334.60938 341.29376 335.3125 341.0125Q336.03125 340.71564 336.89062 340.71564Q337.84375 340.71564 338.57812 341.02814Q339.3125 341.325 339.70312 341.9344Q340.09375 342.52814 340.125 343.27814L339.03125 343.35626Q338.9375 342.54376 338.42188 342.1375Q337.92188 341.71564 336.9375 341.71564Q335.90625 341.71564 335.4375 342.09064Q334.96875 342.46564 334.96875 342.9969Q334.96875 343.46564 335.29688 343.7625Q335.625 344.0594 337.0 344.3719Q338.39062 344.6844 338.90625 344.91876Q339.65625 345.27814 340.01562 345.8094Q340.375 346.325 340.375 347.02814Q340.375 347.71564 339.98438 348.325Q339.59375 348.91876 338.85938 349.2625Q338.125 349.59064 337.20312 349.59064Q336.03125 349.59064 335.23438 349.2625Q334.45312 348.91876 334.0 348.23126Q333.5625 347.54376 333.54688 346.6844ZM346.04688 347.45L347.14062 347.575Q346.89062 348.52814 346.1875 349.0594Q345.48438 349.59064 344.40625 349.59064Q343.04688 349.59064 342.23438 348.7469Q341.4375 347.90314 341.4375 346.3875Q341.4375 344.825 342.25 343.96564Q343.0625 343.09064 344.34375 343.09064Q345.59375 343.09064 346.375 343.9344Q347.17188 344.77814 347.17188 346.325Q347.17188 346.41876 347.17188 346.60626L342.53125 346.60626Q342.59375 347.6375 343.10938 348.1844Q343.625 348.71564 344.40625 348.71564Q344.98438 348.71564 345.39062 348.41876Q345.8125 348.10626 346.04688 347.45ZM342.59375 345.7469L346.0625 345.7469Q346.0 344.95 345.67188 344.5594Q345.15625 343.95 344.35938 343.95Q343.625 343.95 343.125 344.4344Q342.64062 344.91876 342.59375 345.7469ZM352.85938 347.16876L353.89062 347.3094Q353.71875 348.3719 353.01562 348.98126Q352.3125 349.59064 351.29688 349.59064Q350.01562 349.59064 349.23438 348.7625Q348.46875 347.91876 348.46875 346.35626Q348.46875 345.35626 348.79688 344.60626Q349.14062 343.84064 349.8125 343.46564Q350.5 343.09064 351.3125 343.09064Q352.3125 343.09064 352.95312 343.60626Q353.60938 344.10626 353.79688 345.0594L352.76562 345.21564Q352.625 344.59064 352.25 344.27814Q351.875 343.95 351.34375 343.95Q350.54688 343.95 350.04688 344.52814Q349.54688 345.09064 349.54688 346.325Q349.54688 347.59064 350.03125 348.15314Q350.51562 348.71564 351.28125 348.71564Q351.90625 348.71564 352.3125 348.34064Q352.73438 347.96564 352.85938 347.16876ZM354.40625 346.34064Q354.40625 344.60626 355.35938 343.77814Q356.15625 343.09064 357.3125 343.09064Q358.59375 343.09064 359.40625 343.9344Q360.23438 344.7625 360.23438 346.2469Q360.23438 347.45 359.875 348.1375Q359.51562 348.825 358.8125 349.21564Q358.125 349.59064 357.3125 349.59064Q356.01562 349.59064 355.20312 348.7625Q354.40625 347.91876 354.40625 346.34064ZM355.48438 346.34064Q355.48438 347.52814 356.0 348.1219Q356.53125 348.71564 357.3125 348.71564Q358.10938 348.71564 358.625 348.1219Q359.14062 347.52814 359.14062 346.3094Q359.14062 345.15314 358.60938 344.5594Q358.09375 343.96564 357.3125 343.96564Q356.53125 343.96564 356.0 344.5594Q355.48438 345.1375 355.48438 346.34064ZM361.79688 349.45L361.79688 343.23126L362.73438 343.23126L362.73438 344.10626Q363.42188 343.09064 364.71875 343.09064Q365.28125 343.09064 365.75 343.29376Q366.23438 343.4969 366.46875 343.825Q366.70312 344.15314 366.79688 344.59064Q366.84375 344.8875 366.84375 345.6219L366.84375 349.45L365.79688 349.45L365.79688 345.66876Q365.79688 345.0125 365.67188 344.7Q365.54688 344.3875 365.23438 344.2Q364.92188 343.9969 364.5 343.9969Q363.82812 343.9969 363.32812 344.4344Q362.84375 344.85626 362.84375 346.04376L362.84375 349.45L361.79688 349.45ZM372.82812 349.45L372.82812 348.66876Q372.23438 349.59064 371.09375 349.59064Q370.34375 349.59064 369.71875 349.1844Q369.09375 348.7625 368.75 348.02814Q368.40625 347.29376 368.40625 346.34064Q368.40625 345.41876 368.71875 344.65314Q369.03125 343.8875 369.65625 343.4969Q370.28125 343.09064 371.04688 343.09064Q371.60938 343.09064 372.04688 343.325Q372.48438 343.5594 372.76562 343.9344L372.76562 340.85626L373.8125 340.85626L373.8125 349.45L372.82812 349.45ZM369.5 346.34064Q369.5 347.54376 370.0 348.1375Q370.5 348.71564 371.1875 348.71564Q371.875 348.71564 372.35938 348.15314Q372.84375 347.59064 372.84375 346.4344Q372.84375 345.15314 372.34375 344.5594Q371.85938 343.96564 371.14062 343.96564Q370.4375 343.96564 369.96875 344.54376Q369.5 345.10626 369.5 346.34064ZM375.375 347.59064L376.40625 347.4344Q376.5 348.0594 376.89062 348.3875Q377.29688 348.71564 378.03125 348.71564Q378.75 348.71564 379.09375 348.4344Q379.45312 348.1375 379.45312 347.73126Q379.45312 347.3719 379.14062 347.16876Q378.92188 347.02814 378.0625 346.8094Q376.90625 346.5125 376.45312 346.3094Q376.01562 346.09064 375.78125 345.71564Q375.54688 345.34064 375.54688 344.8719Q375.54688 344.46564 375.73438 344.10626Q375.92188 343.7469 376.25 343.5125Q376.5 343.34064 376.92188 343.21564Q377.34375 343.09064 377.84375 343.09064Q378.5625 343.09064 379.10938 343.3094Q379.67188 343.5125 379.9375 343.8719Q380.20312 344.23126 380.29688 344.825L379.26562 344.96564Q379.20312 344.4969 378.85938 344.23126Q378.53125 343.95 377.90625 343.95Q377.1875 343.95 376.875 344.2Q376.5625 344.4344 376.5625 344.7625Q376.5625 344.96564 376.6875 345.1219Q376.82812 345.29376 377.09375 345.40314Q377.25 345.46564 378.03125 345.66876Q379.15625 345.98126 379.59375 346.16876Q380.03125 346.35626 380.28125 346.71564Q380.53125 347.075 380.53125 347.6219Q380.53125 348.15314 380.21875 348.6219Q379.92188 349.075 379.34375 349.34064Q378.76562 349.59064 378.03125 349.59064Q376.8125 349.59064 376.17188 349.09064Q375.54688 348.575 375.375 347.59064Z" fill-rule="nonzero"/><path fill="#000000" d="M26.534388 209.12083L26.831263 207.99583Q28.221888 208.35521 28.956263 209.27708Q29.690638 210.19896 29.690638 211.54271Q29.690638 212.93333 29.128138 213.80833Q28.565638 214.68333 27.503138 215.13646Q26.425013 215.58958 25.190638 215.58958Q23.846888 215.58958 22.846888 215.07396Q21.846888 214.55833 21.331263 213.62083Q20.815638 212.66771 20.815638 211.52708Q20.815638 210.24583 21.471888 209.37083Q22.128138 208.48021 23.315638 208.13646L23.581263 209.26146Q22.643763 209.55833 22.221888 210.13646Q21.784388 210.69896 21.784388 211.55833Q21.784388 212.54271 22.268763 213.21458Q22.737513 213.87083 23.534388 214.15208Q24.331263 214.41771 25.190638 214.41771Q26.284388 214.41771 27.096888 214.10521Q27.909388 213.77708 28.315638 213.10521Q28.721888 212.43333 28.721888 211.63646Q28.721888 210.68333 28.175013 210.02708Q27.628138 209.35521 26.534388 209.12083ZM26.440638 206.77708Q24.706263 206.77708 23.878138 205.82396Q23.190638 205.02708 23.190638 203.87083Q23.190638 202.58958 24.034388 201.77708Q24.862513 200.94896 26.346888 200.94896Q27.550013 200.94896 28.237513 201.30833Q28.925013 201.66771 29.315638 202.37083Q29.690638 203.05833 29.690638 203.87083Q29.690638 205.16771 28.862513 205.98021Q28.018763 206.77708 26.440638 206.77708ZM26.440638 205.69896Q27.628138 205.69896 28.221888 205.18333Q28.815638 204.65208 28.815638 203.87083Q28.815638 203.07396 28.221888 202.55833Q27.628138 202.04271 26.409388 202.04271Q25.253138 202.04271 24.659388 202.57396Q24.065638 203.08958 24.065638 203.87083Q24.065638 204.65208 24.659388 205.18333Q25.237513 205.69896 26.440638 205.69896ZM29.550013 199.38646L23.331263 199.38646L23.331263 198.44896L24.206263 198.44896Q23.737513 198.15208 23.471888 197.66771Q23.190638 197.18333 23.190638 196.55833Q23.190638 195.87083 23.471888 195.43333Q23.753138 194.98021 24.268763 194.80833Q23.190638 194.05833 23.190638 192.88646Q23.190638 191.94896 23.706263 191.46458Q24.206263 190.96458 25.284388 190.96458L29.550013 190.96458L29.550013 192.01146L25.628138 192.01146Q25.003138 192.01146 24.721888 192.12083Q24.440638 192.21458 24.268763 192.48021Q24.096888 192.74583 24.096888 193.12083Q24.096888 193.77708 24.534388 194.21458Q24.971888 194.63646 25.940638 194.63646L29.550013 194.63646L29.550013 195.69896L25.503138 195.69896Q24.800013 195.69896 24.456263 195.96458Q24.096888 196.21458 24.096888 196.79271Q24.096888 197.24583 24.331263 197.62083Q24.565638 197.99583 25.018763 198.16771Q25.471888 198.33958 26.315638 198.33958L29.550013 198.33958L29.550013 199.38646ZM29.550013 189.38646L23.331263 189.38646L23.331263 188.44896L24.206263 188.44896Q23.737513 188.15208 23.471888 187.66771Q23.190638 187.18333 23.190638 186.55833Q23.190638 185.87083 23.471888 185.43333Q23.753138 184.98021 24.268763 184.80833Q23.190638 184.05833 23.190638 182.88646Q23.190638 181.94896 23.706263 181.46458Q24.206263 180.96458 25.284388 180.96458L29.550013 180.96458L29.550013 182.01146L25.628138 182.01146Q25.003138 182.01146 24.721888 182.12083Q24.440638 182.21458 24.268763 182.48021Q24.096888 182.74583 24.096888 183.12083Q24.096888 183.77708 24.534388 184.21458Q24.971888 184.63646 25.940638 184.63646L29.550013 184.63646L29.550013 185.69896L25.503138 185.69896Q24.800013 185.69896 24.456263 185.96458Q24.096888 186.21458 24.096888 186.79271Q24.096888 187.24583 24.331263 187.62083Q24.565638 187.99583 25.018763 188.16771Q25.471888 188.33958 26.315638 188.33958L29.550013 188.33958L29.550013 189.38646ZM28.784388 175.32396Q29.284388 175.91771 29.487513 176.46458Q29.690638 176.99583 29.690638 177.62083Q29.690638 178.65208 29.190638 179.19896Q28.690638 179.74583 27.909388 179.74583Q27.456263 179.74583 27.081263 179.54271Q26.690638 179.33958 26.471888 178.99583Q26.237513 178.65208 26.128138 178.23021Q26.034388 177.93333 25.956263 177.29271Q25.815638 176.02708 25.596888 175.41771Q25.378138 175.41771 25.331263 175.41771Q24.675013 175.41771 24.409388 175.71458Q24.065638 176.12083 24.065638 176.91771Q24.065638 177.65208 24.331263 178.01146Q24.581263 178.37083 25.237513 178.54271L25.096888 179.57396Q24.440638 179.43333 24.034388 179.10521Q23.628138 178.77708 23.409388 178.16771Q23.190638 177.55833 23.190638 176.76146Q23.190638 175.96458 23.378138 175.46458Q23.565638 174.96458 23.846888 174.73021Q24.128138 174.49583 24.565638 174.40208Q24.831263 174.35521 25.534388 174.35521L26.940638 174.35521Q28.409388 174.35521 28.800013 174.29271Q29.190638 174.21458 29.550013 174.01146L29.550013 175.12083Q29.221888 175.27708 28.784388 175.32396ZM26.425013 175.41771Q26.659388 175.99583 26.831263 177.13646Q26.925013 177.79271 27.050013 178.05833Q27.159388 178.32396 27.378138 178.48021Q27.596888 178.62083 27.878138 178.62083Q28.300013 178.62083 28.581263 178.30833Q28.862513 177.98021 28.862513 177.37083Q28.862513 176.76146 28.596888 176.29271Q28.331263 175.80833 27.862513 175.58958Q27.503138 175.41771 26.815638 175.41771L26.425013 175.41771ZM29.550013 172.38646L23.331263 172.38646L23.331263 171.44896L24.206263 171.44896Q23.190638 170.76146 23.190638 169.46458Q23.190638 168.90208 23.393763 168.43333Q23.596888 167.94896 23.925013 167.71458Q24.253138 167.48021 24.690638 167.38646Q24.987513 167.33958 25.721888 167.33958L29.550013 167.33958L29.550013 168.38646L25.768763 168.38646Q25.112513 168.38646 24.800013 168.51146Q24.487513 168.63646 24.300013 168.94896Q24.096888 169.26146 24.096888 169.68333Q24.096888 170.35521 24.534388 170.85521Q24.956263 171.33958 26.143763 171.33958L29.550013 171.33958L29.550013 172.38646ZM29.550013 161.35521L28.768763 161.35521Q29.690638 161.94896 29.690638 163.08958Q29.690638 163.83958 29.284388 164.46458Q28.862513 165.08958 28.128138 165.43333Q27.393763 165.77708 26.440638 165.77708Q25.518763 165.77708 24.753138 165.46458Q23.987513 165.15208 23.596888 164.52708Q23.190638 163.90208 23.190638 163.13646Q23.190638 162.57396 23.425013 162.13646Q23.659388 161.69896 24.034388 161.41771L20.956263 161.41771L20.956263 160.37083L29.550013 160.37083L29.550013 161.35521ZM26.440638 164.68333Q27.643763 164.68333 28.237513 164.18333Q28.815638 163.68333 28.815638 162.99583Q28.815638 162.30833 28.253138 161.82396Q27.690638 161.33958 26.534388 161.33958Q25.253138 161.33958 24.659388 161.83958Q24.065638 162.32396 24.065638 163.04271Q24.065638 163.74583 24.643763 164.21458Q25.206263 164.68333 26.440638 164.68333Z" fill-rule="nonzero"/><path fill="#000000" d="M53.64375 96.07917L53.8 97.001045Q53.346874 97.094795 53.003124 97.094795Q52.425 97.094795 52.1125 96.92292Q51.8 96.73542 51.659374 96.438545Q51.534374 96.14167 51.534374 95.188545L51.534374 91.61042L50.76875 91.61042L50.76875 90.79792L51.534374 90.79792L51.534374 89.251045L52.58125 88.626045L52.58125 90.79792L53.64375 90.79792L53.64375 91.61042L52.58125 91.61042L52.58125 95.251045Q52.58125 95.70417 52.628124 95.82917Q52.690624 95.95417 52.815624 96.032295Q52.940624 96.11042 53.175 96.11042Q53.3625 96.11042 53.64375 96.07917ZM58.409374 96.251045Q57.815624 96.751045 57.26875 96.95417Q56.7375 97.157295 56.1125 97.157295Q55.08125 97.157295 54.534374 96.657295Q53.9875 96.157295 53.9875 95.376045Q53.9875 94.92292 54.190624 94.54792Q54.39375 94.157295 54.7375 93.938545Q55.08125 93.70417 55.503124 93.594795Q55.8 93.501045 56.440624 93.42292Q57.70625 93.282295 58.315624 93.063545Q58.315624 92.844795 58.315624 92.79792Q58.315624 92.14167 58.01875 91.876045Q57.6125 91.532295 56.815624 91.532295Q56.08125 91.532295 55.721874 91.79792Q55.3625 92.04792 55.190624 92.70417L54.159374 92.563545Q54.3 91.907295 54.628124 91.501045Q54.95625 91.094795 55.565624 90.876045Q56.175 90.657295 56.971874 90.657295Q57.76875 90.657295 58.26875 90.844795Q58.76875 91.032295 59.003124 91.313545Q59.2375 91.594795 59.33125 92.032295Q59.378124 92.29792 59.378124 93.001045L59.378124 94.407295Q59.378124 95.876045 59.440624 96.26667Q59.51875 96.657295 59.721874 97.01667L58.6125 97.01667Q58.45625 96.688545 58.409374 96.251045ZM58.315624 93.89167Q57.7375 94.126045 56.596874 94.29792Q55.940624 94.39167 55.675 94.51667Q55.409374 94.626045 55.253124 94.844795Q55.1125 95.063545 55.1125 95.344795Q55.1125 95.76667 55.425 96.04792Q55.753124 96.32917 56.3625 96.32917Q56.971874 96.32917 57.440624 96.063545Q57.925 95.79792 58.14375 95.32917Q58.315624 94.969795 58.315624 94.282295L58.315624 93.89167ZM61.33125 97.01667L61.33125 90.79792L62.284374 90.79792L62.284374 91.73542Q62.64375 91.07917 62.940624 90.876045Q63.253124 90.657295 63.628124 90.657295Q64.15938 90.657295 64.70625 90.98542L64.34688 91.969795Q63.95625 91.73542 63.58125 91.73542Q63.221874 91.73542 62.940624 91.95417Q62.675 92.157295 62.565624 92.532295Q62.378124 93.094795 62.378124 93.751045L62.378124 97.01667L61.33125 97.01667ZM68.65938 99.54792L68.65938 88.282295L69.56563 88.282295L69.56563 99.54792L68.65938 99.54792ZM74.14375 97.532295L75.175 97.688545Q75.2375 98.157295 75.53438 98.376045Q75.925 98.67292 76.59688 98.67292Q77.33125 98.67292 77.72188 98.376045Q78.12813 98.07917 78.26875 97.563545Q78.3625 97.23542 78.34688 96.20417Q77.65938 97.01667 76.62813 97.01667Q75.34688 97.01667 74.64375 96.094795Q73.94063 95.157295 73.94063 93.876045Q73.94063 92.98542 74.25313 92.23542Q74.58125 91.469795 75.19063 91.063545Q75.8 90.657295 76.62813 90.657295Q77.7375 90.657295 78.45625 91.54792L78.45625 90.79792L79.425 90.79792L79.425 96.17292Q79.425 97.626045 79.12813 98.23542Q78.83125 98.844795 78.19063 99.188545Q77.55 99.54792 76.6125 99.54792Q75.50313 99.54792 74.81563 99.04792Q74.12813 98.54792 74.14375 97.532295ZM75.01875 93.79792Q75.01875 95.01667 75.50313 95.57917Q75.9875 96.14167 76.72188 96.14167Q77.45625 96.14167 77.94063 95.57917Q78.44063 95.01667 78.44063 93.82917Q78.44063 92.688545 77.925 92.11042Q77.425 91.532295 76.70625 91.532295Q76.00313 91.532295 75.50313 92.11042Q75.01875 92.67292 75.01875 93.79792ZM80.78438 97.01667L80.78438 96.157295L84.75313 91.61042Q84.06563 91.64167 83.55 91.64167L81.01875 91.64167L81.01875 90.79792L86.1125 90.79792L86.1125 91.48542L82.7375 95.438545L82.08125 96.157295Q82.8 96.11042 83.40938 96.11042L86.3 96.11042L86.3 97.01667L80.78438 97.01667ZM87.34688 89.64167L87.34688 88.42292L88.40938 88.42292L88.40938 89.64167L87.34688 89.64167ZM87.34688 97.01667L87.34688 90.79792L88.40938 90.79792L88.40938 97.01667L87.34688 97.01667ZM90.34688 99.407295L90.34688 90.79792L91.3 90.79792L91.3 91.594795Q91.64375 91.126045 92.06563 90.89167Q92.50313 90.657295 93.1125 90.657295Q93.90938 90.657295 94.51875 91.063545Q95.12813 91.469795 95.425 92.219795Q95.7375 92.969795 95.7375 93.86042Q95.7375 94.813545 95.39375 95.57917Q95.06563 96.344795 94.40938 96.751045Q93.75313 97.157295 93.03438 97.157295Q92.50313 97.157295 92.08125 96.938545Q91.65938 96.70417 91.39375 96.376045L91.39375 99.407295L90.34688 99.407295ZM91.3 93.938545Q91.3 95.14167 91.78438 95.719795Q92.26875 96.282295 92.95625 96.282295Q93.65938 96.282295 94.15938 95.688545Q94.65938 95.094795 94.65938 93.844795Q94.65938 92.657295 94.175 92.07917Q93.69063 91.48542 93.00313 91.48542Q92.33125 91.48542 91.81563 92.11042Q91.3 92.73542 91.3 93.938545ZM100.65938 99.54792L100.65938 88.282295L101.56563 88.282295L101.56563 99.54792L100.65938 99.54792ZM106.14375 97.532295L107.175 97.688545Q107.2375 98.157295 107.53438 98.376045Q107.925 98.67292 108.59688 98.67292Q109.33125 98.67292 109.72188 98.376045Q110.12813 98.07917 110.26875 97.563545Q110.3625 97.23542 110.34688 96.20417Q109.65938 97.01667 108.62813 97.01667Q107.34688 97.01667 106.64375 96.094795Q105.94063 95.157295 105.94063 93.876045Q105.94063 92.98542 106.25313 92.23542Q106.58125 91.469795 107.19063 91.063545Q107.8 90.657295 108.62813 90.657295Q109.7375 90.657295 110.45625 91.54792L110.45625 90.79792L111.425 90.79792L111.425 96.17292Q111.425 97.626045 111.12813 98.23542Q110.83125 98.844795 110.19063 99.188545Q109.55 99.54792 108.6125 99.54792Q107.50313 99.54792 106.81563 99.04792Q106.12813 98.54792 106.14375 97.532295ZM107.01875 93.79792Q107.01875 95.01667 107.50313 95.57917Q107.9875 96.14167 108.72188 96.14167Q109.45625 96.14167 109.94063 95.57917Q110.44063 95.01667 110.44063 93.82917Q110.44063 92.688545 109.925 92.11042Q109.425 91.532295 108.70625 91.532295Q108.00313 91.532295 107.50313 92.11042Q107.01875 92.67292 107.01875 93.79792ZM113.34688 99.407295L113.34688 90.79792L114.3 90.79792L114.3 91.594795Q114.64375 91.126045 115.06563 90.89167Q115.50313 90.657295 116.1125 90.657295Q116.90938 90.657295 117.51875 91.063545Q118.12813 91.469795 118.425 92.219795Q118.7375 92.969795 118.7375 93.86042Q118.7375 94.813545 118.39375 95.57917Q118.06563 96.344795 117.40938 96.751045Q116.75313 97.157295 116.03438 97.157295Q115.50313 97.157295 115.08125 96.938545Q114.65938 96.70417 114.39375 96.376045L114.39375 99.407295L113.34688 99.407295ZM114.3 93.938545Q114.3 95.14167 114.78438 95.719795Q115.26875 96.282295 115.95625 96.282295Q116.65938 96.282295 117.15938 95.688545Q117.65938 95.094795 117.65938 93.844795Q117.65938 92.657295 117.175 92.07917Q116.69063 91.48542 116.00313 91.48542Q115.33125 91.48542 114.81563 92.11042Q114.3 92.73542 114.3 93.938545ZM120.14375 97.532295L121.175 97.688545Q121.2375 98.157295 121.53438 98.376045Q121.925 98.67292 122.59688 98.67292Q123.33125 98.67292 123.72188 98.376045Q124.12813 98.07917 124.26875 97.563545Q124.3625 97.23542 124.34688 96.20417Q123.65938 97.01667 122.62813 97.01667Q121.34688 97.01667 120.64375 96.094795Q119.94063 95.157295 119.94063 93.876045Q119.94063 92.98542 120.25313 92.23542Q120.58125 91.469795 121.19063 91.063545Q121.8 90.657295 122.62813 90.657295Q123.7375 90.657295 124.45625 91.54792L124.45625 90.79792L125.425 90.79792L125.425 96.17292Q125.425 97.626045 125.12813 98.23542Q124.83125 98.844795 124.19063 99.188545Q123.55 99.54792 122.6125 99.54792Q121.50313 99.54792 120.81563 99.04792Q120.12813 98.54792 120.14375 97.532295ZM121.01875 93.79792Q121.01875 95.01667 121.50313 95.57917Q121.9875 96.14167 122.72188 96.14167Q123.45625 96.14167 123.94063 95.57917Q124.44063 95.01667 124.44063 93.82917Q124.44063 92.688545 123.925 92.11042Q123.425 91.532295 122.70625 91.532295Q122.00313 91.532295 121.50313 92.11042Q121.01875 92.67292 121.01875 93.79792Z" fill-rule="nonzero"/><path fill="#000000" d="M58.315624 153.4611L57.33125 153.4611L57.33125 144.86736L58.39375 144.86736L58.39375 147.92986Q59.065624 147.10173 60.096874 147.10173Q60.675 147.10173 61.175 147.3361Q61.690624 147.55486 62.01875 147.97673Q62.3625 148.3986 62.55 148.99236Q62.7375 149.5861 62.7375 150.25798Q62.7375 151.85173 61.940624 152.72673Q61.14375 153.60173 60.05 153.60173Q58.940624 153.60173 58.315624 152.67986L58.315624 153.4611ZM58.3 150.30486Q58.3 151.41423 58.6125 151.91423Q59.1125 152.72673 59.95625 152.72673Q60.64375 152.72673 61.14375 152.13298Q61.659374 151.53923 61.659374 150.3361Q61.659374 149.11736 61.175 148.53923Q60.690624 147.9611 60.003124 147.9611Q59.315624 147.9611 58.8 148.57048Q58.3 149.16423 58.3 150.30486ZM68.425 153.4611L68.425 152.53923Q67.69063 153.60173 66.44063 153.60173Q65.89375 153.60173 65.40938 153.3986Q64.94063 153.17986 64.70625 152.86736Q64.47188 152.53923 64.37813 152.07048Q64.31563 151.7736 64.31563 151.0861L64.31563 147.24236L65.37813 147.24236L65.37813 150.69548Q65.37813 151.50798 65.44063 151.80486Q65.53438 152.2111 65.84688 152.4611Q66.175 152.69548 66.65938 152.69548Q67.12813 152.69548 67.53438 152.4611Q67.95625 152.2111 68.12813 151.78923Q68.31563 151.36736 68.31563 150.57048L68.31563 147.24236L69.3625 147.24236L69.3625 153.4611L68.425 153.4611ZM71.34688 155.85173L71.34688 147.24236L72.3 147.24236L72.3 148.03923Q72.64375 147.57048 73.06563 147.3361Q73.50313 147.10173 74.1125 147.10173Q74.90938 147.10173 75.51875 147.50798Q76.12813 147.91423 76.425 148.66423Q76.7375 149.41423 76.7375 150.30486Q76.7375 151.25798 76.39375 152.0236Q76.06563 152.78923 75.40938 153.19548Q74.75313 153.60173 74.03438 153.60173Q73.50313 153.60173 73.08125 153.38298Q72.65938 153.1486 72.39375 152.82048L72.39375 155.85173L71.34688 155.85173ZM72.3 150.38298Q72.3 151.5861 72.78438 152.16423Q73.26875 152.72673 73.95625 152.72673Q74.65938 152.72673 75.15938 152.13298Q75.65938 151.53923 75.65938 150.28923Q75.65938 149.10173 75.175 148.5236Q74.69063 147.92986 74.00313 147.92986Q73.33125 147.92986 72.81563 148.55486Q72.3 149.17986 72.3 150.38298ZM77.925 151.60173L78.95625 151.44548Q79.05 152.07048 79.44063 152.3986Q79.84688 152.72673 80.58125 152.72673Q81.3 152.72673 81.64375 152.44548Q82.00313 152.1486 82.00313 151.74236Q82.00313 151.38298 81.69063 151.17986Q81.47188 151.03923 80.6125 150.82048Q79.45625 150.5236 79.00313 150.32048Q78.56563 150.10173 78.33125 149.72673Q78.09688 149.35173 78.09688 148.88298Q78.09688 148.47673 78.28438 148.11736Q78.47188 147.75798 78.8 147.5236Q79.05 147.35173 79.47188 147.22673Q79.89375 147.10173 80.39375 147.10173Q81.1125 147.10173 81.65938 147.32048Q82.22188 147.5236 82.4875 147.88298Q82.75313 148.24236 82.84688 148.8361L81.81563 148.97673Q81.75313 148.50798 81.40938 148.24236Q81.08125 147.9611 80.45625 147.9611Q79.7375 147.9611 79.425 148.2111Q79.1125 148.44548 79.1125 148.7736Q79.1125 148.97673 79.2375 149.13298Q79.37813 149.30486 79.64375 149.41423Q79.8 149.47673 80.58125 149.67986Q81.70625 149.99236 82.14375 150.17986Q82.58125 150.36736 82.83125 150.72673Q83.08125 151.0861 83.08125 151.63298Q83.08125 152.16423 82.76875 152.63298Q82.47188 153.0861 81.89375 153.35173Q81.31563 153.60173 80.58125 153.60173Q79.3625 153.60173 78.72188 153.10173Q78.09688 152.5861 77.925 151.60173ZM86.64375 152.5236L86.8 153.44548Q86.34688 153.53923 86.00313 153.53923Q85.425 153.53923 85.1125 153.36736Q84.8 153.17986 84.65938 152.88298Q84.53438 152.5861 84.53438 151.63298L84.53438 148.05486L83.76875 148.05486L83.76875 147.24236L84.53438 147.24236L84.53438 145.69548L85.58125 145.07048L85.58125 147.24236L86.64375 147.24236L86.64375 148.05486L85.58125 148.05486L85.58125 151.69548Q85.58125 152.1486 85.62813 152.2736Q85.69063 152.3986 85.81563 152.47673Q85.94063 152.55486 86.175 152.55486Q86.3625 152.55486 86.64375 152.5236ZM91.40938 152.69548Q90.81563 153.19548 90.26875 153.3986Q89.7375 153.60173 89.1125 153.60173Q88.08125 153.60173 87.53438 153.10173Q86.9875 152.60173 86.9875 151.82048Q86.9875 151.36736 87.19063 150.99236Q87.39375 150.60173 87.7375 150.38298Q88.08125 150.1486 88.50313 150.03923Q88.8 149.94548 89.44063 149.86736Q90.70625 149.72673 91.31563 149.50798Q91.31563 149.28923 91.31563 149.24236Q91.31563 148.5861 91.01875 148.32048Q90.6125 147.97673 89.81563 147.97673Q89.08125 147.97673 88.72188 148.24236Q88.3625 148.49236 88.19063 149.1486L87.15938 149.00798Q87.3 148.35173 87.62813 147.94548Q87.95625 147.53923 88.56563 147.32048Q89.175 147.10173 89.97188 147.10173Q90.76875 147.10173 91.26875 147.28923Q91.76875 147.47673 92.00313 147.75798Q92.2375 148.03923 92.33125 148.47673Q92.37813 148.74236 92.37813 149.44548L92.37813 150.85173Q92.37813 152.32048 92.44063 152.7111Q92.51875 153.10173 92.72188 153.4611L91.6125 153.4611Q91.45625 153.13298 91.40938 152.69548ZM91.31563 150.3361Q90.7375 150.57048 89.59688 150.74236Q88.94063 150.8361 88.675 150.9611Q88.40938 151.07048 88.25313 151.28923Q88.1125 151.50798 88.1125 151.78923Q88.1125 152.2111 88.425 152.49236Q88.75313 152.7736 89.3625 152.7736Q89.97188 152.7736 90.44063 152.50798Q90.925 152.24236 91.14375 151.7736Q91.31563 151.41423 91.31563 150.72673L91.31563 150.3361ZM93.925 151.60173L94.95625 151.44548Q95.05 152.07048 95.44063 152.3986Q95.84688 152.72673 96.58125 152.72673Q97.3 152.72673 97.64375 152.44548Q98.00313 152.1486 98.00313 151.74236Q98.00313 151.38298 97.69063 151.17986Q97.47188 151.03923 96.6125 150.82048Q95.45625 150.5236 95.00313 150.32048Q94.56563 150.10173 94.33125 149.72673Q94.09688 149.35173 94.09688 148.88298Q94.09688 148.47673 94.28438 148.11736Q94.47188 147.75798 94.8 147.5236Q95.05 147.35173 95.47188 147.22673Q95.89375 147.10173 96.39375 147.10173Q97.1125 147.10173 97.65938 147.32048Q98.22188 147.5236 98.4875 147.88298Q98.75313 148.24236 98.84688 148.8361L97.81563 148.97673Q97.75313 148.50798 97.40938 148.24236Q97.08125 147.9611 96.45625 147.9611Q95.7375 147.9611 95.425 148.2111Q95.1125 148.44548 95.1125 148.7736Q95.1125 148.97673 95.2375 149.13298Q95.37813 149.30486 95.64375 149.41423Q95.8 149.47673 96.58125 149.67986Q97.70625 149.99236 98.14375 150.17986Q98.58125 150.36736 98.83125 150.72673Q99.08125 151.0861 99.08125 151.63298Q99.08125 152.16423 98.76875 152.63298Q98.47188 153.0861 97.89375 153.35173Q97.31563 153.60173 96.58125 153.60173Q95.3625 153.60173 94.72188 153.10173Q94.09688 152.5861 93.925 151.60173ZM100.34688 153.4611L100.34688 144.86736L101.39375 144.86736L101.39375 147.94548Q102.12813 147.10173 103.25313 147.10173Q103.95625 147.10173 104.45625 147.38298Q104.97188 147.6486 105.19063 148.13298Q105.40938 148.60173 105.40938 149.5236L105.40938 153.4611L104.3625 153.4611L104.3625 149.5236Q104.3625 148.72673 104.01875 148.36736Q103.675 148.00798 103.05 148.00798Q102.58125 148.00798 102.15938 148.25798Q101.75313 148.49236 101.56563 148.91423Q101.39375 149.32048 101.39375 150.05486L101.39375 153.4611L100.34688 153.4611ZM110.34688 155.85173L110.34688 147.24236L111.3 147.24236L111.3 148.03923Q111.64375 147.57048 112.06563 147.3361Q112.50313 147.10173 113.1125 147.10173Q113.90938 147.10173 114.51875 147.50798Q115.12813 147.91423 115.425 148.66423Q115.7375 149.41423 115.7375 150.30486Q115.7375 151.25798 115.39375 152.0236Q115.06563 152.78923 114.40938 153.19548Q113.75313 153.60173 113.03438 153.60173Q112.50313 153.60173 112.08125 153.38298Q111.65938 153.1486 111.39375 152.82048L111.39375 155.85173L110.34688 155.85173ZM111.3 150.38298Q111.3 151.5861 111.78438 152.16423Q112.26875 152.72673 112.95625 152.72673Q113.65938 152.72673 114.15938 152.13298Q114.65938 151.53923 114.65938 150.28923Q114.65938 149.10173 114.175 148.5236Q113.69063 147.92986 113.00313 147.92986Q112.33125 147.92986 111.81563 148.55486Q111.3 149.17986 111.3 150.38298ZM121.425 153.4611L121.425 152.53923Q120.69063 153.60173 119.44063 153.60173Q118.89375 153.60173 118.40938 153.3986Q117.94063 153.17986 117.70625 152.86736Q117.47188 152.53923 117.37813 152.07048Q117.31563 151.7736 117.31563 151.0861L117.31563 147.24236L118.37813 147.24236L118.37813 150.69548Q118.37813 151.50798 118.44063 151.80486Q118.53438 152.2111 118.84688 152.4611Q119.175 152.69548 119.65938 152.69548Q120.12813 152.69548 120.53438 152.4611Q120.95625 152.2111 121.12813 151.78923Q121.31563 151.36736 121.31563 150.57048L121.31563 147.24236L122.3625 147.24236L122.3625 153.4611L121.425 153.4611ZM126.64375 152.5236L126.8 153.44548Q126.34688 153.53923 126.00313 153.53923Q125.425 153.53923 125.1125 153.36736Q124.8 153.17986 124.65938 152.88298Q124.53438 152.5861 124.53438 151.63298L124.53438 148.05486L123.76875 148.05486L123.76875 147.24236L124.53438 147.24236L124.53438 145.69548L125.58125 145.07048L125.58125 147.24236L126.64375 147.24236L126.64375 148.05486L125.58125 148.05486L125.58125 151.69548Q125.58125 152.1486 125.62813 152.2736Q125.69063 152.3986 125.81563 152.47673Q125.94063 152.55486 126.175 152.55486Q126.3625 152.55486 126.64375 152.5236Z" fill-rule="nonzero"/><path fill="#000000" d="M55.33125 209.90555L55.33125 203.6868L56.284374 203.6868L56.284374 204.6243Q56.64375 203.96805 56.940624 203.76492Q57.253124 203.54617 57.628124 203.54617Q58.159374 203.54617 58.70625 203.8743L58.346874 204.85867Q57.95625 204.6243 57.58125 204.6243Q57.221874 204.6243 56.940624 204.84305Q56.675 205.04617 56.565624 205.42117Q56.378124 205.98367 56.378124 206.63992L56.378124 209.90555L55.33125 209.90555ZM63.596874 207.90555L64.69063 208.03055Q64.44063 208.98367 63.7375 209.51492Q63.034374 210.04617 61.95625 210.04617Q60.596874 210.04617 59.784374 209.20242Q58.9875 208.35867 58.9875 206.84305Q58.9875 205.28055 59.8 204.42117Q60.6125 203.54617 61.89375 203.54617Q63.14375 203.54617 63.925 204.38992Q64.72188 205.23367 64.72188 206.78055Q64.72188 206.8743 64.72188 207.0618L60.08125 207.0618Q60.14375 208.09305 60.659374 208.63992Q61.175 209.17117 61.95625 209.17117Q62.534374 209.17117 62.940624 208.8743Q63.3625 208.5618 63.596874 207.90555ZM60.14375 206.20242L63.6125 206.20242Q63.55 205.40555 63.221874 205.01492Q62.70625 204.40555 61.909374 204.40555Q61.175 204.40555 60.675 204.88992Q60.190624 205.3743 60.14375 206.20242ZM65.925 208.04617L66.95625 207.88992Q67.05 208.51492 67.44063 208.84305Q67.84688 209.17117 68.58125 209.17117Q69.3 209.17117 69.64375 208.88992Q70.00313 208.59305 70.00313 208.1868Q70.00313 207.82742 69.69063 207.6243Q69.47188 207.48367 68.6125 207.26492Q67.45625 206.96805 67.00313 206.76492Q66.56563 206.54617 66.33125 206.17117Q66.09688 205.79617 66.09688 205.32742Q66.09688 204.92117 66.28438 204.5618Q66.47188 204.20242 66.8 203.96805Q67.05 203.79617 67.47188 203.67117Q67.89375 203.54617 68.39375 203.54617Q69.1125 203.54617 69.65938 203.76492Q70.22188 203.96805 70.4875 204.32742Q70.75313 204.6868 70.84688 205.28055L69.81563 205.42117Q69.75313 204.95242 69.40938 204.6868Q69.08125 204.40555 68.45625 204.40555Q67.7375 204.40555 67.425 204.65555Q67.1125 204.88992 67.1125 205.21805Q67.1125 205.42117 67.2375 205.57742Q67.37813 205.7493 67.64375 205.85867Q67.8 205.92117 68.58125 206.1243Q69.70625 206.4368 70.14375 206.6243Q70.58125 206.8118 70.83125 207.17117Q71.08125 207.53055 71.08125 208.07742Q71.08125 208.60867 70.76875 209.07742Q70.47188 209.53055 69.89375 209.79617Q69.31563 210.04617 68.58125 210.04617Q67.3625 210.04617 66.72188 209.54617Q66.09688 209.03055 65.925 208.04617ZM74.64375 208.96805L74.8 209.88992Q74.34688 209.98367 74.00313 209.98367Q73.425 209.98367 73.1125 209.8118Q72.8 209.6243 72.65938 209.32742Q72.53438 209.03055 72.53438 208.07742L72.53438 204.4993L71.76875 204.4993L71.76875 203.6868L72.53438 203.6868L72.53438 202.13992L73.58125 201.51492L73.58125 203.6868L74.64375 203.6868L74.64375 204.4993L73.58125 204.4993L73.58125 208.13992Q73.58125 208.59305 73.62813 208.71805Q73.69063 208.84305 73.81563 208.92117Q73.94063 208.9993 74.175 208.9993Q74.3625 208.9993 74.64375 208.96805ZM75.34688 202.53055L75.34688 201.3118L76.40938 201.3118L76.40938 202.53055L75.34688 202.53055ZM75.34688 209.90555L75.34688 203.6868L76.40938 203.6868L76.40938 209.90555L75.34688 209.90555ZM82.40938 207.6243L83.44063 207.76492Q83.26875 208.82742 82.56563 209.4368Q81.8625 210.04617 80.84688 210.04617Q79.56563 210.04617 78.78438 209.21805Q78.01875 208.3743 78.01875 206.8118Q78.01875 205.8118 78.34688 205.0618Q78.69063 204.29617 79.3625 203.92117Q80.05 203.54617 80.8625 203.54617Q81.8625 203.54617 82.50313 204.0618Q83.15938 204.5618 83.34688 205.51492L82.31563 205.67117Q82.175 205.04617 81.8 204.73367Q81.425 204.40555 80.89375 204.40555Q80.09688 204.40555 79.59688 204.98367Q79.09688 205.54617 79.09688 206.78055Q79.09688 208.04617 79.58125 208.60867Q80.06563 209.17117 80.83125 209.17117Q81.45625 209.17117 81.8625 208.79617Q82.28438 208.42117 82.40938 207.6243ZM88.31563 209.90555L87.33125 209.90555L87.33125 201.3118L88.39375 201.3118L88.39375 204.3743Q89.06563 203.54617 90.09688 203.54617Q90.675 203.54617 91.175 203.78055Q91.69063 203.9993 92.01875 204.42117Q92.3625 204.84305 92.55 205.4368Q92.7375 206.03055 92.7375 206.70242Q92.7375 208.29617 91.94063 209.17117Q91.14375 210.04617 90.05 210.04617Q88.94063 210.04617 88.31563 209.1243L88.31563 209.90555ZM88.3 206.7493Q88.3 207.85867 88.6125 208.35867Q89.1125 209.17117 89.95625 209.17117Q90.64375 209.17117 91.14375 208.57742Q91.65938 207.98367 91.65938 206.78055Q91.65938 205.5618 91.175 204.98367Q90.69063 204.40555 90.00313 204.40555Q89.31563 204.40555 88.8 205.01492Q88.3 205.60867 88.3 206.7493ZM98.40938 209.13992Q97.81563 209.63992 97.26875 209.84305Q96.7375 210.04617 96.1125 210.04617Q95.08125 210.04617 94.53438 209.54617Q93.9875 209.04617 93.9875 208.26492Q93.9875 207.8118 94.19063 207.4368Q94.39375 207.04617 94.7375 206.82742Q95.08125 206.59305 95.50313 206.48367Q95.8 206.38992 96.44063 206.3118Q97.70625 206.17117 98.31563 205.95242Q98.31563 205.73367 98.31563 205.6868Q98.31563 205.03055 98.01875 204.76492Q97.6125 204.42117 96.81563 204.42117Q96.08125 204.42117 95.72188 204.6868Q95.3625 204.9368 95.19063 205.59305L94.15938 205.45242Q94.3 204.79617 94.62813 204.38992Q94.95625 203.98367 95.56563 203.76492Q96.175 203.54617 96.97188 203.54617Q97.76875 203.54617 98.26875 203.73367Q98.76875 203.92117 99.00313 204.20242Q99.2375 204.48367 99.33125 204.92117Q99.37813 205.1868 99.37813 205.88992L99.37813 207.29617Q99.37813 208.76492 99.44063 209.15555Q99.51875 209.54617 99.72188 209.90555L98.6125 209.90555Q98.45625 209.57742 98.40938 209.13992ZM98.31563 206.78055Q97.7375 207.01492 96.59688 207.1868Q95.94063 207.28055 95.675 207.40555Q95.40938 207.51492 95.25313 207.73367Q95.1125 207.95242 95.1125 208.23367Q95.1125 208.65555 95.425 208.9368Q95.75313 209.21805 96.3625 209.21805Q96.97188 209.21805 97.44063 208.95242Q97.925 208.6868 98.14375 208.21805Q98.31563 207.85867 98.31563 207.17117L98.31563 206.78055ZM105.40938 207.6243L106.44063 207.76492Q106.26875 208.82742 105.56563 209.4368Q104.8625 210.04617 103.84688 210.04617Q102.56563 210.04617 101.78438 209.21805Q101.01875 208.3743 101.01875 206.8118Q101.01875 205.8118 101.34688 205.0618Q101.69063 204.29617 102.3625 203.92117Q103.05 203.54617 103.8625 203.54617Q104.8625 203.54617 105.50313 204.0618Q106.15938 204.5618 106.34688 205.51492L105.31563 205.67117Q105.175 205.04617 104.8 204.73367Q104.425 204.40555 103.89375 204.40555Q103.09688 204.40555 102.59688 204.98367Q102.09688 205.54617 102.09688 206.78055Q102.09688 208.04617 102.58125 208.60867Q103.06563 209.17117 103.83125 209.17117Q104.45625 209.17117 104.8625 208.79617Q105.28438 208.42117 105.40938 207.6243ZM107.34688 209.90555L107.34688 201.3118L108.40938 201.3118L108.40938 206.21805L110.89375 203.6868L112.26875 203.6868L109.87813 205.98367L112.50313 209.90555L111.20625 209.90555L109.14375 206.71805L108.40938 207.4368L108.40938 209.90555L107.34688 209.90555ZM117.425 209.90555L117.425 208.98367Q116.69063 210.04617 115.44063 210.04617Q114.89375 210.04617 114.40938 209.84305Q113.94063 209.6243 113.70625 209.3118Q113.47188 208.98367 113.37813 208.51492Q113.31563 208.21805 113.31563 207.53055L113.31563 203.6868L114.37813 203.6868L114.37813 207.13992Q114.37813 207.95242 114.44063 208.2493Q114.53438 208.65555 114.84688 208.90555Q115.175 209.13992 115.65938 209.13992Q116.12813 209.13992 116.53438 208.90555Q116.95625 208.65555 117.12813 208.23367Q117.31563 207.8118 117.31563 207.01492L117.31563 203.6868L118.3625 203.6868L118.3625 209.90555L117.425 209.90555ZM120.34688 212.29617L120.34688 203.6868L121.3 203.6868L121.3 204.48367Q121.64375 204.01492 122.06563 203.78055Q122.50313 203.54617 123.1125 203.54617Q123.90938 203.54617 124.51875 203.95242Q125.12813 204.35867 125.425 205.10867Q125.7375 205.85867 125.7375 206.7493Q125.7375 207.70242 125.39375 208.46805Q125.06563 209.23367 124.40938 209.63992Q123.75313 210.04617 123.03438 210.04617Q122.50313 210.04617 122.08125 209.82742Q121.65938 209.59305 121.39375 209.26492L121.39375 212.29617L120.34688 212.29617ZM121.3 206.82742Q121.3 208.03055 121.78438 208.60867Q122.26875 209.17117 122.95625 209.17117Q123.65938 209.17117 124.15938 208.57742Q124.65938 207.98367 124.65938 206.73367Q124.65938 205.54617 124.175 204.96805Q123.69063 204.3743 123.00313 204.3743Q122.33125 204.3743 121.81563 204.9993Q121.3 205.6243 121.3 206.82742Z" fill-rule="nonzero"/><path fill="#000000" d="M66.31563 266.35L65.33125 266.35L65.33125 257.75626L66.39375 257.75626L66.39375 260.81876Q67.06563 259.99063 68.09688 259.99063Q68.675 259.99063 69.175 260.225Q69.69063 260.44376 70.01875 260.86563Q70.3625 261.2875 70.55 261.88126Q70.7375 262.475 70.7375 263.14688Q70.7375 264.74063 69.94063 265.61563Q69.14375 266.49063 68.05 266.49063Q66.94063 266.49063 66.31563 265.56876L66.31563 266.35ZM66.3 263.19376Q66.3 264.30313 66.6125 264.80313Q67.1125 265.61563 67.95625 265.61563Q68.64375 265.61563 69.14375 265.02188Q69.65938 264.42813 69.65938 263.225Q69.65938 262.00626 69.175 261.42813Q68.69063 260.85 68.00313 260.85Q67.31563 260.85 66.8 261.45938Q66.3 262.05313 66.3 263.19376ZM71.95625 263.24063Q71.95625 261.50626 72.90938 260.67813Q73.70625 259.99063 74.8625 259.99063Q76.14375 259.99063 76.95625 260.83438Q77.78438 261.6625 77.78438 263.14688Q77.78438 264.35 77.425 265.0375Q77.06563 265.725 76.3625 266.11563Q75.675 266.49063 74.8625 266.49063Q73.56563 266.49063 72.75313 265.6625Q71.95625 264.81876 71.95625 263.24063ZM73.03438 263.24063Q73.03438 264.42813 73.55 265.02188Q74.08125 265.61563 74.8625 265.61563Q75.65938 265.61563 76.175 265.02188Q76.69063 264.42813 76.69063 263.20938Q76.69063 262.05313 76.15938 261.45938Q75.64375 260.86563 74.8625 260.86563Q74.08125 260.86563 73.55 261.45938Q73.03438 262.0375 73.03438 263.24063ZM79.33125 266.35L79.33125 260.13126L80.28438 260.13126L80.28438 261.06876Q80.64375 260.4125 80.94063 260.20938Q81.25313 259.99063 81.62813 259.99063Q82.15938 259.99063 82.70625 260.31876L82.34688 261.30313Q81.95625 261.06876 81.58125 261.06876Q81.22188 261.06876 80.94063 261.2875Q80.675 261.49063 80.56563 261.86563Q80.37813 262.42813 80.37813 263.08438L80.37813 266.35L79.33125 266.35ZM83.14375 266.86563L84.175 267.02188Q84.2375 267.49063 84.53438 267.70938Q84.925 268.00626 85.59688 268.00626Q86.33125 268.00626 86.72188 267.70938Q87.12813 267.4125 87.26875 266.89688Q87.3625 266.56876 87.34688 265.5375Q86.65938 266.35 85.62813 266.35Q84.34688 266.35 83.64375 265.42813Q82.94063 264.49063 82.94063 263.20938Q82.94063 262.31876 83.25313 261.56876Q83.58125 260.80313 84.19063 260.39688Q84.8 259.99063 85.62813 259.99063Q86.7375 259.99063 87.45625 260.88126L87.45625 260.13126L88.425 260.13126L88.425 265.50626Q88.425 266.95938 88.12813 267.56876Q87.83125 268.17813 87.19063 268.52188Q86.55 268.88126 85.6125 268.88126Q84.50313 268.88126 83.81563 268.38126Q83.12813 267.88126 83.14375 266.86563ZM84.01875 263.13126Q84.01875 264.35 84.50313 264.9125Q84.9875 265.475 85.72188 265.475Q86.45625 265.475 86.94063 264.9125Q87.44063 264.35 87.44063 263.1625Q87.44063 262.02188 86.925 261.44376Q86.425 260.86563 85.70625 260.86563Q85.00313 260.86563 84.50313 261.44376Q84.01875 262.00626 84.01875 263.13126ZM97.40938 264.06876L98.44063 264.20938Q98.26875 265.27188 97.56563 265.88126Q96.8625 266.49063 95.84688 266.49063Q94.56563 266.49063 93.78438 265.6625Q93.01875 264.81876 93.01875 263.25626Q93.01875 262.25626 93.34688 261.50626Q93.69063 260.74063 94.3625 260.36563Q95.05 259.99063 95.8625 259.99063Q96.8625 259.99063 97.50313 260.50626Q98.15938 261.00626 98.34688 261.95938L97.31563 262.11563Q97.175 261.49063 96.8 261.17813Q96.425 260.85 95.89375 260.85Q95.09688 260.85 94.59688 261.42813Q94.09688 261.99063 94.09688 263.225Q94.09688 264.49063 94.58125 265.05313Q95.06563 265.61563 95.83125 265.61563Q96.45625 265.61563 96.8625 265.24063Q97.28438 264.86563 97.40938 264.06876ZM99.33125 266.35L99.33125 260.13126L100.28438 260.13126L100.28438 261.06876Q100.64375 260.4125 100.94063 260.20938Q101.25313 259.99063 101.62813 259.99063Q102.15938 259.99063 102.70625 260.31876L102.34688 261.30313Q101.95625 261.06876 101.58125 261.06876Q101.22188 261.06876 100.94063 261.2875Q100.675 261.49063 100.56563 261.86563Q100.37813 262.42813 100.37813 263.08438L100.37813 266.35L99.33125 266.35ZM107.59688 264.35L108.69063 264.475Q108.44063 265.42813 107.7375 265.95938Q107.03438 266.49063 105.95625 266.49063Q104.59688 266.49063 103.78438 265.64688Q102.9875 264.80313 102.9875 263.2875Q102.9875 261.725 103.8 260.86563Q104.6125 259.99063 105.89375 259.99063Q107.14375 259.99063 107.925 260.83438Q108.72188 261.67813 108.72188 263.225Q108.72188 263.31876 108.72188 263.50626L104.08125 263.50626Q104.14375 264.5375 104.65938 265.08438Q105.175 265.61563 105.95625 265.61563Q106.53438 265.61563 106.94063 265.31876Q107.3625 265.00626 107.59688 264.35ZM104.14375 262.64688L107.6125 262.64688Q107.55 261.85 107.22188 261.45938Q106.70625 260.85 105.90938 260.85Q105.175 260.85 104.675 261.33438Q104.19063 261.81876 104.14375 262.64688ZM114.40938 265.58438Q113.81563 266.08438 113.26875 266.2875Q112.7375 266.49063 112.1125 266.49063Q111.08125 266.49063 110.53438 265.99063Q109.9875 265.49063 109.9875 264.70938Q109.9875 264.25626 110.19063 263.88126Q110.39375 263.49063 110.7375 263.27188Q111.08125 263.0375 111.50313 262.92813Q111.8 262.83438 112.44063 262.75626Q113.70625 262.61563 114.31563 262.39688Q114.31563 262.17813 114.31563 262.13126Q114.31563 261.475 114.01875 261.20938Q113.6125 260.86563 112.81563 260.86563Q112.08125 260.86563 111.72188 261.13126Q111.3625 261.38126 111.19063 262.0375L110.15938 261.89688Q110.3 261.24063 110.62813 260.83438Q110.95625 260.42813 111.56563 260.20938Q112.175 259.99063 112.97188 259.99063Q113.76875 259.99063 114.26875 260.17813Q114.76875 260.36563 115.00313 260.64688Q115.2375 260.92813 115.33125 261.36563Q115.37813 261.63126 115.37813 262.33438L115.37813 263.74063Q115.37813 265.20938 115.44063 265.6Q115.51875 265.99063 115.72188 266.35L114.6125 266.35Q114.45625 266.02188 114.40938 265.58438ZM114.31563 263.225Q113.7375 263.45938 112.59688 263.63126Q111.94063 263.725 111.675 263.85Q111.40938 263.95938 111.25313 264.17813Q111.1125 264.39688 111.1125 264.67813Q111.1125 265.1 111.425 265.38126Q111.75313 265.6625 112.3625 265.6625Q112.97188 265.6625 113.44063 265.39688Q113.925 265.13126 114.14375 264.6625Q114.31563 264.30313 114.31563 263.61563L114.31563 263.225ZM119.64375 265.4125L119.8 266.33438Q119.34688 266.42813 119.00313 266.42813Q118.425 266.42813 118.1125 266.25626Q117.8 266.06876 117.65938 265.77188Q117.53438 265.475 117.53438 264.52188L117.53438 260.94376L116.76875 260.94376L116.76875 260.13126L117.53438 260.13126L117.53438 258.58438L118.58125 257.95938L118.58125 260.13126L119.64375 260.13126L119.64375 260.94376L118.58125 260.94376L118.58125 264.58438Q118.58125 265.0375 118.62813 265.1625Q118.69063 265.2875 118.81563 265.36563Q118.94063 265.44376 119.175 265.44376Q119.3625 265.44376 119.64375 265.4125ZM124.59688 264.35L125.69063 264.475Q125.44063 265.42813 124.7375 265.95938Q124.03438 266.49063 122.95625 266.49063Q121.59688 266.49063 120.78438 265.64688Q119.9875 264.80313 119.9875 263.2875Q119.9875 261.725 120.8 260.86563Q121.6125 259.99063 122.89375 259.99063Q124.14375 259.99063 124.925 260.83438Q125.72188 261.67813 125.72188 263.225Q125.72188 263.31876 125.72188 263.50626L121.08125 263.50626Q121.14375 264.5375 121.65938 265.08438Q122.175 265.61563 122.95625 265.61563Q123.53438 265.61563 123.94063 265.31876Q124.3625 265.00626 124.59688 264.35ZM121.14375 262.64688L124.6125 262.64688Q124.55 261.85 124.22188 261.45938Q123.70625 260.85 122.90938 260.85Q122.175 260.85 121.675 261.33438Q121.19063 261.81876 121.14375 262.64688Z" fill-rule="nonzero"/><path fill="#000000" d="M129.55 313.21564Q129.55 311.6844 129.8625 310.7625Q130.175 309.825 130.78438 309.325Q131.40938 308.825 132.34688 308.825Q133.03438 308.825 133.55 309.10626Q134.08125 309.3875 134.425 309.91876Q134.76875 310.4344 134.95625 311.1844Q135.14375 311.9344 135.14375 313.21564Q135.14375 314.73126 134.83125 315.65314Q134.53438 316.575 133.90938 317.09064Q133.3 317.59064 132.34688 317.59064Q131.1125 317.59064 130.39375 316.7Q129.55 315.6375 129.55 313.21564ZM130.62813 313.21564Q130.62813 315.325 131.12813 316.02814Q131.62813 316.73126 132.34688 316.73126Q133.08125 316.73126 133.56563 316.02814Q134.06563 315.325 134.06563 313.21564Q134.06563 311.09064 133.56563 310.40314Q133.08125 309.7 132.33125 309.7Q131.6125 309.7 131.175 310.3094Q130.62813 311.09064 130.62813 313.21564Z" fill-rule="nonzero"/><path fill="#000000" d="M247.32187 316.4344L247.32187 317.45L241.63437 317.45Q241.63437 317.075 241.75937 316.71564Q241.97812 316.1375 242.44687 315.575Q242.93124 315.0125 243.8375 314.27814Q245.24374 313.1219 245.72812 312.45Q246.22812 311.77814 246.22812 311.1844Q246.22812 310.5594 245.775 310.1375Q245.32187 309.7 244.60312 309.7Q243.8375 309.7 243.38437 310.15314Q242.93124 310.60626 242.91562 311.41876L241.8375 311.3094Q241.94687 310.09064 242.66562 309.46564Q243.4 308.825 244.63437 308.825Q245.86874 308.825 246.5875 309.5125Q247.30624 310.2 247.30624 311.21564Q247.30624 311.73126 247.0875 312.23126Q246.88437 312.71564 246.38437 313.27814Q245.9 313.825 244.775 314.77814Q243.82187 315.575 243.54062 315.8719Q243.275 316.15314 243.10312 316.4344L247.32187 316.4344Z" fill-rule="nonzero"/><path fill="#000000" d="M357.375 317.45L357.375 315.3875L353.65625 315.3875L353.65625 314.41876L357.57812 308.85626L358.4375 308.85626L358.4375 314.41876L359.59375 314.41876L359.59375 315.3875L358.4375 315.3875L358.4375 317.45L357.375 317.45ZM357.375 314.41876L357.375 310.5594L354.6875 314.41876L357.375 314.41876Z" fill-rule="nonzero"/><path fill="#000000" d="M471.69376 310.96564L470.64688 311.04376Q470.50626 310.41876 470.25626 310.1375Q469.81876 309.6844 469.19376 309.6844Q468.69376 309.6844 468.30313 309.96564Q467.81876 310.34064 467.52188 311.04376Q467.24063 311.73126 467.225 313.0125Q467.6 312.4344 468.14688 312.15314Q468.70938 311.8719 469.31876 311.8719Q470.36563 311.8719 471.1 312.65314Q471.85 313.4344 471.85 314.65314Q471.85 315.46564 471.49063 316.16876Q471.14688 316.85626 470.5375 317.23126Q469.92813 317.59064 469.1625 317.59064Q467.83438 317.59064 467.00626 316.6219Q466.17813 315.65314 466.17813 313.4344Q466.17813 310.9344 467.1 309.8094Q467.89688 308.825 469.25626 308.825Q470.27188 308.825 470.9125 309.40314Q471.56876 309.96564 471.69376 310.96564ZM467.39688 314.66876Q467.39688 315.21564 467.61563 315.71564Q467.85 316.2 468.25626 316.46564Q468.67813 316.73126 469.14688 316.73126Q469.80313 316.73126 470.2875 316.2Q470.77188 315.65314 470.77188 314.73126Q470.77188 313.84064 470.2875 313.325Q469.81876 312.8094 469.1 312.8094Q468.38126 312.8094 467.88126 313.325Q467.39688 313.84064 467.39688 314.66876Z" fill-rule="nonzero"/><path fill="#000000" d="M580.075 312.79376Q579.41876 312.54376 579.09064 312.10626Q578.77814 311.65314 578.77814 311.04376Q578.77814 310.10626 579.45 309.46564Q580.1375 308.825 581.2469 308.825Q582.3719 308.825 583.0594 309.48126Q583.7469 310.1375 583.7469 311.075Q583.7469 311.66876 583.4344 312.10626Q583.1219 312.54376 582.48126 312.79376Q583.27814 313.04376 583.6844 313.6219Q584.09064 314.2 584.09064 314.9969Q584.09064 316.09064 583.3094 316.84064Q582.54376 317.59064 581.2625 317.59064Q579.9969 317.59064 579.21564 316.84064Q578.4344 316.09064 578.4344 314.96564Q578.4344 314.1219 578.85626 313.5594Q579.29376 312.9969 580.075 312.79376ZM579.85626 310.9969Q579.85626 311.60626 580.2469 311.9969Q580.65314 312.3875 581.27814 312.3875Q581.8875 312.3875 582.27814 312.0125Q582.66876 311.6219 582.66876 311.0594Q582.66876 310.48126 582.2625 310.09064Q581.85626 309.6844 581.2625 309.6844Q580.65314 309.6844 580.2469 310.075Q579.85626 310.46564 579.85626 310.9969ZM579.52814 314.96564Q579.52814 315.41876 579.73126 315.84064Q579.95 316.2625 580.3719 316.4969Q580.79376 316.73126 581.27814 316.73126Q582.02814 316.73126 582.5125 316.2469Q583.0125 315.7625 583.0125 315.0125Q583.0125 314.2469 582.5125 313.7469Q582.0125 313.2469 581.2469 313.2469Q580.4969 313.2469 580.0125 313.7469Q579.52814 314.23126 579.52814 314.96564Z" fill-rule="nonzero"/><path fill="#757575" d="M23.7375 38.55L23.7375 25.925L19.01875 25.925L19.01875 24.2375L30.3625 24.2375L30.3625 25.925L25.628124 25.925L25.628124 38.55L23.7375 38.55ZM31.878124 26.253124L31.878124 24.2375L33.64375 24.2375L33.64375 26.253124L31.878124 26.253124ZM31.878124 38.55L31.878124 28.175L33.64375 28.175L33.64375 38.55L31.878124 38.55ZM35.8625 38.55L35.8625 28.175L37.440624 28.175L37.440624 29.628124Q37.925 28.878124 38.7375 28.409374Q39.55 27.940624 40.58125 27.940624Q41.7375 27.940624 42.471874 28.425Q43.20625 28.89375 43.51875 29.753124Q44.753124 27.940624 46.721874 27.940624Q48.26875 27.940624 49.096874 28.8Q49.925 29.659374 49.925 31.425L49.925 38.55L48.175 38.55L48.175 32.01875Q48.175 30.95625 48.003124 30.503124Q47.83125 30.034374 47.378124 29.753124Q46.940624 29.471874 46.33125 29.471874Q45.2375 29.471874 44.503124 30.20625Q43.784374 30.925 43.784374 32.51875L43.784374 38.55L42.034374 38.55L42.034374 31.815624Q42.034374 30.64375 41.596874 30.065624Q41.175 29.471874 40.190624 29.471874Q39.45625 29.471874 38.815624 29.8625Q38.190624 30.253124 37.909374 31.003124Q37.628124 31.753124 37.628124 33.175L37.628124 38.55L35.8625 38.55ZM59.971874 35.20625L61.784374 35.440624Q61.3625 37.01875 60.190624 37.909374Q59.034374 38.784374 57.221874 38.784374Q54.95625 38.784374 53.6125 37.39375Q52.284374 35.9875 52.284374 33.45625Q52.284374 30.83125 53.628124 29.39375Q54.971874 27.940624 57.128124 27.940624Q59.20625 27.940624 60.51875 29.3625Q61.846874 30.76875 61.846874 33.346874Q61.846874 33.503124 61.83125 33.815624L54.096874 33.815624Q54.190624 35.51875 55.065624 36.425Q55.940624 37.33125 57.2375 37.33125Q58.20625 37.33125 58.878124 36.83125Q59.565624 36.315624 59.971874 35.20625ZM54.190624 32.3625L59.9875 32.3625Q59.878124 31.065624 59.33125 30.409374Q58.4875 29.39375 57.14375 29.39375Q55.940624 29.39375 55.1125 30.20625Q54.284374 31.003124 54.190624 32.3625ZM70.28438 38.55L70.28438 29.55L68.7375 29.55L68.7375 28.175L70.28438 28.175L70.28438 27.08125Q70.28438 26.034374 70.47188 25.51875Q70.72188 24.83125 71.3625 24.409374Q72.00313 23.9875 73.15938 23.9875Q73.90938 23.9875 74.8 24.159374L74.53438 25.690624Q73.9875 25.596874 73.50313 25.596874Q72.70625 25.596874 72.3625 25.940624Q72.03438 26.284374 72.03438 27.221874L72.03438 28.175L74.06563 28.175L74.06563 29.55L72.03438 29.55L72.03438 38.55L70.28438 38.55ZM75.22188 33.3625Q75.22188 30.4875 76.81563 29.096874Q78.15938 27.940624 80.08125 27.940624Q82.22188 27.940624 83.56563 29.346874Q84.925 30.753124 84.925 33.221874Q84.925 35.221874 84.33125 36.378124Q83.7375 37.51875 82.58125 38.159374Q81.44063 38.784374 80.08125 38.784374Q77.89375 38.784374 76.55 37.39375Q75.22188 35.9875 75.22188 33.3625ZM77.01875 33.3625Q77.01875 35.3625 77.87813 36.346874Q78.75313 37.33125 80.08125 37.33125Q81.39375 37.33125 82.25313 36.346874Q83.12813 35.346874 83.12813 33.3Q83.12813 31.378124 82.25313 30.39375Q81.37813 29.39375 80.08125 29.39375Q78.75313 29.39375 77.87813 30.39375Q77.01875 31.378124 77.01875 33.3625ZM86.84688 38.55L86.84688 28.175L88.425 28.175L88.425 29.753124Q89.03438 28.64375 89.55 28.3Q90.06563 27.940624 90.675 27.940624Q91.56563 27.940624 92.4875 28.503124L91.87813 30.14375Q91.2375 29.753124 90.59688 29.753124Q90.01875 29.753124 89.55 30.1125Q89.09688 30.45625 88.89375 31.065624Q88.6125 32.003124 88.6125 33.1125L88.6125 38.55L86.84688 38.55ZM100.40938 38.55L100.40938 24.2375L102.31563 24.2375L102.31563 38.55L100.40938 38.55ZM105.8625 38.55L105.8625 28.175L107.45625 28.175L107.45625 29.659374Q108.59688 27.940624 110.75313 27.940624Q111.69063 27.940624 112.47188 28.284374Q113.26875 28.6125 113.65938 29.159374Q114.05 29.70625 114.20625 30.45625Q114.3 30.95625 114.3 32.175L114.3 38.55L112.53438 38.55L112.53438 32.2375Q112.53438 31.159374 112.33125 30.628124Q112.12813 30.096874 111.59688 29.784374Q111.08125 29.471874 110.37813 29.471874Q109.25313 29.471874 108.44063 30.190624Q107.62813 30.89375 107.62813 32.878124L107.62813 38.55L105.8625 38.55ZM123.64375 34.753124L125.3625 34.971874Q125.08125 36.76875 123.90938 37.784374Q122.75313 38.784374 121.05 38.784374Q118.925 38.784374 117.62813 37.39375Q116.33125 36.003124 116.33125 33.409374Q116.33125 31.721874 116.87813 30.471874Q117.44063 29.20625 118.58125 28.58125Q119.72188 27.940624 121.06563 27.940624Q122.75313 27.940624 123.81563 28.8Q124.89375 29.659374 125.20625 31.221874L123.4875 31.4875Q123.25313 30.440624 122.62813 29.925Q122.00313 29.39375 121.12813 29.39375Q119.8 29.39375 118.97188 30.346874Q118.14375 31.3 118.14375 33.346874Q118.14375 35.440624 118.94063 36.39375Q119.7375 37.33125 121.03438 37.33125Q122.06563 37.33125 122.75313 36.70625Q123.45625 36.065624 123.64375 34.753124ZM126.84688 38.55L126.84688 28.175L128.425 28.175L128.425 29.753124Q129.03438 28.64375 129.55 28.3Q130.06563 27.940624 130.675 27.940624Q131.56563 27.940624 132.4875 28.503124L131.87813 30.14375Q131.2375 29.753124 130.59688 29.753124Q130.01875 29.753124 129.55 30.1125Q129.09688 30.45625 128.89375 31.065624Q128.6125 32.003124 128.6125 33.1125L128.6125 38.55L126.84688 38.55ZM140.97188 35.20625L142.78438 35.440624Q142.3625 37.01875 141.19063 37.909374Q140.03438 38.784374 138.22188 38.784374Q135.95625 38.784374 134.6125 37.39375Q133.28438 35.9875 133.28438 33.45625Q133.28438 30.83125 134.62813 29.39375Q135.97188 27.940624 138.12813 27.940624Q140.20625 27.940624 141.51875 29.3625Q142.84688 30.76875 142.84688 33.346874Q142.84688 33.503124 142.83125 33.815624L135.09688 33.815624Q135.19063 35.51875 136.06563 36.425Q136.94063 37.33125 138.2375 37.33125Q139.20625 37.33125 139.87813 36.83125Q140.56563 36.315624 140.97188 35.20625ZM135.19063 32.3625L140.9875 32.3625Q140.87813 31.065624 140.33125 30.409374Q139.4875 29.39375 138.14375 29.39375Q136.94063 29.39375 136.1125 30.20625Q135.28438 31.003124 135.19063 32.3625ZM144.8625 38.55L144.8625 28.175L146.44063 28.175L146.44063 29.628124Q146.925 28.878124 147.7375 28.409374Q148.55 27.940624 149.58125 27.940624Q150.7375 27.940624 151.47188 28.425Q152.20625 28.89375 152.51875 29.753124Q153.75313 27.940624 155.72188 27.940624Q157.26875 27.940624 158.09688 28.8Q158.925 29.659374 158.925 31.425L158.925 38.55L157.175 38.55L157.175 32.01875Q157.175 30.95625 157.00313 30.503124Q156.83125 30.034374 156.37813 29.753124Q155.94063 29.471874 155.33125 29.471874Q154.2375 29.471874 153.50313 30.20625Q152.78438 30.925 152.78438 32.51875L152.78438 38.55L151.03438 38.55L151.03438 31.815624Q151.03438 30.64375 150.59688 30.065624Q150.175 29.471874 149.19063 29.471874Q148.45625 29.471874 147.81563 29.8625Q147.19063 30.253124 146.90938 31.003124Q146.62813 31.753124 146.62813 33.175L146.62813 38.55L144.8625 38.55ZM168.97188 35.20625L170.78438 35.440624Q170.3625 37.01875 169.19063 37.909374Q168.03438 38.784374 166.22188 38.784374Q163.95625 38.784374 162.6125 37.39375Q161.28438 35.9875 161.28438 33.45625Q161.28438 30.83125 162.62813 29.39375Q163.97188 27.940624 166.12813 27.940624Q168.20625 27.940624 169.51875 29.3625Q170.84688 30.76875 170.84688 33.346874Q170.84688 33.503124 170.83125 33.815624L163.09688 33.815624Q163.19063 35.51875 164.06563 36.425Q164.94063 37.33125 166.2375 37.33125Q167.20625 37.33125 167.87813 36.83125Q168.56563 36.315624 168.97188 35.20625ZM163.19063 32.3625L168.9875 32.3625Q168.87813 31.065624 168.33125 30.409374Q167.4875 29.39375 166.14375 29.39375Q164.94063 29.39375 164.1125 30.20625Q163.28438 31.003124 163.19063 32.3625ZM172.8625 38.55L172.8625 28.175L174.45625 28.175L174.45625 29.659374Q175.59688 27.940624 177.75313 27.940624Q178.69063 27.940624 179.47188 28.284374Q180.26875 28.6125 180.65938 29.159374Q181.05 29.70625 181.20625 30.45625Q181.3 30.95625 181.3 32.175L181.3 38.55L179.53438 38.55L179.53438 32.2375Q179.53438 31.159374 179.33125 30.628124Q179.12813 30.096874 178.59688 29.784374Q178.08125 29.471874 177.37813 29.471874Q176.25313 29.471874 175.44063 30.190624Q174.62813 30.89375 174.62813 32.878124L174.62813 38.55L172.8625 38.55ZM187.70625 36.971874L187.95625 38.534374Q187.22188 38.690624 186.62813 38.690624Q185.675 38.690624 185.14375 38.39375Q184.62813 38.08125 184.40938 37.596874Q184.19063 37.096874 184.19063 35.51875L184.19063 29.55L182.90938 29.55L182.90938 28.175L184.19063 28.175L184.19063 25.6125L185.94063 24.55L185.94063 28.175L187.70625 28.175L187.70625 29.55L185.94063 29.55L185.94063 35.6125Q185.94063 36.3625 186.03438 36.58125Q186.12813 36.784374 186.33125 36.925Q186.55 37.05 186.94063 37.05Q187.22188 37.05 187.70625 36.971874ZM196.64375 37.26875Q195.65938 38.096874 194.75313 38.440624Q193.84688 38.784374 192.81563 38.784374Q191.1125 38.784374 190.19063 37.95625Q189.26875 37.1125 189.26875 35.815624Q189.26875 35.05 189.6125 34.425Q189.97188 33.8 190.53438 33.425Q191.09688 33.034374 191.8 32.83125Q192.31563 32.70625 193.3625 32.565624Q195.4875 32.315624 196.4875 31.971874Q196.50313 31.6125 196.50313 31.503124Q196.50313 30.440624 196.00313 29.9875Q195.33125 29.39375 194.00313 29.39375Q192.75313 29.39375 192.15938 29.83125Q191.58125 30.26875 191.3 31.378124L189.58125 31.14375Q189.81563 30.034374 190.34688 29.3625Q190.87813 28.675 191.89375 28.315624Q192.90938 27.940624 194.25313 27.940624Q195.58125 27.940624 196.40938 28.253124Q197.2375 28.565624 197.62813 29.05Q198.01875 29.51875 198.175 30.2375Q198.26875 30.690624 198.26875 31.8625L198.26875 34.20625Q198.26875 36.659374 198.37813 37.315624Q198.4875 37.95625 198.83125 38.55L196.9875 38.55Q196.72188 38.003124 196.64375 37.26875ZM196.4875 33.346874Q195.53438 33.7375 193.6125 34.003124Q192.53438 34.159374 192.08125 34.3625Q191.64375 34.55 191.39375 34.925Q191.14375 35.3 191.14375 35.76875Q191.14375 36.471874 191.675 36.940624Q192.20625 37.409374 193.2375 37.409374Q194.25313 37.409374 195.03438 36.971874Q195.83125 36.51875 196.20625 35.753124Q196.4875 35.14375 196.4875 33.9875L196.4875 33.346874ZM200.83125 38.55L200.83125 24.2375L202.58125 24.2375L202.58125 38.55L200.83125 38.55ZM210.45625 33.95625L212.2375 33.8Q212.3625 34.8625 212.81563 35.55Q213.28438 36.2375 214.25313 36.675Q215.2375 37.096874 216.47188 37.096874Q217.55 37.096874 218.37813 36.784374Q219.20625 36.45625 219.6125 35.89375Q220.01875 35.33125 220.01875 34.659374Q220.01875 33.9875 219.62813 33.4875Q219.2375 32.9875 218.34688 32.64375Q217.76875 32.409374 215.78438 31.940624Q213.81563 31.471874 213.03438 31.05Q212.00313 30.51875 211.50313 29.721874Q211.00313 28.925 211.00313 27.940624Q211.00313 26.846874 211.6125 25.909374Q212.22188 24.971874 213.40938 24.4875Q214.59688 23.9875 216.03438 23.9875Q217.62813 23.9875 218.84688 24.503124Q220.06563 25.01875 220.70625 26.01875Q221.3625 27.003124 221.40938 28.26875L219.59688 28.409374Q219.45625 27.05 218.6125 26.3625Q217.76875 25.659374 216.1125 25.659374Q214.39375 25.659374 213.59688 26.3Q212.81563 26.925 212.81563 27.8Q212.81563 28.58125 213.37813 29.08125Q213.925 29.58125 216.2375 30.096874Q218.55 30.6125 219.40938 31.003124Q220.65938 31.58125 221.25313 32.471874Q221.84688 33.346874 221.84688 34.503124Q221.84688 35.64375 221.19063 36.659374Q220.53438 37.675 219.3 38.2375Q218.08125 38.8 216.55 38.8Q214.6125 38.8 213.3 38.2375Q211.9875 37.659374 211.2375 36.51875Q210.4875 35.378124 210.45625 33.95625ZM223.8625 38.55L223.8625 28.175L225.45625 28.175L225.45625 29.659374Q226.59688 27.940624 228.75313 27.940624Q229.69063 27.940624 230.47188 28.284374Q231.26875 28.6125 231.65938 29.159374Q232.05 29.70625 232.20625 30.45625Q232.3 30.95625 232.3 32.175L232.3 38.55L230.53438 38.55L230.53438 32.2375Q230.53438 31.159374 230.33125 30.628124Q230.12813 30.096874 229.59688 29.784374Q229.08125 29.471874 228.37813 29.471874Q227.25313 29.471874 226.44063 30.190624Q225.62813 30.89375 225.62813 32.878124L225.62813 38.55L223.8625 38.55ZM241.64375 37.26875Q240.65938 38.096874 239.75313 38.440624Q238.84688 38.784374 237.81563 38.784374Q236.1125 38.784374 235.19063 37.95625Q234.26875 37.1125 234.26875 35.815624Q234.26875 35.05 234.6125 34.425Q234.97188 33.8 235.53438 33.425Q236.09688 33.034374 236.8 32.83125Q237.31563 32.70625 238.3625 32.565624Q240.4875 32.315624 241.4875 31.971874Q241.50313 31.6125 241.50313 31.503124Q241.50313 30.440624 241.00313 29.9875Q240.33125 29.39375 239.00313 29.39375Q237.75313 29.39375 237.15938 29.83125Q236.58125 30.26875 236.3 31.378124L234.58125 31.14375Q234.81563 30.034374 235.34688 29.3625Q235.87813 28.675 236.89375 28.315624Q237.90938 27.940624 239.25313 27.940624Q240.58125 27.940624 241.40938 28.253124Q242.2375 28.565624 242.62813 29.05Q243.01875 29.51875 243.175 30.2375Q243.26875 30.690624 243.26875 31.8625L243.26875 34.20625Q243.26875 36.659374 243.37813 37.315624Q243.4875 37.95625 243.83125 38.55L241.9875 38.55Q241.72188 38.003124 241.64375 37.26875ZM241.4875 33.346874Q240.53438 33.7375 238.6125 34.003124Q237.53438 34.159374 237.08125 34.3625Q236.64375 34.55 236.39375 34.925Q236.14375 35.3 236.14375 35.76875Q236.14375 36.471874 236.675 36.940624Q237.20625 37.409374 238.2375 37.409374Q239.25313 37.409374 240.03438 36.971874Q240.83125 36.51875 241.20625 35.753124Q241.4875 35.14375 241.4875 33.9875L241.4875 33.346874ZM245.8625 42.51875L245.8625 28.175L247.47188 28.175L247.47188 29.51875Q248.03438 28.7375 248.7375 28.346874Q249.45625 27.940624 250.47188 27.940624Q251.8 27.940624 252.81563 28.628124Q253.83125 29.315624 254.34688 30.565624Q254.87813 31.8 254.87813 33.284374Q254.87813 34.878124 254.3 36.159374Q253.7375 37.425 252.64375 38.1125Q251.55 38.784374 250.34688 38.784374Q249.47188 38.784374 248.76875 38.409374Q248.08125 38.034374 247.62813 37.471874L247.62813 42.51875L245.8625 42.51875ZM247.45625 33.425Q247.45625 35.425 248.26875 36.378124Q249.08125 37.33125 250.2375 37.33125Q251.40938 37.33125 252.2375 36.346874Q253.08125 35.3625 253.08125 33.26875Q253.08125 31.3 252.25313 30.315624Q251.44063 29.315624 250.31563 29.315624Q249.19063 29.315624 248.31563 30.378124Q247.45625 31.425 247.45625 33.425ZM256.15936 35.45625L257.90936 35.175Q258.05 36.221874 258.72186 36.784374Q259.39374 37.33125 260.59686 37.33125Q261.8 37.33125 262.3781 36.846874Q262.97186 36.346874 262.97186 35.690624Q262.97186 35.096874 262.45624 34.753124Q262.09686 34.51875 260.65936 34.159374Q258.72186 33.659374 257.97186 33.315624Q257.2375 32.95625 256.84686 32.33125Q256.45624 31.690624 256.45624 30.925Q256.45624 30.2375 256.76874 29.64375Q257.09686 29.05 257.64374 28.659374Q258.05 28.3625 258.7531 28.159374Q259.47186 27.940624 260.28436 27.940624Q261.5031 27.940624 262.425 28.3Q263.34686 28.64375 263.78436 29.253124Q264.22186 29.846874 264.39374 30.846874L262.675 31.08125Q262.55 30.284374 261.9875 29.846874Q261.425 29.39375 260.40936 29.39375Q259.1906 29.39375 258.675 29.8Q258.15936 30.190624 258.15936 30.721874Q258.15936 31.065624 258.3781 31.346874Q258.58124 31.628124 259.05 31.815624Q259.3156 31.909374 260.59686 32.253124Q262.47186 32.753124 263.20624 33.08125Q263.9406 33.39375 264.3625 34.003124Q264.78436 34.596874 264.78436 35.503124Q264.78436 36.378124 264.26874 37.159374Q263.7531 37.940624 262.78436 38.3625Q261.8156 38.784374 260.59686 38.784374Q258.58124 38.784374 257.51874 37.940624Q256.45624 37.096874 256.15936 35.45625ZM266.8625 38.55L266.8625 24.2375L268.6281 24.2375L268.6281 29.3625Q269.8625 27.940624 271.7375 27.940624Q272.8781 27.940624 273.72186 28.39375Q274.58124 28.846874 274.9406 29.659374Q275.3156 30.45625 275.3156 31.971874L275.3156 38.55L273.5656 38.55L273.5656 31.971874Q273.5656 30.659374 272.9875 30.065624Q272.40936 29.45625 271.3781 29.45625Q270.59686 29.45625 269.89374 29.8625Q269.20624 30.26875 268.90936 30.971874Q268.6281 31.659374 268.6281 32.878124L268.6281 38.55L266.8625 38.55ZM277.22186 33.3625Q277.22186 30.4875 278.8156 29.096874Q280.15936 27.940624 282.08124 27.940624Q284.22186 27.940624 285.5656 29.346874Q286.925 30.753124 286.925 33.221874Q286.925 35.221874 286.33124 36.378124Q285.7375 37.51875 284.58124 38.159374Q283.4406 38.784374 282.08124 38.784374Q279.89374 38.784374 278.55 37.39375Q277.22186 35.9875 277.22186 33.3625ZM279.01874 33.3625Q279.01874 35.3625 279.8781 36.346874Q280.7531 37.33125 282.08124 37.33125Q283.39374 37.33125 284.2531 36.346874Q285.1281 35.346874 285.1281 33.3Q285.1281 31.378124 284.2531 30.39375Q283.3781 29.39375 282.08124 29.39375Q280.7531 29.39375 279.8781 30.39375Q279.01874 31.378124 279.01874 33.3625ZM292.70624 36.971874L292.95624 38.534374Q292.22186 38.690624 291.6281 38.690624Q290.675 38.690624 290.14374 38.39375Q289.6281 38.08125 289.40936 37.596874Q289.1906 37.096874 289.1906 35.51875L289.1906 29.55L287.90936 29.55L287.90936 28.175L289.1906 28.175L289.1906 25.6125L290.9406 24.55L290.9406 28.175L292.70624 28.175L292.70624 29.55L290.9406 29.55L290.9406 35.6125Q290.9406 36.3625 291.03436 36.58125Q291.1281 36.784374 291.33124 36.925Q291.55 37.05 291.9406 37.05Q292.22186 37.05 292.70624 36.971874ZM304.22186 42.753124Q302.76874 40.925 301.76874 38.471874Q300.76874 36.003124 300.76874 33.3625Q300.76874 31.034374 301.51874 28.909374Q302.39374 26.440624 304.22186 23.9875L305.4875 23.9875Q304.3 26.01875 303.925 26.89375Q303.33124 28.2375 302.9875 29.70625Q302.5656 31.534374 302.5656 33.378124Q302.5656 38.065624 305.4875 42.753124L304.22186 42.753124ZM307.45624 33.95625L309.2375 33.8Q309.3625 34.8625 309.8156 35.55Q310.28436 36.2375 311.2531 36.675Q312.2375 37.096874 313.47186 37.096874Q314.55 37.096874 315.3781 36.784374Q316.20624 36.45625 316.6125 35.89375Q317.01874 35.33125 317.01874 34.659374Q317.01874 33.9875 316.6281 33.4875Q316.2375 32.9875 315.34686 32.64375Q314.76874 32.409374 312.78436 31.940624Q310.8156 31.471874 310.03436 31.05Q309.0031 30.51875 308.5031 29.721874Q308.0031 28.925 308.0031 27.940624Q308.0031 26.846874 308.6125 25.909374Q309.22186 24.971874 310.40936 24.4875Q311.59686 23.9875 313.03436 23.9875Q314.6281 23.9875 315.84686 24.503124Q317.0656 25.01875 317.70624 26.01875Q318.3625 27.003124 318.40936 28.26875L316.59686 28.409374Q316.45624 27.05 315.6125 26.3625Q314.76874 25.659374 313.1125 25.659374Q311.39374 25.659374 310.59686 26.3Q309.8156 26.925 309.8156 27.8Q309.8156 28.58125 310.3781 29.08125Q310.925 29.58125 313.2375 30.096874Q315.55 30.6125 316.40936 31.003124Q317.65936 31.58125 318.2531 32.471874Q318.84686 33.346874 318.84686 34.503124Q318.84686 35.64375 318.1906 36.659374Q317.53436 37.675 316.3 38.2375Q315.08124 38.8 313.55 38.8Q311.6125 38.8 310.3 38.2375Q308.9875 37.659374 308.2375 36.51875Q307.4875 35.378124 307.45624 33.95625ZM320.8625 38.55L320.8625 28.175L322.4406 28.175L322.4406 29.628124Q322.925 28.878124 323.7375 28.409374Q324.55 27.940624 325.58124 27.940624Q326.7375 27.940624 327.47186 28.425Q328.20624 28.89375 328.51874 29.753124Q329.7531 27.940624 331.72186 27.940624Q333.26874 27.940624 334.09686 28.8Q334.925 29.659374 334.925 31.425L334.925 38.55L333.175 38.55L333.175 32.01875Q333.175 30.95625 333.0031 30.503124Q332.83124 30.034374 332.3781 29.753124Q331.9406 29.471874 331.33124 29.471874Q330.2375 29.471874 329.5031 30.20625Q328.78436 30.925 328.78436 32.51875L328.78436 38.55L327.03436 38.55L327.03436 31.815624Q327.03436 30.64375 326.59686 30.065624Q326.175 29.471874 325.1906 29.471874Q324.45624 29.471874 323.8156 29.8625Q323.1906 30.253124 322.90936 31.003124Q322.6281 31.753124 322.6281 33.175L322.6281 38.55L320.8625 38.55ZM344.64374 37.26875Q343.65936 38.096874 342.7531 38.440624Q341.84686 38.784374 340.8156 38.784374Q339.1125 38.784374 338.1906 37.95625Q337.26874 37.1125 337.26874 35.815624Q337.26874 35.05 337.6125 34.425Q337.97186 33.8 338.53436 33.425Q339.09686 33.034374 339.8 32.83125Q340.3156 32.70625 341.3625 32.565624Q343.4875 32.315624 344.4875 31.971874Q344.5031 31.6125 344.5031 31.503124Q344.5031 30.440624 344.0031 29.9875Q343.33124 29.39375 342.0031 29.39375Q340.7531 29.39375 340.15936 29.83125Q339.58124 30.26875 339.3 31.378124L337.58124 31.14375Q337.8156 30.034374 338.34686 29.3625Q338.8781 28.675 339.89374 28.315624Q340.90936 27.940624 342.2531 27.940624Q343.58124 27.940624 344.40936 28.253124Q345.2375 28.565624 345.6281 29.05Q346.01874 29.51875 346.175 30.2375Q346.26874 30.690624 346.26874 31.8625L346.26874 34.20625Q346.26874 36.659374 346.3781 37.315624Q346.4875 37.95625 346.83124 38.55L344.9875 38.55Q344.72186 38.003124 344.64374 37.26875ZM344.4875 33.346874Q343.53436 33.7375 341.6125 34.003124Q340.53436 34.159374 340.08124 34.3625Q339.64374 34.55 339.39374 34.925Q339.14374 35.3 339.14374 35.76875Q339.14374 36.471874 339.675 36.940624Q340.20624 37.409374 341.2375 37.409374Q342.2531 37.409374 343.03436 36.971874Q343.83124 36.51875 344.20624 35.753124Q344.4875 35.14375 344.4875 33.9875L344.4875 33.346874ZM348.83124 38.55L348.83124 24.2375L350.58124 24.2375L350.58124 38.55L348.83124 38.55ZM352.83124 38.55L352.83124 24.2375L354.58124 24.2375L354.58124 38.55L352.83124 38.55ZM363.97186 35.20625L365.78436 35.440624Q365.3625 37.01875 364.1906 37.909374Q363.03436 38.784374 361.22186 38.784374Q358.95624 38.784374 357.6125 37.39375Q356.28436 35.9875 356.28436 33.45625Q356.28436 30.83125 357.6281 29.39375Q358.97186 27.940624 361.1281 27.940624Q363.20624 27.940624 364.51874 29.3625Q365.84686 30.76875 365.84686 33.346874Q365.84686 33.503124 365.83124 33.815624L358.09686 33.815624Q358.1906 35.51875 359.0656 36.425Q359.9406 37.33125 361.2375 37.33125Q362.20624 37.33125 362.8781 36.83125Q363.5656 36.315624 363.97186 35.20625ZM358.1906 32.3625L363.9875 32.3625Q363.8781 31.065624 363.33124 30.409374Q362.4875 29.39375 361.14374 29.39375Q359.9406 29.39375 359.1125 30.20625Q358.28436 31.003124 358.1906 32.3625ZM367.84686 38.55L367.84686 28.175L369.425 28.175L369.425 29.753124Q370.03436 28.64375 370.55 28.3Q371.0656 27.940624 371.675 27.940624Q372.5656 27.940624 373.4875 28.503124L372.8781 30.14375Q372.2375 29.753124 371.59686 29.753124Q371.01874 29.753124 370.55 30.1125Q370.09686 30.45625 369.89374 31.065624Q369.6125 32.003124 369.6125 33.1125L369.6125 38.55L367.84686 38.55ZM380.8781 26.253124L380.8781 24.2375L382.64374 24.2375L382.64374 26.253124L380.8781 26.253124ZM380.8781 38.55L380.8781 28.175L382.64374 28.175L382.64374 38.55L380.8781 38.55ZM384.15936 35.45625L385.90936 35.175Q386.05 36.221874 386.72186 36.784374Q387.39374 37.33125 388.59686 37.33125Q389.8 37.33125 390.3781 36.846874Q390.97186 36.346874 390.97186 35.690624Q390.97186 35.096874 390.45624 34.753124Q390.09686 34.51875 388.65936 34.159374Q386.72186 33.659374 385.97186 33.315624Q385.2375 32.95625 384.84686 32.33125Q384.45624 31.690624 384.45624 30.925Q384.45624 30.2375 384.76874 29.64375Q385.09686 29.05 385.64374 28.659374Q386.05 28.3625 386.7531 28.159374Q387.47186 27.940624 388.28436 27.940624Q389.5031 27.940624 390.425 28.3Q391.34686 28.64375 391.78436 29.253124Q392.22186 29.846874 392.39374 30.846874L390.675 31.08125Q390.55 30.284374 389.9875 29.846874Q389.425 29.39375 388.40936 29.39375Q387.1906 29.39375 386.675 29.8Q386.15936 30.190624 386.15936 30.721874Q386.15936 31.065624 386.3781 31.346874Q386.58124 31.628124 387.05 31.815624Q387.3156 31.909374 388.59686 32.253124Q390.47186 32.753124 391.20624 33.08125Q391.9406 33.39375 392.3625 34.003124Q392.78436 34.596874 392.78436 35.503124Q392.78436 36.378124 392.26874 37.159374Q391.7531 37.940624 390.78436 38.3625Q389.8156 38.784374 388.59686 38.784374Q386.58124 38.784374 385.51874 37.940624Q384.45624 37.096874 384.15936 35.45625ZM402.4875 38.55L400.8625 38.55L400.8625 24.2375L402.6125 24.2375L402.6125 29.346874Q403.7375 27.940624 405.45624 27.940624Q406.40936 27.940624 407.26874 28.33125Q408.1281 28.721874 408.675 29.425Q409.22186 30.1125 409.53436 31.096874Q409.84686 32.08125 409.84686 33.20625Q409.84686 35.878124 408.53436 37.33125Q407.22186 38.784374 405.3781 38.784374Q403.53436 38.784374 402.4875 37.253124L402.4875 38.55ZM402.47186 33.284374Q402.47186 35.14375 402.97186 35.9875Q403.8156 37.33125 405.22186 37.33125Q406.3781 37.33125 407.20624 36.33125Q408.05 35.33125 408.05 33.346874Q408.05 31.315624 407.2375 30.3625Q406.4406 29.39375 405.3 29.39375Q404.14374 29.39375 403.3 30.39375Q402.47186 31.39375 402.47186 33.284374ZM418.97186 35.20625L420.78436 35.440624Q420.3625 37.01875 419.1906 37.909374Q418.03436 38.784374 416.22186 38.784374Q413.95624 38.784374 412.6125 37.39375Q411.28436 35.9875 411.28436 33.45625Q411.28436 30.83125 412.6281 29.39375Q413.97186 27.940624 416.1281 27.940624Q418.20624 27.940624 419.51874 29.3625Q420.84686 30.76875 420.84686 33.346874Q420.84686 33.503124 420.83124 33.815624L413.09686 33.815624Q413.1906 35.51875 414.0656 36.425Q414.9406 37.33125 416.2375 37.33125Q417.20624 37.33125 417.8781 36.83125Q418.5656 36.315624 418.97186 35.20625ZM413.1906 32.3625L418.9875 32.3625Q418.8781 31.065624 418.33124 30.409374Q417.4875 29.39375 416.14374 29.39375Q414.9406 29.39375 414.1125 30.20625Q413.28436 31.003124 413.1906 32.3625ZM426.70624 36.971874L426.95624 38.534374Q426.22186 38.690624 425.6281 38.690624Q424.675 38.690624 424.14374 38.39375Q423.6281 38.08125 423.40936 37.596874Q423.1906 37.096874 423.1906 35.51875L423.1906 29.55L421.90936 29.55L421.90936 28.175L423.1906 28.175L423.1906 25.6125L424.9406 24.55L424.9406 28.175L426.70624 28.175L426.70624 29.55L424.9406 29.55L424.9406 35.6125Q424.9406 36.3625 425.03436 36.58125Q425.1281 36.784374 425.33124 36.925Q425.55 37.05 425.9406 37.05Q426.22186 37.05 426.70624 36.971874ZM432.70624 36.971874L432.95624 38.534374Q432.22186 38.690624 431.6281 38.690624Q430.675 38.690624 430.14374 38.39375Q429.6281 38.08125 429.40936 37.596874Q429.1906 37.096874 429.1906 35.51875L429.1906 29.55L427.90936 29.55L427.90936 28.175L429.1906 28.175L429.1906 25.6125L430.9406 24.55L430.9406 28.175L432.70624 28.175L432.70624 29.55L430.9406 29.55L430.9406 35.6125Q430.9406 36.3625 431.03436 36.58125Q431.1281 36.784374 431.33124 36.925Q431.55 37.05 431.9406 37.05Q432.22186 37.05 432.70624 36.971874ZM441.97186 35.20625L443.78436 35.440624Q443.3625 37.01875 442.1906 37.909374Q441.03436 38.784374 439.22186 38.784374Q436.95624 38.784374 435.6125 37.39375Q434.28436 35.9875 434.28436 33.45625Q434.28436 30.83125 435.6281 29.39375Q436.97186 27.940624 439.1281 27.940624Q441.20624 27.940624 442.51874 29.3625Q443.84686 30.76875 443.84686 33.346874Q443.84686 33.503124 443.83124 33.815624L436.09686 33.815624Q436.1906 35.51875 437.0656 36.425Q437.9406 37.33125 439.2375 37.33125Q440.20624 37.33125 440.8781 36.83125Q441.5656 36.315624 441.97186 35.20625ZM436.1906 32.3625L441.9875 32.3625Q441.8781 31.065624 441.33124 30.409374Q440.4875 29.39375 439.14374 29.39375Q437.9406 29.39375 437.1125 30.20625Q436.28436 31.003124 436.1906 32.3625ZM445.84686 38.55L445.84686 28.175L447.425 28.175L447.425 29.753124Q448.03436 28.64375 448.55 28.3Q449.0656 27.940624 449.675 27.940624Q450.5656 27.940624 451.4875 28.503124L450.8781 30.14375Q450.2375 29.753124 449.59686 29.753124Q449.01874 29.753124 448.55 30.1125Q448.09686 30.45625 447.89374 31.065624Q447.6125 32.003124 447.6125 33.1125L447.6125 38.55L445.84686 38.55ZM454.01874 42.753124L452.76874 42.753124Q455.675 38.065624 455.675 33.378124Q455.675 31.534374 455.26874 29.7375Q454.925 28.26875 454.33124 26.925Q453.95624 26.034374 452.76874 23.9875L454.01874 23.9875Q455.8625 26.440624 456.7375 28.909374Q457.4875 31.034374 457.4875 33.3625Q457.4875 36.003124 456.47186 38.471874Q455.47186 40.925 454.01874 42.753124Z" fill-rule="nonzero"/></svg>