<svg version="1.1" viewBox="0.0 0.0 661.0 408.0" fill="none" stroke="none" stroke-linecap="square" stroke-miterlimit="10" width="661" height="408" xmlns:xlink="http://www.w3.org/1999/xlink" xmlns="http://www.w3.org/2000/svg"><path fill="#ffffff" d="M0 0L661.0 0L661.0 408.0L0 408.0L0 0Z" fill-rule="nonzero"/><path stroke="#333333" stroke-width="1.0" stroke-linecap="butt" d="M175.5 58.5L175.5 335.5" fill-rule="nonzero"/><path stroke="#cccccc" stroke-width="1.0" stroke-linecap="butt" d="M268.5 58.5L268.5 335.5" fill-rule="nonzero"/><path stroke="#cccccc" stroke-width="1.0" stroke-linecap="butt" d="M361.5 58.5L361.5 335.5" fill-rule="nonzero"/><path stroke="#cccccc" stroke-width="1.0" stroke-linecap="butt" d="M454.5 58.5L454.5 335.5" fill-rule="nonzero"/><path stroke="#cccccc" stroke-width="1.0" stroke-linecap="butt" d="M547.5 58.5L547.5 335.5" fill-rule="nonzero"/><path stroke="#cccccc" stroke-width="1.0" stroke-linecap="butt" d="M640.5 58.5L640.5 335.5" fill-rule="nonzero"/><clipPath id="id_0"><path d="M175.4 58.0L640.6 58.0L640.6 335.6L175.4 335.6L175.4 58.0Z" clip-rule="nonzero"/></clipPath><path stroke="#000000" stroke-width="2.0" stroke-linecap="butt" stroke-opacity="0.0" clip-path="url(#id_0)" d="M175.0 122.0L175.0 81.0L300.0 81.0C301.10458 81.0 302.0 81.89543 302.0 83.0L302.0 120.0C302.0 121.10457 301.10458 122.0 300.0 122.0Z" fill-rule="nonzero"/><path fill="#4285f4" clip-path="url(#id_0)" d="M175.0 122.0L175.0 81.0L300.0 81.0C301.10458 81.0 302.0 81.89543 302.0 83.0L302.0 120.0C302.0 121.10457 301.10458 122.0 300.0 122.0Z" fill-rule="nonzero"/><path stroke="#000000" stroke-width="2.0" stroke-linecap="butt" stroke-opacity="0.0" clip-path="url(#id_0)" d="M175.0 186.0L175.0 145.0L380.0 145.0C381.10458 145.0 382.0 145.89543 382.0 147.0L382.0 184.0C382.0 185.10457 381.10458 186.0 380.0 186.0Z" fill-rule="nonzero"/><path fill="#4285f4" clip-path="url(#id_0)" d="M175.0 186.0L175.0 145.0L380.0 145.0C381.10458 145.0 382.0 145.89543 382.0 147.0L382.0 184.0C382.0 185.10457 381.10458 186.0 380.0 186.0Z" fill-rule="nonzero"/><path stroke="#000000" stroke-width="2.0" stroke-linecap="butt" stroke-opacity="0.0" clip-path="url(#id_0)" d="M175.0 250.0L175.0 209.0L401.0 209.0C402.10458 209.0 403.0 209.89543 403.0 211.0L403.0 248.0C403.0 249.10457 402.10458 250.0 401.0 250.0Z" fill-rule="nonzero"/><path fill="#4285f4" clip-path="url(#id_0)" d="M175.0 250.0L175.0 209.0L401.0 209.0C402.10458 209.0 403.0 209.89543 403.0 211.0L403.0 248.0C403.0 249.10457 402.10458 250.0 401.0 250.0Z" fill-rule="nonzero"/><path stroke="#000000" stroke-width="2.0" stroke-linecap="butt" stroke-opacity="0.0" clip-path="url(#id_0)" d="M175.0 314.0L175.0 273.0L624.0 273.0C625.10455 273.0 626.0 273.89542 626.0 275.0L626.0 312.0C626.0 313.10458 625.10455 314.0 624.0 314.0Z" fill-rule="nonzero"/><path fill="#4285f4" clip-path="url(#id_0)" d="M175.0 314.0L175.0 273.0L624.0 273.0C625.10455 273.0 626.0 273.89542 626.0 275.0L626.0 312.0C626.0 313.10458 625.10455 314.0 624.0 314.0Z" fill-rule="nonzero"/><path fill="#000000" d="M384.54688 381.83438L385.60938 381.74063Q385.6875 382.39688 385.96875 382.80313Q386.25 383.20938 386.82812 383.475Q387.42188 383.725 388.15625 383.725Q388.79688 383.725 389.29688 383.5375Q389.79688 383.33438 390.03125 383.00626Q390.28125 382.6625 390.28125 382.27188Q390.28125 381.86563 390.04688 381.56876Q389.8125 381.25626 389.28125 381.05313Q388.92188 380.9125 387.73438 380.63126Q386.5625 380.35 386.09375 380.1Q385.46875 379.77188 385.17188 379.30313Q384.875 378.81876 384.875 378.225Q384.875 377.58438 385.23438 377.02188Q385.60938 376.44376 386.3125 376.1625Q387.03125 375.86563 387.89062 375.86563Q388.84375 375.86563 389.57812 376.17813Q390.3125 376.475 390.70312 377.08438Q391.09375 377.67813 391.125 378.42813L390.03125 378.50626Q389.9375 377.69376 389.42188 377.2875Q388.92188 376.86563 387.9375 376.86563Q386.90625 376.86563 386.4375 377.24063Q385.96875 377.61563 385.96875 378.14688Q385.96875 378.61563 386.29688 378.9125Q386.625 379.20938 388.0 379.52188Q389.39062 379.83438 389.90625 380.06876Q390.65625 380.42813 391.01562 380.95938Q391.375 381.475 391.375 382.17813Q391.375 382.86563 390.98438 383.475Q390.59375 384.06876 389.85938 384.4125Q389.125 384.74063 388.20312 384.74063Q387.03125 384.74063 386.23438 384.4125Q385.45312 384.06876 385.0 383.38126Q384.5625 382.69376 384.54688 381.83438ZM397.04688 382.6L398.14062 382.725Q397.89062 383.67813 397.1875 384.20938Q396.48438 384.74063 395.40625 384.74063Q394.04688 384.74063 393.23438 383.89688Q392.4375 383.05313 392.4375 381.5375Q392.4375 379.975 393.25 379.11563Q394.0625 378.24063 395.34375 378.24063Q396.59375 378.24063 397.375 379.08438Q398.17188 379.92813 398.17188 381.475Q398.17188 381.56876 398.17188 381.75626L393.53125 381.75626Q393.59375 382.7875 394.10938 383.33438Q394.625 383.86563 395.40625 383.86563Q395.98438 383.86563 396.39062 383.56876Q396.8125 383.25626 397.04688 382.6ZM393.59375 380.89688L397.0625 380.89688Q397.0 380.1 396.67188 379.70938Q396.15625 379.1 395.35938 379.1Q394.625 379.1 394.125 379.58438Q393.64062 380.06876 393.59375 380.89688ZM403.85938 382.31876L404.89062 382.45938Q404.71875 383.52188 404.01562 384.13126Q403.3125 384.74063 402.29688 384.74063Q401.01562 384.74063 400.23438 383.9125Q399.46875 383.06876 399.46875 381.50626Q399.46875 380.50626 399.79688 379.75626Q400.14062 378.99063 400.8125 378.61563Q401.5 378.24063 402.3125 378.24063Q403.3125 378.24063 403.95312 378.75626Q404.60938 379.25626 404.79688 380.20938L403.76562 380.36563Q403.625 379.74063 403.25 379.42813Q402.875 379.1 402.34375 379.1Q401.54688 379.1 401.04688 379.67813Q400.54688 380.24063 400.54688 381.475Q400.54688 382.74063 401.03125 383.30313Q401.51562 383.86563 402.28125 383.86563Q402.90625 383.86563 403.3125 383.49063Q403.73438 383.11563 403.85938 382.31876ZM405.40625 381.49063Q405.40625 379.75626 406.35938 378.92813Q407.15625 378.24063 408.3125 378.24063Q409.59375 378.24063 410.40625 379.08438Q411.23438 379.9125 411.23438 381.39688Q411.23438 382.6 410.875 383.2875Q410.51562 383.975 409.8125 384.36563Q409.125 384.74063 408.3125 384.74063Q407.01562 384.74063 406.20312 383.9125Q405.40625 383.06876 405.40625 381.49063ZM406.48438 381.49063Q406.48438 382.67813 407.0 383.27188Q407.53125 383.86563 408.3125 383.86563Q409.10938 383.86563 409.625 383.27188Q410.14062 382.67813 410.14062 381.45938Q410.14062 380.30313 409.60938 379.70938Q409.09375 379.11563 408.3125 379.11563Q407.53125 379.11563 407.0 379.70938Q406.48438 380.2875 406.48438 381.49063ZM412.79688 384.6L412.79688 378.38126L413.73438 378.38126L413.73438 379.25626Q414.42188 378.24063 415.71875 378.24063Q416.28125 378.24063 416.75 378.44376Q417.23438 378.64688 417.46875 378.975Q417.70312 379.30313 417.79688 379.74063Q417.84375 380.0375 417.84375 380.77188L417.84375 384.6L416.79688 384.6L416.79688 380.81876Q416.79688 380.1625 416.67188 379.85Q416.54688 379.5375 416.23438 379.35Q415.92188 379.14688 415.5 379.14688Q414.82812 379.14688 414.32812 379.58438Q413.84375 380.00626 413.84375 381.19376L413.84375 384.6L412.79688 384.6ZM423.82812 384.6L423.82812 383.81876Q423.23438 384.74063 422.09375 384.74063Q421.34375 384.74063 420.71875 384.33438Q420.09375 383.9125 419.75 383.17813Q419.40625 382.44376 419.40625 381.49063Q419.40625 380.56876 419.71875 379.80313Q420.03125 379.0375 420.65625 378.64688Q421.28125 378.24063 422.04688 378.24063Q422.60938 378.24063 423.04688 378.475Q423.48438 378.70938 423.76562 379.08438L423.76562 376.00626L424.8125 376.00626L424.8125 384.6L423.82812 384.6ZM420.5 381.49063Q420.5 382.69376 421.0 383.2875Q421.5 383.86563 422.1875 383.86563Q422.875 383.86563 423.35938 383.30313Q423.84375 382.74063 423.84375 381.58438Q423.84375 380.30313 423.34375 379.70938Q422.85938 379.11563 422.14062 379.11563Q421.4375 379.11563 420.96875 379.69376Q420.5 380.25626 420.5 381.49063ZM426.375 382.74063L427.40625 382.58438Q427.5 383.20938 427.89062 383.5375Q428.29688 383.86563 429.03125 383.86563Q429.75 383.86563 430.09375 383.58438Q430.45312 383.2875 430.45312 382.88126Q430.45312 382.52188 430.14062 382.31876Q429.92188 382.17813 429.0625 381.95938Q427.90625 381.6625 427.45312 381.45938Q427.01562 381.24063 426.78125 380.86563Q426.54688 380.49063 426.54688 380.02188Q426.54688 379.61563 426.73438 379.25626Q426.92188 378.89688 427.25 378.6625Q427.5 378.49063 427.92188 378.36563Q428.34375 378.24063 428.84375 378.24063Q429.5625 378.24063 430.10938 378.45938Q430.67188 378.6625 430.9375 379.02188Q431.20312 379.38126 431.29688 379.975L430.26562 380.11563Q430.20312 379.64688 429.85938 379.38126Q429.53125 379.1 428.90625 379.1Q428.1875 379.1 427.875 379.35Q427.5625 379.58438 427.5625 379.9125Q427.5625 380.11563 427.6875 380.27188Q427.82812 380.44376 428.09375 380.55313Q428.25 380.61563 429.03125 380.81876Q430.15625 381.13126 430.59375 381.31876Q431.03125 381.50626 431.28125 381.86563Q431.53125 382.225 431.53125 382.77188Q431.53125 383.30313 431.21875 383.77188Q430.92188 384.225 430.34375 384.49063Q429.76562 384.74063 429.03125 384.74063Q427.8125 384.74063 427.17188 384.24063Q426.54688 383.725 426.375 382.74063Z" fill-rule="nonzero"/><path fill="#000000" d="M28.38438 228.2375L28.681255 227.1125Q30.07188 227.47188 30.806255 228.39375Q31.54063 229.31563 31.54063 230.65938Q31.54063 232.05 30.97813 232.925Q30.41563 233.8 29.35313 234.25313Q28.275005 234.70625 27.04063 234.70625Q25.69688 234.70625 24.69688 234.19063Q23.69688 233.675 23.181255 232.7375Q22.66563 231.78438 22.66563 230.64375Q22.66563 229.3625 23.32188 228.4875Q23.97813 227.59688 25.16563 227.25313L25.431255 228.37813Q24.493755 228.675 24.07188 229.25313Q23.63438 229.81563 23.63438 230.675Q23.63438 231.65938 24.118755 232.33125Q24.587505 232.9875 25.38438 233.26875Q26.181255 233.53438 27.04063 233.53438Q28.13438 233.53438 28.94688 233.22188Q29.75938 232.89375 30.16563 232.22188Q30.57188 231.55 30.57188 230.75313Q30.57188 229.8 30.025005 229.14375Q29.47813 228.47188 28.38438 228.2375ZM28.29063 225.89375Q26.556255 225.89375 25.72813 224.94063Q25.04063 224.14375 25.04063 222.9875Q25.04063 221.70625 25.88438 220.89375Q26.712505 220.06563 28.19688 220.06563Q29.400005 220.06563 30.087505 220.425Q30.775005 220.78438 31.16563 221.4875Q31.54063 222.175 31.54063 222.9875Q31.54063 224.28438 30.712505 225.09688Q29.868755 225.89375 28.29063 225.89375ZM28.29063 224.81563Q29.47813 224.81563 30.07188 224.3Q30.66563 223.76875 30.66563 222.9875Q30.66563 222.19063 30.07188 221.675Q29.47813 221.15938 28.25938 221.15938Q27.10313 221.15938 26.50938 221.69063Q25.91563 222.20625 25.91563 222.9875Q25.91563 223.76875 26.50938 224.3Q27.087505 224.81563 28.29063 224.81563ZM31.400005 218.50313L25.181255 218.50313L25.181255 217.56563L26.056255 217.56563Q25.587505 217.26875 25.32188 216.78438Q25.04063 216.3 25.04063 215.675Q25.04063 214.9875 25.32188 214.55Q25.60313 214.09688 26.118755 213.925Q25.04063 213.175 25.04063 212.00313Q25.04063 211.06563 25.556255 210.58125Q26.056255 210.08125 27.13438 210.08125L31.400005 210.08125L31.400005 211.12813L27.47813 211.12813Q26.85313 211.12813 26.57188 211.2375Q26.29063 211.33125 26.118755 211.59688Q25.94688 211.8625 25.94688 212.2375Q25.94688 212.89375 26.38438 213.33125Q26.82188 213.75313 27.79063 213.75313L31.400005 213.75313L31.400005 214.81563L27.35313 214.81563Q26.650005 214.81563 26.306255 215.08125Q25.94688 215.33125 25.94688 215.90938Q25.94688 216.3625 26.181255 216.7375Q26.41563 217.1125 26.868755 217.28438Q27.32188 217.45625 28.16563 217.45625L31.400005 217.45625L31.400005 218.50313ZM31.400005 208.50313L25.181255 208.50313L25.181255 207.56563L26.056255 207.56563Q25.587505 207.26875 25.32188 206.78438Q25.04063 206.3 25.04063 205.675Q25.04063 204.9875 25.32188 204.55Q25.60313 204.09688 26.118755 203.925Q25.04063 203.175 25.04063 202.00313Q25.04063 201.06563 25.556255 200.58125Q26.056255 200.08125 27.13438 200.08125L31.400005 200.08125L31.400005 201.12813L27.47813 201.12813Q26.85313 201.12813 26.57188 201.2375Q26.29063 201.33125 26.118755 201.59688Q25.94688 201.8625 25.94688 202.2375Q25.94688 202.89375 26.38438 203.33125Q26.82188 203.75313 27.79063 203.75313L31.400005 203.75313L31.400005 204.81563L27.35313 204.81563Q26.650005 204.81563 26.306255 205.08125Q25.94688 205.33125 25.94688 205.90938Q25.94688 206.3625 26.181255 206.7375Q26.41563 207.1125 26.868755 207.28438Q27.32188 207.45625 28.16563 207.45625L31.400005 207.45625L31.400005 208.50313ZM30.63438 194.44063Q31.13438 195.03438 31.337505 195.58125Q31.54063 196.1125 31.54063 196.7375Q31.54063 197.76875 31.04063 198.31563Q30.54063 198.8625 29.75938 198.8625Q29.306255 198.8625 28.931255 198.65938Q28.54063 198.45625 28.32188 198.1125Q28.087505 197.76875 27.97813 197.34688Q27.88438 197.05 27.806255 196.40938Q27.66563 195.14375 27.44688 194.53438Q27.22813 194.53438 27.181255 194.53438Q26.525005 194.53438 26.25938 194.83125Q25.91563 195.2375 25.91563 196.03438Q25.91563 196.76875 26.181255 197.12813Q26.431255 197.4875 27.087505 197.65938L26.94688 198.69063Q26.29063 198.55 25.88438 198.22188Q25.47813 197.89375 25.25938 197.28438Q25.04063 196.675 25.04063 195.87813Q25.04063 195.08125 25.22813 194.58125Q25.41563 194.08125 25.69688 193.84688Q25.97813 193.6125 26.41563 193.51875Q26.681255 193.47188 27.38438 193.47188L28.79063 193.47188Q30.25938 193.47188 30.650005 193.40938Q31.04063 193.33125 31.400005 193.12813L31.400005 194.2375Q31.07188 194.39375 30.63438 194.44063ZM28.275005 194.53438Q28.50938 195.1125 28.681255 196.25313Q28.775005 196.90938 28.900005 197.175Q29.00938 197.44063 29.22813 197.59688Q29.44688 197.7375 29.72813 197.7375Q30.150005 197.7375 30.431255 197.425Q30.712505 197.09688 30.712505 196.4875Q30.712505 195.87813 30.44688 195.40938Q30.181255 194.925 29.712505 194.70625Q29.35313 194.53438 28.66563 194.53438L28.275005 194.53438ZM31.400005 191.50313L25.181255 191.50313L25.181255 190.56563L26.056255 190.56563Q25.04063 189.87813 25.04063 188.58125Q25.04063 188.01875 25.243755 187.55Q25.44688 187.06563 25.775005 186.83125Q26.10313 186.59688 26.54063 186.50313Q26.837505 186.45625 27.57188 186.45625L31.400005 186.45625L31.400005 187.50313L27.618755 187.50313Q26.962505 187.50313 26.650005 187.62813Q26.337505 187.75313 26.150005 188.06563Q25.94688 188.37813 25.94688 188.8Q25.94688 189.47188 26.38438 189.97188Q26.806255 190.45625 27.993755 190.45625L31.400005 190.45625L31.400005 191.50313ZM31.400005 180.47188L30.618755 180.47188Q31.54063 181.06563 31.54063 182.20625Q31.54063 182.95625 31.13438 183.58125Q30.712505 184.20625 29.97813 184.55Q29.243755 184.89375 28.29063 184.89375Q27.368755 184.89375 26.60313 184.58125Q25.837505 184.26875 25.44688 183.64375Q25.04063 183.01875 25.04063 182.25313Q25.04063 181.69063 25.275005 181.25313Q25.50938 180.81563 25.88438 180.53438L22.806255 180.53438L22.806255 179.4875L31.400005 179.4875L31.400005 180.47188ZM28.29063 183.8Q29.493755 183.8 30.087505 183.3Q30.66563 182.8 30.66563 182.1125Q30.66563 181.425 30.10313 180.94063Q29.54063 180.45625 28.38438 180.45625Q27.10313 180.45625 26.50938 180.95625Q25.91563 181.44063 25.91563 182.15938Q25.91563 182.8625 26.493755 183.33125Q27.056255 183.8 28.29063 183.8Z" fill-rule="nonzero"/><path fill="#000000" d="M65.16563 105.07586L64.18125 105.07586L64.18125 96.48211L65.24375 96.48211L65.24375 99.54461Q65.91563 98.716484 66.94688 98.716484Q67.525 98.716484 68.025 98.95086Q68.54063 99.16961 68.86875 99.591484Q69.2125 100.01336 69.4 100.60711Q69.5875 101.20086 69.5875 101.872734Q69.5875 103.466484 68.79063 104.341484Q67.99375 105.216484 66.9 105.216484Q65.79063 105.216484 65.16563 104.29461L65.16563 105.07586ZM65.15 101.91961Q65.15 103.028984 65.4625 103.528984Q65.9625 104.341484 66.80625 104.341484Q67.49375 104.341484 67.99375 103.747734Q68.50938 103.153984 68.50938 101.95086Q68.50938 100.73211 68.025 100.153984Q67.54063 99.57586 66.85313 99.57586Q66.16563 99.57586 65.65 100.185234Q65.15 100.778984 65.15 101.91961ZM75.275 105.07586L75.275 104.153984Q74.54063 105.216484 73.29063 105.216484Q72.74375 105.216484 72.25938 105.01336Q71.79063 104.79461 71.55625 104.48211Q71.32188 104.153984 71.22813 103.685234Q71.16563 103.38836 71.16563 102.70086L71.16563 98.85711L72.22813 98.85711L72.22813 102.310234Q72.22813 103.122734 72.29063 103.41961Q72.38438 103.82586 72.69688 104.07586Q73.025 104.310234 73.50938 104.310234Q73.97813 104.310234 74.38438 104.07586Q74.80625 103.82586 74.97813 103.403984Q75.16563 102.98211 75.16563 102.185234L75.16563 98.85711L76.2125 98.85711L76.2125 105.07586L75.275 105.07586ZM78.19688 107.466484L78.19688 98.85711L79.15 98.85711L79.15 99.653984Q79.49375 99.185234 79.91563 98.95086Q80.35313 98.716484 80.9625 98.716484Q81.75938 98.716484 82.36875 99.122734Q82.97813 99.528984 83.275 100.278984Q83.5875 101.028984 83.5875 101.91961Q83.5875 102.872734 83.24375 103.63836Q82.91563 104.403984 82.25938 104.810234Q81.60313 105.216484 80.88438 105.216484Q80.35313 105.216484 79.93125 104.997734Q79.50938 104.76336 79.24375 104.435234L79.24375 107.466484L78.19688 107.466484ZM79.15 101.997734Q79.15 103.20086 79.63438 103.778984Q80.11875 104.341484 80.80625 104.341484Q81.50938 104.341484 82.00938 103.747734Q82.50938 103.153984 82.50938 101.903984Q82.50938 100.716484 82.025 100.13836Q81.54063 99.54461 80.85313 99.54461Q80.18125 99.54461 79.66563 100.16961Q79.15 100.79461 79.15 101.997734ZM84.775 103.216484L85.80625 103.060234Q85.9 103.685234 86.29063 104.01336Q86.69688 104.341484 87.43125 104.341484Q88.15 104.341484 88.49375 104.060234Q88.85313 103.76336 88.85313 103.35711Q88.85313 102.997734 88.54063 102.79461Q88.32188 102.653984 87.4625 102.435234Q86.30625 102.13836 85.85313 101.935234Q85.41563 101.716484 85.18125 101.341484Q84.94688 100.966484 84.94688 100.497734Q84.94688 100.091484 85.13438 99.73211Q85.32188 99.372734 85.65 99.13836Q85.9 98.966484 86.32188 98.841484Q86.74375 98.716484 87.24375 98.716484Q87.9625 98.716484 88.50938 98.935234Q89.07188 99.13836 89.3375 99.497734Q89.60313 99.85711 89.69688 100.45086L88.66563 100.591484Q88.60313 100.122734 88.25938 99.85711Q87.93125 99.57586 87.30625 99.57586Q86.5875 99.57586 86.275 99.82586Q85.9625 100.060234 85.9625 100.38836Q85.9625 100.591484 86.0875 100.747734Q86.22813 100.91961 86.49375 101.028984Q86.65 101.091484 87.43125 101.29461Q88.55625 101.60711 88.99375 101.79461Q89.43125 101.98211 89.68125 102.341484Q89.93125 102.70086 89.93125 103.247734Q89.93125 103.778984 89.61875 104.247734Q89.32188 104.70086 88.74375 104.966484Q88.16563 105.216484 87.43125 105.216484Q86.2125 105.216484 85.57188 104.716484Q84.94688 104.20086 84.775 103.216484ZM93.49375 104.13836L93.65 105.060234Q93.19688 105.153984 92.85313 105.153984Q92.275 105.153984 91.9625 104.98211Q91.65 104.79461 91.50938 104.497734Q91.38438 104.20086 91.38438 103.247734L91.38438 99.66961L90.61875 99.66961L90.61875 98.85711L91.38438 98.85711L91.38438 97.310234L92.43125 96.685234L92.43125 98.85711L93.49375 98.85711L93.49375 99.66961L92.43125 99.66961L92.43125 103.310234Q92.43125 103.76336 92.47813 103.88836Q92.54063 104.01336 92.66563 104.091484Q92.79063 104.16961 93.025 104.16961Q93.2125 104.16961 93.49375 104.13836ZM98.25938 104.310234Q97.66563 104.810234 97.11875 105.01336Q96.5875 105.216484 95.9625 105.216484Q94.93125 105.216484 94.38438 104.716484Q93.8375 104.216484 93.8375 103.435234Q93.8375 102.98211 94.04063 102.60711Q94.24375 102.216484 94.5875 101.997734Q94.93125 101.76336 95.35313 101.653984Q95.65 101.560234 96.29063 101.48211Q97.55625 101.341484 98.16563 101.122734Q98.16563 100.903984 98.16563 100.85711Q98.16563 100.20086 97.86875 99.935234Q97.4625 99.591484 96.66563 99.591484Q95.93125 99.591484 95.57188 99.85711Q95.2125 100.10711 95.04063 100.76336L94.00938 100.622734Q94.15 99.966484 94.47813 99.560234Q94.80625 99.153984 95.41563 98.935234Q96.025 98.716484 96.82188 98.716484Q97.61875 98.716484 98.11875 98.903984Q98.61875 99.091484 98.85313 99.372734Q99.0875 99.653984 99.18125 100.091484Q99.22813 100.35711 99.22813 101.060234L99.22813 102.466484Q99.22813 103.935234 99.29063 104.32586Q99.36875 104.716484 99.57188 105.07586L98.4625 105.07586Q98.30625 104.747734 98.25938 104.310234ZM98.16563 101.95086Q97.5875 102.185234 96.44688 102.35711Q95.79063 102.45086 95.525 102.57586Q95.25938 102.685234 95.10313 102.903984Q94.9625 103.122734 94.9625 103.403984Q94.9625 103.82586 95.275 104.10711Q95.60313 104.38836 96.2125 104.38836Q96.82188 104.38836 97.29063 104.122734Q97.775 103.85711 97.99375 103.38836Q98.16563 103.028984 98.16563 102.341484L98.16563 101.95086ZM100.775 103.216484L101.80625 103.060234Q101.9 103.685234 102.29063 104.01336Q102.69688 104.341484 103.43125 104.341484Q104.15 104.341484 104.49375 104.060234Q104.85313 103.76336 104.85313 103.35711Q104.85313 102.997734 104.54063 102.79461Q104.32188 102.653984 103.4625 102.435234Q102.30625 102.13836 101.85313 101.935234Q101.41563 101.716484 101.18125 101.341484Q100.94688 100.966484 100.94688 100.497734Q100.94688 100.091484 101.13438 99.73211Q101.32188 99.372734 101.65 99.13836Q101.9 98.966484 102.32188 98.841484Q102.74375 98.716484 103.24375 98.716484Q103.9625 98.716484 104.50938 98.935234Q105.07188 99.13836 105.3375 99.497734Q105.60313 99.85711 105.69688 100.45086L104.66563 100.591484Q104.60313 100.122734 104.25938 99.85711Q103.93125 99.57586 103.30625 99.57586Q102.5875 99.57586 102.275 99.82586Q101.9625 100.060234 101.9625 100.38836Q101.9625 100.591484 102.0875 100.747734Q102.22813 100.91961 102.49375 101.028984Q102.65 101.091484 103.43125 101.29461Q104.55625 101.60711 104.99375 101.79461Q105.43125 101.98211 105.68125 102.341484Q105.93125 102.70086 105.93125 103.247734Q105.93125 103.778984 105.61875 104.247734Q105.32188 104.70086 104.74375 104.966484Q104.16563 105.216484 103.43125 105.216484Q102.2125 105.216484 101.57188 104.716484Q100.94688 104.20086 100.775 103.216484ZM107.19688 105.07586L107.19688 96.48211L108.24375 96.48211L108.24375 99.560234Q108.97813 98.716484 110.10313 98.716484Q110.80625 98.716484 111.30625 98.997734Q111.82188 99.26336 112.04063 99.747734Q112.25938 100.216484 112.25938 101.13836L112.25938 105.07586L111.2125 105.07586L111.2125 101.13836Q111.2125 100.341484 110.86875 99.98211Q110.525 99.622734 109.9 99.622734Q109.43125 99.622734 109.00938 99.872734Q108.60313 100.10711 108.41563 100.528984Q108.24375 100.935234 108.24375 101.66961L108.24375 105.07586L107.19688 105.07586ZM116.99375 105.591484L118.025 105.747734Q118.0875 106.216484 118.38438 106.435234Q118.775 106.73211 119.44688 106.73211Q120.18125 106.73211 120.57188 106.435234Q120.97813 106.13836 121.11875 105.622734Q121.2125 105.29461 121.19688 104.26336Q120.50938 105.07586 119.47813 105.07586Q118.19688 105.07586 117.49375 104.153984Q116.79063 103.216484 116.79063 101.935234Q116.79063 101.04461 117.10313 100.29461Q117.43125 99.528984 118.04063 99.122734Q118.65 98.716484 119.47813 98.716484Q120.5875 98.716484 121.30625 99.60711L121.30625 98.85711L122.275 98.85711L122.275 104.23211Q122.275 105.685234 121.97813 106.29461Q121.68125 106.903984 121.04063 107.247734Q120.4 107.60711 119.4625 107.60711Q118.35313 107.60711 117.66563 107.10711Q116.97813 106.60711 116.99375 105.591484ZM117.86875 101.85711Q117.86875 103.07586 118.35313 103.63836Q118.8375 104.20086 119.57188 104.20086Q120.30625 104.20086 120.79063 103.63836Q121.29063 103.07586 121.29063 101.88836Q121.29063 100.747734 120.775 100.16961Q120.275 99.591484 119.55625 99.591484Q118.85313 99.591484 118.35313 100.16961Q117.86875 100.73211 117.86875 101.85711ZM128.44687 103.07586L129.54062 103.20086Q129.29062 104.153984 128.5875 104.685234Q127.88438 105.216484 126.80625 105.216484Q125.44688 105.216484 124.63438 104.372734Q123.8375 103.528984 123.8375 102.01336Q123.8375 100.45086 124.65 99.591484Q125.4625 98.716484 126.74375 98.716484Q127.99375 98.716484 128.775 99.560234Q129.57187 100.403984 129.57187 101.95086Q129.57187 102.04461 129.57187 102.23211L124.93125 102.23211Q124.99375 103.26336 125.50938 103.810234Q126.025 104.341484 126.80625 104.341484Q127.38438 104.341484 127.79063 104.04461Q128.2125 103.73211 128.44687 103.07586ZM124.99375 101.372734L128.4625 101.372734Q128.4 100.57586 128.07187 100.185234Q127.55625 99.57586 126.75938 99.57586Q126.025 99.57586 125.525 100.060234Q125.04063 100.54461 124.99375 101.372734ZM133.49374 104.13836L133.65 105.060234Q133.19687 105.153984 132.85312 105.153984Q132.275 105.153984 131.9625 104.98211Q131.65 104.79461 131.50937 104.497734Q131.38437 104.20086 131.38437 103.247734L131.38437 99.66961L130.61874 99.66961L130.61874 98.85711L131.38437 98.85711L131.38437 97.310234L132.43124 96.685234L132.43124 98.85711L133.49374 98.85711L133.49374 99.66961L132.43124 99.66961L132.43124 103.310234Q132.43124 103.76336 132.47812 103.88836Q132.54062 104.01336 132.66562 104.091484Q132.79062 104.16961 133.025 104.16961Q133.2125 104.16961 133.49374 104.13836ZM137.50937 107.60711L137.50937 96.341484L138.41562 96.341484L138.41562 107.60711L137.50937 107.60711ZM145.49374 104.13836L145.65 105.060234Q145.19687 105.153984 144.85312 105.153984Q144.275 105.153984 143.9625 104.98211Q143.65 104.79461 143.50937 104.497734Q143.38437 104.20086 143.38437 103.247734L143.38437 99.66961L142.61874 99.66961L142.61874 98.85711L143.38437 98.85711L143.38437 97.310234L144.43124 96.685234L144.43124 98.85711L145.49374 98.85711L145.49374 99.66961L144.43124 99.66961L144.43124 103.310234Q144.43124 103.76336 144.47812 103.88836Q144.54062 104.01336 144.66562 104.091484Q144.79062 104.16961 145.025 104.16961Q145.2125 104.16961 145.49374 104.13836ZM150.25937 104.310234Q149.66562 104.810234 149.11874 105.01336Q148.5875 105.216484 147.9625 105.216484Q146.93124 105.216484 146.38437 104.716484Q145.8375 104.216484 145.8375 103.435234Q145.8375 102.98211 146.04062 102.60711Q146.24374 102.216484 146.5875 101.997734Q146.93124 101.76336 147.35312 101.653984Q147.65 101.560234 148.29062 101.48211Q149.55624 101.341484 150.16562 101.122734Q150.16562 100.903984 150.16562 100.85711Q150.16562 100.20086 149.86874 99.935234Q149.4625 99.591484 148.66562 99.591484Q147.93124 99.591484 147.57187 99.85711Q147.2125 100.10711 147.04062 100.76336L146.00937 100.622734Q146.15 99.966484 146.47812 99.560234Q146.80624 99.153984 147.41562 98.935234Q148.025 98.716484 148.82187 98.716484Q149.61874 98.716484 150.11874 98.903984Q150.61874 99.091484 150.85312 99.372734Q151.0875 99.653984 151.18124 100.091484Q151.22812 100.35711 151.22812 101.060234L151.22812 102.466484Q151.22812 103.935234 151.29062 104.32586Q151.36874 104.716484 151.57187 105.07586L150.4625 105.07586Q150.30624 104.747734 150.25937 104.310234ZM150.16562 101.95086Q149.5875 102.185234 148.44687 102.35711Q147.79062 102.45086 147.525 102.57586Q147.25937 102.685234 147.10312 102.903984Q146.9625 103.122734 146.9625 103.403984Q146.9625 103.82586 147.275 104.10711Q147.60312 104.38836 148.2125 104.38836Q148.82187 104.38836 149.29062 104.122734Q149.775 103.85711 149.99374 103.38836Q150.16562 103.028984 150.16562 102.341484L150.16562 101.95086ZM153.18124 105.07586L153.18124 98.85711L154.13437 98.85711L154.13437 99.79461Q154.49374 99.13836 154.79062 98.935234Q155.10312 98.716484 155.47812 98.716484Q156.00937 98.716484 156.55624 99.04461L156.19687 100.028984Q155.80624 99.79461 155.43124 99.79461Q155.07187 99.79461 154.79062 100.01336Q154.525 100.216484 154.41562 100.591484Q154.22812 101.153984 154.22812 101.810234L154.22812 105.07586L153.18124 105.07586ZM159.775 102.497734L159.775 101.435234L163.025 101.435234L163.025 102.497734L159.775 102.497734ZM163.49374 105.07586L165.75937 101.841484L163.66562 98.85711L164.97812 98.85711L165.93124 100.310234Q166.19687 100.73211 166.36874 101.01336Q166.61874 100.622734 166.8375 100.32586L167.88437 98.85711L169.15 98.85711L166.99374 101.778984L169.30624 105.07586L168.025 105.07586L166.74374 103.13836L166.4 102.622734L164.75937 105.07586L163.49374 105.07586Z" fill-rule="nonzero"/><path fill="#000000" d="M52.99375 169.40758L54.025 169.56383Q54.0875 170.03258 54.384377 170.25133Q54.775 170.5482 55.446877 170.5482Q56.18125 170.5482 56.571877 170.25133Q56.978127 169.95445 57.11875 169.43883Q57.2125 169.1107 57.196877 168.07945Q56.509377 168.89195 55.478127 168.89195Q54.196877 168.89195 53.49375 167.97008Q52.790627 167.03258 52.790627 165.75133Q52.790627 164.8607 53.103127 164.1107Q53.43125 163.34508 54.040627 162.93883Q54.65 162.53258 55.478127 162.53258Q56.5875 162.53258 57.30625 163.4232L57.30625 162.6732L58.275 162.6732L58.275 168.0482Q58.275 169.50133 57.978127 170.1107Q57.68125 170.72008 57.040627 171.06383Q56.4 171.4232 55.4625 171.4232Q54.353127 171.4232 53.665627 170.9232Q52.978127 170.4232 52.99375 169.40758ZM53.86875 165.6732Q53.86875 166.89195 54.353127 167.45445Q54.8375 168.01695 55.571877 168.01695Q56.30625 168.01695 56.790627 167.45445Q57.290627 166.89195 57.290627 165.70445Q57.290627 164.56383 56.775 163.9857Q56.275 163.40758 55.55625 163.40758Q54.853127 163.40758 54.353127 163.9857Q53.86875 164.5482 53.86875 165.6732ZM60.196877 171.28258L60.196877 162.6732L61.15 162.6732L61.15 163.47008Q61.49375 163.00133 61.915627 162.76695Q62.353127 162.53258 62.9625 162.53258Q63.759377 162.53258 64.36875 162.93883Q64.97813 163.34508 65.275 164.09508Q65.5875 164.84508 65.5875 165.7357Q65.5875 166.68883 65.24375 167.45445Q64.91563 168.22008 64.25938 168.62633Q63.603127 169.03258 62.884377 169.03258Q62.353127 169.03258 61.93125 168.81383Q61.509377 168.57945 61.24375 168.25133L61.24375 171.28258L60.196877 171.28258ZM61.15 165.81383Q61.15 167.01695 61.634377 167.59508Q62.11875 168.15758 62.80625 168.15758Q63.509377 168.15758 64.00938 167.56383Q64.50938 166.97008 64.50938 165.72008Q64.50938 164.53258 64.025 163.95445Q63.540627 163.3607 62.853127 163.3607Q62.18125 163.3607 61.665627 163.9857Q61.15 164.6107 61.15 165.81383ZM66.99375 169.40758L68.025 169.56383Q68.0875 170.03258 68.38438 170.25133Q68.775 170.5482 69.44688 170.5482Q70.18125 170.5482 70.57188 170.25133Q70.97813 169.95445 71.11875 169.43883Q71.2125 169.1107 71.19688 168.07945Q70.50938 168.89195 69.47813 168.89195Q68.19688 168.89195 67.49375 167.97008Q66.79063 167.03258 66.79063 165.75133Q66.79063 164.8607 67.10313 164.1107Q67.43125 163.34508 68.04063 162.93883Q68.65 162.53258 69.47813 162.53258Q70.5875 162.53258 71.30625 163.4232L71.30625 162.6732L72.275 162.6732L72.275 168.0482Q72.275 169.50133 71.97813 170.1107Q71.68125 170.72008 71.04063 171.06383Q70.4 171.4232 69.4625 171.4232Q68.35313 171.4232 67.66563 170.9232Q66.97813 170.4232 66.99375 169.40758ZM67.86875 165.6732Q67.86875 166.89195 68.35313 167.45445Q68.8375 168.01695 69.57188 168.01695Q70.30625 168.01695 70.79063 167.45445Q71.29063 166.89195 71.29063 165.70445Q71.29063 164.56383 70.775 163.9857Q70.275 163.40758 69.55625 163.40758Q68.85313 163.40758 68.35313 163.9857Q67.86875 164.5482 67.86875 165.6732ZM76.775 166.31383L76.775 165.25133L80.025 165.25133L80.025 166.31383L76.775 166.31383ZM85.22813 168.89195L85.22813 168.1107Q84.63438 169.03258 83.49375 169.03258Q82.74375 169.03258 82.11875 168.62633Q81.49375 168.20445 81.15 167.47008Q80.80625 166.7357 80.80625 165.78258Q80.80625 164.8607 81.11875 164.09508Q81.43125 163.32945 82.05625 162.93883Q82.68125 162.53258 83.44688 162.53258Q84.00938 162.53258 84.44688 162.76695Q84.88438 163.00133 85.16563 163.37633L85.16563 160.2982L86.2125 160.2982L86.2125 168.89195L85.22813 168.89195ZM81.9 165.78258Q81.9 166.9857 82.4 167.57945Q82.9 168.15758 83.5875 168.15758Q84.275 168.15758 84.75938 167.59508Q85.24375 167.03258 85.24375 165.87633Q85.24375 164.59508 84.74375 164.00133Q84.25938 163.40758 83.54063 163.40758Q82.8375 163.40758 82.36875 163.9857Q81.9 164.5482 81.9 165.78258ZM91.50938 171.4232L91.50938 160.15758L92.41563 160.15758L92.41563 171.4232L91.50938 171.4232ZM96.99375 169.40758L98.025 169.56383Q98.0875 170.03258 98.38438 170.25133Q98.775 170.5482 99.44688 170.5482Q100.18125 170.5482 100.57188 170.25133Q100.97813 169.95445 101.11875 169.43883Q101.2125 169.1107 101.19688 168.07945Q100.50938 168.89195 99.47813 168.89195Q98.19688 168.89195 97.49375 167.97008Q96.79063 167.03258 96.79063 165.75133Q96.79063 164.8607 97.10313 164.1107Q97.43125 163.34508 98.04063 162.93883Q98.65 162.53258 99.47813 162.53258Q100.5875 162.53258 101.30625 163.4232L101.30625 162.6732L102.275 162.6732L102.275 168.0482Q102.275 169.50133 101.97813 170.1107Q101.68125 170.72008 101.04063 171.06383Q100.4 171.4232 99.4625 171.4232Q98.35313 171.4232 97.66563 170.9232Q96.97813 170.4232 96.99375 169.40758ZM97.86875 165.6732Q97.86875 166.89195 98.35313 167.45445Q98.8375 168.01695 99.57188 168.01695Q100.30625 168.01695 100.79063 167.45445Q101.29063 166.89195 101.29063 165.70445Q101.29063 164.56383 100.775 163.9857Q100.275 163.40758 99.55625 163.40758Q98.85313 163.40758 98.35313 163.9857Q97.86875 164.5482 97.86875 165.6732ZM103.63438 168.89195L103.63438 168.03258L107.60313 163.4857Q106.91563 163.51695 106.4 163.51695L103.86875 163.51695L103.86875 162.6732L108.9625 162.6732L108.9625 163.3607L105.5875 167.31383L104.93125 168.03258Q105.65 167.9857 106.25938 167.9857L109.15 167.9857L109.15 168.89195L103.63438 168.89195ZM110.19688 161.51695L110.19688 160.2982L111.25938 160.2982L111.25938 161.51695L110.19688 161.51695ZM110.19688 168.89195L110.19688 162.6732L111.25938 162.6732L111.25938 168.89195L110.19688 168.89195ZM113.19688 171.28258L113.19688 162.6732L114.15 162.6732L114.15 163.47008Q114.49375 163.00133 114.91563 162.76695Q115.35313 162.53258 115.9625 162.53258Q116.75938 162.53258 117.36875 162.93883Q117.97813 163.34508 118.275 164.09508Q118.5875 164.84508 118.5875 165.7357Q118.5875 166.68883 118.24375 167.45445Q117.91563 168.22008 117.25938 168.62633Q116.60313 169.03258 115.88438 169.03258Q115.35313 169.03258 114.93125 168.81383Q114.50938 168.57945 114.24375 168.25133L114.24375 171.28258L113.19688 171.28258ZM114.15 165.81383Q114.15 167.01695 114.63438 167.59508Q115.11875 168.15758 115.80625 168.15758Q116.50938 168.15758 117.00938 167.56383Q117.50938 166.97008 117.50938 165.72008Q117.50938 164.53258 117.025 163.95445Q116.54063 163.3607 115.85313 163.3607Q115.18125 163.3607 114.66563 163.9857Q114.15 164.6107 114.15 165.81383ZM122.775 166.31383L122.775 165.25133L126.025 165.25133L126.025 166.31383L122.775 166.31383ZM131.22812 168.89195L131.22812 168.1107Q130.63437 169.03258 129.49374 169.03258Q128.74374 169.03258 128.11874 168.62633Q127.49375 168.20445 127.15 167.47008Q126.80625 166.7357 126.80625 165.78258Q126.80625 164.8607 127.11875 164.09508Q127.43125 163.32945 128.05624 162.93883Q128.68124 162.53258 129.44687 162.53258Q130.00937 162.53258 130.44687 162.76695Q130.88437 163.00133 131.16562 163.37633L131.16562 160.2982L132.2125 160.2982L132.2125 168.89195L131.22812 168.89195ZM127.9 165.78258Q127.9 166.9857 128.4 167.57945Q128.9 168.15758 129.5875 168.15758Q130.275 168.15758 130.75937 167.59508Q131.24374 167.03258 131.24374 165.87633Q131.24374 164.59508 130.74374 164.00133Q130.25937 163.40758 129.54062 163.40758Q128.8375 163.40758 128.36874 163.9857Q127.9 164.5482 127.9 165.78258ZM137.50937 171.4232L137.50937 160.15758L138.41562 160.15758L138.41562 171.4232L137.50937 171.4232ZM145.49374 167.95445L145.65 168.87633Q145.19687 168.97008 144.85312 168.97008Q144.275 168.97008 143.9625 168.7982Q143.65 168.6107 143.50937 168.31383Q143.38437 168.01695 143.38437 167.06383L143.38437 163.4857L142.61874 163.4857L142.61874 162.6732L143.38437 162.6732L143.38437 161.12633L144.43124 160.50133L144.43124 162.6732L145.49374 162.6732L145.49374 163.4857L144.43124 163.4857L144.43124 167.12633Q144.43124 167.57945 144.47812 167.70445Q144.54062 167.82945 144.66562 167.90758Q144.79062 167.9857 145.025 167.9857Q145.2125 167.9857 145.49374 167.95445ZM150.25937 168.12633Q149.66562 168.62633 149.11874 168.82945Q148.5875 169.03258 147.9625 169.03258Q146.93124 169.03258 146.38437 168.53258Q145.8375 168.03258 145.8375 167.25133Q145.8375 166.7982 146.04062 166.4232Q146.24374 166.03258 146.5875 165.81383Q146.93124 165.57945 147.35312 165.47008Q147.65 165.37633 148.29062 165.2982Q149.55624 165.15758 150.16562 164.93883Q150.16562 164.72008 150.16562 164.6732Q150.16562 164.01695 149.86874 163.75133Q149.4625 163.40758 148.66562 163.40758Q147.93124 163.40758 147.57187 163.6732Q147.2125 163.9232 147.04062 164.57945L146.00937 164.43883Q146.15 163.78258 146.47812 163.37633Q146.80624 162.97008 147.41562 162.75133Q148.025 162.53258 148.82187 162.53258Q149.61874 162.53258 150.11874 162.72008Q150.61874 162.90758 150.85312 163.18883Q151.0875 163.47008 151.18124 163.90758Q151.22812 164.1732 151.22812 164.87633L151.22812 166.28258Q151.22812 167.75133 151.29062 168.14195Q151.36874 168.53258 151.57187 168.89195L150.4625 168.89195Q150.30624 168.56383 150.25937 168.12633ZM150.16562 165.76695Q149.5875 166.00133 148.44687 166.1732Q147.79062 166.26695 147.525 166.39195Q147.25937 166.50133 147.10312 166.72008Q146.9625 166.93883 146.9625 167.22008Q146.9625 167.64195 147.275 167.9232Q147.60312 168.20445 148.2125 168.20445Q148.82187 168.20445 149.29062 167.93883Q149.775 167.6732 149.99374 167.20445Q150.16562 166.84508 150.16562 166.15758L150.16562 165.76695ZM153.18124 168.89195L153.18124 162.6732L154.13437 162.6732L154.13437 163.6107Q154.49374 162.95445 154.79062 162.75133Q155.10312 162.53258 155.47812 162.53258Q156.00937 162.53258 156.55624 162.8607L156.19687 163.84508Q155.80624 163.6107 155.43124 163.6107Q155.07187 163.6107 154.79062 163.82945Q154.525 164.03258 154.41562 164.40758Q154.22812 164.97008 154.22812 165.62633L154.22812 168.89195L153.18124 168.89195ZM159.775 166.31383L159.775 165.25133L163.025 165.25133L163.025 166.31383L159.775 166.31383ZM163.49374 168.89195L165.75937 165.65758L163.66562 162.6732L164.97812 162.6732L165.93124 164.12633Q166.19687 164.5482 166.36874 164.82945Q166.61874 164.43883 166.8375 164.14195L167.88437 162.6732L169.15 162.6732L166.99374 165.59508L169.30624 168.89195L168.025 168.89195L166.74374 166.95445L166.4 166.43883L164.75937 168.89195L163.49374 168.89195Z" fill-rule="nonzero"/><path fill="#000000" d="M100.18125 232.70805L100.18125 226.4893L101.13438 226.4893L101.13438 227.4268Q101.49375 226.77055 101.79063 226.56743Q102.10313 226.34868 102.47813 226.34868Q103.00938 226.34868 103.55625 226.6768L103.19688 227.66118Q102.80625 227.4268 102.43125 227.4268Q102.07188 227.4268 101.79063 227.64555Q101.525 227.84868 101.41563 228.22368Q101.22813 228.78618 101.22813 229.44243L101.22813 232.70805L100.18125 232.70805ZM108.44688 230.70805L109.54063 230.83305Q109.29063 231.78618 108.5875 232.31743Q107.88438 232.84868 106.80625 232.84868Q105.44688 232.84868 104.63438 232.00493Q103.8375 231.16118 103.8375 229.64555Q103.8375 228.08305 104.65 227.22368Q105.4625 226.34868 106.74375 226.34868Q107.99375 226.34868 108.775 227.19243Q109.57188 228.03618 109.57188 229.58305Q109.57188 229.6768 109.57188 229.8643L104.93125 229.8643Q104.99375 230.89555 105.50938 231.44243Q106.025 231.97368 106.80625 231.97368Q107.38438 231.97368 107.79063 231.6768Q108.2125 231.3643 108.44688 230.70805ZM104.99375 229.00493L108.4625 229.00493Q108.4 228.20805 108.07188 227.81743Q107.55625 227.20805 106.75938 227.20805Q106.025 227.20805 105.525 227.69243Q105.04063 228.1768 104.99375 229.00493ZM110.775 230.84868L111.80625 230.69243Q111.9 231.31743 112.29063 231.64555Q112.69688 231.97368 113.43125 231.97368Q114.15 231.97368 114.49375 231.69243Q114.85313 231.39555 114.85313 230.9893Q114.85313 230.62993 114.54063 230.4268Q114.32188 230.28618 113.4625 230.06743Q112.30625 229.77055 111.85313 229.56743Q111.41563 229.34868 111.18125 228.97368Q110.94688 228.59868 110.94688 228.12993Q110.94688 227.72368 111.13438 227.3643Q111.32188 227.00493 111.65 226.77055Q111.9 226.59868 112.32188 226.47368Q112.74375 226.34868 113.24375 226.34868Q113.9625 226.34868 114.50938 226.56743Q115.07188 226.77055 115.3375 227.12993Q115.60313 227.4893 115.69688 228.08305L114.66563 228.22368Q114.60313 227.75493 114.25938 227.4893Q113.93125 227.20805 113.30625 227.20805Q112.5875 227.20805 112.275 227.45805Q111.9625 227.69243 111.9625 228.02055Q111.9625 228.22368 112.0875 228.37993Q112.22813 228.5518 112.49375 228.66118Q112.65 228.72368 113.43125 228.9268Q114.55625 229.2393 114.99375 229.4268Q115.43125 229.6143 115.68125 229.97368Q115.93125 230.33305 115.93125 230.87993Q115.93125 231.41118 115.61875 231.87993Q115.32188 232.33305 114.74375 232.59868Q114.16563 232.84868 113.43125 232.84868Q112.2125 232.84868 111.57188 232.34868Q110.94688 231.83305 110.775 230.84868ZM119.49375 231.77055L119.65 232.69243Q119.19688 232.78618 118.85313 232.78618Q118.275 232.78618 117.9625 232.6143Q117.65 232.4268 117.50938 232.12993Q117.38438 231.83305 117.38438 230.87993L117.38438 227.3018L116.61875 227.3018L116.61875 226.4893L117.38438 226.4893L117.38438 224.94243L118.43125 224.31743L118.43125 226.4893L119.49375 226.4893L119.49375 227.3018L118.43125 227.3018L118.43125 230.94243Q118.43125 231.39555 118.47813 231.52055Q118.54063 231.64555 118.66563 231.72368Q118.79063 231.8018 119.025 231.8018Q119.2125 231.8018 119.49375 231.77055ZM120.19688 225.33305L120.19688 224.1143L121.25938 224.1143L121.25938 225.33305L120.19688 225.33305ZM120.19688 232.70805L120.19688 226.4893L121.25938 226.4893L121.25938 232.70805L120.19688 232.70805ZM127.25938 230.4268L128.29062 230.56743Q128.11874 231.62993 127.41563 232.2393Q126.7125 232.84868 125.69688 232.84868Q124.41563 232.84868 123.63438 232.02055Q122.86875 231.1768 122.86875 229.6143Q122.86875 228.6143 123.19688 227.8643Q123.54063 227.09868 124.2125 226.72368Q124.9 226.34868 125.7125 226.34868Q126.7125 226.34868 127.35313 226.8643Q128.00937 227.3643 128.19687 228.31743L127.16563 228.47368Q127.025 227.84868 126.65 227.53618Q126.275 227.20805 125.74375 227.20805Q124.94688 227.20805 124.44688 227.78618Q123.94688 228.34868 123.94688 229.58305Q123.94688 230.84868 124.43125 231.41118Q124.91563 231.97368 125.68125 231.97368Q126.30625 231.97368 126.7125 231.59868Q127.13438 231.22368 127.25938 230.4268ZM132.18124 232.70805L132.18124 226.4893L133.13437 226.4893L133.13437 227.4268Q133.49374 226.77055 133.79062 226.56743Q134.10312 226.34868 134.47812 226.34868Q135.00937 226.34868 135.55624 226.6768L135.19687 227.66118Q134.80624 227.4268 134.43124 227.4268Q134.07187 227.4268 133.79062 227.64555Q133.525 227.84868 133.41562 228.22368Q133.22812 228.78618 133.22812 229.44243L133.22812 232.70805L132.18124 232.70805ZM140.44687 230.70805L141.54062 230.83305Q141.29062 231.78618 140.5875 232.31743Q139.88437 232.84868 138.80624 232.84868Q137.44687 232.84868 136.63437 232.00493Q135.8375 231.16118 135.8375 229.64555Q135.8375 228.08305 136.65 227.22368Q137.4625 226.34868 138.74374 226.34868Q139.99374 226.34868 140.775 227.19243Q141.57187 228.03618 141.57187 229.58305Q141.57187 229.6768 141.57187 229.8643L136.93124 229.8643Q136.99374 230.89555 137.50937 231.44243Q138.025 231.97368 138.80624 231.97368Q139.38437 231.97368 139.79062 231.6768Q140.2125 231.3643 140.44687 230.70805ZM136.99374 229.00493L140.4625 229.00493Q140.4 228.20805 140.07187 227.81743Q139.55624 227.20805 138.75937 227.20805Q138.025 227.20805 137.525 227.69243Q137.04062 228.1768 136.99374 229.00493ZM142.775 230.84868L143.80624 230.69243Q143.9 231.31743 144.29062 231.64555Q144.69687 231.97368 145.43124 231.97368Q146.15 231.97368 146.49374 231.69243Q146.85312 231.39555 146.85312 230.9893Q146.85312 230.62993 146.54062 230.4268Q146.32187 230.28618 145.4625 230.06743Q144.30624 229.77055 143.85312 229.56743Q143.41562 229.34868 143.18124 228.97368Q142.94687 228.59868 142.94687 228.12993Q142.94687 227.72368 143.13437 227.3643Q143.32187 227.00493 143.65 226.77055Q143.9 226.59868 144.32187 226.47368Q144.74374 226.34868 145.24374 226.34868Q145.9625 226.34868 146.50937 226.56743Q147.07187 226.77055 147.3375 227.12993Q147.60312 227.4893 147.69687 228.08305L146.66562 228.22368Q146.60312 227.75493 146.25937 227.4893Q145.93124 227.20805 145.30624 227.20805Q144.5875 227.20805 144.275 227.45805Q143.9625 227.69243 143.9625 228.02055Q143.9625 228.22368 144.0875 228.37993Q144.22812 228.5518 144.49374 228.66118Q144.65 228.72368 145.43124 228.9268Q146.55624 229.2393 146.99374 229.4268Q147.43124 229.6143 147.68124 229.97368Q147.93124 230.33305 147.93124 230.87993Q147.93124 231.41118 147.61874 231.87993Q147.32187 232.33305 146.74374 232.59868Q146.16562 232.84868 145.43124 232.84868Q144.2125 232.84868 143.57187 232.34868Q142.94687 231.83305 142.775 230.84868ZM151.49374 231.77055L151.65 232.69243Q151.19687 232.78618 150.85312 232.78618Q150.275 232.78618 149.9625 232.6143Q149.65 232.4268 149.50937 232.12993Q149.38437 231.83305 149.38437 230.87993L149.38437 227.3018L148.61874 227.3018L148.61874 226.4893L149.38437 226.4893L149.38437 224.94243L150.43124 224.31743L150.43124 226.4893L151.49374 226.4893L151.49374 227.3018L150.43124 227.3018L150.43124 230.94243Q150.43124 231.39555 150.47812 231.52055Q150.54062 231.64555 150.66562 231.72368Q150.79062 231.8018 151.025 231.8018Q151.2125 231.8018 151.49374 231.77055ZM151.80624 229.59868Q151.80624 227.8643 152.75937 227.03618Q153.55624 226.34868 154.7125 226.34868Q155.99374 226.34868 156.80624 227.19243Q157.63437 228.02055 157.63437 229.50493Q157.63437 230.70805 157.275 231.39555Q156.91562 232.08305 156.2125 232.47368Q155.525 232.84868 154.7125 232.84868Q153.41562 232.84868 152.60312 232.02055Q151.80624 231.1768 151.80624 229.59868ZM152.88437 229.59868Q152.88437 230.78618 153.4 231.37993Q153.93124 231.97368 154.7125 231.97368Q155.50937 231.97368 156.025 231.37993Q156.54062 230.78618 156.54062 229.56743Q156.54062 228.41118 156.00937 227.81743Q155.49374 227.22368 154.7125 227.22368Q153.93124 227.22368 153.4 227.81743Q152.88437 228.39555 152.88437 229.59868ZM159.18124 232.70805L159.18124 226.4893L160.13437 226.4893L160.13437 227.4268Q160.49374 226.77055 160.79062 226.56743Q161.10312 226.34868 161.47812 226.34868Q162.00937 226.34868 162.55624 226.6768L162.19687 227.66118Q161.80624 227.4268 161.43124 227.4268Q161.07187 227.4268 160.79062 227.64555Q160.525 227.84868 160.41562 228.22368Q160.22812 228.78618 160.22812 229.44243L160.22812 232.70805L159.18124 232.70805ZM167.44687 230.70805L168.54062 230.83305Q168.29062 231.78618 167.5875 232.31743Q166.88437 232.84868 165.80624 232.84868Q164.44687 232.84868 163.63437 232.00493Q162.8375 231.16118 162.8375 229.64555Q162.8375 228.08305 163.65 227.22368Q164.4625 226.34868 165.74374 226.34868Q166.99374 226.34868 167.775 227.19243Q168.57187 228.03618 168.57187 229.58305Q168.57187 229.6768 168.57187 229.8643L163.93124 229.8643Q163.99374 230.89555 164.50937 231.44243Q165.025 231.97368 165.80624 231.97368Q166.38437 231.97368 166.79062 231.6768Q167.2125 231.3643 167.44687 230.70805ZM163.99374 229.00493L167.4625 229.00493Q167.4 228.20805 167.07187 227.81743Q166.55624 227.20805 165.75937 227.20805Q165.025 227.20805 164.525 227.69243Q164.04062 228.1768 163.99374 229.00493Z" fill-rule="nonzero"/><path fill="#000000" d="M107.16563 296.52414L106.18125 296.52414L106.18125 287.9304L107.24375 287.9304L107.24375 290.9929Q107.91563 290.16476 108.94688 290.16476Q109.525 290.16476 110.025 290.39914Q110.54063 290.6179 110.86875 291.03976Q111.2125 291.46164 111.4 292.0554Q111.5875 292.64914 111.5875 293.321Q111.5875 294.91476 110.79063 295.78976Q109.99375 296.66476 108.9 296.66476Q107.79063 296.66476 107.16563 295.7429L107.16563 296.52414ZM107.15 293.3679Q107.15 294.47726 107.4625 294.97726Q107.9625 295.78976 108.80625 295.78976Q109.49375 295.78976 109.99375 295.196Q110.50938 294.60226 110.50938 293.39914Q110.50938 292.1804 110.025 291.60226Q109.54063 291.02414 108.85313 291.02414Q108.16563 291.02414 107.65 291.6335Q107.15 292.22726 107.15 293.3679ZM112.80625 293.41476Q112.80625 291.6804 113.75938 290.85226Q114.55625 290.16476 115.7125 290.16476Q116.99375 290.16476 117.80625 291.0085Q118.63438 291.83664 118.63438 293.321Q118.63438 294.52414 118.275 295.21164Q117.91563 295.89914 117.2125 296.28976Q116.525 296.66476 115.7125 296.66476Q114.41563 296.66476 113.60313 295.83664Q112.80625 294.9929 112.80625 293.41476ZM113.88438 293.41476Q113.88438 294.60226 114.4 295.196Q114.93125 295.78976 115.7125 295.78976Q116.50938 295.78976 117.025 295.196Q117.54063 294.60226 117.54063 293.3835Q117.54063 292.22726 117.00938 291.6335Q116.49375 291.03976 115.7125 291.03976Q114.93125 291.03976 114.4 291.6335Q113.88438 292.21164 113.88438 293.41476ZM120.18125 296.52414L120.18125 290.3054L121.13438 290.3054L121.13438 291.2429Q121.49375 290.58664 121.79063 290.3835Q122.10313 290.16476 122.47813 290.16476Q123.00938 290.16476 123.55625 290.4929L123.19688 291.47726Q122.80625 291.2429 122.43125 291.2429Q122.07188 291.2429 121.79063 291.46164Q121.525 291.66476 121.41563 292.03976Q121.22813 292.60226 121.22813 293.2585L121.22813 296.52414L120.18125 296.52414ZM123.99375 297.03976L125.025 297.196Q125.0875 297.66476 125.38438 297.8835Q125.775 298.1804 126.44688 298.1804Q127.18125 298.1804 127.57188 297.8835Q127.97813 297.58664 128.11874 297.071Q128.2125 296.7429 128.19687 295.71164Q127.50938 296.52414 126.47813 296.52414Q125.19688 296.52414 124.49375 295.60226Q123.79063 294.66476 123.79063 293.3835Q123.79063 292.4929 124.10313 291.7429Q124.43125 290.97726 125.04063 290.571Q125.65 290.16476 126.47813 290.16476Q127.5875 290.16476 128.30624 291.0554L128.30624 290.3054L129.275 290.3054L129.275 295.6804Q129.275 297.1335 128.97812 297.7429Q128.68124 298.35226 128.04062 298.696Q127.4 299.0554 126.4625 299.0554Q125.35313 299.0554 124.66563 298.5554Q123.97813 298.0554 123.99375 297.03976ZM124.86875 293.3054Q124.86875 294.52414 125.35313 295.08664Q125.8375 295.64914 126.57188 295.64914Q127.30625 295.64914 127.79063 295.08664Q128.29062 294.52414 128.29062 293.33664Q128.29062 292.196 127.775 291.6179Q127.275 291.03976 126.55625 291.03976Q125.85313 291.03976 125.35313 291.6179Q124.86875 292.1804 124.86875 293.3054ZM138.44687 294.52414L139.54062 294.64914Q139.29062 295.60226 138.5875 296.1335Q137.88437 296.66476 136.80624 296.66476Q135.44687 296.66476 134.63437 295.821Q133.8375 294.97726 133.8375 293.46164Q133.8375 291.89914 134.65 291.03976Q135.4625 290.16476 136.74374 290.16476Q137.99374 290.16476 138.775 291.0085Q139.57187 291.85226 139.57187 293.39914Q139.57187 293.4929 139.57187 293.6804L134.93124 293.6804Q134.99374 294.71164 135.50937 295.2585Q136.025 295.78976 136.80624 295.78976Q137.38437 295.78976 137.79062 295.4929Q138.2125 295.1804 138.44687 294.52414ZM134.99374 292.821L138.4625 292.821Q138.4 292.02414 138.07187 291.6335Q137.55624 291.02414 136.75937 291.02414Q136.025 291.02414 135.525 291.5085Q135.04062 291.9929 134.99374 292.821ZM140.49374 296.52414L142.75937 293.28976L140.66562 290.3054L141.97812 290.3054L142.93124 291.7585Q143.19687 292.1804 143.36874 292.46164Q143.61874 292.071 143.8375 291.77414L144.88437 290.3054L146.15 290.3054L143.99374 293.22726L146.30624 296.52414L145.025 296.52414L143.74374 294.58664L143.4 294.071L141.75937 296.52414L140.49374 296.52414ZM149.49374 295.58664L149.65 296.5085Q149.19687 296.60226 148.85312 296.60226Q148.275 296.60226 147.9625 296.4304Q147.65 296.2429 147.50937 295.946Q147.38437 295.64914 147.38437 294.696L147.38437 291.1179L146.61874 291.1179L146.61874 290.3054L147.38437 290.3054L147.38437 288.7585L148.43124 288.1335L148.43124 290.3054L149.49374 290.3054L149.49374 291.1179L148.43124 291.1179L148.43124 294.7585Q148.43124 295.21164 148.47812 295.33664Q148.54062 295.46164 148.66562 295.53976Q148.79062 295.6179 149.025 295.6179Q149.2125 295.6179 149.49374 295.58664ZM150.18124 296.52414L150.18124 290.3054L151.13437 290.3054L151.13437 291.2429Q151.49374 290.58664 151.79062 290.3835Q152.10312 290.16476 152.47812 290.16476Q153.00937 290.16476 153.55624 290.4929L153.19687 291.47726Q152.80624 291.2429 152.43124 291.2429Q152.07187 291.2429 151.79062 291.46164Q151.525 291.66476 151.41562 292.03976Q151.22812 292.60226 151.22812 293.2585L151.22812 296.52414L150.18124 296.52414ZM158.25937 295.7585Q157.66562 296.2585 157.11874 296.46164Q156.5875 296.66476 155.9625 296.66476Q154.93124 296.66476 154.38437 296.16476Q153.8375 295.66476 153.8375 294.8835Q153.8375 294.4304 154.04062 294.0554Q154.24374 293.66476 154.5875 293.446Q154.93124 293.21164 155.35312 293.10226Q155.65 293.0085 156.29062 292.9304Q157.55624 292.78976 158.16562 292.571Q158.16562 292.35226 158.16562 292.3054Q158.16562 291.64914 157.86874 291.3835Q157.4625 291.03976 156.66562 291.03976Q155.93124 291.03976 155.57187 291.3054Q155.2125 291.5554 155.04062 292.21164L154.00937 292.071Q154.15 291.41476 154.47812 291.0085Q154.80624 290.60226 155.41562 290.3835Q156.025 290.16476 156.82187 290.16476Q157.61874 290.16476 158.11874 290.35226Q158.61874 290.53976 158.85312 290.821Q159.0875 291.10226 159.18124 291.53976Q159.22812 291.8054 159.22812 292.5085L159.22812 293.91476Q159.22812 295.3835 159.29062 295.77414Q159.36874 296.16476 159.57187 296.52414L158.4625 296.52414Q158.30624 296.196 158.25937 295.7585ZM158.16562 293.39914Q157.5875 293.6335 156.44687 293.8054Q155.79062 293.89914 155.525 294.02414Q155.25937 294.1335 155.10312 294.35226Q154.9625 294.571 154.9625 294.85226Q154.9625 295.27414 155.275 295.5554Q155.60312 295.83664 156.2125 295.83664Q156.82187 295.83664 157.29062 295.571Q157.775 295.3054 157.99374 294.83664Q158.16562 294.47726 158.16562 293.78976L158.16562 293.39914ZM165.25937 294.2429L166.29062 294.3835Q166.11874 295.446 165.41562 296.0554Q164.7125 296.66476 163.69687 296.66476Q162.41562 296.66476 161.63437 295.83664Q160.86874 294.9929 160.86874 293.4304Q160.86874 292.4304 161.19687 291.6804Q161.54062 290.91476 162.2125 290.53976Q162.9 290.16476 163.7125 290.16476Q164.7125 290.16476 165.35312 290.6804Q166.00937 291.1804 166.19687 292.1335L165.16562 292.28976Q165.025 291.66476 164.65 291.35226Q164.275 291.02414 163.74374 291.02414Q162.94687 291.02414 162.44687 291.60226Q161.94687 292.16476 161.94687 293.39914Q161.94687 294.66476 162.43124 295.22726Q162.91562 295.78976 163.68124 295.78976Q164.30624 295.78976 164.7125 295.41476Q165.13437 295.03976 165.25937 294.2429ZM169.49374 295.58664L169.65 296.5085Q169.19687 296.60226 168.85312 296.60226Q168.275 296.60226 167.9625 296.4304Q167.65 296.2429 167.50937 295.946Q167.38437 295.64914 167.38437 294.696L167.38437 291.1179L166.61874 291.1179L166.61874 290.3054L167.38437 290.3054L167.38437 288.7585L168.43124 288.1335L168.43124 290.3054L169.49374 290.3054L169.49374 291.1179L168.43124 291.1179L168.43124 294.7585Q168.43124 295.21164 168.47812 295.33664Q168.54062 295.46164 168.66562 295.53976Q168.79062 295.6179 169.025 295.6179Q169.2125 295.6179 169.49374 295.58664Z" fill-rule="nonzero"/><path fill="#000000" d="M172.4 348.36563Q172.4 346.83438 172.7125 345.9125Q173.025 344.975 173.63437 344.475Q174.25937 343.975 175.19687 343.975Q175.88437 343.975 176.4 344.25626Q176.93124 344.5375 177.275 345.06876Q177.61874 345.58438 177.80624 346.33438Q177.99374 347.08438 177.99374 348.36563Q177.99374 349.88126 177.68124 350.80313Q177.38437 351.725 176.75937 352.24063Q176.15 352.74063 175.19687 352.74063Q173.9625 352.74063 173.24374 351.85Q172.4 350.7875 172.4 348.36563ZM173.47812 348.36563Q173.47812 350.475 173.97812 351.17813Q174.47812 351.88126 175.19687 351.88126Q175.93124 351.88126 176.41562 351.17813Q176.91562 350.475 176.91562 348.36563Q176.91562 346.24063 176.41562 345.55313Q175.93124 344.85 175.18124 344.85Q174.4625 344.85 174.025 345.45938Q173.47812 346.24063 173.47812 348.36563Z" fill-rule="nonzero"/><path fill="#000000" d="M270.98688 351.58438L270.98688 352.6L265.29938 352.6Q265.29938 352.225 265.42438 351.86563Q265.64313 351.2875 266.11188 350.725Q266.59625 350.1625 267.5025 349.42813Q268.90875 348.27188 269.39313 347.6Q269.89313 346.92813 269.89313 346.33438Q269.89313 345.70938 269.44 345.2875Q268.98688 344.85 268.26813 344.85Q267.5025 344.85 267.04938 345.30313Q266.59625 345.75626 266.58063 346.56876L265.5025 346.45938Q265.61188 345.24063 266.33063 344.61563Q267.065 343.975 268.29938 343.975Q269.53375 343.975 270.2525 344.6625Q270.97125 345.35 270.97125 346.36563Q270.97125 346.88126 270.7525 347.38126Q270.54938 347.86563 270.04938 348.42813Q269.565 348.975 268.44 349.92813Q267.48688 350.725 267.20563 351.02188Q266.94 351.30313 266.76813 351.58438L270.98688 351.58438Z" fill-rule="nonzero"/><path fill="#000000" d="M361.855 352.6L361.855 350.5375L358.13626 350.5375L358.13626 349.56876L362.05814 344.00626L362.9175 344.00626L362.9175 349.56876L364.07376 349.56876L364.07376 350.5375L362.9175 350.5375L362.9175 352.6L361.855 352.6ZM361.855 349.56876L361.855 345.70938L359.1675 349.56876L361.855 349.56876Z" fill-rule="nonzero"/><path fill="#000000" d="M456.98874 346.11563L455.94186 346.19376Q455.80124 345.56876 455.55124 345.2875Q455.11374 344.83438 454.48874 344.83438Q453.98874 344.83438 453.5981 345.11563Q453.11374 345.49063 452.81686 346.19376Q452.5356 346.88126 452.52 348.1625Q452.895 347.58438 453.44186 347.30313Q454.00436 347.02188 454.61374 347.02188Q455.6606 347.02188 456.395 347.80313Q457.145 348.58438 457.145 349.80313Q457.145 350.61563 456.7856 351.31876Q456.44186 352.00626 455.8325 352.38126Q455.2231 352.74063 454.4575 352.74063Q453.12936 352.74063 452.30124 351.77188Q451.4731 350.80313 451.4731 348.58438Q451.4731 346.08438 452.395 344.95938Q453.19186 343.975 454.55124 343.975Q455.56686 343.975 456.2075 344.55313Q456.86374 345.11563 456.98874 346.11563ZM452.69186 349.81876Q452.69186 350.36563 452.9106 350.86563Q453.145 351.35 453.55124 351.61563Q453.9731 351.88126 454.44186 351.88126Q455.0981 351.88126 455.5825 351.35Q456.06686 350.80313 456.06686 349.88126Q456.06686 348.99063 455.5825 348.475Q455.11374 347.95938 454.395 347.95938Q453.67624 347.95938 453.17624 348.475Q452.69186 348.99063 452.69186 349.81876Z" fill-rule="nonzero"/><path fill="#000000" d="M546.185 347.94376Q545.52875 347.69376 545.2006 347.25626Q544.8881 346.80313 544.8881 346.19376Q544.8881 345.25626 545.56 344.61563Q546.2475 343.975 547.3569 343.975Q548.4819 343.975 549.1694 344.63126Q549.8569 345.2875 549.8569 346.225Q549.8569 346.81876 549.5444 347.25626Q549.2319 347.69376 548.59125 347.94376Q549.3881 348.19376 549.7944 348.77188Q550.2006 349.35 550.2006 350.14688Q550.2006 351.24063 549.4194 351.99063Q548.65375 352.74063 547.3725 352.74063Q546.1069 352.74063 545.3256 351.99063Q544.5444 351.24063 544.5444 350.11563Q544.5444 349.27188 544.96625 348.70938Q545.40375 348.14688 546.185 347.94376ZM545.96625 346.14688Q545.96625 346.75626 546.3569 347.14688Q546.7631 347.5375 547.3881 347.5375Q547.9975 347.5375 548.3881 347.1625Q548.77875 346.77188 548.77875 346.20938Q548.77875 345.63126 548.3725 345.24063Q547.96625 344.83438 547.3725 344.83438Q546.7631 344.83438 546.3569 345.225Q545.96625 345.61563 545.96625 346.14688ZM545.6381 350.11563Q545.6381 350.56876 545.84125 350.99063Q546.06 351.4125 546.4819 351.64688Q546.90375 351.88126 547.3881 351.88126Q548.1381 351.88126 548.6225 351.39688Q549.1225 350.9125 549.1225 350.1625Q549.1225 349.39688 548.6225 348.89688Q548.1225 348.39688 547.3569 348.39688Q546.6069 348.39688 546.1225 348.89688Q545.6381 349.38126 545.6381 350.11563Z" fill-rule="nonzero"/><path fill="#000000" d="M638.0687 352.6L637.02185 352.6L637.02185 345.88126Q636.6312 346.24063 636.0062 346.61563Q635.39685 346.975 634.9125 347.14688L634.9125 346.13126Q635.7875 345.70938 636.4437 345.13126Q637.1156 344.5375 637.39685 343.975L638.0687 343.975L638.0687 352.6ZM641.1 348.36563Q641.1 346.83438 641.4125 345.9125Q641.725 344.975 642.33435 344.475Q642.95935 343.975 643.89685 343.975Q644.58435 343.975 645.1 344.25626Q645.6312 344.5375 645.975 345.06876Q646.3187 345.58438 646.5062 346.33438Q646.6937 347.08438 646.6937 348.36563Q646.6937 349.88126 646.3812 350.80313Q646.08435 351.725 645.45935 352.24063Q644.85 352.74063 643.89685 352.74063Q642.6625 352.74063 641.9437 351.85Q641.1 350.7875 641.1 348.36563ZM642.1781 348.36563Q642.1781 350.475 642.6781 351.17813Q643.1781 351.88126 643.89685 351.88126Q644.6312 351.88126 645.1156 351.17813Q645.6156 350.475 645.6156 348.36563Q645.6156 346.24063 645.1156 345.55313Q644.6312 344.85 643.8812 344.85Q643.1625 344.85 642.725 345.45938Q642.1781 346.24063 642.1781 348.36563Z" fill-rule="nonzero"/><path fill="#757575" d="M25.623417 38.30027L25.623417 25.67527L20.904667 25.67527L20.904667 23.98777L32.248417 23.98777L32.248417 25.67527L27.514042 25.67527L27.514042 38.30027L25.623417 38.30027ZM33.76404 26.003395L33.76404 23.98777L35.529667 23.98777L35.529667 26.003395L33.76404 26.003395ZM33.76404 38.30027L33.76404 27.92527L35.529667 27.92527L35.529667 38.30027L33.76404 38.30027ZM37.748417 38.30027L37.748417 27.92527L39.32654 27.92527L39.32654 29.378395Q39.810917 28.628395 40.623417 28.159645Q41.435917 27.690895 42.467167 27.690895Q43.623417 27.690895 44.35779 28.17527Q45.092167 28.64402 45.404667 29.503395Q46.63904 27.690895 48.60779 27.690895Q50.154667 27.690895 50.98279 28.55027Q51.810917 29.409645 51.810917 31.17527L51.810917 38.30027L50.060917 38.30027L50.060917 31.76902Q50.060917 30.70652 49.88904 30.253395Q49.717167 29.784645 49.26404 29.503395Q48.82654 29.222145 48.217167 29.222145Q47.123417 29.222145 46.38904 29.95652Q45.67029 30.67527 45.67029 32.26902L45.67029 38.30027L43.92029 38.30027L43.92029 31.565895Q43.92029 30.39402 43.48279 29.815895Q43.060917 29.222145 42.07654 29.222145Q41.342167 29.222145 40.70154 29.61277Q40.07654 30.003395 39.79529 30.753395Q39.51404 31.503395 39.51404 32.92527L39.51404 38.30027L37.748417 38.30027ZM61.85779 34.95652L63.67029 35.190895Q63.248417 36.76902 62.07654 37.659645Q60.92029 38.534645 59.10779 38.534645Q56.842167 38.534645 55.498417 37.14402Q54.17029 35.73777 54.17029 33.20652Q54.17029 30.58152 55.51404 29.14402Q56.85779 27.690895 59.01404 27.690895Q61.092167 27.690895 62.404667 29.11277Q63.73279 30.51902 63.73279 33.097145Q63.73279 33.253395 63.717167 33.565895L55.98279 33.565895Q56.07654 35.26902 56.95154 36.17527Q57.82654 37.08152 59.123417 37.08152Q60.092167 37.08152 60.76404 36.58152Q61.45154 36.065895 61.85779 34.95652ZM56.07654 32.11277L61.873417 32.11277Q61.76404 30.815895 61.217167 30.159645Q60.373417 29.14402 59.029667 29.14402Q57.82654 29.14402 56.998417 29.95652Q56.17029 30.753395 56.07654 32.11277ZM72.17029 38.30027L72.17029 29.30027L70.62341 29.30027L70.62341 27.92527L72.17029 27.92527L72.17029 26.83152Q72.17029 25.784645 72.35779 25.26902Q72.60779 24.58152 73.24841 24.159645Q73.88904 23.73777 75.04529 23.73777Q75.79529 23.73777 76.68591 23.909645L76.42029 25.440895Q75.87341 25.347145 75.38904 25.347145Q74.59216 25.347145 74.24841 25.690895Q73.92029 26.034645 73.92029 26.972145L73.92029 27.92527L75.95154 27.92527L75.95154 29.30027L73.92029 29.30027L73.92029 38.30027L72.17029 38.30027ZM77.10779 33.11277Q77.10779 30.23777 78.70154 28.847145Q80.04529 27.690895 81.96716 27.690895Q84.10779 27.690895 85.45154 29.097145Q86.81091 30.503395 86.81091 32.972145Q86.81091 34.972145 86.21716 36.128395Q85.62341 37.26902 84.46716 37.909645Q83.32654 38.534645 81.96716 38.534645Q79.77966 38.534645 78.43591 37.14402Q77.10779 35.73777 77.10779 33.11277ZM78.90466 33.11277Q78.90466 35.11277 79.76404 36.097145Q80.63904 37.08152 81.96716 37.08152Q83.27966 37.08152 84.13904 36.097145Q85.01404 35.097145 85.01404 33.05027Q85.01404 31.128395 84.13904 30.14402Q83.26404 29.14402 81.96716 29.14402Q80.63904 29.14402 79.76404 30.14402Q78.90466 31.128395 78.90466 33.11277ZM88.73279 38.30027L88.73279 27.92527L90.31091 27.92527L90.31091 29.503395Q90.92029 28.39402 91.43591 28.05027Q91.95154 27.690895 92.56091 27.690895Q93.45154 27.690895 94.37341 28.253395L93.76404 29.89402Q93.12341 29.503395 92.48279 29.503395Q91.90466 29.503395 91.43591 29.86277Q90.98279 30.20652 90.77966 30.815895Q90.49841 31.753395 90.49841 32.86277L90.49841 38.30027L88.73279 38.30027ZM107.88904 38.30027L106.12341 38.30027L106.12341 27.097145Q105.49841 27.70652 104.46716 28.315895Q103.43591 28.909645 102.60779 29.222145L102.60779 27.51902Q104.09216 26.83152 105.18591 25.847145Q106.29529 24.847145 106.74841 23.92527L107.88904 23.92527L107.88904 38.30027ZM113.24841 38.30027L113.24841 36.30027L115.24841 36.30027L115.24841 38.30027L113.24841 38.30027ZM124.88904 38.30027L123.12341 38.30027L123.12341 27.097145Q122.49841 27.70652 121.46716 28.315895Q120.43591 28.909645 119.60779 29.222145L119.60779 27.51902Q121.09216 26.83152 122.18591 25.847145Q123.29529 24.847145 123.74841 23.92527L124.88904 23.92527L124.88904 38.30027ZM136.68591 32.690895L136.68591 31.003395L142.74841 30.98777L142.74841 36.30027Q141.34216 37.42527 139.85779 37.98777Q138.37341 38.55027 136.81091 38.55027Q134.70154 38.55027 132.98279 37.64402Q131.26404 36.73777 130.37341 35.034645Q129.49841 33.315895 129.49841 31.20652Q129.49841 29.11277 130.37341 27.315895Q131.24841 25.503395 132.88904 24.628395Q134.52966 23.73777 136.67029 23.73777Q138.21716 23.73777 139.46716 24.23777Q140.73279 24.73777 141.43591 25.64402Q142.15466 26.534645 142.52966 27.98777L140.82654 28.45652Q140.49841 27.36277 140.01404 26.73777Q139.54529 26.11277 138.65466 25.73777Q137.76404 25.36277 136.68591 25.36277Q135.37341 25.36277 134.42029 25.753395Q133.48279 26.14402 132.90466 26.80027Q132.32654 27.440895 131.99841 28.20652Q131.45154 29.534645 131.45154 31.097145Q131.45154 33.003395 132.10779 34.30027Q132.77966 35.58152 134.02966 36.20652Q135.29529 36.83152 136.70154 36.83152Q137.93591 36.83152 139.10779 36.36277Q140.27966 35.89402 140.88904 35.347145L140.88904 32.690895L136.68591 32.690895ZM145.90466 38.30027L145.90466 23.98777L151.27966 23.98777Q152.92029 23.98777 153.90466 24.42527Q154.88904 24.847145 155.45154 25.753395Q156.01404 26.659645 156.01404 27.64402Q156.01404 28.565895 155.51404 29.378395Q155.02966 30.190895 154.01404 30.67527Q155.31091 31.065895 156.01404 31.98777Q156.71716 32.89402 156.71716 34.14402Q156.71716 35.159645 156.27966 36.01902Q155.85779 36.878395 155.23279 37.347145Q154.60779 37.815895 153.67029 38.065895Q152.73279 38.30027 151.35779 38.30027L145.90466 38.30027ZM147.79529 30.003395L150.88904 30.003395Q152.15466 30.003395 152.70154 29.83152Q153.42029 29.61277 153.77966 29.128395Q154.15466 28.628395 154.15466 27.86277Q154.15466 27.159645 153.81091 26.61277Q153.46716 26.065895 152.82654 25.878395Q152.20154 25.67527 150.65466 25.67527L147.79529 25.67527L147.79529 30.003395ZM147.79529 36.61277L151.35779 36.61277Q152.27966 36.61277 152.65466 36.534645Q153.31091 36.42527 153.74841 36.159645Q154.18591 35.878395 154.46716 35.36277Q154.74841 34.83152 154.74841 34.14402Q154.74841 33.347145 154.34216 32.753395Q153.93591 32.159645 153.20154 31.92527Q152.46716 31.690895 151.10779 31.690895L147.79529 31.690895L147.79529 36.61277ZM164.34216 33.70652L166.12341 33.55027Q166.24841 34.61277 166.70154 35.30027Q167.17029 35.98777 168.13904 36.42527Q169.12341 36.847145 170.35779 36.847145Q171.43591 36.847145 172.26404 36.534645Q173.09216 36.20652 173.49841 35.64402Q173.90466 35.08152 173.90466 34.409645Q173.90466 33.73777 173.51404 33.23777Q173.12341 32.73777 172.23279 32.39402Q171.65466 32.159645 169.67029 31.690895Q167.70154 31.222145 166.92029 30.80027Q165.88904 30.26902 165.38904 29.472145Q164.88904 28.67527 164.88904 27.690895Q164.88904 26.597145 165.49841 25.659645Q166.10779 24.722145 167.29529 24.23777Q168.48279 23.73777 169.92029 23.73777Q171.51404 23.73777 172.73279 24.253395Q173.95154 24.76902 174.59216 25.76902Q175.24841 26.753395 175.29529 28.01902L173.48279 28.159645Q173.34216 26.80027 172.49841 26.11277Q171.65466 25.409645 169.99841 25.409645Q168.27966 25.409645 167.48279 26.05027Q166.70154 26.67527 166.70154 27.55027Q166.70154 28.33152 167.26404 28.83152Q167.81091 29.33152 170.12341 29.847145Q172.43591 30.36277 173.29529 30.753395Q174.54529 31.33152 175.13904 32.222145Q175.73279 33.097145 175.73279 34.253395Q175.73279 35.39402 175.07654 36.409645Q174.42029 37.42527 173.18591 37.98777Q171.96716 38.55027 170.43591 38.55027Q168.49841 38.55027 167.18591 37.98777Q165.87341 37.409645 165.12341 36.26902Q164.37341 35.128395 164.34216 33.70652ZM177.74841 38.30027L177.74841 27.92527L179.34216 27.92527L179.34216 29.409645Q180.48279 27.690895 182.63904 27.690895Q183.57654 27.690895 184.35779 28.034645Q185.15466 28.36277 185.54529 28.909645Q185.93591 29.45652 186.09216 30.20652Q186.18591 30.70652 186.18591 31.92527L186.18591 38.30027L184.42029 38.30027L184.42029 31.98777Q184.42029 30.909645 184.21716 30.378395Q184.01404 29.847145 183.48279 29.534645Q182.96716 29.222145 182.26404 29.222145Q181.13904 29.222145 180.32654 29.940895Q179.51404 30.64402 179.51404 32.628395L179.51404 38.30027L177.74841 38.30027ZM195.52966 37.01902Q194.54529 37.847145 193.63904 38.190895Q192.73279 38.534645 191.70154 38.534645Q189.99841 38.534645 189.07654 37.70652Q188.15466 36.86277 188.15466 35.565895Q188.15466 34.80027 188.49841 34.17527Q188.85779 33.55027 189.42029 33.17527Q189.98279 32.784645 190.68591 32.58152Q191.20154 32.45652 192.24841 32.315895Q194.37341 32.065895 195.37341 31.722145Q195.38904 31.36277 195.38904 31.253395Q195.38904 30.190895 194.88904 29.73777Q194.21716 29.14402 192.88904 29.14402Q191.63904 29.14402 191.04529 29.58152Q190.46716 30.01902 190.18591 31.128395L188.46716 30.89402Q188.70154 29.784645 189.23279 29.11277Q189.76404 28.42527 190.77966 28.065895Q191.79529 27.690895 193.13904 27.690895Q194.46716 27.690895 195.29529 28.003395Q196.12341 28.315895 196.51404 28.80027Q196.90466 29.26902 197.06091 29.98777Q197.15466 30.440895 197.15466 31.61277L197.15466 33.95652Q197.15466 36.409645 197.26404 37.065895Q197.37341 37.70652 197.71716 38.30027L195.87341 38.30027Q195.60779 37.753395 195.52966 37.01902ZM195.37341 33.097145Q194.42029 33.48777 192.49841 33.753395Q191.42029 33.909645 190.96716 34.11277Q190.52966 34.30027 190.27966 34.67527Q190.02966 35.05027 190.02966 35.51902Q190.02966 36.222145 190.56091 36.690895Q191.09216 37.159645 192.12341 37.159645Q193.13904 37.159645 193.92029 36.722145Q194.71716 36.26902 195.09216 35.503395Q195.37341 34.89402 195.37341 33.73777L195.37341 33.097145ZM199.74841 42.26902L199.74841 27.92527L201.35779 27.92527L201.35779 29.26902Q201.92029 28.48777 202.62341 28.097145Q203.34216 27.690895 204.35779 27.690895Q205.68591 27.690895 206.70154 28.378395Q207.71716 29.065895 208.23279 30.315895Q208.76404 31.55027 208.76404 33.034645Q208.76404 34.628395 208.18591 35.909645Q207.62341 37.17527 206.52966 37.86277Q205.43591 38.534645 204.23279 38.534645Q203.35779 38.534645 202.65466 38.159645Q201.96716 37.784645 201.51404 37.222145L201.51404 42.26902L199.74841 42.26902ZM201.34216 33.17527Q201.34216 35.17527 202.15466 36.128395Q202.96716 37.08152 204.12341 37.08152Q205.29529 37.08152 206.12341 36.097145Q206.96716 35.11277 206.96716 33.01902Q206.96716 31.05027 206.13904 30.065895Q205.32654 29.065895 204.20154 29.065895Q203.07654 29.065895 202.20154 30.128395Q201.34216 31.17527 201.34216 33.17527ZM210.04529 35.20652L211.79529 34.92527Q211.93591 35.972145 212.60779 36.534645Q213.27966 37.08152 214.48279 37.08152Q215.68591 37.08152 216.26404 36.597145Q216.85779 36.097145 216.85779 35.440895Q216.85779 34.847145 216.34216 34.503395Q215.98279 34.26902 214.54529 33.909645Q212.60779 33.409645 211.85779 33.065895Q211.12341 32.70652 210.73279 32.08152Q210.34216 31.440895 210.34216 30.67527Q210.34216 29.98777 210.65466 29.39402Q210.98279 28.80027 211.52966 28.409645Q211.93591 28.11277 212.63904 27.909645Q213.35779 27.690895 214.17029 27.690895Q215.38904 27.690895 216.31091 28.05027Q217.23279 28.39402 217.67029 29.003395Q218.10779 29.597145 218.27966 30.597145L216.56091 30.83152Q216.43591 30.034645 215.87341 29.597145Q215.31091 29.14402 214.29529 29.14402Q213.07654 29.14402 212.56091 29.55027Q212.04529 29.940895 212.04529 30.472145Q212.04529 30.815895 212.26404 31.097145Q212.46716 31.378395 212.93591 31.565895Q213.20154 31.659645 214.48279 32.003395Q216.35779 32.503395 217.09216 32.83152Q217.82654 33.14402 218.24841 33.753395Q218.67029 34.347145 218.67029 35.253395Q218.67029 36.128395 218.15466 36.909645Q217.63904 37.690895 216.67029 38.11277Q215.70154 38.534645 214.48279 38.534645Q212.46716 38.534645 211.40466 37.690895Q210.34216 36.847145 210.04529 35.20652ZM220.74841 38.30027L220.74841 23.98777L222.51404 23.98777L222.51404 29.11277Q223.74841 27.690895 225.62341 27.690895Q226.76404 27.690895 227.60779 28.14402Q228.46716 28.597145 228.82654 29.409645Q229.20154 30.20652 229.20154 31.722145L229.20154 38.30027L227.45154 38.30027L227.45154 31.722145Q227.45154 30.409645 226.87341 29.815895Q226.29529 29.20652 225.26404 29.20652Q224.48279 29.20652 223.77966 29.61277Q223.09216 30.01902 222.79529 30.722145Q222.51404 31.409645 222.51404 32.628395L222.51404 38.30027L220.74841 38.30027ZM231.10779 33.11277Q231.10779 30.23777 232.70154 28.847145Q234.04529 27.690895 235.96716 27.690895Q238.10779 27.690895 239.45154 29.097145Q240.81091 30.503395 240.81091 32.972145Q240.81091 34.972145 240.21716 36.128395Q239.62341 37.26902 238.46716 37.909645Q237.32654 38.534645 235.96716 38.534645Q233.77966 38.534645 232.43591 37.14402Q231.10779 35.73777 231.10779 33.11277ZM232.90466 33.11277Q232.90466 35.11277 233.76404 36.097145Q234.63904 37.08152 235.96716 37.08152Q237.27966 37.08152 238.13904 36.097145Q239.01404 35.097145 239.01404 33.05027Q239.01404 31.128395 238.13904 30.14402Q237.26404 29.14402 235.96716 29.14402Q234.63904 29.14402 233.76404 30.14402Q232.90466 31.128395 232.90466 33.11277ZM246.59216 36.722145L246.84216 38.284645Q246.10779 38.440895 245.51404 38.440895Q244.56091 38.440895 244.02966 38.14402Q243.51404 37.83152 243.29529 37.347145Q243.07654 36.847145 243.07654 35.26902L243.07654 29.30027L241.79529 29.30027L241.79529 27.92527L243.07654 27.92527L243.07654 25.36277L244.82654 24.30027L244.82654 27.92527L246.59216 27.92527L246.59216 29.30027L244.82654 29.30027L244.82654 35.36277Q244.82654 36.11277 244.92029 36.33152Q245.01404 36.534645 245.21716 36.67527Q245.43591 36.80027 245.82654 36.80027Q246.10779 36.80027 246.59216 36.722145ZM255.01404 38.30027L255.01404 23.98777L261.3578 23.98777Q263.26404 23.98777 264.26404 24.378395Q265.26404 24.753395 265.8578 25.73777Q266.45154 26.70652 266.45154 27.89402Q266.45154 29.409645 265.46716 30.45652Q264.4828 31.503395 262.4203 31.784645Q263.1703 32.14402 263.5609 32.503395Q264.38904 33.253395 265.13904 34.409645L267.6234 38.30027L265.2484 38.30027L263.34216 35.315895Q262.51404 34.034645 261.9828 33.347145Q261.45154 32.659645 261.01404 32.39402Q260.59216 32.11277 260.15466 32.003395Q259.82654 31.940895 259.1078 31.940895L256.90466 31.940895L256.90466 38.30027L255.01404 38.30027ZM256.90466 30.30027L260.9828 30.30027Q262.27966 30.30027 262.9984 30.034645Q263.7328 29.76902 264.1078 29.17527Q264.4984 28.58152 264.4984 27.89402Q264.4984 26.878395 263.76404 26.222145Q263.02966 25.565895 261.4359 25.565895L256.90466 25.565895L256.90466 30.30027ZM275.8578 34.95652L277.6703 35.190895Q277.2484 36.76902 276.07654 37.659645Q274.9203 38.534645 273.1078 38.534645Q270.84216 38.534645 269.4984 37.14402Q268.1703 35.73777 268.1703 33.20652Q268.1703 30.58152 269.51404 29.14402Q270.8578 27.690895 273.01404 27.690895Q275.09216 27.690895 276.40466 29.11277Q277.7328 30.51902 277.7328 33.097145Q277.7328 33.253395 277.71716 33.565895L269.9828 33.565895Q270.07654 35.26902 270.95154 36.17527Q271.82654 37.08152 273.1234 37.08152Q274.09216 37.08152 274.76404 36.58152Q275.45154 36.065895 275.8578 34.95652ZM270.07654 32.11277L275.8734 32.11277Q275.76404 30.815895 275.21716 30.159645Q274.3734 29.14402 273.02966 29.14402Q271.82654 29.14402 270.9984 29.95652Q270.1703 30.753395 270.07654 32.11277ZM279.0453 35.20652L280.7953 34.92527Q280.9359 35.972145 281.6078 36.534645Q282.27966 37.08152 283.4828 37.08152Q284.6859 37.08152 285.26404 36.597145Q285.8578 36.097145 285.8578 35.440895Q285.8578 34.847145 285.34216 34.503395Q284.9828 34.26902 283.5453 33.909645Q281.6078 33.409645 280.8578 33.065895Q280.1234 32.70652 279.7328 32.08152Q279.34216 31.440895 279.34216 30.67527Q279.34216 29.98777 279.65466 29.39402Q279.9828 28.80027 280.52966 28.409645Q280.9359 28.11277 281.63904 27.909645Q282.3578 27.690895 283.1703 27.690895Q284.38904 27.690895 285.3109 28.05027Q286.2328 28.39402 286.6703 29.003395Q287.1078 29.597145 287.27966 30.597145L285.5609 30.83152Q285.4359 30.034645 284.8734 29.597145Q284.3109 29.14402 283.2953 29.14402Q282.07654 29.14402 281.5609 29.55027Q281.0453 29.940895 281.0453 30.472145Q281.0453 30.815895 281.26404 31.097145Q281.46716 31.378395 281.9359 31.565895Q282.20154 31.659645 283.4828 32.003395Q285.3578 32.503395 286.09216 32.83152Q286.82654 33.14402 287.2484 33.753395Q287.6703 34.347145 287.6703 35.253395Q287.6703 36.128395 287.15466 36.909645Q286.63904 37.690895 285.6703 38.11277Q284.70154 38.534645 283.4828 38.534645Q281.46716 38.534645 280.40466 37.690895Q279.34216 36.847145 279.0453 35.20652ZM293.59216 36.722145L293.84216 38.284645Q293.1078 38.440895 292.51404 38.440895Q291.5609 38.440895 291.02966 38.14402Q290.51404 37.83152 290.2953 37.347145Q290.07654 36.847145 290.07654 35.26902L290.07654 29.30027L288.7953 29.30027L288.7953 27.92527L290.07654 27.92527L290.07654 25.36277L291.82654 24.30027L291.82654 27.92527L293.59216 27.92527L293.59216 29.30027L291.82654 29.30027L291.82654 35.36277Q291.82654 36.11277 291.9203 36.33152Q292.01404 36.534645 292.21716 36.67527Q292.4359 36.80027 292.82654 36.80027Q293.1078 36.80027 293.59216 36.722145ZM295.1078 33.11277Q295.1078 30.23777 296.70154 28.847145Q298.0453 27.690895 299.96716 27.690895Q302.1078 27.690895 303.45154 29.097145Q304.8109 30.503395 304.8109 32.972145Q304.8109 34.972145 304.21716 36.128395Q303.6234 37.26902 302.46716 37.909645Q301.32654 38.534645 299.96716 38.534645Q297.77966 38.534645 296.4359 37.14402Q295.1078 35.73777 295.1078 33.11277ZM296.90466 33.11277Q296.90466 35.11277 297.76404 36.097145Q298.63904 37.08152 299.96716 37.08152Q301.27966 37.08152 302.13904 36.097145Q303.01404 35.097145 303.01404 33.05027Q303.01404 31.128395 302.13904 30.14402Q301.26404 29.14402 299.96716 29.14402Q298.63904 29.14402 297.76404 30.14402Q296.90466 31.128395 296.90466 33.11277ZM306.7328 38.30027L306.7328 27.92527L308.3109 27.92527L308.3109 29.503395Q308.9203 28.39402 309.4359 28.05027Q309.95154 27.690895 310.5609 27.690895Q311.45154 27.690895 312.3734 28.253395L311.76404 29.89402Q311.1234 29.503395 310.4828 29.503395Q309.90466 29.503395 309.4359 29.86277Q308.9828 30.20652 308.77966 30.815895Q308.4984 31.753395 308.4984 32.86277L308.4984 38.30027L306.7328 38.30027ZM320.8578 34.95652L322.6703 35.190895Q322.2484 36.76902 321.07654 37.659645Q319.9203 38.534645 318.1078 38.534645Q315.84216 38.534645 314.4984 37.14402Q313.1703 35.73777 313.1703 33.20652Q313.1703 30.58152 314.51404 29.14402Q315.8578 27.690895 318.01404 27.690895Q320.09216 27.690895 321.40466 29.11277Q322.7328 30.51902 322.7328 33.097145Q322.7328 33.253395 322.71716 33.565895L314.9828 33.565895Q315.07654 35.26902 315.95154 36.17527Q316.82654 37.08152 318.1234 37.08152Q319.09216 37.08152 319.76404 36.58152Q320.45154 36.065895 320.8578 34.95652ZM315.07654 32.11277L320.8734 32.11277Q320.76404 30.815895 320.21716 30.159645Q319.3734 29.14402 318.02966 29.14402Q316.82654 29.14402 315.9984 29.95652Q315.1703 30.753395 315.07654 32.11277ZM334.1078 42.503395Q332.65466 40.67527 331.65466 38.222145Q330.65466 35.753395 330.65466 33.11277Q330.65466 30.784645 331.40466 28.659645Q332.27966 26.190895 334.1078 23.73777L335.3734 23.73777Q334.1859 25.76902 333.8109 26.64402Q333.21716 27.98777 332.8734 29.45652Q332.45154 31.284645 332.45154 33.128395Q332.45154 37.815895 335.3734 42.503395L334.1078 42.503395ZM337.34216 33.70652L339.1234 33.55027Q339.2484 34.61277 339.70154 35.30027Q340.1703 35.98777 341.13904 36.42527Q342.1234 36.847145 343.3578 36.847145Q344.4359 36.847145 345.26404 36.534645Q346.09216 36.20652 346.4984 35.64402Q346.90466 35.08152 346.90466 34.409645Q346.90466 33.73777 346.51404 33.23777Q346.1234 32.73777 345.2328 32.39402Q344.65466 32.159645 342.6703 31.690895Q340.70154 31.222145 339.9203 30.80027Q338.88904 30.26902 338.38904 29.472145Q337.88904 28.67527 337.88904 27.690895Q337.88904 26.597145 338.4984 25.659645Q339.1078 24.722145 340.2953 24.23777Q341.4828 23.73777 342.9203 23.73777Q344.51404 23.73777 345.7328 24.253395Q346.95154 24.76902 347.59216 25.76902Q348.2484 26.753395 348.2953 28.01902L346.4828 28.159645Q346.34216 26.80027 345.4984 26.11277Q344.65466 25.409645 342.9984 25.409645Q341.27966 25.409645 340.4828 26.05027Q339.70154 26.67527 339.70154 27.55027Q339.70154 28.33152 340.26404 28.83152Q340.8109 29.33152 343.1234 29.847145Q345.4359 30.36277 346.2953 30.753395Q347.5453 31.33152 348.13904 32.222145Q348.7328 33.097145 348.7328 34.253395Q348.7328 35.39402 348.07654 36.409645Q347.4203 37.42527 346.1859 37.98777Q344.96716 38.55027 343.4359 38.55027Q341.4984 38.55027 340.1859 37.98777Q338.8734 37.409645 338.1234 36.26902Q337.3734 35.128395 337.34216 33.70652ZM350.7484 38.30027L350.7484 27.92527L352.32654 27.92527L352.32654 29.378395Q352.8109 28.628395 353.6234 28.159645Q354.4359 27.690895 355.46716 27.690895Q356.6234 27.690895 357.3578 28.17527Q358.09216 28.64402 358.40466 29.503395Q359.63904 27.690895 361.6078 27.690895Q363.15466 27.690895 363.9828 28.55027Q364.8109 29.409645 364.8109 31.17527L364.8109 38.30027L363.0609 38.30027L363.0609 31.76902Q363.0609 30.70652 362.88904 30.253395Q362.71716 29.784645 362.26404 29.503395Q361.82654 29.222145 361.21716 29.222145Q360.1234 29.222145 359.38904 29.95652Q358.6703 30.67527 358.6703 32.26902L358.6703 38.30027L356.9203 38.30027L356.9203 31.565895Q356.9203 30.39402 356.4828 29.815895Q356.0609 29.222145 355.07654 29.222145Q354.34216 29.222145 353.70154 29.61277Q353.07654 30.003395 352.7953 30.753395Q352.51404 31.503395 352.51404 32.92527L352.51404 38.30027L350.7484 38.30027ZM374.52966 37.01902Q373.5453 37.847145 372.63904 38.190895Q371.7328 38.534645 370.70154 38.534645Q368.9984 38.534645 368.07654 37.70652Q367.15466 36.86277 367.15466 35.565895Q367.15466 34.80027 367.4984 34.17527Q367.8578 33.55027 368.4203 33.17527Q368.9828 32.784645 369.6859 32.58152Q370.20154 32.45652 371.2484 32.315895Q373.3734 32.065895 374.3734 31.722145Q374.38904 31.36277 374.38904 31.253395Q374.38904 30.190895 373.88904 29.73777Q373.21716 29.14402 371.88904 29.14402Q370.63904 29.14402 370.0453 29.58152Q369.46716 30.01902 369.1859 31.128395L367.46716 30.89402Q367.70154 29.784645 368.2328 29.11277Q368.76404 28.42527 369.77966 28.065895Q370.7953 27.690895 372.13904 27.690895Q373.46716 27.690895 374.2953 28.003395Q375.1234 28.315895 375.51404 28.80027Q375.90466 29.26902 376.0609 29.98777Q376.15466 30.440895 376.15466 31.61277L376.15466 33.95652Q376.15466 36.409645 376.26404 37.065895Q376.3734 37.70652 376.71716 38.30027L374.8734 38.30027Q374.6078 37.753395 374.52966 37.01902ZM374.3734 33.097145Q373.4203 33.48777 371.4984 33.753395Q370.4203 33.909645 369.96716 34.11277Q369.52966 34.30027 369.27966 34.67527Q369.02966 35.05027 369.02966 35.51902Q369.02966 36.222145 369.5609 36.690895Q370.09216 37.159645 371.1234 37.159645Q372.13904 37.159645 372.9203 36.722145Q373.71716 36.26902 374.09216 35.503395Q374.3734 34.89402 374.3734 33.73777L374.3734 33.097145ZM378.71716 38.30027L378.71716 23.98777L380.46716 23.98777L380.46716 38.30027L378.71716 38.30027ZM382.71716 38.30027L382.71716 23.98777L384.46716 23.98777L384.46716 38.30027L382.71716 38.30027ZM393.8578 34.95652L395.6703 35.190895Q395.2484 36.76902 394.07654 37.659645Q392.9203 38.534645 391.1078 38.534645Q388.84216 38.534645 387.4984 37.14402Q386.1703 35.73777 386.1703 33.20652Q386.1703 30.58152 387.51404 29.14402Q388.8578 27.690895 391.01404 27.690895Q393.09216 27.690895 394.40466 29.11277Q395.7328 30.51902 395.7328 33.097145Q395.7328 33.253395 395.71716 33.565895L387.9828 33.565895Q388.07654 35.26902 388.95154 36.17527Q389.82654 37.08152 391.1234 37.08152Q392.09216 37.08152 392.76404 36.58152Q393.45154 36.065895 393.8578 34.95652ZM388.07654 32.11277L393.8734 32.11277Q393.76404 30.815895 393.21716 30.159645Q392.3734 29.14402 391.02966 29.14402Q389.82654 29.14402 388.9984 29.95652Q388.1703 30.753395 388.07654 32.11277ZM397.7328 38.30027L397.7328 27.92527L399.3109 27.92527L399.3109 29.503395Q399.9203 28.39402 400.4359 28.05027Q400.95154 27.690895 401.5609 27.690895Q402.45154 27.690895 403.3734 28.253395L402.76404 29.89402Q402.1234 29.503395 401.4828 29.503395Q400.90466 29.503395 400.4359 29.86277Q399.9828 30.20652 399.77966 30.815895Q399.4984 31.753395 399.4984 32.86277L399.4984 38.30027L397.7328 38.30027ZM410.76404 26.003395L410.76404 23.98777L412.52966 23.98777L412.52966 26.003395L410.76404 26.003395ZM410.76404 38.30027L410.76404 27.92527L412.52966 27.92527L412.52966 38.30027L410.76404 38.30027ZM414.0453 35.20652L415.7953 34.92527Q415.9359 35.972145 416.6078 36.534645Q417.27966 37.08152 418.4828 37.08152Q419.6859 37.08152 420.26404 36.597145Q420.8578 36.097145 420.8578 35.440895Q420.8578 34.847145 420.34216 34.503395Q419.9828 34.26902 418.5453 33.909645Q416.6078 33.409645 415.8578 33.065895Q415.1234 32.70652 414.7328 32.08152Q414.34216 31.440895 414.34216 30.67527Q414.34216 29.98777 414.65466 29.39402Q414.9828 28.80027 415.52966 28.409645Q415.9359 28.11277 416.63904 27.909645Q417.3578 27.690895 418.1703 27.690895Q419.38904 27.690895 420.3109 28.05027Q421.2328 28.39402 421.6703 29.003395Q422.1078 29.597145 422.27966 30.597145L420.5609 30.83152Q420.4359 30.034645 419.8734 29.597145Q419.3109 29.14402 418.2953 29.14402Q417.07654 29.14402 416.5609 29.55027Q416.0453 29.940895 416.0453 30.472145Q416.0453 30.815895 416.26404 31.097145Q416.46716 31.378395 416.9359 31.565895Q417.20154 31.659645 418.4828 32.003395Q420.3578 32.503395 421.09216 32.83152Q421.82654 33.14402 422.2484 33.753395Q422.6703 34.347145 422.6703 35.253395Q422.6703 36.128395 422.15466 36.909645Q421.63904 37.690895 420.6703 38.11277Q419.70154 38.534645 418.4828 38.534645Q416.46716 38.534645 415.40466 37.690895Q414.34216 36.847145 414.0453 35.20652ZM432.3734 38.30027L430.7484 38.30027L430.7484 23.98777L432.4984 23.98777L432.4984 29.097145Q433.6234 27.690895 435.34216 27.690895Q436.2953 27.690895 437.15466 28.08152Q438.01404 28.472145 438.5609 29.17527Q439.1078 29.86277 439.4203 30.847145Q439.7328 31.83152 439.7328 32.95652Q439.7328 35.628395 438.4203 37.08152Q437.1078 38.534645 435.26404 38.534645Q433.4203 38.534645 432.3734 37.003395L432.3734 38.30027ZM432.3578 33.034645Q432.3578 34.89402 432.8578 35.73777Q433.70154 37.08152 435.1078 37.08152Q436.26404 37.08152 437.09216 36.08152Q437.9359 35.08152 437.9359 33.097145Q437.9359 31.065895 437.1234 30.11277Q436.32654 29.14402 435.1859 29.14402Q434.02966 29.14402 433.1859 30.14402Q432.3578 31.14402 432.3578 33.034645ZM448.8578 34.95652L450.6703 35.190895Q450.2484 36.76902 449.07654 37.659645Q447.9203 38.534645 446.1078 38.534645Q443.84216 38.534645 442.4984 37.14402Q441.1703 35.73777 441.1703 33.20652Q441.1703 30.58152 442.51404 29.14402Q443.8578 27.690895 446.01404 27.690895Q448.09216 27.690895 449.40466 29.11277Q450.7328 30.51902 450.7328 33.097145Q450.7328 33.253395 450.71716 33.565895L442.9828 33.565895Q443.07654 35.26902 443.95154 36.17527Q444.82654 37.08152 446.1234 37.08152Q447.09216 37.08152 447.76404 36.58152Q448.45154 36.065895 448.8578 34.95652ZM443.07654 32.11277L448.8734 32.11277Q448.76404 30.815895 448.21716 30.159645Q447.3734 29.14402 446.02966 29.14402Q444.82654 29.14402 443.9984 29.95652Q443.1703 30.753395 443.07654 32.11277ZM456.59216 36.722145L456.84216 38.284645Q456.1078 38.440895 455.51404 38.440895Q454.5609 38.440895 454.02966 38.14402Q453.51404 37.83152 453.2953 37.347145Q453.07654 36.847145 453.07654 35.26902L453.07654 29.30027L451.7953 29.30027L451.7953 27.92527L453.07654 27.92527L453.07654 25.36277L454.82654 24.30027L454.82654 27.92527L456.59216 27.92527L456.59216 29.30027L454.82654 29.30027L454.82654 35.36277Q454.82654 36.11277 454.9203 36.33152Q455.01404 36.534645 455.21716 36.67527Q455.4359 36.80027 455.82654 36.80027Q456.1078 36.80027 456.59216 36.722145ZM462.59216 36.722145L462.84216 38.284645Q462.1078 38.440895 461.51404 38.440895Q460.5609 38.440895 460.02966 38.14402Q459.51404 37.83152 459.2953 37.347145Q459.07654 36.847145 459.07654 35.26902L459.07654 29.30027L457.7953 29.30027L457.7953 27.92527L459.07654 27.92527L459.07654 25.36277L460.82654 24.30027L460.82654 27.92527L462.59216 27.92527L462.59216 29.30027L460.82654 29.30027L460.82654 35.36277Q460.82654 36.11277 460.9203 36.33152Q461.01404 36.534645 461.21716 36.67527Q461.4359 36.80027 461.82654 36.80027Q462.1078 36.80027 462.59216 36.722145ZM471.8578 34.95652L473.6703 35.190895Q473.2484 36.76902 472.07654 37.659645Q470.9203 38.534645 469.1078 38.534645Q466.84216 38.534645 465.4984 37.14402Q464.1703 35.73777 464.1703 33.20652Q464.1703 30.58152 465.51404 29.14402Q466.8578 27.690895 469.01404 27.690895Q471.09216 27.690895 472.40466 29.11277Q473.7328 30.51902 473.7328 33.097145Q473.7328 33.253395 473.71716 33.565895L465.9828 33.565895Q466.07654 35.26902 466.95154 36.17527Q467.82654 37.08152 469.1234 37.08152Q470.09216 37.08152 470.76404 36.58152Q471.45154 36.065895 471.8578 34.95652ZM466.07654 32.11277L471.8734 32.11277Q471.76404 30.815895 471.21716 30.159645Q470.3734 29.14402 469.02966 29.14402Q467.82654 29.14402 466.9984 29.95652Q466.1703 30.753395 466.07654 32.11277ZM475.7328 38.30027L475.7328 27.92527L477.3109 27.92527L477.3109 29.503395Q477.9203 28.39402 478.4359 28.05027Q478.95154 27.690895 479.5609 27.690895Q480.45154 27.690895 481.3734 28.253395L480.76404 29.89402Q480.1234 29.503395 479.4828 29.503395Q478.90466 29.503395 478.4359 29.86277Q477.9828 30.20652 477.77966 30.815895Q477.4984 31.753395 477.4984 32.86277L477.4984 38.30027L475.7328 38.30027ZM483.90466 42.503395L482.65466 42.503395Q485.5609 37.815895 485.5609 33.128395Q485.5609 31.284645 485.15466 29.48777Q484.8109 28.01902 484.21716 26.67527Q483.84216 25.784645 482.65466 23.73777L483.90466 23.73777Q485.7484 26.190895 486.6234 28.659645Q487.3734 30.784645 487.3734 33.11277Q487.3734 35.753395 486.3578 38.222145Q485.3578 40.67527 483.90466 42.503395Z" fill-rule="nonzero"/></svg>